<?xml version="1.0" encoding="UTF-8"?>
<svg id="Layer_1" data-name="Layer 1" xmlns="http://www.w3.org/2000/svg" viewBox="0 0 543.58 675.55">
  <defs>
    <style>
      .cls-1 {
        fill: #d11818;
      }
    </style>
  </defs>
  <path class="cls-1" d="M243.97,78.72l.59.05.53.11.51.14s.47.26.56.32.34.24.46.35"/>
  <path class="cls-1" d="M.11,91.09c6.38,6.23,11.94,15.88,19.96,22.81.63.54,11.1,16.57,11.72,17.11,1.38,1.18-6.11-17-4.75-15.84,2.51,2.13,5.01,4.25,7.43,6.28,1.05.88,7.07,8.07,8.09,8.92,10.53,8.81,13.95,9.34,13.95,9.34l35.17,33.27-10.93-21.86,29.47,34.69-.95-5.23,7.58,4.34,23.79,22.28,24.5,16.06c2.2,2.46,4.41,4.92,6.62,7.38,4.29,4.77,8.59,9.5,12.87,14.2.1.12,1.58,1.76,2.84,1.32.65-.22.96-.89,1.32-1.7.95-2.07.69-3.89,1.23-3.98.09-.02.25,0,.5.32l.32.66.22.6.41.47.88.95.91,1.17,2.43,2.74,1.14,1.51,2.08,2.74,1.26,1.74.88,1.14,1.23,1.67,1.48,2.27,1.2,1.58,1.48,1.96,1.45,1.99,1.51,1.89,1.64,2.18,1.42,1.8,1.7,2.24,1.8,2.3,1.77,2.37,1.36,1.64,1.07,1.32,1.42,1.77,1.39,1.83,1.64,2.02.6.85.91,1.04,1.67,2.15,1.64,1.96,1.61,2.08,1.61,1.96,1.8,2.08,1.77,2.08,1.32,1.61,1.67,1.99,2.11,2.4,1.74,1.96,1.96,2.05,1.51,1.55,1.17,1.04.95.91,1.2.85.5.35,1.26.6,1.14.57,1.14.6,1.58.98.98.79,1.1.91,1.99,1.83,2.46,2.24,2.71,2.33,3.47,2.87,2.87,2.24,1.8,1.32,1.42,1.14,3.47,2.68,2.4,1.74,1.74,1.26,1.99,1.42,2.52,1.77,2.81,1.86,3.09,2.15,2.4,1.64,2.27,1.48,2.15,1.45,1.01.54,2.02,1.01,1.8.79,1.48.79,1.36.69.22.25-.28.76-.35,1.23-5.62,3.09-5.49,3.19-5.77,3.5-2.81,1.86-4.26,2.97-4.23,3.22-2.52,2.05-2.59,2.3-2.24,2.3-1.7,1.8-1.92,2.4-1.58,2.27-1.23,2.02-1.17,2.24-.95,1.99-1.17,3.03-1.04,3.31-.57,2.43-.57,3.5-.57,4.51-.35,4.01-.13,3.22.22,1.89s.13.28.32.54c.19.25,1.29.35,1.29.35l.73-.22.98-.73s.73-.88,1.1-1.39,1.58-2.68,1.58-2.68l.95-1.48s.32-.5.35-.66c.03-.16.06-.63.06-.63l.28-.47.6-.06.79.09s-.76,1.86-.91,2.62c-.16.76-1.1,3.91-1.17,4.98-.06,1.07-.44,3.19-.44,4.54s.09,2.15.09,2.15l.28,3.03.82,3.88,1.1,3.5.82,1.83s.88,1.58,1.7,2.43c.82.85,1.92.44,1.92.44l1.39-1.74,1.17-1.42.32.54,1.1,1.29,1.1,1.2,1.55,1.55,2.62,2.08,2.08,1.26s.54-.54.69-1.01c.16-.47.19-.19.41-.91.22-.73,1.04-.32,1.04-.32l.57.22.44.28,1.7,1.55,2.15,1.89,1.92,1.74.66,1.32,1.04,2.65,1.14,3.34,1.23,3.47,1.67,3.47,1.86,4.04,2.56,5.77,1.48,3.79,1.07,3.19,1.14,4.13.88,4.26.82,6.03.35,3.44.25,4.04v2.52l-.22,3.31-.35,2.74-.54,3.19-.98,3.82-1.14,3.44-1.83,4.48-2.3,4.51-3.69,6.12-4.04,5.93-3.15,4.1-2.74,3.03-4.13,3.88-4.73,3.6-3.97,2.46-5.25,3.45-3.69,2.65c-1.56-.62-1.99,1.04-1.99,1.04l-1.66,2.18-2.74,3.41-4.07,4.59-3.12,5.02-1.7,4.45-1.14,5.77-.57,7.1.19,5.02.43,4.12.38,4.26.71,4.45,1.18,5.96,1.51,5.44.95,3.45,1.14,2.84,1.09,1.42s.71,1.09,2.46.76,1.89-.66,1.89-.66l.19-1.56.62-3.74.14.33.62.95.8,1.37.76,1.37,1.23,2.22,1.28,2.03.99,1.32,2.13,2.37,1.61,2.03,2.98,3.69,2.51,2.98,3.88,4.59,4.02,4.92s1.28,1.85,1.8,2.13c.52.28,1.56.33,2.18.09s.85-.57.85-.57c0,0,.85-.57,1.28-.62.43-.05.85.38.85.38l1.09.76,1.56,1.14,2.18,1.66,2.46,1.56s1.42.71,2.32.66c.9-.05,1.23-.66,1.51-1.04.28-.38.33-.85.33-.85l.05-.57,1.37.28.28.52.33.57.62.66.57.43.9.57,1.85,1.09,1.99,1.14,3.03,1.51,3.64,1.89,1.66.76,1.32.24,1.37-.09.38-.33.25-.5-.21-1.06-.62-.95-1.23-1.94-.05-.66.52-.19.76.33.9.57,1.04,1.04,1.09.52,1.94.8,4.73,1.51s3.31.62,3.79.52c.47-.09.85-.24.85-.24l.19-.8v-1.32l.19-1.18h1.42l2.56.09,3.08.05,2.65-.09,3.22-.28,3.08-.57,4.45-1.42,4.64-2.22s1.28-.76,2.13-1.61,1.42-1.32,1.42-1.32l1.99-1.51,1.51-.62,1.75-.38,1.89-.38,2.65-.33,3.03-.66s.52,0,2.65-1.09c2.13-1.09,2.7-1.61,2.7-1.61,0,0,.8-.19,3.79-3.22,2.98-3.03,3.36-3.74,4.59-5.44,1.23-1.7,1.56-2.37,1.56-2.37l1.61-2.84s.38-1.32.8-2.08.99-3.31.99-3.31l.57-2.79.14-3.08-.33-2.93-.71-2.65-1.23-3.03-1.51-2.18-1.61-1.42-1.42-.8-1.42-.66-1.56-.85-.95-.9-.57-.99-.66-1.66-.71-1.85-.8-1.56-1.8-2.08s-2.32-2.41-3.31-3.41-4.92-3.27-4.92-3.27l-2.93-1.28-2.93-1.04-2.79-.8-3.93-1.18-3.12-1.04-1.51-.57-1.32-.71-1.56-1.04-1.56-1.09-1.89-1.23-1.8-1.04-1.51-.71-1.61-.43-1.94-.19-1.56-.14-2.08-.24-1.66-.38s-1.09-.24-1.37-.43c-.28-.19-.14-.66-.14-.66l.38-.9.71-1.32,1.28-2.08,1.94-3.22,1.28-2.18,1.85-3.27s.85-1.51,1.18-2.37.57-1.61.57-1.61l1.51-.95s1.75-1.14,2.32-1.51c.57-.38.33-.33.33-.33l-.62-1.51-.76-1.47-1.04-2.18,1.04.38,2.32.66,2.79.71,2.65.57,3.41.62,5.06.47,2.37.14h4.26s2.74-.33,3.22-.52c.47-.19.43-.47.43-.47l.33-.52-.24-.71-.47-2.08,1.56-.05,2.08-.09,2.46-.28,2.08-.33,2.6-.76,4.5-1.42,4.87-1.47,4.87-1.32,6.1-1.42s3.69-.95,5.25-1.75c1.56-.8,1.04-.66,2.46-1.23,1.42-.57,2.27-1.85,2.74-2.41.47-.57,1.09-1.75,1.09-1.75l.28-1.23.14-.76-.14-.43h-5.35l-.33-.38.35-.74.63-.69,2.15-1.26,2.65-1.39,4.42-2.15,1.89-1.01,1.89-1.64,2.02-2.15,1.77-1.89,1.26-1.01.88-1.14,1.26-2.15,1.51-2.15,1.59-1.49.22-.33.41-.53.47-.57.64-.81.76-.9.73-.89,1.27-1.55.85-1.03s1.56-1.98,1.83-2.33.94-1.46.94-1.46l.3-.53c.27-.33,1.86-3.87,2.05-4.34s.95-2.48.95-2.48l.63-1.81s.75-2.45.88-2.95c.13-.5.59-2.33.69-2.76.1-.42.42-1.95.53-2.6s.29-1.61.35-2.14c.06-.53.18-1.34.22-1.79.04-.46.15-1.63.18-2.01.03-.38.07-1.76.07-1.76,0,0,.02-1.66,0-2.04s-.16-1.78-.16-1.78l-.2-1.13-.16-.68-.35-1.28-.4-1.33-.34-1.08-.43-1.35-.24-.75-.18-.65-.32-1.07-.17-.64-.15-.73-.12-.77-.03-.59.02-.52.04-.46.08-.54.13-.55.23-.71.36-.86.21-.5.37-.73.36-.73.28-.72.17-.57.11-.7.04-.51v-.41l-.05-.66-.15-.82-.22-.84-.19-.54-.33-.86-.34-.72s-.34-.72-.51-1.01c-.17-.29-.55-1.01-.73-1.24-.18-.23-.68-.92-.68-.92l-.69-.82-.59-.58-.66-.56-.72-.52-.72-.47-1.08-.57s-1.31-.57-1.87-.75c-.55-.18-1.92-.49-1.92-.49l-.89-.18-1.48-.19-1.74-.16-1.25-.03h-1.12s-1.22.03-1.22.03l-.96.03-.9.05-1.03.14-1.63.24-3.92.73-2.05.48-2.11.57-1.61.52-1.39.57-1.19.66-.54.45-.38.39s-.29.49-.16.84.36.63.36.63l.04.17.63.02s1.29-.07,2.71.14c1.42.21,1.36.22,1.36.22l1.18.19,1.41.28,1.42.44.59.21,1.11.46.97.53.62.4.78.6s.49.43.77.77c.28.34.64.84.64.84l.51.86.27.59.22.59-.67-.1-1.88-.25-1.4-.16-1.78-.13-1.34-.09-1.69-.03-1.23-.03h-1.25l-1.48.06-.98.05-1.01.08-1.29.13s-.68.06-1.18.14c-.5.08-2.13.3-2.13.3l-2.24.41-1.88.43-2.43.65-1.96.52-1.5.44-.91.36-1.19.65-.71.76-.52,1.04-.21.73.09,1.89-2.29.52-1.18.33-.26-.17-.4-.43-.24-.69-.26-1.11-.07-.99-.05-.8v-2.29c0-.66-.09-3.22-.14-4.12-.05-.9-.28-1.75-.28-1.75l-.24-.61.35-.38,1.01-.5,3.28-1.45,3.28-1.29s3.82-1.32,4.89-1.77c1.07-.44,2.37-1.17,2.37-1.17l1.83-.95,2.9-2.05,1.61-1.32s2.59-2.37,3.82-3.72c1.23-1.36,2.68-3.34,3.09-4.01.41-.66,1.7-2.56,2.02-3.12.32-.57,2.11-3.94,2.11-3.94,0,0,1.51-2.97,2.02-4.16s1.07-2.9,1.07-2.9c0,0,.22-.79.47-2.21.25-1.42.6-1.77.6-1.77.63-.95.73-.73,1.2-1.17s2.46-1.29,2.46-1.29c0,0,3.47-1.8,5.21-2.93,1.74-1.14,3.56-2.68,4.29-3.44.73-.76,1.32-1.29,2.56-2.87,1.23-1.58,2.56-4.57,2.87-5.96s.22-3.6-.03-4.67-.54-2.5-.54-2.5l-.24-1.09-.99-2.32-1.51-2.6-1.39-2.03-.53-.76c-.31-.44-.68-.81-1.06-1.19-.49-.47-1.3-1.63-2.79-2.84-2.27-1.85-4.02-2.46-4.02-2.46h0c-1.23-.38-2.48-.66-3.76-.84l-2.82-.39-3.31.34-1.21.56c-.63.44-.96,1.19-.86,1.94l.5,1.23,1.69,2.08c.23.28.43.59.61.91l3.1,5.71c.36.72.34,1.56-.05,2.26l-.69,1.25c-.5.89-1.27,1.59-2.21,2l-.84.37c-.86.37-1.8.53-2.74.46l-1.76-.14c-.51-.36-1.18-.51-1.69-.74l-1.99-.95-3.6-1.41-4.07-1-3.27-.24-1.86-.37c-.81-.16-1.58-.47-2.27-.91l-1.27-.8-2.03-1.89-2.27-1.89-1.66-.62c-.93-.25-1.93-.09-2.74.43l-1.14.62-.71.43v-3.03l-.19-126.06,153.44.32c.57-1.07.57-2.52.5-3.97l-.13-2.83c-.1-.36-.19-.87,0-1.39.42-1.15,1.69-.98,2.4-2.15.67-1.1.3-2.5.13-3.15-.22-.82-.6-1.45-.88-1.89-.76-1.22-1.18-1.25-1.64-2.15-.33-.64-.25-1.84-.36-3.09-.16-1.78.05-1.97-.39-2.97-.4-.9-1.97-2.15-3.01-2.85-1.23-1.14-.69-.91-3.93-3.71-1.85-1.6-3.76-3.04-4.42-3.53-.73-.55-2.62-1.96-2.62-1.96.13-.73.19-.82.19-.82.27-.43.94-.46,1.14-.47.32-.02.59.05,1.01.19.45.15,1.06.4,1.77.79.28.12,1.59.65,2.39.67.15,0,.29,0,.29,0,.24-.02.71-.05,1.14-.35.32-.23.49-.5.57-.63.35-.59.33-1.17.32-1.51-.01-.25-.05-1.15-.66-1.89-.51-.62-1.18-.83-1.51-.95-.21-.06-3.09-1.53-4.92-2.43-1.27-.55-2.35-.98-4.51-1.83-1.37-.54-2.45-.96-3.94-1.51-1.35-.5-1.17-.41-3.82-1.36-.99-.35-1.98-.69-2.97-1.04-1.92-.68-2.32-.83-3.06-.85-.21,0-.82.02-2.05.06-.68.03-1.13.05-1.7-.09-.48-.12-.86-.3-1.1-.44-.17-.12-.72-.55-.85-1.29-.05-.26-.03-.49,0-.66.98-.18,1.79-.41,2.43-.63.74-.26,1.49-.43,1.99-.66.97-.45,1.52-.86,1.99-1.23.39-.31.38-.54.54-.91.13-.33.15-.64.16-.79.02-.36-.04-.66-.09-.85-.08-.32-.26-.89-.76-1.32-.45-.4-.95-.51-1.26-.57-2.14-.42-3.75-.54-3.75-.54-2.52-.24-2.95-.13-6.15.09-.8.06-1.79.15-3.34.38-2.27.33-5.69.95-10.09,2.15l-5.43,1.64-7.26,2.56-6.5,2.56-5.9,2.65-5.71,2.49-5.24,2.62-3.6,1.83-2.78,1.39-5.87,2.97-6.75,3.41-4.73,2.27-4.67,2.33-6.06,2.84-4.54,1.89-4.04,1.7-5.8,2.33-6.06,2.27-5.74,2.02-6.44,1.83-2.33.44-.51-.1.87-2.19.72-1.77h-.25s-.37.03-.37.03l-.34.02-.4.04-.49.04-.41.04-.74.05-.67.04-1.11.09-1.66.12-1.71.12-1.41.11-1.32.09-.72.05-.88.07-1.28.09-1.11.09-1.17.09-1.39.1-1.99.14-.85.05-.5.04-.44.04-.37.02-.76.07-.75.04-1.16.05s-.66,0-.95,0-.99-.03-1.51-.05c-.52-.02-.56-.03-.56-.03,0,0-.62-.06-1.09-.1-.48-.04-.55-.07-.55-.07l-.95-.13-.92-.15-.33-.07-.6-.11-1.05-.24-.85-.22-.76-.2-.68-.19-.66-.2-1.18-.38-.73-.25-.34-.12-.26-.1-.18-.07-.14-.05-.2-.08-.41-.16-.3-.12-.32-.13-1.11-.46-1.54-.68-.89-.41-.84-.41-.74-.37-.73-.37-.52-.27-.47-.25-.5-.27-.84-.45-.77-.42-.47-.27-.46-.25-.41-.24-.97-.56-1.41-.82-1.02-.61-1.48-.88-1.23-.75-.83-.52-.68-.46-.28-.21-.18-.15-.07-.08-.15-.21-.2-.35-.14-.33-.09-.31-.06-.29-.07-.38-.04-.28-.05-.34-.07-.6-.1-.52s-.08-.3-.13-.46c-.05-.16-.12-.29-.12-.29l-.12-.21-.15-.22-.13-.15s-.15-.16-.23-.23c-.08-.07-.28-.2-.33-.23s-.23-.12-.25-.14-.24-.11-.24-.11l-.27-.1-.21-.07-.17-.05-.86-.23-.91-.24-.65-.2-.51-.2-.32-.14-.49-.25-.56-.36-.69-.52-.56-.47-.86-.76-.88-.84-.78-.77-1.25-1.22-.69-.66s-.73-.62-.95-.82c-.22-.21-.82-.62-.82-.62l-1.88-1.38-2.25-1.6-2.18-1.53-2.4-1.71-1.9-1.4-1.48-1.13-1.48-1.21-1.18-.99-1.39-1.27s-.63-.58-.86-.78c-.23-.21-.55-.5-.73-.73s-.36-.45-.46-.65c-.09-.21-.11-.33-.11-.33l-.03-.22c.06-.38.2-.53.2-.53l.13-1.45c.39-.45.61-.34.61-.34l2.52.63.6-1.25-.15-.03-.53-.07-.43-.05-.31-.03h-.18s-.07-.01-.07-.01l.16-.18.39-.43.29-.32.2-.22.2-.22-2.13-1.88c-.29-.26-.38-.67-.22-1.02h0c.13-.29.49-.39.75-.22l.53.34c.2.13.37.29.52.47l.56.55c.06.06.12.11.19.16l.59.24.5-.38.3-.02.23-.25.2-.22.33-.36-.12-.22-.13-.2-.16-.23s0-.01-.14-.17c-.13-.16-.22-.26-.22-.26l-.19-.2c-.06-.1-.39-.34-.44-.39s-.45-.33-.45-.33l-.47-.31-.19-.1c-.09-.07-.53-.28-.53-.28l-.56-.25-.45-.2-.4-.17-.38-.16-.37-.15-.25-.11-.23-.11-.33-.17-.25-.14-.31-.2-.27-.18-.16-.11-.16-.12-.29-.2-1.21-.9-1.05-.8-.26-.2-.41-.32-.45-.35-.44-.35-.54-.44-1.6-1.28-3.08-2.51-2.77-2.21-.72-.57-2.1-1.6-1.62-1.16-1.12-.77-.84-.54-.44-.26c-.39-.32-3.79-1.88-3.79-1.88,0,0-1.14-.47-1.67-.71-.54-.24-2.5-1.02-2.5-1.02l-.62-.26s-.08-.35-.08-.58.03-.52.17-.71c.14-.19.44-.28.88-.35.44-.06.96-.03.96-.03,0,0,.68.05,1.23-.08.55-.13.68-.21.68-.21,1.03-.46,2.16-1.09,3.19-1.72,1.03-.63,1.42-.99,1.42-.99,0,0,.44-.33.87-.73.43-.39.87-1.09,1.04-1.53.17-.44.12-.33.12-.68s-.12-.63-.16-.74-.21-.39-.45-.7c-.24-.31-.99-.83-.99-.83,0,0-.46-.31-.65-.43-.19-.12-.9-.47-1.05-.54-.15-.08-1.75-.75-1.75-.75l-1.17-.45-1.56-.56-1.44-.51-1.35-.47-1.06-.4s-.74-.3-1.03-.41c-.29-.12-.74-.31-.87-.37s-.34-.18-.51-.29c-.16-.12-.47-.39-.47-.39,0,0-.24-.23-.48-.45-.24-.23-.26-.23-.34-.3-.08-.07-.45-.36-.55-.42-.1-.06-.42-.23-.42-.23l-.93-.42s-.63-.27-.83-.36c-.2-.08-1.02-.43-1.47-.61-.45-.17-1.06-.41-1.51-.59-.46-.18-1.03-.41-1.91-.76-.88-.35-1.49-.61-2-.84-.51-.22-.95-.44-1.37-.64-.42-.2-.82-.45-1.26-.66s-.72-.43-1.04-.62-.93-.62-1.14-.77-.8-.61-.91-.71c-.11-.09-.5-.44-.5-.44.57-.28,1.35-.44,2.44-.51,1.08-.07,2.81.07,2.81.07l4.16.38c2.06.23,3.51.02,4.39-.22.88-.24,1.37-.8,1.63-1.17.26-.37.34-.89.4-1.37.06-.49-.02-1.06-.11-1.59-.08-.52-.14-.7-.2-.82-.06-.12-.06-.18-.27-.33-.21-.15-.07-.06-.35-.15s-.38-.08-.69-.07c-.31.01-.72.11-.72.11l-1.49.38-.75.12h-.37l-.45-.05s-.74-.1-2.06-.54-2.52-1.04-3.34-1.39c-.82-.35-2.68-1.42-3.97-2.11l-2.18-1.32s-4.79-2.59-6.12-3.41-3.6-1.64-3.6-1.64c0,0-4.89-2.28-5.69-2.74-.79-.46-1.03-.69-1.08-.91-.05-.22.08-.22.08-.22,1.37.07,2.19-.15,2.71-.73.52-.58.56-1.38.56-1.94s-.17-1.14-.17-1.14l-.04-.11-1.42-.43-1.8-.6-1.34-.54-1.79-.88-4.63-2.25s-1.69-.85-2.45-1.21c-.76-.35-3.29-1.66-4.02-2.02-.73-.37-3.66-1.9-4.44-2.33-.78-.43-1.17-.66-1.46-.83-.28-.17-1.49-.92-1.89-1.23s-.67-.56-.88-.8-.15-.31-.15-.41.07-.09.07-.09l7.99-.34.06-.13s.54-3.51.34-3.56c-.2-.05-.43-.11-.77-.19-.34-.08-1.01-.31-1.46-.44s-1.61-.59-2.28-.91c-.67-.32-1.99-1.04-2.85-1.56-.86-.52-1.56-1.05-2.12-1.47-.56-.41-2.02-1.53-2.32-1.76-.3-.24-1.59-1.32-2.14-1.8-.56-.47-1.01-.91-1.53-1.34-.52-.43-1.38-1.27-1.79-1.61-.4-.34-1.48-1.36-2.11-1.95-.63-.59-1.61-1.51-2.03-1.94s-1.55-1.51-1.94-1.92c-.39-.4-1.69-1.74-2.05-2.06-.35-.32-1.36-1.37-1.99-2.01-.63-.64-1.96-2.02-2.52-2.63-.56-.6-.83-.89-1.54-1.62-.71-.73-2.05-2.2-2.54-2.71-.5-.51-1.47-1.57-1.75-1.88s-1.14-1.19-1.32-1.41c-.19-.21-.56-.63-.79-.9-.24-.27-.25-.38-.39-.63-.14-.25-.19-.41-.33-.72s-.35-.66-.49-.92c-.13-.26-.43-.7-.57-.88l-19.92-21.79c-4.13-4.95-1.01-8.41-5.7-12.83-23.97-22.62-4.99-12.12-4.99-12.12L109.1,0,0,1.01l.11,90.08Z"/>
</svg>