<?xml version="1.0" encoding="UTF-8"?>
<svg id="Layer_1" xmlns="http://www.w3.org/2000/svg" version="1.1" viewBox="0 0 300 300">
  <!-- Generator: Adobe Illustrator 29.3.1, SVG Export Plug-In . SVG Version: 2.1.0 Build 151)  -->
  <defs>
    <style>
      .st0 {
        fill: #231f20;
      }
    </style>
  </defs>
  <path class="st0" d="M228.9,125.8h0s0,0,0,0c15.9-43.7,3.9-86-29.4-116.9l-18.9,85.8c-27.9,2.3-44.3,6-55.6,36.3l-55,18.9c2.3,15.9-1.2,23.5-13.4,31.9,16.1,11.5,38.8,11,49.2,8.8-2.2-1.4-9.3-6-11.3-9.5-7.3-12.9,5.3-31.5,25-.7,8.8,8.8,25.7,4.7,25.7,4.7-16.9,11.5-48.5,11.3-67,10.2,0,0,15.4,9.3,31.8,14.9,16.4,5.5,31.6-4.3,31.6-4.3,1,4.9-11.3,38.3-23.9,78.2,15.5,4.6,31.8,7,48.4,7,32.6,0,63.7-9.1,90.4-26.1-9.8-54.7-19.2-105.5-27.5-139ZM156.8,160.5c-7.2,0-13-8.8-13-19.7s5.8-19.7,13-19.7,13,8.8,13,19.7-5.8,19.7-13,19.7Z"/>
  <path class="st0" d="M66.7,151.1l-25.6,8.8c2.9,9.8,6.3,15.2,12.9,20.1,11.6-8.1,14.9-13.4,12.7-28.9Z"/>
  <path class="st0" d="M154,125.6c-6.5.1-11.6,7-11.4,15.3s5.5,14.9,12,14.8c6.5-.1,11.6-7,11.4-15.3-.2-8.3-5.5-14.9-12-14.8ZM158.4,149.7c-1.4-6.7-1.5-9-8-10.2,6.8-2.1,7.6-2.8,7.6-10.5,1.3,7.7,2.2,9.4,8,10.2-5.6,1-6.7,2.8-7.6,10.5h0Z"/>
  <path class="st0" d="M161.5,8.4l-.9,5c-2.2,19.6-1.5,37.1-.9,57,.3,3.8,1.5,19.9,1.8,23.5,1.8-.3,3.8-.6,5.7-.8h0c.6,0,1.3-.2,2-.2h0c1.3-.2,2.6-.3,4-.4h.2c.6,0,1.3-.1,1.9-.2h.3c.6,0,1.3-.1,2-.2l12.1-54.7c-8.2-9.8-23.6-26.3-28.1-28.8h0s0,0,0,0Z"/>
  <path class="st0" d="M63.5,163.4"/>
</svg>