<?xml version="1.0" encoding="UTF-8"?>
<svg xmlns="http://www.w3.org/2000/svg" version="1.1" viewBox="0 0 300 300">
  <!-- Generator: Adobe Illustrator 29.3.1, SVG Export Plug-In . SVG Version: 2.1.0 Build 151)  -->
  <defs>
    <style>
      .st0 {
        fill: #231f20;
      }

      .st1 {
        fill: none;
        stroke: #231f20;
        stroke-miterlimit: 10;
      }

      .st2 {
        fill: #fff;
      }

      .st3 {
        display: none;
      }
    </style>
  </defs>
  <g id="Layer_1">
    <path class="st0" d="M225.9,120.3h0c15.9-43.7,3.9-86-29.4-116.9l-18.9,85.8c-27.9,2.3-44.3,6-55.6,36.3l-55,18.9c2.3,15.9-1.2,23.5-13.4,31.9,16.1,11.5,38.8,11,49.2,8.8-2.2-1.4-9.3-6-11.3-9.5-7.3-12.9,5.3-31.5,25-.7,8.8,8.8,25.7,4.7,25.7,4.7-16.9,11.5-48.5,11.3-67,10.2,0,0,15.4,9.3,31.8,14.9,16.4,5.5,31.6-4.3,31.6-4.3,1,4.9-11.3,38.3-23.9,78.2,15.5,4.6,31.8,7,48.4,7,32.6,0,63.7-9.1,90.4-26.1-9.8-54.7-19.2-105.5-27.5-139v-.2h-.1Z"/>
    <path class="st0" d="M63.7,145.6l-25.6,8.8c2.9,9.8,6.3,15.2,12.9,20.1,11.6-8.1,14.9-13.4,12.7-28.9h0Z"/>
    <path class="st0" d="M158.5,2.9l-.9,5c-2.2,19.6-1.5,37.1-.9,57,.3,3.8,1.5,19.9,1.8,23.5,1.8-.3,3.8-.6,5.7-.8h0c.6,0,1.3-.2,2-.2h0c1.3-.2,2.6-.3,4-.4h.2c.6,0,1.3,0,1.9-.2h.3c.6,0,1.3,0,2-.2l12.1-54.7c-8.2-9.8-23.6-26.3-28.1-28.8h0v-.2h-.1Z"/>
    <path class="st1" d="M60.5,157.9"/>
    <path class="st2" d="M153.8,115.6c-4.5,0-8.5,3.5-10.8,8.8,1.8-2.9,4.9-4.3,8-4.3,6.5,0,11.8,6.5,12,14.8.2,8.3-4.9,15.2-11.4,15.3-3.7,0-7.4-2.4-9.2-5.4,2.2,6.1,6.5,10.2,11.4,10.2,7.2,0,13-8.8,13-19.7s-5.8-19.7-13-19.7Z"/>
    <path class="st2" d="M163,134.7c-5.7-.8-6.6-2.5-7.9-10.2-.5,7.3-.8,8.4-7.6,10.5,6.5,1.2,6.6,3.5,8,10.2.9-7.7,2-9.5,7.5-10.5,0,0,0,0,0,0,0,0,0,0,0,0,0,0,0,0,0,0Z"/>
  </g>
  <g id="Layer_2" class="st3">
    <path class="st1" d="M156.8,121.1c-4.5,0-8.5,3.5-10.8,8.8,1.8-2.9,4.9-4.3,8-4.3,6.5,0,11.8,6.5,12,14.8.2,8.3-4.9,15.2-11.4,15.3-3.7,0-7.4-2.4-9.2-5.4,2.2,6.1,6.5,10.2,11.4,10.2,7.2,0,13-8.8,13-19.7s-5.8-19.7-13-19.7Z"/>
  </g>
  <g id="Layer_3" class="st3">
    <path class="st1" d="M165.9,140.2c-5.7-.8-6.6-2.5-7.9-10.2-.5,7.3-.8,8.4-7.6,10.5,6.5,1.2,6.6,3.5,8,10.2.9-7.7,2-9.5,7.5-10.5,0,0,0,0,0,0,0,0,0,0,0,0,0,0,0,0,0,0Z"/>
    <path class="st1" d="M154.6,155.7c6.5-.1,11.6-7,11.4-15.3-.2-8.3-5.5-14.9-12-14.8-3.2,0-6,1.7-8,4.3-1.4,3.1-2.2,6.8-2.2,10.9s.6,6.7,1.6,9.5c2.2,3.3,5.5,5.5,9.2,5.4Z"/>
  </g>
</svg>