<?xml version="1.0" encoding="UTF-8"?>
<svg id="Layer_1" xmlns="http://www.w3.org/2000/svg" version="1.1" viewBox="0 0 1050 600">
  <!-- Generator: Adobe Illustrator 29.3.1, SVG Export Plug-In . SVG Version: 2.1.0 Build 151)  -->
  <defs>
    <style>
      .st0 {
        fill: #231f20;
      }

      .st1 {
        fill: none;
        stroke: #000;
        stroke-miterlimit: 10;
        stroke-width: 9px;
      }

      .st2 {
        display: none;
      }
    </style>
  </defs>
  <g id="Layer_2" class="st2">
    <g>
      <g>
        <path d="M206.3,211.9h-3.1c-.5,0-1,0-1.4-.2s-.7-.4-.9-.9c-.2-.4-.4-1-.5-1.8s-.2-1.8-.2-3,0-2.2.2-3c.1-.8.3-1.4.5-1.8.2-.4.5-.7.9-.9s.8-.2,1.4-.2h12.3c.6,0,1.1.1,1.5.3s.8.6,1.1,1.2l19.4,39.9v-29.5h-4.1c-.5,0-1,0-1.4-.2s-.7-.4-.9-.9c-.2-.4-.4-1-.5-1.8s-.2-1.8-.2-3,0-2.2.2-3c.1-.8.3-1.4.5-1.8.2-.4.5-.7.9-.9s.8-.2,1.4-.2h17.5c.5,0,1,0,1.4.2s.7.5.9.9.4,1.1.5,1.8c.1.8.2,1.8.2,3s0,2.2-.2,3c-.1.8-.3,1.4-.5,1.8-.2.4-.5.7-.9.9s-.8.2-1.4.2h-2.7v54.4c0,1.2-.4,2.2-1.1,2.8-.7.7-2.1,1-4,1s-1.4,0-1.9-.2c-.5-.1-1-.3-1.4-.6-.4-.3-.7-.6-1-1s-.5-.8-.8-1.3l-21-43.2v33.1h5c.5,0,1,0,1.4.2s.7.5.9.9.4,1.1.5,1.8c.1.8.2,1.8.2,3s0,2.2-.2,3c-.1.8-.3,1.4-.5,1.8s-.5.7-.9.9c-.4.2-.8.2-1.4.2h-18.8c-.5,0-1,0-1.4-.2s-.7-.4-.9-.9c-.2-.4-.4-1-.5-1.8s-.2-1.8-.2-3,0-2.2.2-3c.1-.8.3-1.4.5-1.8s.5-.7.9-.9c.4-.2.8-.2,1.4-.2h3.1v-45.1h0Z"/>
        <path d="M283.8,198.7c3.9,0,7.4.8,10.5,2.5,3.2,1.6,5.9,4,8.1,7.1,2.3,3.1,4,6.8,5.2,11.3,1.2,4.4,1.8,9.4,1.8,14.9s-.6,10.5-1.8,14.9c-1.2,4.4-3,8.2-5.2,11.2-2.3,3.1-5,5.4-8.1,7.1-3.2,1.7-6.7,2.5-10.5,2.5s-7.4-.8-10.5-2.5c-3.2-1.7-5.9-4-8.1-7.1-2.3-3.1-4-6.8-5.2-11.2s-1.8-9.4-1.8-14.9.6-10.4,1.8-14.9c1.2-4.4,3-8.2,5.2-11.3,2.3-3.1,5-5.5,8.1-7.1,3.2-1.6,6.7-2.5,10.5-2.5h0ZM283.8,211.9c-4.4,0-7.7,1.9-9.9,5.8-2.2,3.9-3.3,9.4-3.3,16.7s1.1,12.8,3.3,16.7c2.2,3.9,5.5,5.9,9.9,5.9s7.7-2,9.9-5.9c2.2-3.9,3.3-9.5,3.3-16.7s-1.1-12.8-3.3-16.7c-2.2-3.9-5.5-5.8-9.9-5.8h0Z"/>
      </g>
      <g>
        <path d="M345.4,213.2h-5c-.5,0-1,0-1.4-.2s-.7-.4-.9-.9c-.2-.4-.4-1-.5-1.8s-.2-1.8-.2-3,0-2.2.2-3c.1-.8.3-1.4.5-1.8.2-.4.5-.7.9-.9s.8-.2,1.4-.2h24.3c3.4,0,6.2.4,8.7,1.3,2.4.9,4.4,2.2,5.9,3.8,1.6,1.6,2.7,3.6,3.4,5.9.7,2.3,1.1,4.9,1.1,7.7s-.7,6-2,8.3c-1.3,2.2-3,4-5.2,5.3,3.3,1.1,5.9,3,7.8,5.7s2.9,6.3,2.9,10.9-.4,6.2-1.3,8.7-2.2,4.6-3.9,6.2c-1.7,1.7-3.8,2.9-6.3,3.8-2.5.8-5.3,1.2-8.5,1.2h-26.9c-.5,0-1,0-1.4-.2s-.7-.4-.9-.9c-.2-.4-.4-1-.5-1.8s-.2-1.8-.2-3,0-2.2.2-3c.1-.8.3-1.4.5-1.8s.5-.7.9-.9c.4-.2.8-.2,1.4-.2h5v-45.1h0ZM363.6,228.7c2.8,0,4.9-.6,6.3-1.8s2-3.1,2-5.7-.7-4.5-2-5.7-3.4-1.7-6.3-1.7h-6.6v15h6.6ZM366,257.7c3.1,0,5.4-.7,6.9-2,1.5-1.4,2.2-3.4,2.2-6s-.7-5-2.2-6.4-3.8-2-6.8-2h-9v16.5h9-.1Z"/>
        <path d="M399.4,213.2h-2.7c-.5,0-1,0-1.4-.2s-.7-.4-.9-.9c-.2-.4-.4-1-.5-1.8s-.2-1.8-.2-3,0-2.2.2-3c.1-.8.3-1.4.5-1.8.2-.4.5-.7.9-.9s.8-.2,1.4-.2h17.4c.5,0,1,0,1.4.2s.7.5.9.9c.2.4.4,1.1.5,1.8.1.8.2,1.8.2,3s0,2.2-.2,3c-.1.8-.3,1.4-.5,1.8-.2.4-.5.7-.9.9s-.8.2-1.4.2h-3.1v15.3h18.1v-15.3h-3.1c-.5,0-1,0-1.4-.2s-.7-.4-.9-.9c-.2-.4-.4-1-.5-1.8s-.2-1.8-.2-3,0-2.2.2-3c.1-.8.3-1.4.5-1.8.2-.4.5-.7.9-.9s.8-.2,1.4-.2h17.4c.5,0,1,0,1.4.2s.7.5.9.9c.2.4.4,1.1.5,1.8.1.8.2,1.8.2,3s0,2.2-.2,3c-.1.8-.3,1.4-.5,1.8-.2.4-.5.7-.9.9s-.8.2-1.4.2h-2.7v45.1h2.7c.5,0,1,0,1.4.2s.7.5.9.9c.2.4.4,1.1.5,1.8.1.8.2,1.8.2,3s0,2.2-.2,3c-.1.8-.3,1.4-.5,1.8s-.5.7-.9.9c-.4.2-.8.2-1.4.2h-17.4c-.5,0-1,0-1.4-.2s-.7-.4-.9-.9c-.2-.4-.4-1-.5-1.8s-.2-1.8-.2-3,0-2.2.2-3c.1-.8.3-1.4.5-1.8s.5-.7.9-.9c.4-.2.8-.2,1.4-.2h3.1v-17.4h-18.1v17.4h3.1c.5,0,1,0,1.4.2s.7.5.9.9c.2.4.4,1.1.5,1.8.1.8.2,1.8.2,3s0,2.2-.2,3c-.1.8-.3,1.4-.5,1.8s-.5.7-.9.9c-.4.2-.8.2-1.4.2h-17.4c-.5,0-1,0-1.4-.2s-.7-.4-.9-.9c-.2-.4-.4-1-.5-1.8s-.2-1.8-.2-3,0-2.2.2-3c.1-.8.3-1.4.5-1.8s.5-.7.9-.9c.4-.2.8-.2,1.4-.2h2.7v-45.1h0Z"/>
        <path d="M466.9,213.2h-7.8c-.5,0-1,0-1.4-.2s-.7-.5-.9-.9c-.2-.4-.4-1.1-.5-1.8-.1-.8-.2-1.8-.2-3s0-2.2.2-3c.1-.8.3-1.4.5-1.8.2-.4.5-.7.9-.9s.8-.2,1.4-.2h22.1c1.2,0,2.3.3,3,.9.8.6,1.3,1.5,1.7,2.9l13.5,53.2h4.1c.5,0,1,0,1.4.2s.7.4.9.9c.2.4.4,1,.5,1.8s.2,1.8.2,3,0,2.2-.2,3c-.1.8-.3,1.4-.5,1.8s-.5.7-.9.9c-.4.2-.8.2-1.4.2h-19.8c-.5,0-1,0-1.4-.2s-.7-.5-.9-.9c-.2-.4-.4-1.1-.5-1.8-.1-.8-.2-1.8-.2-3s0-2.2.2-3c.1-.8.3-1.4.5-1.8s.5-.7.9-.9c.4-.2.8-.2,1.4-.2h4l-2.1-8.4h-17l-2.1,8.4h3.5c.5,0,1,0,1.4.2s.7.4.9.9c.2.4.4,1,.5,1.8s.2,1.8.2,3,0,2.2-.2,3c-.1.8-.3,1.4-.5,1.8s-.5.7-.9.9c-.4.2-.8.2-1.4.2h-18.8c-.5,0-1,0-1.4-.2s-.7-.5-.9-.9c-.2-.4-.4-1.1-.5-1.8-.1-.8-.2-1.8-.2-3s0-2.2.2-3c.1-.8.3-1.4.5-1.8s.5-.7.9-.9c.4-.2.8-.2,1.4-.2h3.9l11.8-45.1h0ZM483,238l-5.6-24.8h-.3l-5.7,24.8h11.6Z"/>
        <path d="M516.3,213.2h-4.5c-.5,0-1,0-1.4-.2s-.7-.4-.9-.9c-.2-.4-.4-1-.5-1.8s-.2-1.8-.2-3,0-2.2.2-3c.1-.8.3-1.4.5-1.8.2-.4.5-.7.9-.9s.8-.2,1.4-.2h22c4.1,0,7.7.8,11,2.3,3.2,1.5,6,3.7,8.2,6.7,2.3,2.9,4,6.5,5.2,10.8s1.8,9.2,1.8,14.7-.6,10.4-1.8,14.7-2.9,7.9-5.2,10.8-5,5.1-8.2,6.7c-3.2,1.5-6.9,2.3-11,2.3h-22c-.5,0-1,0-1.4-.2s-.7-.4-.9-.9c-.2-.4-.4-1-.5-1.8s-.2-1.8-.2-3,0-2.2.2-3c.1-.8.3-1.4.5-1.8s.5-.7.9-.9c.4-.2.8-.2,1.4-.2h4.5v-45.4h0ZM532.8,257.7c4.9,0,8.5-1.9,10.9-5.6,2.4-3.7,3.7-9.2,3.7-16.4s-1.2-12.7-3.7-16.4c-2.4-3.7-6.1-5.5-10.9-5.5h-4.9v43.9h4.9Z"/>
      </g>
      <g>
        <path d="M643.6,265.3c-3.3,2-6.6,3.5-9.9,4.6-3.3,1-6.7,1.6-10,1.6s-7.4-.8-10.5-2.5c-3.2-1.7-5.9-4-8.1-7.1-2.3-3.1-4-6.8-5.2-11.2s-1.8-9.4-1.8-14.9.6-10.4,1.8-14.9,2.9-8.2,5.1-11.3c2.2-3.1,4.7-5.5,7.7-7.1s6.2-2.5,9.7-2.5,5.4.7,7.3,2c2,1.3,3.6,3.1,4.8,5.3v-3.7c0-1.3.5-2.3,1.4-2.8.9-.6,2.3-.8,4.3-.8s1.8,0,2.5.2c.7.1,1.2.3,1.5.6s.6.7.8,1.1.2,1,.2,1.7v22.3c0,1.3-.5,2.3-1.4,2.8-.9.6-2.5.8-4.8.8s-2,0-2.7-.2c-.7-.1-1.3-.3-1.7-.6s-.7-.7-.9-1.1c-.2-.5-.2-1-.2-1.7,0-1.9-.2-3.6-.6-5.1-.4-1.6-1-2.9-1.9-4.1-.8-1.1-1.8-2-3.1-2.6-1.2-.6-2.6-.9-4.2-.9-4.4,0-7.7,1.9-9.9,5.8-2.2,3.9-3.3,9.4-3.3,16.7s1.2,12.8,3.5,16.7c2.4,3.9,5.7,5.9,10.1,5.9s5.6-.5,8.1-1.5,5.1-2.3,7.8-4c.9-.6,1.8-.6,2.7,0s1.6,2,2.3,4.4.9,4.2.5,5.4c-.3,1.2-1,2.2-2,2.8h.1Z"/>
        <path d="M679.1,200c3.9,0,7.4.8,10.5,2.5,3.2,1.6,5.9,4,8.1,7.1,2.3,3.1,4,6.8,5.2,11.3,1.2,4.4,1.8,9.4,1.8,14.9s-.6,10.5-1.8,14.9-3,8.2-5.2,11.2c-2.3,3.1-5,5.4-8.1,7.1-3.2,1.7-6.7,2.5-10.5,2.5s-7.4-.8-10.5-2.5c-3.2-1.7-5.9-4-8.1-7.1-2.3-3.1-4-6.8-5.2-11.2s-1.8-9.4-1.8-14.9.6-10.4,1.8-14.9c1.2-4.4,3-8.2,5.2-11.3,2.3-3.1,5-5.5,8.1-7.1,3.2-1.6,6.7-2.5,10.5-2.5ZM679.1,213.2c-4.4,0-7.7,1.9-9.9,5.8-2.2,3.9-3.3,9.4-3.3,16.7s1.1,12.8,3.3,16.7,5.5,5.9,9.9,5.9,7.7-2,9.9-5.9,3.3-9.5,3.3-16.7-1.1-12.8-3.3-16.7-5.5-5.8-9.9-5.8Z"/>
        <path d="M718,213.2h-4.5c-.5,0-1,0-1.4-.2s-.7-.4-.9-.9c-.2-.4-.4-1-.5-1.8s-.2-1.8-.2-3,0-2.2.2-3c0-.8.3-1.4.5-1.8.2-.4.5-.7.9-.9s.8-.2,1.4-.2h22c4.1,0,7.7.8,11,2.3,3.2,1.5,6,3.7,8.2,6.7,2.3,2.9,4,6.5,5.2,10.8s1.8,9.2,1.8,14.7-.6,10.4-1.8,14.7-2.9,7.9-5.2,10.8-5,5.1-8.2,6.7c-3.2,1.5-6.9,2.3-11,2.3h-22c-.5,0-1,0-1.4-.2s-.7-.4-.9-.9c-.2-.4-.4-1-.5-1.8s-.2-1.8-.2-3,0-2.2.2-3c0-.8.3-1.4.5-1.8s.5-.7.9-.9c.4-.2.8-.2,1.4-.2h4.5v-45.4h0ZM734.5,257.7c4.9,0,8.5-1.9,10.9-5.6,2.4-3.7,3.7-9.2,3.7-16.4s-1.2-12.7-3.7-16.4c-2.4-3.7-6.1-5.5-10.9-5.5h-4.9v43.9h4.9Z"/>
        <path d="M775.3,213.2h-4.5c-.5,0-1,0-1.4-.2s-.7-.4-.9-.9c-.2-.4-.4-1-.5-1.8s-.2-1.8-.2-3,0-2.2.2-3c0-.8.3-1.4.5-1.8.2-.4.5-.7.9-.9s.8-.2,1.4-.2h42.5c1.1,0,1.9.3,2.3.9.5.6.7,1.5.7,2.9v17.5c0,1.3-.5,2.3-1.4,2.8-.9.6-2.3.8-4.3.8s-1.8,0-2.5-.2c-.7-.1-1.2-.3-1.5-.6s-.6-.7-.8-1.1c-.2-.5-.2-1-.2-1.7v-8.8h-18.7v14.7h11.4c.5,0,1,0,1.4.3.4.2.7.5.9,1s.4,1.1.5,1.9c0,.8.2,1.8.2,3.1s0,2.3-.2,3c0,.8-.3,1.4-.5,1.9s-.5.8-.9,1-.8.3-1.4.3h-11.4v16.8h19.1v-11.7c0-1.3.5-2.3,1.4-2.8.9-.6,2.4-.8,4.5-.8s1.9,0,2.6.2c.7.1,1.2.3,1.6.6s.7.7.8,1.1c.2.5.2,1,.2,1.7v20.4c0,1.4-.2,2.3-.7,2.9s-1.2.9-2.3.9h-43.5c-.5,0-1,0-1.4-.2s-.7-.4-.9-.9c-.2-.4-.4-1-.5-1.8s-.2-1.8-.2-3,0-2.2.2-3c0-.8.3-1.4.5-1.8s.5-.7.9-.9c.4-.2.8-.2,1.4-.2h4.5v-45.1l.2-.3h0Z"/>
        <path d="M840.5,267.8c0,1.3-.4,2.3-1.1,2.8-.7.6-2.1.8-4.1.8s-3.4-.3-4.2-.8c-.8-.6-1.3-1.5-1.3-2.8v-19.4c0-1.3.3-2.3,1-2.8.7-.6,1.8-.8,3.3-.8s2,.2,2.6.5,1.1.9,1.5,1.8c1.7,3.9,3.7,6.9,6,9,2.3,2,5,3,8.2,3s4.9-.7,6.3-2.1c1.4-1.4,2.1-3.3,2.1-5.8s-.3-3-1-4-1.6-1.9-2.7-2.6c-1.2-.7-2.7-1.3-4.3-1.8s-3.4-1-5.2-1.4c-1.8-.5-3.6-1-5.5-1.6-1.8-.6-3.5-1.4-5.1-2.5-1.1-.7-2.1-1.5-3-2.5s-1.7-2.1-2.4-3.4c-.7-1.3-1.2-2.8-1.6-4.5-.4-1.7-.6-3.6-.6-5.8s.4-5.9,1.3-8.5c.9-2.6,2.1-4.8,3.7-6.6,1.6-1.9,3.5-3.3,5.7-4.4,2.2-1,4.7-1.6,7.4-1.6s4.8.5,6.9,1.5c2.1,1,3.9,2.4,5.5,4.3v-2.1c0-1.3.4-2.3,1.1-2.8.7-.6,2.1-.8,4.1-.8s3.4.3,4.2.8c.8.6,1.3,1.5,1.3,2.8v15.9c0,1.3-.3,2.3-1,2.8-.7.6-1.8.8-3.3.8s-1.9-.2-2.4-.5c-.6-.3-1-.8-1.4-1.4-1.4-2.8-3.3-5-5.6-6.6s-5-2.4-8.1-2.4-4.1.7-5.4,2.2c-1.3,1.5-1.9,3.3-1.9,5.5s.3,2.1.9,2.8c.6.7,1.4,1.3,2.4,1.8s2.7,1.1,4.4,1.4c1.7.4,3.5.8,5.4,1.2,1.9.5,3.8,1,5.7,1.7s3.7,1.7,5.3,2.9c1.1.8,2,1.8,3,2.9s1.7,2.4,2.4,3.9,1.2,3.2,1.6,5c.4,1.9.6,4,.6,6.4s-.4,6-1.2,8.6c-.8,2.6-2,4.8-3.6,6.7-1.6,1.9-3.6,3.3-6,4.4s-5.2,1.6-8.5,1.6c-5.2,0-9.6-2-13.2-5.9v2.2l-.2.2h0Z"/>
      </g>
    </g>
    <g>
      <path d="M47.3,494.7h6.1v16.1h14.8v-16.1h6.1v39.3h-6.1v-17.9h-14.8v17.9h-6.1v-39.3Z"/>
      <path d="M93.3,494.7h7l13,39.3h-6.4l-6.3-21.4c-1.3-4.3-2.6-8.6-3.7-13.1h-.2c-1.2,4.4-2.4,8.8-3.7,13.1l-6.4,21.4h-6.2l13-39.3h-.1ZM87.6,518h18.2v4.8h-18.2s0-4.8,0-4.8Z"/>
      <path d="M116.9,494.7h6.4l5.9,20.5c1.3,4.5,2.2,8.4,3.6,12.8h.2c1.4-4.5,2.3-8.3,3.6-12.8l5.9-20.5h6.2l-12.3,39.3h-7.1l-12.4-39.3h0Z"/>
      <path d="M157.3,494.7h24.8v5.1h-18.7v11.1h15.8v5.1h-15.8v12.9h19.3v5.1h-25.4v-39.3h0Z"/>
      <path d="M228.3,494.7h11.7c8.1,0,13.7,2.6,13.7,9.6s-2.2,7.3-6.8,8.5v.2c5.7.9,9,4,9,9.4,0,7.8-6.1,11.5-14.9,11.5h-12.6v-39.3h0ZM239.3,511.1c6.1,0,8.6-2.1,8.6-6.1s-2.8-5.4-8.4-5.4h-5.2v11.4h5,0ZM240.2,529.1c6.2,0,9.7-2.1,9.7-7s-3.3-6.3-9.7-6.3h-5.9v13.3h5.9Z"/>
      <path d="M264.3,494.7h12.7c8.1,0,14.1,2.9,14.1,11.4s-6.1,12-14.1,12h-6.6v16h-6.1v-39.3h0ZM276.2,513.2c5.7,0,8.9-2.4,8.9-7.1s-3.1-6.5-8.9-6.5h-5.9v13.6h5.9ZM280.3,513l12.1,21h-6.8l-9.9-17.6,4.5-3.4h0Z"/>
      <path d="M309.3,494.7h7l13,39.3h-6.4l-6.3-21.4c-1.3-4.3-2.6-8.6-3.7-13.1h-.2c-1.2,4.4-2.4,8.8-3.7,13.1l-6.4,21.4h-6.2l13-39.3h0ZM303.6,518h18.2v4.8h-18.2v-4.8Z"/>
      <path d="M336.1,529h9.6v-29.1h-9.6v-5.1h25.2v5.1h-9.6v29.1h9.6v5.1h-25.2v-5.1Z"/>
      <path d="M371.4,494.7h6.4l11.5,23.4,3.7,8.3h.1c-.2-4-.8-8.7-.8-12.9v-18.7h5.7v39.3h-6.4l-11.5-23.4-3.7-8.3h-.1c.2,4.1.8,8.6.8,12.8v18.8h-5.7v-39.3Z"/>
    </g>
    <g>
      <path d="M622.2,494.7h6.6l2.4,23.7c.3,3.3.5,5.5.6,9.3h.2c.7-3.8,1.2-6,1.9-9.2l3.5-13.7h5l3.4,13.7c.8,3.2,1.2,5.4,1.9,9.2h.2c.2-3.8.3-6,.6-9.2l2.3-23.8h6.2l-5.5,39.3h-7.1l-3.4-14.9c-.6-2.4-1-4.8-1.3-7.2h-.2c-.4,2.4-.7,4.8-1.3,7.2l-3.4,14.9h-6.9l-5.8-39.3h0Z"/>
      <path d="M663.1,529h9.6v-29.1h-9.6v-5.1h25.2v5.1h-9.6v29.1h9.6v5.1h-25.2v-5.1Z"/>
      <path d="M701.3,494.7h6v34.2h18.9v5.1h-24.9v-39.3Z"/>
      <path d="M737.3,494.7h6v34.2h18.9v5.1h-24.9v-39.3Z"/>
      <path d="M816.7,499.8h-12.7v-5.1h31.4v5.1h-12.7v34.2h-6v-34.2Z"/>
      <path d="M843.2,494.7h12.7c8.1,0,14.1,2.9,14.1,11.4s-6.1,12-14.1,12h-6.6v16h-6.1v-39.3h0ZM855.2,513.2c5.7,0,8.9-2.4,8.9-7.1s-3.1-6.5-8.9-6.5h-5.9v13.6h5.9ZM859.2,513l12.1,21h-6.8l-9.9-17.6,4.5-3.4h.1Z"/>
      <path d="M888.2,494.7h7l13,39.3h-6.4l-6.3-21.4c-1.3-4.3-2.6-8.6-3.7-13.1h-.2c-1.2,4.4-2.4,8.8-3.7,13.1l-6.4,21.4h-6.2l13-39.3h0ZM882.5,518h18.2v4.8h-18.2v-4.8Z"/>
      <path d="M911.8,494.7h6.4l5.9,20.5c1.3,4.5,2.2,8.4,3.6,12.8h.2c1.4-4.5,2.3-8.3,3.6-12.8l5.9-20.5h6.2l-12.3,39.3h-7.1l-12.4-39.3h0Z"/>
      <path d="M952.2,494.7h24.8v5.1h-18.7v11.1h15.8v5.1h-15.8v12.9h19.3v5.1h-25.4v-39.3h0Z"/>
      <path d="M989.3,494.7h6v34.2h18.9v5.1h-24.9v-39.3Z"/>
    </g>
    <g>
      <path d="M421.6,363c-.8,0-1.4-.2-1.7-.5-.3-.4-.5-1-.5-1.9s.2-1.5.5-1.9.9-.5,1.7-.5h15.1c.8,0,1.4.2,1.7.5.3.4.5,1,.5,1.9s-.2,1.5-.5,1.9-.9.5-1.7.5h-1.1v9.4c0,1.1-.4,2-1.3,2.4-1.9,1.1-4.2,2-6.7,2.5-2.5.6-5.1.8-7.8.8s-5.3-.5-7.6-1.5c-2.3-1-4.2-2.5-5.8-4.4s-2.9-4.2-3.8-6.8c-.9-2.7-1.3-5.6-1.3-8.9s.5-6.2,1.4-8.9c.9-2.7,2.2-4.9,3.8-6.8,1.6-1.9,3.6-3.4,5.9-4.4s4.7-1.5,7.4-1.5,4.2.4,5.9,1.1c1.7.7,3.1,1.7,4.2,3v-1.7c0-.8.2-1.4.6-1.8s1.1-.5,2.1-.5,1.7.2,2.1.5.6.9.6,1.8v10.2c0,.8-.2,1.4-.6,1.8s-1.1.5-2.1.5-1.7-.2-2.1-.5-.6-.9-.6-1.8-.2-2-.7-2.9c-.4-.9-1.1-1.7-1.9-2.3-.8-.6-1.8-1.1-3.1-1.5-1.2-.4-2.6-.5-4.2-.5s-3.7.4-5.4,1.1c-1.6.8-3,1.9-4.2,3.3s-2.1,3.2-2.7,5.2c-.7,2-1,4.3-1,6.8s.3,4.8.9,6.8,1.5,3.8,2.6,5.2,2.5,2.5,4.1,3.3,3.4,1.1,5.3,1.1,3.9-.2,5.6-.5,3.4-.8,4.9-1.5v-8h-8.7.2Z"/>
      <path d="M449.6,340.4h-3.6c-.8,0-1.4-.2-1.7-.5-.3-.4-.5-1-.5-1.9s.2-1.5.5-1.9.9-.5,1.7-.5h30.7c.8,0,1.4.2,1.7.5.3.4.5,1,.5,1.9v8.9c0,.8-.2,1.4-.6,1.8s-1.1.5-2.1.5-1.7-.2-2.1-.5-.6-.9-.6-1.8v-6.5h-18.8v13h8.8v-3.2c0-.8.2-1.4.6-1.8s1.1-.5,2.1-.5,1.7.2,2.1.5.6.9.6,1.8v11.2c0,.8-.2,1.4-.6,1.8s-1.1.5-2.1.5-1.7-.2-2.1-.5-.6-.9-.6-1.8v-3.2h-8.8v14.3h19.5v-8.1c0-.8.2-1.4.6-1.8s1.1-.5,2.1-.5,1.7.2,2.1.5.6.9.6,1.8v10.4c0,.9-.2,1.5-.5,1.9s-.9.5-1.7.5h-31.4c-.8,0-1.4-.2-1.7-.5-.3-.4-.5-1-.5-1.9s.2-1.5.5-1.9.9-.5,1.7-.5h3.6v-32.2.2h0Z"/>
      <path d="M491.6,340.4h-2.7c-.8,0-1.4-.2-1.7-.5-.3-.4-.5-1-.5-1.9s.2-1.5.5-1.9.9-.5,1.7-.5h7.9c1,0,1.6.3,2,1l16.7,29.8v-26h-4.1c-.8,0-1.4-.2-1.7-.5-.3-.4-.5-1-.5-1.9s.2-1.5.5-1.9.9-.5,1.7-.5h11.4c.8,0,1.4.2,1.7.5s.5,1,.5,1.9-.2,1.5-.5,1.9-.9.5-1.7.5h-2v35.6c0,.6-.2,1.1-.6,1.5s-1.1.6-2,.6-1.3-.2-1.7-.5c-.5-.3-.9-.8-1.2-1.4l-18.2-32.6v29h4.8c.8,0,1.4.2,1.7.5.3.4.5,1,.5,1.9s-.2,1.5-.5,1.9-.9.5-1.7.5h-12.4c-.8,0-1.4-.2-1.7-.5-.3-.4-.5-1-.5-1.9s.2-1.5.5-1.9.9-.5,1.7-.5h2.4v-32.2h-.3,0Z"/>
      <path d="M546.3,340.4h-9c-.8,0-1.4-.2-1.7-.5s-.5-1-.5-1.9.2-1.5.5-1.9.9-.5,1.7-.5h23.3c.8,0,1.4.2,1.7.5s.5,1,.5,1.9-.2,1.5-.5,1.9-.9.5-1.7.5h-9v32.2h9.7c.8,0,1.4.2,1.7.5s.5,1,.5,1.9-.2,1.5-.5,1.9-.9.5-1.7.5h-24.7c-.8,0-1.4-.2-1.7-.5s-.5-1-.5-1.9.2-1.5.5-1.9.9-.5,1.7-.5h9.7v-32.2Z"/>
      <path d="M575.2,340.4c-.8,0-1.4-.2-1.7-.5s-.5-1-.5-1.9.2-1.5.5-1.9.9-.5,1.7-.5h11.4c.8,0,1.4.2,1.7.5s.5,1,.5,1.9-.2,1.5-.5,1.9-.9.5-1.7.5h-3.9v22.4c0,1.8.2,3.4.6,4.7s1,2.3,1.8,3.1,1.8,1.4,3,1.8,2.6.5,4.2.5,3-.2,4.2-.5,2.2-.9,3-1.8,1.4-1.9,1.8-3.1.6-2.8.6-4.7v-22.4h-3.9c-.8,0-1.4-.2-1.7-.5s-.5-1-.5-1.9.2-1.5.5-1.9.9-.5,1.7-.5h11.4c.8,0,1.4.2,1.7.5s.5,1,.5,1.9-.2,1.5-.5,1.9-.9.5-1.7.5h-2.2v23.1c0,2.5-.3,4.7-1,6.5s-1.7,3.3-2.9,4.5-2.8,2.1-4.6,2.7-3.9.9-6.2.9-4.4-.3-6.2-.9-3.4-1.5-4.6-2.7-2.2-2.7-2.9-4.5-1-4-1-6.5v-23.1h-2.6,0Z"/>
      <path d="M624.5,375.9c0,.8-.2,1.4-.6,1.8s-1.1.5-2.1.5-1.7-.2-2.1-.5-.6-.9-.6-1.8v-10.5c0-.8.2-1.4.6-1.8s1.1-.5,2.1-.5,1.7.5,2,1.5c1,2.7,2.5,4.8,4.6,6.3s4.7,2.2,7.8,2.2,2.9-.2,4.1-.5,2.1-.8,2.9-1.5,1.4-1.4,1.8-2.2.6-1.8.6-2.8c0-1.5-.4-2.8-1.2-3.7s-1.8-1.7-3.1-2.2c-1.1-.4-2.3-.8-3.6-1.1s-2.7-.6-4.1-.9-2.8-.6-4.2-.9-2.7-.8-3.9-1.3c-.9-.4-1.7-.8-2.4-1.4s-1.4-1.2-1.9-1.9-.9-1.6-1.2-2.5-.4-2.1-.4-3.3c0-1.8.3-3.5,1-4.9s1.6-2.7,2.8-3.7,2.6-1.8,4.3-2.3,3.5-.8,5.5-.8,4.1.4,6,1.2,3.5,1.9,4.9,3.2v-2.1c0-.8.2-1.4.6-1.8s1.1-.5,2.1-.5,1.7.2,2.1.5.6.9.6,1.8v8.1c0,.8-.2,1.4-.6,1.8s-1.1.5-2.1.5-1.5-.3-1.8-.9c-1.1-2.2-2.7-3.8-4.8-4.9s-4.3-1.6-6.9-1.6-4.6.6-6,1.8-2.1,2.8-2.1,4.8.3,1.8.8,2.5,1.2,1.2,2.1,1.6c.9.5,2,.8,3.3,1.1s2.6.6,4,.8,2.8.6,4.2.9,2.8.7,4.1,1.2c1.1.4,2,.9,3,1.5s1.7,1.4,2.4,2.2,1.2,1.9,1.6,3.1.6,2.6.6,4.1-.3,3.5-1,5-1.6,2.8-2.8,3.9-2.8,1.9-4.7,2.5-4,.9-6.4.9-4.5-.4-6.5-1.3-3.7-2.1-5.2-3.8v2.7h-.2,0Z"/>
    </g>
  </g>
  <g>
    <g id="Layer_11">
      <g>
        <g>
          <g>
            <path class="st0" d="M659.2,499.5l-2.5-7h7.7l.9.6,3.7,14.7,2.3,11.8.4-2.5,3-10.3,3.4-14.3h7.3l3.6,14.1,2.3,11.2,1.2,1.9,2.7-13.5,3.4-13.7h8.1l.2.5-2.2,6.5-8.5,35.1h-7.8l-6.5-28h-.3l-5.8,28.8h-7.6l-1.5-9.7-7.4-26.2h-.1Z"/>
            <path class="st0" d="M720.9,524.7l.4,4.5-.2,7.5h-7.8l.2-14.3v-18.7l-.8-10.2.2-.2,8.4-.2-.4,8v23.6h0Z"/>
            <path class="st0" d="M752.6,529l-.7,7.7h-19.6v-33l-.9-10.2.2-.2,8.4-.2-.4,8,.3,28.8h6l6.7-.9h0Z"/>
            <path class="st0" d="M776.5,530l-.3,6.7h-19.6l-.2-14.3v-18.7l-.8-10.2.2-.2,8.4-.2-.4,8,.2,29h6l6.5-1.5v1.5h0Z"/>
            <path class="st0" d="M831,501.4l-9-.3v31.2l.5,4.4h-8v-35.6l-8.6.3-.3-.2v-8.5h10.2c0,.1,4.8.1,4.8.1l10.2-.2v8.7h.2,0Z"/>
            <path class="st0" d="M864.8,532.4l2.8,4.2h-9.9l-8-17.3c-.8-.2-2-.4-3.2-.7v6.7l.6,6.4-.3,4.8h-7.8v-13.5l.2-18.7v-11.7h1.7l2.4.3c2.7-.6,5.7,0,8.1,0,8,0,12.6,3.6,12.6,12.9s-2.9,10-7.2,12.3l4.6,10.3,3.3,3.9h.1ZM846.6,500.9v.9l.4,11.6,2.5-.4h1c3.5,0,6.3-1.5,6.3-6.4s-1.4-5.8-6.2-6c-1.2,0-2.7,0-4.1.2h0Z"/>
            <path class="st0" d="M897.4,526.9h-13.2l-3.3,8.9h-7.5l2.9-7.8,10.3-30.1,1.7-5.6h5.3l2,6.1,10,29.7,2.7,7.8h-8.5l-2.5-8.9h0ZM886.6,519.7h8.3l-3.5-12.4h-.9l-3.9,12.4h0Z"/>
            <path class="st0" d="M921.9,528.2l-11.3-29.2-2.3-6.4h10.2l.4.3,5,18.7,1.9,7.8h1l2-7.8,5.4-19h0l10-.9-2.1,7.3-10.8,28.9-1.9,7.9h-5.2l-2.5-7.6h.2,0Z"/>
            <path class="st0" d="M973,530v5h-21.2v-42.8h19.7v8l-11,.4-.8,12.1,9.4-.3h0l.4,4.6-9.3-.2.2,13.1h12.8-.2Z"/>
            <path class="st0" d="M1000.6,529.7v6.1h-19.6v-9l.2-18.7-.9-10.2-.2-5.5,8.4-.2v38.1h6l4.5-.2,1.5-.3h0Z"/>
          </g>
          <g>
            <path class="st0" d="M76.9,532v2.6h-6.4l-.8-10.4-.3-6.7h-13.8v7.8l.6,6.5.2,3.4h-6.6l-.3-12.6.2-20.5-.3-10.3h6.6l-.4,8,.2,10.4h15.1l-.2-7.7-.9-10.2.2-.2,7.1-.2-.5,8.4v25.5l.3,6.2h0Z"/>
            <path class="st0" d="M106.5,524.8h-13.2l-3.4,10.2h-7.5l2.5-7,10.2-31.8,1-4.4h7.4l.7,3.5,10.1,32.7,2.7,7h-8.5l-1.8-10.2s-.2,0-.2,0ZM95.2,518.6h8.3l-3.5-13.5h-.9l-3.8,13.5h0Z"/>
            <path class="st0" d="M129.4,529.3l-7.7-27.4-2.8-10.2h8l.6,3,5,18.7,1.4,7.3h2.2l1.3-7.3,5-18.7.6-2.5h8.2l-2.7,9.2-7.8,27.8-1,5.8h-9.3l-1-5.8h0Z"/>
            <path class="st0" d="M179.7,527.9l.4,7.2-21.1-.5.2-13.4v-28.7l.2-.2,8.4-.2,12.4-.4-.6,8.6h-12.1v9.1h9.1l1.2,6.4h-10l-.3,12.5h10.9l1.4-.3h0Z"/>
            <path class="st0" d="M239.5,510.8c3.2,1.4,5.1,4.2,5.1,8.9,0,7-5,14.6-12.9,14.6s-5-.2-7.6-.5h-5.8v-12.5c.1,0,.2-18.7.2-18.7l-.9-10.2.2-.2h3.9c3.1-.7,7.2-1,8.8-1,9.1,0,12.9,3.5,12.9,10.4s-1.5,7.1-3.8,9.2h0ZM225.9,498.7v10.7h4c4.5,0,6.6-3.1,6.6-6.8s-1.8-4.1-6.5-4.1-2.6,0-4.1.2h0ZM237.6,520.7c0-3.1-2.7-5.1-6.4-5.1s-3.3.2-5.3.4v10.8c1.6.2,3.4.3,4.8.3,5.2,0,6.9-3.5,6.9-6.5h0Z"/>
            <path class="st0" d="M279.7,530.2l.8,2.8h-8.7l-6.8-14.3c-.8-.2-2-.3-3.2-.5l-.4,5.7.6,6.4v2.9c.1,0-8.2.5-8.2.5l.2-12.2v-18.7l-.8-10.2.2-.2h4.2c2.7-.7,6.3-1,8.8-1,8,0,12.6,3.6,12.6,12.9s-2.9,10-7.2,12.3l5.9,9.3,2.1,4.4h0ZM262.3,499.2l-.3,1.2v10.7l2.3.5h1c3.5,0,6.3-1.5,6.3-6.4s-1.4-5.8-6.2-6c-1.2,0-1.8,0-3.2.1h.1Z"/>
            <path class="st0" d="M311.2,526.3h-13.2l-2.8,6.9h-7.5l2.5-7,10.2-29.3,1.2-4.6h7.4l.9,5.1,9.7,28.8,2.7,7h-8.5l-2.4-6.9h-.2ZM299.5,519.3h8.3l-2.5-16.2h-.9l-4.8,16.2h-.1Z"/>
            <path class="st0" d="M336.2,523.9l.2,6,.6,4.2h-7.8l.3-14.1v-18.7l-.8-10.2.2-.2,8.4-.2-1,12.1v20.9h0v.2h-.1Z"/>
            <path class="st0" d="M375.4,528v5.2h-6.9l-4.8-12.2-8.6-12.9-.4-.8h-.6v23.4l.6,3.5h-8v-27.6l-1.8-14.5.2-.2h7.7c0-.1,3.4,5.4,3.4,5.4l12.8,16.7h.4v-9.7l-1.2-12.3.2-.2h6.9c0-.1.2,6.1.2,6.1v29.9h0v.2h-.1Z"/>
          </g>
        </g>
        <g>
          <path class="st0" d="M267.5,268.9l-.4.4h-10.9l-6.9-11.3-17.8-24.3-.6-1.2h-.9v26l1.2,10.4-.4.4h-12.9v-38l-2.3-27.5.3-.3,12.4-.2,3.1,8.5,22.4,31.6h.7v-15.6l-1.3-24,.3-.3,14.3-.3-1.2,15.4v39.8l1.2,10.4h-.3Z"/>
          <path class="st0" d="M279.8,246.4c0-16.4,7.1-25.6,22-25.6s20.5,7.5,20.5,24-7.9,25.8-22.1,25.8-20.4-7.7-20.4-24.2h0ZM300.3,232.8c-3.5,0-6,.4-7.8,1.9-1.9,2.1-2.3,4.9-2.3,10.1,0,9.4,3.5,13.7,11.9,13.7s6.4-.6,8.4-2.5c1.6-2.2,2-5.1,1.9-10-.1-8.7-2.8-13.1-12-13.1h-.1Z"/>
          <path class="st0" d="M373.7,262.9c-4.7,4.2-10.5,6.4-19.6,6.4-15.5,0-21.5-7.7-21.5-24.5s7.8-25.3,22.6-25.3,18.3,6.8,18.3,19.8-.3,5.7-.7,8.9l-.6.3h-29.4c1,6.9,5,10.4,12.7,10.4s10.6-1,13.1-3l2.1-1.1,3.1,8.1h-.1ZM343,240l21-.5c.2-5.9-2.8-8.7-9.5-8.7s-10.9,3.1-11.6,9.3h.1Z"/>
          <path class="st0" d="M385.9,198.2v-.7c.1,0,12.7-.6,12.7-.6h0l-.6,23v39.3l.5,9.7-.7.4h-10.9v-45.5c.1,0-1.2-25.6-1.2-25.6h.2Z"/>
          <path class="st0" d="M412.6,198.2v-.7c.1,0,12.7-.6,12.7-.6h0l-.6,23v39.3l.5,9.7-.7.4h-10.9v-45.5c.1,0-1.2-25.6-1.2-25.6h.2Z"/>
          <path class="st0" d="M478.5,264.2c-4.7,4.2-10.5,6.4-19.6,6.4-15.5,0-21.5-7.7-21.5-24.5s7.8-25.3,22.6-25.3,18.3,6.8,18.3,19.8-.3,5.7-.7,8.9l-.6.3h-29.4c1,6.9,5,10.4,12.7,10.4s12.1-2.1,14.6-4.1h.6l3.1,8.1h-.1ZM447.8,241.3l21-.5c.2-5.9-2.8-8.7-9.5-8.7s-10.9,3.1-11.6,9.3h.1Z"/>
          <path class="st0" d="M563.1,252.1c0,11.3-8.1,18-20.8,18s-8.1-.3-12.3-.8h-9.3l.2-14.6v-30.1l-1.4-16.5.3-.3h6.2c4.9-1.2,11.6-1.6,14.3-1.6,14.7,0,20.8,5.7,20.8,16.8s-2.4,11.5-6.2,14.8c5.2,2.3,8.2,6.9,8.2,14.4h0ZM539.5,217.9c-1.9,0-4.2,0-6.6.4v14.3c2.3,0,4.5,0,6.7.1,7.3,0,10.5-2.2,10.5-8.1s-2.9-6.6-10.4-6.6h-.2ZM551.7,250.4c0-4.9-2.9-6.9-8.9-6.9s-6.6.3-10,.7v13.5c2.7.3,5.4.5,7.7.4,8.5,0,11.2-2.9,11.2-7.7h0Z"/>
          <path class="st0" d="M617.8,268.9l-.7.4h-10.9v-27.7c0-5-3.1-6.9-7.1-6.9s-7.7.8-11.8,2.5v22.1l.5,9.7-.7.3h-10.9v-46.5l-1.2-18.1v-.7l12.7-.6h0l-.6,16.4v7.8c5-3.7,11-6.9,17.3-6.9s12.6,4.7,12.6,14.9v23.5l.5,9.7h.3Z"/>
          <path class="st0" d="M672.2,268.4l-.3.8-10.3,1.1-1.7-6.1c-5.1,3.9-11.9,6.2-17.2,6.2-8.3,0-12.4-5.6-12.4-14.3s5.4-14,15.9-14,8.1.6,11.8,1.2v-3.9c0-4.6-3.2-6.5-8.6-6.5s-10.5,1-14.5,2.3l-.7-.3-1.7-10.4c4.7-2.1,13.1-3.6,18.9-3.6,9.6,0,17.5,2.2,17.5,16.3v20.9l3.2,10.2h0ZM647.6,259.6c3.6,0,7.5-1.3,10.4-3.2v-5.4c-2.7-.4-5.9-1-9.3-1-5,0-6.9,1.2-6.9,4.6s1.2,4.9,5.8,4.9h0Z"/>
          <path class="st0" d="M728.7,268.4l-.3.8-10.3,1.1-2.1-6.3c-3.7,3.7-8.9,6.5-14.9,6.5-12.4,0-18.8-7.1-18.8-23.2s9-26.2,21.3-26.2,8.2,1,10.8,2.7v-.8l-1.6-18.1v-.7l13.1-.5-.4,22.3v26.9h0v5.4l3.2,10.2h0ZM713.5,256v-.2h.5c.2-.3.4-.4.5-.5v-19.3c-3.1-2-7.1-2.7-11.2-2.7-7.8,0-10.3,3.3-10.3,12s4,13.3,11.5,13.3,6.5-1,9-2.5h0Z"/>
          <path class="st0" d="M783.6,269l-.3.3-10.4,1-1.2-6c-4.2,3.1-9.3,6-15.5,6s-13.7-1.7-13.7-13.8v-24.1l-1.6-10.1.3-.2,12.7-1-.4,15.5v15.2c0,5.7,2.8,7.6,7.7,7.6s6.2-1.6,9.2-3.5v-20.1l-1.2-13.6.3-.2,12.1-1-.2,15.3v19.6l2.2,13h0Z"/>
          <path class="st0" d="M798.7,254.5v-19.4l-1.5-12.3v-.7l11.9-1.3.4,9.6c3.6-6.7,9.8-9.9,15.6-10.1l1.1.4-.9,13.9c-.8,0-2-.2-3.8-.2-3.9,0-8.7,1.3-11.8,4.8v20l.6,9.7-.7.4h-10.9v-14.8h0Z"/>
          <path class="st0" d="M843.3,201.2c4.5,0,7.3,2.3,7.3,7s-2.7,7.4-7.3,7.4-7.3-2.9-7.3-7.4,2.8-7,7.3-7ZM849.3,259.2l.5,9.7-.7.4h-10.9v-35.9l-1.6-11,.3-.3,13.1-.9-.8,14.4v23.6h.1Z"/>
        </g>
        <path class="st0" d="M440.3,337.2h-2c-.8-3.3-1.9-7-3-9-2.2-3.8-3.8-3.1-8.3-3.1-8.7,0-11.4,7.5-11.4,21.9s.4,10.3,1.9,14.3c1.8,4.7,4.2,8.1,9.3,8.1s4.2-.3,6.8-1.4c1-.4,1.5-1.4,1.5-2.4v-10.5c0-3-.8-6.8-5.2-7.1v-2.3c3.8.4,5.9.4,8.8.4s1.2.2,5-.1v2.3c-4.2.4-3.6,3.7-3.6,6.9l-.3,10.1c0,1-1.4,3.1-2.3,3.6-3,1.7-6.2,2.7-11.6,2.7-12.7,0-20.5-9.3-20.5-24.5s7.8-26.6,20.3-26.6,6.8,2,10.6,5.3l2.5-4.1h1.4v15.4h.1Z"/>
        <path class="st0" d="M482.7,369h-31.5v-2.3c5.2-.3,4.4-.8,5.1-5v-32.9c-.8-4,0-4.5-5.1-4.7v-2.3h31.1v13.1h-3.2c-1.9-7.3-.8-10.6-6.2-10.6h-8.1v19h.7c6.6-.7,6.6-3.1,7-6.4h2.1l-.3,14.5h-2.1c-.2-3.9-.8-5.9-6.7-5.6h-.5v16.9c-.4,3.1,0,3.3,3.6,3.3h3.6c4,0,5.2,0,7.2-3.1.4-2,1.2-4.5,1-7h2l.4,13.3h0v-.2h-.1Z"/>
        <path class="st0" d="M518.7,368.2c-.3-.5-.8-2-1-3.8-1.9-2.7-1.5-3.8-3-5.9l-18.8-29.3v32.9c.6,3.5,1.6,4,3.9,4.9v2.3c-3.4-.2-5.2-.3-7.3-.3s-3.9,0-7.2.3v-2.3c5.2-.3,5.9-.8,5.9-4.9v-35.8c-1.7-1.7-3.3-2.3-6-2.5v-2.3c2.7.1,4.3.2,6.6.2s3.6,0,6.1-.2l20.4,27.8,1.1-20.6c0-3.7-.6-3-3.9-2.9v-4.2c3.4.2,5.1.3,7.3.3s2.8,0,6.1-.2l.5,3.5c-5.2.2-5.4-.5-5.4,3.5l-1.9,39.5h-3.5.1Z"/>
        <path class="st0" d="M557.2,370.7c-4.5-.4-5.2-.5-8.3-.5s-5.4.1-10,.5v-2.3c5.3-.3,5.9-.8,5.9-4v-33.4c0-5-.7-5.6-5.9-5.8v-3.9c4.5.4,6.8.5,10,.5s5.4-.1,9.9-.5v3.9c-5.2.2-7.4,1.2-8.1,4.6v35.9c1.9,2.6,1.5,1.5,6.8,1.8l-.3,3.1h0Z"/>
        <path class="st0" d="M592.4,321.9c4.2.3,7.1.4,9.3-.1h2.7l-.2,4.7s-2.8.2-2.3,3.5v24.2c0,6.4,0,7.7-1.5,10.3-2.9,4-5,7.3-11,7.3s-10-1.8-13.1-5.2c-2.5-2.7-3.5-5.9-3.5-11.1v-24.8c0-4-.7-4.7-5.9-4.9v-4.1c4.5.4,5.9.4,9.1.4s4.8,0,8.4-.6v5.7c-4.4.4-6.2-.4-6.2,3.7l.6,23.4c0,4,3.3,11,10.1,10.3,4.8-.5,8.1-3.1,7.7-8.9v-23.9c-.4-2.6-.4-5.5-4.2-5.8v-4h0Z"/>
        <path class="st0" d="M612.8,355.3c.6,3.5,1.2,5.4,2.6,7.7,2,3.3,5.9,5.4,9.8,5.4s9.3-3.9,9.3-8.5-1.3-5.1-3.5-6.7c-1.5-1.2-2.3-1.6-6.6-4-5.8-3.1-8.1-4.5-9.7-6.2-2.2-2.2-3.3-5-3.3-8.3,0-7.4,5.9-12.4,14.5-12.4s5.8,0,8.8,2.7l-.2-3.2h3.7v14l-3.8-1.8c-.3-4.2-.7-8.6-7.5-9.3-4.9-.5-8.4,3.4-8.4,7.9s1.3,4.8,7.2,7.9c4.7,2.5,7.6,4.1,9.3,5.2,4.7,3.1,6.6,6.2,6.6,11.2,0,8.2-6,13.9-14.7,13.9s-8.2-1.3-12.1-4.4l-2.7,5h-1.4v-16.4h2.1v.3h0Z"/>
      </g>
    </g>
    <rect class="st1" width="1050" height="600"/>
  </g>
</svg>