<?xml version="1.0" encoding="UTF-8"?>
<svg id="AVATAR_BLURB" data-name="AVATAR + BLURB" xmlns="http://www.w3.org/2000/svg" viewBox="0 0 514.67 487.98">
  <defs>
    <style>
      .cls-1 {
        stroke: #231f20;
        stroke-miterlimit: 10;
        stroke-width: 6px;
      }

      .cls-1, .cls-2 {
        fill: #fff;
      }

      .cls-3 {
        fill: #231f20;
      }
    </style>
  </defs>
  <g id="_AVATAR_" data-name="&amp;lt;AVATAR&amp;gt;">
    <path class="cls-3" d="M483.73,302.66h0c17.83-48.99,4.37-96.42-32.96-131.06l-21.19,96.19c-31.28,2.58-49.67,6.73-62.33,40.7l-61.66,21.19c2.58,17.83-1.35,26.35-15.02,35.76,18.05,12.89,43.5,12.33,55.16,9.87-2.47-1.57-10.43-6.73-12.67-10.65-8.18-14.46,5.94-35.32,28.03-.78,9.87,9.87,28.81,5.27,28.81,5.27-18.95,12.89-54.37,12.67-75.12,11.44,0,0,17.27,10.43,35.65,16.7,18.39,6.17,35.43-4.82,35.43-4.82,1.12,5.49-12.67,42.94-26.79,87.67,17.38,5.16,35.65,7.85,54.26,7.85,36.55,0,71.42-10.2,101.35-29.26-10.99-61.33-21.53-118.28-30.83-155.84l-.11-.22ZM402.89,341.56c-8.07,0-14.57-9.87-14.57-22.09s6.5-22.09,14.57-22.09,14.57,9.87,14.57,22.09-6.5,22.09-14.57,22.09Z"/>
    <path class="cls-3" d="M301.88,331.02l-28.7,9.87c3.25,10.99,7.06,17.04,14.46,22.53,13.01-9.08,16.7-15.02,14.24-32.4h0Z"/>
    <path id="_EYE_" data-name="&amp;lt;EYE&amp;gt;" class="cls-3" d="M399.75,302.43c-7.29.11-13.01,7.85-12.78,17.15s6.17,16.7,13.45,16.59c7.29-.11,13.01-7.85,12.78-17.15-.22-9.31-6.17-16.7-13.45-16.59ZM404.69,329.45c-1.57-7.51-1.68-10.09-8.97-11.44,7.62-2.35,8.52-3.14,8.52-11.77,1.46,8.63,2.47,10.54,8.97,11.44-6.28,1.12-7.51,3.14-8.52,11.77h0Z"/>
    <path class="cls-3" d="M408.16,171.04l-1.01,5.61c-2.47,21.97-1.68,41.59-1.01,63.9.34,4.26,1.68,22.31,2.02,26.35,2.02-.34,4.26-.67,6.39-.9h0c.67,0,1.46-.22,2.24-.22h0c1.46-.22,2.91-.34,4.48-.45h.22c.67,0,1.46-.11,2.13-.22h.34c.67,0,1.46-.11,2.24-.22l13.57-61.33c-9.19-10.99-26.46-29.49-31.5-32.29h0l-.11-.22Z"/>
  </g>
  <path id="_BLURB_" data-name="&amp;lt;BLURB&amp;gt;" class="cls-1" d="M288.11,285.53l-62.53,1.59s-5.36,42.28,19.01,69.03c-28.1-11.08-59.56-19.03-82.12-67.9-17.15,1.03-61.24-1.29-61.24-1.29-54.03,0-98.23-50.39-98.23-111.98v-59.98C3,53.39,47.2,3,101.23,3h182.57c54.03,0,98.23,50.39,98.23,111.98v59.98c0,61.59-39.89,110.57-93.92,110.57Z"/>
  <rect id="_ALIGN_TEXT_HERE_" data-name="&amp;lt;ALIGN TEXT HERE&amp;gt;" class="cls-2" x="39.86" y="32.23" width="301.38" height="223.4"/>
</svg>