<?xml version="1.0" encoding="UTF-8"?>
<svg id="AVATAR" xmlns="http://www.w3.org/2000/svg" viewBox="0 0 552.21 498.09">
  <defs>
    <style>
      .cls-1 {
        fill: #fff;
        stroke: #231f20;
        stroke-miterlimit: 10;
        stroke-width: 6px;
      }

      .cls-2 {
        fill: #231f20;
      }
    </style>
  </defs>
  <g>
    <path class="cls-2" d="M521.27,312.77h0c17.83-48.99,4.37-96.42-32.96-131.06l-21.19,96.19c-31.28,2.58-49.67,6.73-62.33,40.7l-61.66,21.19c2.58,17.83-1.35,26.35-15.02,35.76,18.05,12.89,43.5,12.33,55.16,9.87-2.47-1.57-10.43-6.73-12.67-10.65-8.18-14.46,5.94-35.32,28.03-.78,9.87,9.87,28.81,5.27,28.81,5.27-18.95,12.89-54.37,12.67-75.12,11.44,0,0,17.27,10.43,35.65,16.7,18.39,6.17,35.43-4.82,35.43-4.82,1.12,5.49-12.67,42.94-26.79,87.67,17.38,5.16,35.65,7.85,54.26,7.85,36.55,0,71.42-10.2,101.35-29.26-10.99-61.33-21.53-118.28-30.83-155.84l-.11-.22ZM440.44,351.68c-8.07,0-14.57-9.87-14.57-22.09s6.5-22.09,14.57-22.09,14.57,9.87,14.57,22.09-6.5,22.09-14.57,22.09Z"/>
    <path class="cls-2" d="M339.42,341.14l-28.7,9.87c3.25,10.99,7.06,17.04,14.46,22.53,13.01-9.08,16.7-15.02,14.24-32.4h0Z"/>
    <path class="cls-2" d="M437.3,312.55c-7.29.11-13.01,7.85-12.78,17.15s6.17,16.7,13.45,16.59c7.29-.11,13.01-7.85,12.78-17.15-.22-9.31-6.17-16.7-13.45-16.59ZM442.23,339.57c-1.57-7.51-1.68-10.09-8.97-11.44,7.62-2.35,8.52-3.14,8.52-11.77,1.46,8.63,2.47,10.54,8.97,11.44-6.28,1.12-7.51,3.14-8.52,11.77h0Z"/>
    <path class="cls-2" d="M445.71,181.15l-1.01,5.61c-2.47,21.97-1.68,41.59-1.01,63.9.34,4.26,1.68,22.31,2.02,26.35,2.02-.34,4.26-.67,6.39-.9h0c.67,0,1.46-.22,2.24-.22h0c1.46-.22,2.91-.34,4.48-.45h.22c.67,0,1.46-.11,2.13-.22h.34c.67,0,1.46-.11,2.24-.22l13.57-61.33c-9.19-10.99-26.46-29.49-31.5-32.29h0l-.11-.22Z"/>
  </g>
  <path class="cls-1" d="M304.23,297.11l-47.1,2.66s-6.78,41.56,19.36,69.27c-30.14-11.48-63.89-19.71-88.1-70.33-18.39,1.07-80.02-1.6-80.02-1.6-57.96,0-105.38-52.2-105.38-115.99v-62.13C3,55.2,50.42,3,108.38,3h195.85c57.96,0,105.38,52.2,105.38,115.99v62.13c0,63.79-47.42,115.99-105.38,115.99Z"/>
</svg>