<?xml version="1.0" encoding="UTF-8"?>
<svg id="Layer_1" xmlns="http://www.w3.org/2000/svg" version="1.1" viewBox="0 0 292.8 292.8">
  <!-- Generator: Adobe Illustrator 29.3.1, SVG Export Plug-In . SVG Version: 2.1.0 Build 151)  -->
  <defs>
    <style>
      .st0 {
        fill: #020202;
      }

      .st1 {
        fill: #fff;
        stroke: #fff;
        stroke-miterlimit: 10;
      }
    </style>
  </defs>
  <g id="CIRCLE">
    <g>
      <circle cx="146.4" cy="146.4" r="145.9"/>
      <path class="st0" d="M146.4,292.8C65.7,292.8,0,227.1,0,146.4S65.7,0,146.4,0s146.4,65.7,146.4,146.4-65.7,146.4-146.4,146.4ZM146.4,1C66.2,1,1,66.2,1,146.4s65.2,145.4,145.4,145.4,145.4-65.2,145.4-145.4S226.5,1,146.4,1Z"/>
    </g>
  </g>
  <g id="SHADOW">
    <path class="st1" d="M217.2,238.4c-8.3-46.2-15.2-83.9-22.2-112.2v-.2c13.3-36.9,3.2-72.6-24.9-98.7l-5.8,26.3v.2c-6.9-8.3-22.4-24.6-26.2-26.7v-.2l-.8,4.2c-1.9,16.5-1.3,31.3-.8,48.1.3,3.2,1.6,19.4,1.9,22.5-14.5,2.9-24,9.3-31.2,28.7l-46.4,16-2.8,1h0l-21.6,7.4c2.4,8.3,5.3,12.8,10.9,17l2.2,1.5c3.9,2.8,9.5,5.1,13.9,6.4,0,0,1.9,2.9,4.7,5,1.1.9,8.7,5.9,26.5,12.6,13.8,4.6,26.7-3.6,26.7-3.6.8,4.1-19.9,59.6-19.5,63,62.2,25.1,115.5-18.2,115.5-18.2h0Z"/>
  </g>
</svg>