<?xml version="1.0" encoding="UTF-8"?>
<svg id="SM_x5F_AVATAR" xmlns="http://www.w3.org/2000/svg" version="1.1" viewBox="0 0 288 356">
  <!-- Generator: Adobe Illustrator 29.3.1, SVG Export Plug-In . SVG Version: 2.1.0 Build 151)  -->
  <defs>
    <style>
      .st0 {
        fill: #1a1a1a;
      }
    </style>
  </defs>
  <path id="HEAD" class="st0" d="M36.9,187.2s82-28,82.9-28.3c1-.2,2-6.1,5.2-11.9,4.5-8.2,12.3-15.2,20.8-19.1s16.8-5.1,29.9-5.1l19.1-87.9s8.1,9.5,11.2,14c3.1,4.5,9,11.6,13.3,20.4,4.3,8.8,5.9,12.1,7.8,19.7,1.9,7.6,4.3,22.3,2.6,37.1-1.7,14.7-5.6,27.5-5.6,27.5l27.1,140s-5.4,3.8-12.4,7.4c-7.2,3.7-12.8,7.1-29.5,12.1-16.6,5-30.9,5.7-41.3,5.9-10.5.2-53-1.7-56.3-6.7l24.4-74-.6-2.7c-2.7,1.1-8.8,3.4-12,4-6.9,1.4-18.8-.6-18.8-.6,0,0-13.2-4.8-19.5-8s-12.2-7.8-12.2-7.8c0,0-11.4-3.1-21.1-12.6,0,0-4.5-1.4-6.9-4.5-2.4-3.1-7.1-6.2-8.1-19Z"/>
  <path id="EAR" class="st0" d="M156.5,121.4c-5-23.3-1.9-82.2-.2-85.5,9,5,29.5,28.3,29.5,28.3,0,0-11.4,54.2-12.6,55.8l-16.6,1.4Z"/>
  <path id="EYE" fill="#f5f5f5" d="M140,157.7s0-2.5,2.6-5,10.9-6.8,17.9-.5,5.9,8,6.1,15.7-.3,11-5,15.7-11.8,9.1-19.1.4c0,0-2.9-3.3-2.4-6.7,9.4,11.2,20.5,1.9,20.3-9.1-.6-16.8-17.1-16.2-20.2-8-.5-.5-.2-2.6-.2-2.6Z"/>
</svg>