<?xml version="1.0" encoding="UTF-8"?>
<svg id="Business_Card_Front" data-name="Business Card Front" xmlns="http://www.w3.org/2000/svg" viewBox="0 0 1069.5 599.3">
  <defs>
    <style>
      .cls-1 {
        fill: #fff;
        stroke: #231f20;
        stroke-miterlimit: 10;
        stroke-width: 9px;
      }

      .cls-2 {
        fill: #231f20;
      }
    </style>
  </defs>
  <rect id="_Card_Outline_" data-name="&amp;lt;Card Outline&amp;gt;" class="cls-1" x="4.5" y="4.5" width="1060.5" height="590.3"/>
  <g id="_Black_Filled_Text_" data-name="&amp;lt;Black Filled Text&amp;gt;">
    <g>
      <g>
        <path class="cls-2" d="M660,497.2l-2.5-7.1h7.8l.9.6,3.8,14.9,2.3,12,.4-2.5,3-10.5,3.5-14.5h7.4l3.7,14.3,2.3,11.4,1.2,1.9,2.7-13.7,3.5-13.9h8.2l.2.5-2.2,6.6-8.6,35.6h-7.9l-6.6-28.4h-.3l-5.9,29.2h-7.7l-1.5-9.8-7.5-26.6h-.2Z"/>
        <path class="cls-2" d="M722.6,522.8l.4,4.6-.2,7.6h-7.9l.2-14.5v-19l-.8-10.4.2-.2,8.5-.2-.4,8.1v24h0Z"/>
        <path class="cls-2" d="M754.8,527.1l-.7,7.8h-19.9v-33.5l-.9-10.4.2-.2,8.5-.2-.4,8.1.3,29.2h6.1l6.8-.9h0v.1Z"/>
        <path class="cls-2" d="M779,528.1l-.3,6.8h-19.9l-.2-14.5v-19l-.8-10.4.2-.2,8.5-.2-.4,8.1.2,29.4h6.1l6.6-1.5v1.5h0Z"/>
        <path class="cls-2" d="M834.4,499.1l-9.1-.3v31.7l.5,4.5h-8.1v-36.1l-8.7.3-.3-.2v-8.6h10.4c0,.1,4.9.1,4.9.1l10.4-.2v8.8h.2-.2Z"/>
        <path class="cls-2" d="M868.7,530.6l2.8,4.3h-10l-8.1-17.6c-.8-.2-2-.4-3.2-.7v6.8l.6,6.5-.3,4.9h-7.9v-13.7l.2-19v-11.9h1.7l2.4.3c2.7-.6,5.8,0,8.2,0,8.1,0,12.8,3.7,12.8,13.1s-2.9,10.2-7.3,12.5l4.7,10.5,3.3,4h.1ZM850.2,498.6v.9l.4,11.8,2.5-.4h1c3.6,0,6.4-1.5,6.4-6.5s-1.4-5.9-6.3-6.1c-1.2,0-2.7,0-4.2.2h.1l.1.1Z"/>
        <path class="cls-2" d="M901.8,525h-13.4l-3.3,9h-7.6l2.9-7.9,10.5-30.6,1.7-5.7h5.4l2,6.2,10.2,30.1,2.7,7.9h-8.6l-2.5-9h.1-.1ZM890.8,517.7h8.4l-3.6-12.6h-.9l-4,12.6h.1Z"/>
        <path class="cls-2" d="M926.6,526.3l-11.5-29.6-2.3-6.5h10.4l.4.3,5.1,19,1.9,7.9h1l2-7.9,5.5-19.3h0l10.2-.9-2.1,7.4-11,29.3-1.9,8h-5.3l-2.5-7.7h.2-.1Z"/>
        <path class="cls-2" d="M978.5,528.1v5.1h-21.5v-43.4h20v8.1l-11.2.4-.8,12.3,9.5-.3h0l.4,4.7-9.4-.2.2,13.3h13-.2Z"/>
        <path class="cls-2" d="M1006.5,527.8v6.2h-19.9v-9.1l.2-19-.9-10.4-.2-5.6,8.5-.2v38.7h6.1l4.6-.2,1.5-.3h.1v-.1Z"/>
      </g>
      <g>
        <path class="cls-2" d="M118.1,530.4v2.6h-6.5l-.8-10.6-.3-6.8h-14v7.9l.6,6.6.2,3.5h-6.7l-.3-12.8.2-20.8-.3-10.5h6.7l-.4,8.1.2,10.6h15.3l-.2-7.8-.9-10.4.2-.2,7.2-.2-.5,8.5v25.9l.3,6.3h0v.1Z"/>
        <path class="cls-2" d="M148.1,523.1h-13.4l-3.5,10.4h-7.6l2.5-7.1,10.4-32.3,1-4.5h7.5l.7,3.6,10.3,33.2,2.7,7.1h-8.6l-1.8-10.4h-.2ZM136.6,516.8h8.4l-3.6-13.7h-.9l-3.9,13.7h-.1.1Z"/>
        <path class="cls-2" d="M171.4,527.7l-7.8-27.8-2.8-10.4h8.1l.6,3,5.1,19,1.4,7.4h2.2l1.3-7.4,5.1-19,.6-2.5h8.3l-2.7,9.3-7.9,28.2-1,5.9h-9.4l-1-5.9h0l-.1.2Z"/>
        <path class="cls-2" d="M222.4,526.2l.4,7.3-21.4-.5.2-13.6v-29.1l.2-.2,8.5-.2,12.6-.4-.6,8.7h-12.3v9.2h9.2l1.2,6.5h-10.2l-.3,12.7h11.1l1.4-.3h-.1l.1-.1Z"/>
        <path class="cls-2" d="M283.1,508.9c3.2,1.4,5.2,4.3,5.2,9,0,7.1-5.1,14.8-13.1,14.8s-5.1-.2-7.7-.5h-5.9v-12.7c.1,0,.2-19,.2-19l-.9-10.4.2-.2h4c3.1-.7,7.3-1,8.9-1,9.2,0,13.1,3.6,13.1,10.6s-1.5,7.2-3.9,9.3h-.1v.1ZM269.3,496.6v10.9h4.1c4.6,0,6.7-3.1,6.7-6.9s-1.8-4.2-6.6-4.2-2.6,0-4.2.2h0ZM281.2,518.9c0-3.1-2.7-5.2-6.5-5.2s-3.3.2-5.4.4v11c1.6.2,3.5.3,4.9.3,5.3,0,7-3.6,7-6.6h0v.1Z"/>
        <path class="cls-2" d="M323.9,528.6l.8,2.8h-8.8l-6.9-14.5c-.8-.2-2-.3-3.2-.5l-.4,5.8.6,6.5v2.9c.1,0-8.3.5-8.3.5l.2-12.4v-19l-.8-10.4.2-.2h4.3c2.7-.7,6.4-1,8.9-1,8.1,0,12.8,3.7,12.8,13.1s-2.9,10.2-7.3,12.5l6,9.4,2.1,4.5h-.2ZM306.2,497.1l-.3,1.2v10.9l2.3.5h1c3.6,0,6.4-1.5,6.4-6.5s-1.4-5.9-6.3-6.1c-1.2,0-1.8,0-3.2.1h.1v-.1Z"/>
        <path class="cls-2" d="M355.9,524.6h-13.4l-2.8,7h-7.6l2.5-7.1,10.4-29.7,1.2-4.7h7.5l.9,5.2,9.8,29.2,2.7,7.1h-8.6l-2.4-7h-.2ZM344,517.5h8.4l-2.5-16.4h-.9l-4.9,16.4h-.1Z"/>
        <path class="cls-2" d="M381.3,522.2l.2,6.1.6,4.3h-7.9l.3-14.3v-19l-.8-10.4.2-.2,8.5-.2-1,12.3v21.2h0v.2h-.1Z"/>
        <path class="cls-2" d="M421,526.3v5.3h-7l-4.9-12.4-8.7-13.1-.4-.8h-.6v23.8l.6,3.6h-8.1v-28l-1.8-14.7.2-.2h7.8c0-.1,3.5,5.5,3.5,5.5l13,17h.4v-9.8l-1.2-12.5.2-.2h7c0-.1.2,6.2.2,6.2v30.3h0v.2h-.1l-.1-.2Z"/>
      </g>
    </g>
    <g>
      <path class="cls-2" d="M290,290.8l-.4.4h-11.1l-7-11.5-18.1-24.7-.6-1.2h-.9v26.4l1.2,10.6-.4.4h-13.1v-38.6l-2.3-27.9.3-.3,12.6-.2,3.1,8.6,22.7,32.1h.7v-15.8l-1.3-24.4.3-.3,14.5-.3-1.2,15.6v40.4l1.2,10.6h-.3l.1.1Z"/>
      <path class="cls-2" d="M302.4,267.9c0-16.6,7.2-26,22.3-26s20.8,7.6,20.8,24.4-8,26.2-22.4,26.2-20.7-7.8-20.7-24.6h0ZM323.2,254.1c-3.6,0-6.1.4-7.9,1.9-1.9,2.1-2.3,5-2.3,10.3,0,9.5,3.6,13.9,12.1,13.9s6.5-.6,8.5-2.5c1.6-2.2,2-5.2,1.9-10.2-.1-8.8-2.8-13.3-12.2-13.3h-.1v-.1Z"/>
      <path class="cls-2" d="M397.7,284.7c-4.8,4.3-10.7,6.5-19.9,6.5-15.7,0-21.8-7.8-21.8-24.9s7.9-25.7,22.9-25.7,18.6,6.9,18.6,20.1-.3,5.8-.7,9l-.6.3h-29.8c1,7,5.1,10.6,12.9,10.6s10.8-1,13.3-3l2.1-1.1,3.1,8.2h-.1ZM366.6,261.4l21.3-.5c.2-6-2.8-8.8-9.6-8.8s-11.1,3.1-11.8,9.4h.1v-.1Z"/>
      <path class="cls-2" d="M410.1,219v-.7c.1,0,12.9-.6,12.9-.6h0l-.6,23.3v39.9l.5,9.8-.7.4h-11.1v-46.2c.1,0-1.2-26-1.2-26h.2v.1Z"/>
      <path class="cls-2" d="M437.2,219v-.7c.1,0,12.9-.6,12.9-.6h0l-.6,23.3v39.9l.5,9.8-.7.4h-11.1v-46.2c.1,0-1.2-26-1.2-26h.2v.1Z"/>
      <path class="cls-2" d="M504.1,286c-4.8,4.3-10.7,6.5-19.9,6.5-15.7,0-21.8-7.8-21.8-24.9s7.9-25.7,22.9-25.7,18.6,6.9,18.6,20.1-.3,5.8-.7,9l-.6.3h-29.8c1,7,5.1,10.6,12.9,10.6s12.3-2.1,14.8-4.2h.6l3.1,8.2h-.1v.1ZM473,262.8l21.3-.5c.2-6-2.8-8.8-9.6-8.8s-11.1,3.1-11.8,9.4h.1v-.1Z"/>
      <path class="cls-2" d="M590,273.7c0,11.5-8.2,18.3-21.1,18.3s-8.2-.3-12.5-.8h-9.4l.2-14.8v-30.6l-1.4-16.7.3-.3h6.3c5-1.2,11.8-1.6,14.5-1.6,14.9,0,21.1,5.8,21.1,17.1s-2.4,11.7-6.3,15c5.3,2.3,8.3,7,8.3,14.6h0v-.2ZM566,239c-1.9,0-4.3,0-6.7.4v14.5c2.3,0,4.6,0,6.8.1,7.4,0,10.7-2.2,10.7-8.2s-2.9-6.7-10.6-6.7h-.2v-.1ZM578.4,272c0-5-2.9-7-9-7s-6.7.3-10.2.7v13.7c2.7.3,5.5.5,7.8.4,8.6,0,11.4-2.9,11.4-7.8h0Z"/>
      <path class="cls-2" d="M645.5,290.8l-.7.4h-11.1v-28.1c0-5.1-3.1-7-7.2-7s-7.8.8-12,2.5v22.4l.5,9.8-.7.3h-11.1v-47.2l-1.2-18.4v-.7l12.9-.6h0l-.6,16.6v7.9c5.1-3.8,11.2-7,17.6-7s12.8,4.8,12.8,15.1v23.9l.5,9.8h.3v.3Z"/>
      <path class="cls-2" d="M700.7,290.3l-.3.8-10.5,1.1-1.7-6.2c-5.2,4-12.1,6.3-17.5,6.3-8.4,0-12.6-5.7-12.6-14.5s5.5-14.2,16.1-14.2,8.2.6,12,1.2v-4c0-4.7-3.2-6.6-8.7-6.6s-10.7,1-14.7,2.3l-.7-.3-1.7-10.6c4.8-2.1,13.3-3.7,19.2-3.7,9.7,0,17.8,2.2,17.8,16.5v21.2l3.2,10.4h.1v.3ZM675.8,281.3c3.7,0,7.6-1.3,10.6-3.2v-5.5c-2.7-.4-6-1-9.4-1-5.1,0-7,1.2-7,4.7s1.2,5,5.9,5h-.1Z"/>
      <path class="cls-2" d="M758.1,290.3l-.3.8-10.5,1.1-2.1-6.4c-3.8,3.8-9,6.6-15.1,6.6-12.6,0-19.1-7.2-19.1-23.5s9.1-26.6,21.6-26.6,8.3,1,11,2.7v-.8l-1.6-18.4v-.7l13.3-.5-.4,22.6v27.3h0v5.5l3.2,10.4h0v-.1ZM742.6,277.7v-.2h.5c.2-.3.4-.4.5-.5v-19.6c-3.1-2-7.2-2.7-11.4-2.7-7.9,0-10.5,3.3-10.5,12.2s4.1,13.5,11.7,13.5,6.6-1,9.1-2.5h0l.1-.2Z"/>
      <path class="cls-2" d="M813.8,290.9l-.3.3-10.6,1-1.2-6.1c-4.3,3.1-9.4,6.1-15.7,6.1s-13.9-1.7-13.9-14v-24.5l-1.6-10.3.3-.2,12.9-1-.4,15.7v15.4c0,5.8,2.8,7.7,7.8,7.7s6.3-1.6,9.3-3.6v-20.4l-1.2-13.8.3-.2,12.3-1-.2,15.5v19.9l2.2,13.2h0v.3Z"/>
      <path class="cls-2" d="M829.1,276.2v-19.7l-1.5-12.5v-.7l12.1-1.3.4,9.7c3.7-6.8,9.9-10,15.8-10.3l1.1.4-.9,14.1c-.8,0-2-.2-3.9-.2-4,0-8.8,1.3-12,4.9v20.3l.6,9.8-.7.4h-11.1v-15h0l.1.1Z"/>
      <path class="cls-2" d="M874.4,222.1c4.6,0,7.4,2.3,7.4,7.1s-2.7,7.5-7.4,7.5-7.4-2.9-7.4-7.5,2.8-7.1,7.4-7.1ZM880.5,280.9l.5,9.8-.7.4h-11.1v-36.4l-1.6-11.2.3-.3,13.3-.9-.8,14.6v24h.1Z"/>
    </g>
    <g>
      <path class="cls-2" d="M454.5,352.3h-2c-.8-3.3-1.9-7.1-3-9.1-2.2-3.9-3.9-3.1-8.4-3.1-8.8,0-11.6,7.6-11.6,22.2s.4,10.5,1.9,14.5c1.8,4.8,4.3,8.2,9.4,8.2s4.3-.3,6.9-1.4c1-.4,1.5-1.4,1.5-2.4v-10.7c0-3-.8-6.9-5.3-7.2v-2.3c3.9.4,6,.4,8.9.4s1.2.2,5.1-.1v2.3c-4.3.4-3.7,3.8-3.7,7l-.3,10.3c0,1-1.4,3.1-2.3,3.7-3,1.7-6.3,2.7-11.8,2.7-12.9,0-20.8-9.4-20.8-24.9s7.9-27,20.6-27,6.9,2,10.8,5.4l2.5-4.2h1.4v15.6h.1l.1.1Z"/>
      <path class="cls-2" d="M497.5,384.6h-32v-2.3c5.3-.3,4.5-.8,5.2-5.1v-33.4c-.8-4.1,0-4.6-5.2-4.8v-2.3h31.6v13.3h-3.2c-1.9-7.4-.8-10.8-6.3-10.8h-8.2v19.3h.7c6.7-.7,6.7-3.1,7.1-6.5h2.1l-.3,14.7h-2.1c-.2-4-.8-6-6.8-5.7h-.5v17.2c-.4,3.1,0,3.3,3.7,3.3h3.7c4.1,0,5.3,0,7.3-3.1.4-2,1.2-4.6,1-7.1h2l.4,13.5h0v-.2h-.2Z"/>
      <path class="cls-2" d="M534.1,383.8c-.3-.5-.8-2-1-3.9-1.9-2.7-1.5-3.9-3-6l-19.1-29.7v33.4c.6,3.6,1.6,4.1,4,5v2.3c-3.5-.2-5.3-.3-7.4-.3s-4,0-7.3.3v-2.3c5.3-.3,6-.8,6-5v-36.3c-1.7-1.7-3.3-2.3-6.1-2.5v-2.3c2.7.1,4.4.2,6.7.2s3.7,0,6.2-.2l20.7,28.2,1.1-20.9c0-3.8-.6-3-4-2.9v-4.3c3.5.2,5.2.3,7.4.3s2.8,0,6.2-.2l.5,3.6c-5.3.2-5.5-.5-5.5,3.6l-1.9,40.1h-3.6.1v-.2Z"/>
      <path class="cls-2" d="M573.1,386.3c-4.6-.4-5.3-.5-8.4-.5s-5.5.1-10.2.5v-2.3c5.4-.3,6-.8,6-4.1v-33.9c0-5.1-.7-5.7-6-5.9v-4c4.6.4,6.9.5,10.2.5s5.5-.1,10-.5v4c-5.3.2-7.5,1.2-8.2,4.7v36.4c1.9,2.6,1.5,1.5,6.9,1.8l-.3,3.1h0v.2Z"/>
      <path class="cls-2" d="M608.9,336.8c4.3.3,7.2.4,9.4-.1h2.7l-.2,4.8s-2.8.2-2.3,3.6v24.6c0,6.5,0,7.8-1.5,10.5-2.9,4.1-5.1,7.4-11.2,7.4s-10.2-1.8-13.3-5.3c-2.5-2.7-3.6-6-3.6-11.3v-25.2c0-4.1-.7-4.8-6-5v-4.2c4.6.4,6,.4,9.2.4s4.9,0,8.5-.6v5.8c-4.5.4-6.3-.4-6.3,3.8l.6,23.8c0,4.1,3.3,11.2,10.3,10.5,4.9-.5,8.2-3.1,7.8-9v-24.3c-.4-2.6-.4-5.6-4.3-5.9v-4.1h0l.2-.2Z"/>
      <path class="cls-2" d="M629.6,370.7c.6,3.6,1.2,5.5,2.6,7.8,2,3.3,6,5.5,9.9,5.5s9.4-4,9.4-8.6-1.3-5.2-3.6-6.8c-1.5-1.2-2.3-1.6-6.7-4.1-5.9-3.1-8.2-4.6-9.8-6.3-2.2-2.2-3.3-5.1-3.3-8.4,0-7.5,6-12.6,14.7-12.6s5.9,0,8.9,2.7l-.2-3.2h3.8v14.2l-3.9-1.8c-.3-4.3-.7-8.7-7.6-9.4-5-.5-8.5,3.5-8.5,8s1.3,4.9,7.3,8c4.8,2.5,7.7,4.2,9.4,5.3,4.8,3.1,6.7,6.3,6.7,11.4,0,8.3-6.1,14.1-14.9,14.1s-8.3-1.3-12.3-4.5l-2.7,5.1h-1.4v-16.6h2.1v.3h0l.1-.1Z"/>
    </g>
  </g>
</svg>