<?xml version="1.0" encoding="UTF-8"?>
<svg id="Layer_1" xmlns="http://www.w3.org/2000/svg" version="1.1" viewBox="0 0 1050 600">
  <!-- Generator: Adobe Illustrator 29.3.1, SVG Export Plug-In . SVG Version: 2.1.0 Build 151)  -->
  <defs>
    <style>
      .st0 {
        fill: #231f20;
      }

      .st1 {
        fill: none;
        stroke: #000;
        stroke-miterlimit: 10;
        stroke-width: 10px;
      }
    </style>
  </defs>
  <rect class="st1" width="1050" height="600"/>
  <path class="st0" d="M627.8,269.4h0c20.4-56,5-110.4-37.7-150l-24.3,110.1c-35.8,3-56.9,7.7-71.4,46.6l-70.6,24.3c3,20.4-1.6,30.2-17.2,40.9,20.6,14.7,49.8,14.1,63.2,11.3-2.9-1.9-11.9-7.7-14.5-12.3-9.4-16.5,6.9-40.5,32-.9,11.4,11.4,33,6,33,6-21.7,14.7-62.2,14.5-86,13.1,0,0,19.8,12,40.8,19.1s40.6-5.5,40.6-5.5c1.2,6.3-14.5,49.2-30.7,100.4,19.9,5.9,40.7,8.9,62.1,8.9,41.8,0,81.8-11.7,116-33.5-12.6-70.2-24.6-135.4-35.3-178.5h0ZM535.2,313.9c-9.2,0-16.7-11.3-16.7-25.3s7.5-25.3,16.7-25.3,16.7,11.3,16.7,25.3-7.5,25.3-16.7,25.3ZM403.4,338.9c-8.5-6.3-12.9-13.2-16.6-25.7l32.9-11.3c2.8,19.9-1.4,26.6-16.3,37.1h0ZM531.6,269.1c-8.3.2-14.9,8.9-14.7,19.6s7.1,19.2,15.4,19c8.3-.2,14.9-8.9,14.7-19.6s-7.1-19.2-15.4-19ZM537.3,300c-1.8-8.6-2-11.5-10.3-13,8.8-2.8,9.8-3.6,9.8-13.4,1.7,9.8,2.8,12,10.3,13-7.2,1.3-8.6,3.5-9.8,13.4h0ZM541.3,118.7l-1.2,6.4c-2.9,25.1-1.9,47.6-1.2,73.1.4,4.9,2,25.5,2.3,30.1,2.4-.4,4.8-.7,7.3-1.1h0c.8-.1,1.7-.2,2.5-.3h0c1.7-.2,3.4-.4,5.1-.5h.3c.8,0,1.6-.2,2.4-.2h.4c.8,0,1.7-.2,2.6-.2l15.5-70.2c-10.6-12.5-30.3-33.8-36.1-37h.1Z"/>
</svg>