<?xml version="1.0" encoding="UTF-8"?>
<svg id="Layer_1" data-name="Layer 1" xmlns="http://www.w3.org/2000/svg" viewBox="0 0 2316.99 1801.19">
  <defs>
    <style>
      .cls-1 {
        fill: #fff;
        stroke: #231f20;
        stroke-width: 9px;
      }

      .cls-1, .cls-2 {
        stroke-miterlimit: 10;
      }

      .cls-3 {
        fill: #231f20;
      }

      .cls-2 {
        stroke: #000;
        stroke-width: 5px;
      }
    </style>
  </defs>
  <path id="_Arm_-_Align_Perfectly_with_Card_" data-name="&amp;lt;Arm - Align Perfectly with Card&amp;gt;" class="cls-2" d="M299.78,111.06c80.93,83.18,117.7,106.08,121.78,113.83l-39.6-22.6,61.61,58.44-9.64-2.31,41.75,35.01c84.31,79.75,122,101.11,126.4,108.68l-40.51-20.94,63.98,55.84-18.14-1.98,40.38,38.82c84.31,79.75,122,101.11,126.4,108.68l-40.51-20.94,63.98,55.84-9.73-1.9c14.13,18.94,35.97,35.85,35.97,35.85l-16.42-7.12c15.5,19.72,65.22,69.51,105.86,106.88-41.01-2.45,20.17,18.87,27.83,24.39,4.21.93,8.79,2.69,5.34,7.86-.55,1.97-8.67.42-3.2,3.49,16.41,6.8,30.83,17.01,46.45,23.53,26.3-.61,12.73,15.14-5.84,9.93-39.07,2.55,88.08,27.16,34.74,42.83-23.9,1.25,62.9,36.19,68.72,47.38.36,2.54-7.68,4.72-9.97,5.87l-10.78,5.4c8.42,2.23,30.76,24.26,38.4,32.78,10.73,13.57,19.57,8.94,21.75,15.78.12,10.71,13.73,12.89,20.95,18.33,32.08,19.37,54.59,11.98,89.41,10.05-.75,1.8-2.25,5.55-2.97,7.38,56.51-4.3,205.01-113.21,245.13-80.73-.65,5.67-8.21,6.45-13.24,7.89.53,8.22,10.64,2.33,16.36,6.12,8.06,3.44,42.76,13.26,41.67,20.54-.63,12.15-15.42-4.1-16.42,4,18.85,12.04,25.45,21.64,32.2,41.31,1.95,6.51-1.56,6.1-4.71,9.89-.54,4.69,1.44,11.05-.71,15.29l-286.26-.59.35,235.17v5.53c-167.75-74.45-258.83-122.59-363.41-277.96-.84-.97-2.6-2.45-2.82-3.77-3.83-8.12-1.34,17.09-11.59,6.31-12.12-13.27-24.35-26.81-36.37-40.26,0,0-45.72-29.96-45.72-29.96-8.53-7.66-47.78-47.1-58.52-49.65l1.77,9.75-54.97-64.72,20.39,40.78-54.13-44.98c-7.93-8.29-44.06-50.59-54.57-53.96l1.03,9.86-49.89-68.71,17.23,42.22c-7.15-5.06-69.62-81.8-141.52-172.9l1.69,2.33c-13.18-13.76-47.75-49.87-61.15-63.88l-.76,2.87c-8.53-7.66-47.78-47.1-58.52-49.65l1.77,9.75-54.97-64.72,20.39,40.78c-7.51-4.5-13.22-45.93-91.84-131.3l-11.46-12.12C123.98,268.51,70.31,212.72,3.83,144.3L203.32,3.33l96.46,107.74Z"/>
  <g id="Business_Card" data-name="Business Card">
    <rect id="_Card_Outline_" data-name="&amp;lt;Card Outline&amp;gt;" class="cls-1" x="1250.15" y="1029.85" width="1062.34" height="591.3"/>
    <g id="_Black_Filled_Text_" data-name="&amp;lt;Black Filled Text&amp;gt;">
      <g>
        <g>
          <path class="cls-3" d="M1906.75,1523.41l-2.54-7.12h7.83l.92.61,3.76,14.95,2.34,12,.41-2.54,3.05-10.47,3.46-14.54h7.42l3.66,14.34,2.34,11.39,1.22,1.93,2.75-13.73,3.46-13.93h8.24l.2.51-2.24,6.61-8.64,35.69h-7.93l-6.61-28.47h-.31l-5.9,29.28h-7.73l-1.53-9.86-7.52-26.64h-.1Z"/>
          <path class="cls-3" d="M1969.49,1549.03l.41,4.58-.2,7.63h-7.93l.2-14.54v-19.01l-.81-10.37.2-.2,8.54-.2-.41,8.13v23.99h0Z"/>
          <path class="cls-3" d="M2001.72,1553.4l-.71,7.83h-19.93v-33.55l-.92-10.37.2-.2,8.54-.2-.41,8.13.31,29.28h6.1l6.81-.92h0Z"/>
          <path class="cls-3" d="M2026.02,1554.42l-.31,6.81h-19.93l-.2-14.54v-19.01l-.81-10.37.2-.2,8.54-.2-.41,8.13.2,29.49h6.1l6.61-1.53v1.53h0v-.1Z"/>
          <path class="cls-3" d="M2081.43,1525.34l-9.15-.31v31.72l.51,4.47h-8.13v-36.2l-8.74.31-.31-.2v-8.64h10.37c0,.1,4.88.1,4.88.1l10.37-.2v8.85h.2v.1Z"/>
          <path class="cls-3" d="M2115.79,1556.86l2.85,4.27h-10.07l-8.13-17.59c-.81-.2-2.03-.41-3.25-.71v6.81l.61,6.51-.31,4.88h-7.93v-13.73l.2-19.01v-11.9h1.73l2.44.31c2.75-.61,5.8,0,8.24,0,8.13,0,12.81,3.66,12.81,13.12s-2.95,10.17-7.32,12.51l4.68,10.47,3.36,3.97h.1v.1ZM2097.29,1524.83v.92l.41,11.79,2.54-.41h1.02c3.56,0,6.41-1.53,6.41-6.51s-1.42-5.9-6.3-6.1c-1.22,0-2.75,0-4.17.2h0l.1.1Z"/>
          <path class="cls-3" d="M2148.94,1551.27h-13.42l-3.36,9.05h-7.63l2.95-7.93,10.47-30.6,1.73-5.69h5.39l2.03,6.2,10.17,30.2,2.75,7.93h-8.64l-2.54-9.05h0l.1-.1ZM2137.96,1543.95h8.44l-3.56-12.61h-.92l-3.97,12.61h0Z"/>
          <path class="cls-3" d="M2173.85,1552.59l-11.49-29.69-2.34-6.51h10.37l.41.31,5.08,19.01,1.93,7.93h1.02l2.03-7.93,5.49-19.32h0l10.17-.92-2.14,7.42-10.98,29.38-1.93,8.03h-5.29l-2.54-7.73h.2,0Z"/>
          <path class="cls-3" d="M2225.8,1554.42v5.08h-21.55v-43.52h20.03v8.13l-11.18.41-.81,12.3,9.56-.31h0l.41,4.68-9.46-.2.2,13.32h13.01-.2v.1Z"/>
          <path class="cls-3" d="M2253.86,1554.12v6.2h-19.93v-9.15l.2-19.01-.92-10.37-.2-5.59,8.54-.2v38.74h6.1l4.58-.2,1.53-.31h0l.1-.1Z"/>
        </g>
        <g>
          <path class="cls-3" d="M1363.92,1556.69v2.64h-6.51l-.81-10.57-.31-6.81h-14.03v7.93l.61,6.61.2,3.46h-6.71l-.31-12.81.2-20.84-.31-10.47h6.71l-.41,8.13.2,10.57h15.35l-.2-7.83-.92-10.37.2-.2,7.22-.2-.51,8.54v25.93l.31,6.3h0Z"/>
          <path class="cls-3" d="M1394.02,1549.37h-13.42l-3.46,10.37h-7.63l2.54-7.12,10.37-32.33,1.02-4.47h7.52l.71,3.56,10.27,33.25,2.75,7.12h-8.64l-1.83-10.37s-.2,0-.2,0ZM1382.53,1543.07h8.44l-3.56-13.73h-.92l-3.86,13.73h-.1Z"/>
          <path class="cls-3" d="M1417.3,1553.94l-7.83-27.86-2.85-10.37h8.13l.61,3.05,5.08,19.01,1.42,7.42h2.24l1.32-7.42,5.08-19.01.61-2.54h8.34l-2.75,9.35-7.93,28.27-1.02,5.9h-9.46l-1.02-5.9h0v.1Z"/>
          <path class="cls-3" d="M1468.44,1552.52l.41,7.32-21.45-.51.2-13.62v-29.18l.2-.2,8.54-.2,12.61-.41-.61,8.74h-12.3v9.25h9.25l1.22,6.51h-10.17l-.31,12.71h11.08l1.42-.31h0l-.1-.1Z"/>
          <path class="cls-3" d="M1529.24,1535.13c3.25,1.42,5.19,4.27,5.19,9.05,0,7.12-5.08,14.84-13.12,14.84s-5.08-.2-7.73-.51h-5.9v-12.71c.1,0,.2-19.01.2-19.01l-.92-10.37.2-.2h3.97c3.15-.71,7.32-1.02,8.95-1.02,9.25,0,13.12,3.56,13.12,10.57s-1.53,7.22-3.86,9.35h-.1ZM1515.41,1522.83v10.88h4.07c4.58,0,6.71-3.15,6.71-6.91s-1.83-4.17-6.61-4.17-2.64,0-4.17.2h0ZM1527.31,1545.2c0-3.15-2.75-5.19-6.51-5.19s-3.36.2-5.39.41v10.98c1.63.2,3.46.31,4.88.31,5.29,0,7.02-3.56,7.02-6.61h0v.1Z"/>
          <path class="cls-3" d="M1570.11,1554.86l.81,2.85h-8.85l-6.91-14.54c-.81-.2-2.03-.31-3.25-.51l-.41,5.8.61,6.51v2.95c.1,0-8.34.51-8.34.51l.2-12.4v-19.01l-.81-10.37.2-.2h4.27c2.75-.71,6.41-1.02,8.95-1.02,8.13,0,12.81,3.66,12.81,13.12s-2.95,10.17-7.32,12.51l6,9.46,2.14,4.47h0l-.1-.1ZM1552.42,1523.34l-.31,1.22v10.88l2.34.51h1.02c3.56,0,6.41-1.53,6.41-6.51s-1.42-5.9-6.3-6.1c-1.22,0-1.83,0-3.25.1h.1v-.1Z"/>
          <path class="cls-3" d="M1602.14,1550.89h-13.42l-2.85,7.02h-7.63l2.54-7.12,10.37-29.79,1.22-4.68h7.52l.92,5.19,9.86,29.28,2.75,7.12h-8.64l-2.44-7.02h-.2ZM1590.25,1543.78h8.44l-2.54-16.47h-.92l-4.88,16.47h-.1Z"/>
          <path class="cls-3" d="M1627.56,1548.45l.2,6.1.61,4.27h-7.93l.31-14.34v-19.01l-.81-10.37.2-.2,8.54-.2-1.02,12.3v21.25h0v.2h-.1Z"/>
          <path class="cls-3" d="M1667.42,1552.62v5.29h-7.02l-4.88-12.4-8.74-13.12-.41-.81h-.61v23.79l.61,3.56h-8.13v-28.06l-1.83-14.74.2-.2h7.83c0-.1,3.46,5.49,3.46,5.49l13.01,16.98h.41v-9.86l-1.22-12.51.2-.2h7.02c0-.1.2,6.2.2,6.2v30.4h0v.2h-.1Z"/>
        </g>
      </g>
      <g>
        <path class="cls-3" d="M1536.1,1316.66l-.41.41h-11.08l-7.02-11.49-18.1-24.71-.61-1.22h-.92v26.43l1.22,10.57-.41.41h-13.12v-38.64l-2.34-27.96.31-.31,12.61-.2,3.15,8.64,22.77,32.13h.71v-15.86l-1.32-24.4.31-.31,14.54-.31-1.22,15.66v40.47l1.22,10.57h-.31v.1Z"/>
        <path class="cls-3" d="M1548.61,1293.78c0-16.67,7.22-26.03,22.37-26.03s20.84,7.63,20.84,24.4-8.03,26.23-22.47,26.23-20.74-7.83-20.74-24.6h0ZM1569.45,1279.95c-3.56,0-6.1.41-7.93,1.93-1.93,2.14-2.34,4.98-2.34,10.27,0,9.56,3.56,13.93,12.1,13.93s6.51-.61,8.54-2.54c1.63-2.24,2.03-5.19,1.93-10.17-.1-8.85-2.85-13.32-12.2-13.32h-.1v-.1Z"/>
        <path class="cls-3" d="M1644.08,1310.56c-4.78,4.27-10.68,6.51-19.93,6.51-15.76,0-21.86-7.83-21.86-24.91s7.93-25.72,22.98-25.72,18.61,6.91,18.61,20.13-.31,5.8-.71,9.05l-.61.31h-29.89c1.02,7.02,5.08,10.57,12.91,10.57s10.78-1.02,13.32-3.05l2.14-1.12,3.15,8.24h-.1ZM1612.86,1287.28l21.35-.51c.2-6-2.85-8.85-9.66-8.85s-11.08,3.15-11.79,9.46h.1v-.1Z"/>
        <path class="cls-3" d="M1656.48,1244.78v-.71c.1,0,12.91-.61,12.91-.61h0l-.61,23.38v39.96l.51,9.86-.71.41h-11.08v-46.26c.1,0-1.22-26.03-1.22-26.03h.2Z"/>
        <path class="cls-3" d="M1683.63,1244.78v-.71c.1,0,12.91-.61,12.91-.61h0l-.61,23.38v39.96l.51,9.86-.71.41h-11.08v-46.26c.1,0-1.22-26.03-1.22-26.03h.2Z"/>
        <path class="cls-3" d="M1750.63,1311.88c-4.78,4.27-10.68,6.51-19.93,6.51-15.76,0-21.86-7.83-21.86-24.91s7.93-25.72,22.98-25.72,18.61,6.91,18.61,20.13-.31,5.8-.71,9.05l-.61.31h-29.89c1.02,7.02,5.08,10.57,12.91,10.57s12.3-2.14,14.84-4.17h.61l3.15,8.24h-.1ZM1719.42,1288.6l21.35-.51c.2-6-2.85-8.85-9.66-8.85s-11.08,3.15-11.79,9.46h.1v-.1Z"/>
        <path class="cls-3" d="M1836.65,1299.58c0,11.49-8.24,18.3-21.15,18.3s-8.24-.31-12.51-.81h-9.46l.2-14.84v-30.6l-1.42-16.78.31-.31h6.3c4.98-1.22,11.79-1.63,14.54-1.63,14.95,0,21.15,5.8,21.15,17.08s-2.44,11.69-6.3,15.05c5.29,2.34,8.34,7.02,8.34,14.64h0v-.1ZM1812.65,1264.81c-1.93,0-4.27,0-6.71.41v14.54c2.34,0,4.58,0,6.81.1,7.42,0,10.68-2.24,10.68-8.24s-2.95-6.71-10.57-6.71h-.2v-.1ZM1825.05,1297.85c0-4.98-2.95-7.02-9.05-7.02s-6.71.31-10.17.71v13.73c2.75.31,5.49.51,7.83.41,8.64,0,11.39-2.95,11.39-7.83h0Z"/>
        <path class="cls-3" d="M1892.26,1316.66l-.71.41h-11.08v-28.16c0-5.08-3.15-7.02-7.22-7.02s-7.83.81-12,2.54v22.47l.51,9.86-.71.31h-11.08v-47.28l-1.22-18.4v-.71l12.91-.61h0l-.61,16.67v7.93c5.08-3.76,11.18-7.02,17.59-7.02s12.81,4.78,12.81,15.15v23.89l.51,9.86h.31v.1Z"/>
        <path class="cls-3" d="M1947.57,1316.15l-.31.81-10.47,1.12-1.73-6.2c-5.19,3.97-12.1,6.3-17.49,6.3-8.44,0-12.61-5.69-12.61-14.54s5.49-14.23,16.17-14.23,8.24.61,12,1.22v-3.97c0-4.68-3.25-6.61-8.74-6.61s-10.68,1.02-14.74,2.34l-.71-.31-1.73-10.57c4.78-2.14,13.32-3.66,19.22-3.66,9.76,0,17.79,2.24,17.79,16.57v21.25l3.25,10.37h0l.1.1ZM1922.56,1307.2c3.66,0,7.63-1.32,10.57-3.25v-5.49c-2.75-.41-6-1.02-9.46-1.02-5.08,0-7.02,1.22-7.02,4.68s1.22,4.98,5.9,4.98h0v.1Z"/>
        <path class="cls-3" d="M2005.02,1316.15l-.31.81-10.47,1.12-2.14-6.41c-3.76,3.76-9.05,6.61-15.15,6.61-12.61,0-19.11-7.22-19.11-23.59s9.15-26.64,21.66-26.64,8.34,1.02,10.98,2.75v-.81l-1.63-18.4v-.71l13.32-.51-.41,22.67v27.35h0v5.49l3.25,10.37h0v-.1ZM1989.56,1303.54v-.2h.51c.2-.31.41-.41.51-.51v-19.62c-3.15-2.03-7.22-2.75-11.39-2.75-7.93,0-10.47,3.36-10.47,12.2s4.07,13.52,11.69,13.52,6.61-1.02,9.15-2.54h0v-.1Z"/>
        <path class="cls-3" d="M2060.83,1316.76l-.31.31-10.57,1.02-1.22-6.1c-4.27,3.15-9.46,6.1-15.76,6.1s-13.93-1.73-13.93-14.03v-24.5l-1.63-10.27.31-.2,12.91-1.02-.41,15.76v15.45c0,5.8,2.85,7.73,7.83,7.73s6.3-1.63,9.35-3.56v-20.44l-1.22-13.83.31-.2,12.3-1.02-.2,15.56v19.93l2.24,13.22h0v.1Z"/>
        <path class="cls-3" d="M2076.19,1302.02v-19.72l-1.53-12.51v-.71l12.1-1.32.41,9.76c3.66-6.81,9.96-10.07,15.86-10.27l1.12.41-.92,14.13c-.81,0-2.03-.2-3.86-.2-3.97,0-8.85,1.32-12,4.88v20.33l.61,9.86-.71.41h-11.08v-15.05h0Z"/>
        <path class="cls-3" d="M2121.53,1247.83c4.58,0,7.42,2.34,7.42,7.12s-2.75,7.52-7.42,7.52-7.42-2.95-7.42-7.52,2.85-7.12,7.42-7.12ZM2127.63,1306.8l.51,9.86-.71.41h-11.08v-36.5l-1.63-11.18.31-.31,13.32-.92-.81,14.64v23.99h.1Z"/>
      </g>
      <g>
        <path class="cls-3" d="M1700.91,1378.27h-2.03c-.81-3.36-1.93-7.12-3.05-9.15-2.24-3.86-3.86-3.15-8.44-3.15-8.85,0-11.59,7.63-11.59,22.27s.41,10.47,1.93,14.54c1.83,4.78,4.27,8.24,9.46,8.24s4.27-.31,6.91-1.42c1.02-.41,1.53-1.42,1.53-2.44v-10.68c0-3.05-.81-6.91-5.29-7.22v-2.34c3.86.41,6,.41,8.95.41s1.22.2,5.08-.1v2.34c-4.27.41-3.66,3.76-3.66,7.02l-.31,10.27c0,1.02-1.42,3.15-2.34,3.66-3.05,1.73-6.3,2.75-11.79,2.75-12.91,0-20.84-9.46-20.84-24.91s7.93-27.05,20.64-27.05,6.91,2.03,10.78,5.39l2.54-4.17h1.42v15.66h.1v.1Z"/>
        <path class="cls-3" d="M1744.02,1410.6h-32.03v-2.34c5.29-.31,4.47-.81,5.19-5.08v-33.45c-.81-4.07,0-4.58-5.19-4.78v-2.34h31.62v13.32h-3.25c-1.93-7.42-.81-10.78-6.3-10.78h-8.24v19.32h.71c6.71-.71,6.71-3.15,7.12-6.51h2.14l-.31,14.74h-2.14c-.2-3.97-.81-6-6.81-5.69h-.51v17.18c-.41,3.15,0,3.36,3.66,3.36h3.66c4.07,0,5.29,0,7.32-3.15.41-2.03,1.22-4.58,1.02-7.12h2.03l.41,13.52h0v-.2h-.1Z"/>
        <path class="cls-3" d="M1780.62,1409.79c-.31-.51-.81-2.03-1.02-3.86-1.93-2.75-1.53-3.86-3.05-6l-19.11-29.79v33.45c.61,3.56,1.63,4.07,3.97,4.98v2.34c-3.46-.2-5.29-.31-7.42-.31s-3.97,0-7.32.31v-2.34c5.29-.31,6-.81,6-4.98v-36.4c-1.73-1.73-3.36-2.34-6.1-2.54v-2.34c2.75.1,4.37.2,6.71.2s3.66,0,6.2-.2l20.74,28.27,1.12-20.94c0-3.76-.61-3.05-3.97-2.95v-4.27c3.46.2,5.19.31,7.42.31s2.85,0,6.2-.2l.51,3.56c-5.29.2-5.49-.51-5.49,3.56l-1.93,40.16h-3.56.1Z"/>
        <path class="cls-3" d="M1819.77,1412.33c-4.58-.41-5.29-.51-8.44-.51s-5.49.1-10.17.51v-2.34c5.39-.31,6-.81,6-4.07v-33.96c0-5.08-.71-5.69-6-5.9v-3.97c4.58.41,6.91.51,10.17.51s5.49-.1,10.07-.51v3.97c-5.29.2-7.52,1.22-8.24,4.68v36.5c1.93,2.64,1.53,1.53,6.91,1.83l-.31,3.15h0v.1Z"/>
        <path class="cls-3" d="M1855.56,1362.72c4.27.31,7.22.41,9.46-.1h2.75l-.2,4.78s-2.85.2-2.34,3.56v24.6c0,6.51,0,7.83-1.53,10.47-2.95,4.07-5.08,7.42-11.18,7.42s-10.17-1.83-13.32-5.29c-2.54-2.75-3.56-6-3.56-11.29v-25.21c0-4.07-.71-4.78-6-4.98v-4.17c4.58.41,6,.41,9.25.41s4.88,0,8.54-.61v5.8c-4.47.41-6.3-.41-6.3,3.76l.61,23.79c0,4.07,3.36,11.18,10.27,10.47,4.88-.51,8.24-3.15,7.83-9.05v-24.3c-.41-2.64-.41-5.59-4.27-5.9v-4.07h0v-.1Z"/>
        <path class="cls-3" d="M1876.3,1396.68c.61,3.56,1.22,5.49,2.64,7.83,2.03,3.36,6,5.49,9.96,5.49s9.46-3.97,9.46-8.64-1.32-5.19-3.56-6.81c-1.53-1.22-2.34-1.63-6.71-4.07-5.9-3.15-8.24-4.58-9.86-6.3-2.24-2.24-3.36-5.08-3.36-8.44,0-7.52,6-12.61,14.74-12.61s5.9,0,8.95,2.75l-.2-3.25h3.76v14.23l-3.86-1.83c-.31-4.27-.71-8.74-7.63-9.46-4.98-.51-8.54,3.46-8.54,8.03s1.32,4.88,7.32,8.03c4.78,2.54,7.73,4.17,9.46,5.29,4.78,3.15,6.71,6.3,6.71,11.39,0,8.34-6.1,14.13-14.95,14.13s-8.34-1.32-12.3-4.47l-2.75,5.08h-1.42v-16.67h2.14v.31h0Z"/>
      </g>
    </g>
  </g>
  <path id="_1_Morph_Above_Card_-_Fingers_" data-name="&amp;lt;1 Morph Above Card - Fingers&amp;gt;" class="cls-2" d="M1098.99,1199.11l-.53,1.41-.65,2.3-10.48,5.77-10.24,5.94-10.77,6.53-5.24,3.47-7.95,5.53-7.89,6-4.71,3.83-4.83,4.3-4.18,4.3-3.18,3.35-3.59,4.47-2.94,4.24-2.3,3.77-2.18,4.18-1.77,3.71-2.18,5.65-1.94,6.18-1.06,4.53-1.06,6.53-1.06,8.42-.65,7.47-.24,6,.41,3.53s.24.53.59,1c.35.47,2.41.65,2.41.65l1.35-.41,1.82-1.35s1.35-1.65,2.06-2.59c.71-.94,2.94-5,2.94-5l1.77-2.77s.59-.94.65-1.24c.06-.29.12-1.18.12-1.18l.53-.88,1.12-.12,1.47.18s-1.41,3.47-1.71,4.88c-.29,1.41-2.06,7.3-2.18,9.3-.12,2-.82,5.94-.82,8.47s.18,4,.18,4l.53,5.65,1.53,7.24,2.06,6.53,1.53,3.41s1.65,2.94,3.18,4.53c1.53,1.59,3.59.82,3.59.82l2.59-3.24,2.18-2.65.59,1,2.06,2.41,2.06,2.24,2.88,2.88,4.88,3.88,3.88,2.35s1-1,1.29-1.88.35-.35.77-1.71c.41-1.35,1.94-.59,1.94-.59l1.06.41.82.53,3.18,2.88,4,3.53,3.59,3.24,1.24,2.47,1.94,4.94,2.12,6.24,2.3,6.47,3.12,6.47,3.47,7.53,4.77,10.77,2.77,7.06,2,5.94,2.12,7.71,1.65,7.95,1.53,11.24.65,6.42.47,7.53v4.71l-.41,6.18-.65,5.12-1,5.94-1.82,7.12-2.12,6.41-3.41,8.36-4.3,8.42-6.89,11.42-7.53,11.06-5.89,7.65-5.12,5.65-7.71,7.24-8.83,6.71-7.42,4.59-9.8,6.44-6.89,4.94c-2.91-1.15-3.71,1.94-3.71,1.94l-3.09,4.06-5.12,6.36-7.59,8.56-5.83,9.36-3.18,8.3-2.12,10.77-1.06,13.24.35,9.36.79,7.68.71,7.95,1.32,8.3,2.21,11.12,2.82,10.15,1.77,6.44,2.12,5.3,2.03,2.65s1.32,2.03,4.59,1.41c3.27-.62,3.53-1.24,3.53-1.24l.35-2.91,1.15-6.97.26.62,1.15,1.77,1.5,2.56,1.41,2.56,2.3,4.15,2.38,3.8,1.85,2.47,3.97,4.41,3,3.8,5.56,6.89,4.68,5.56,7.24,8.56,7.5,9.18s2.38,3.44,3.35,3.97c.97.53,2.91.62,4.06.18,1.15-.44,1.59-1.06,1.59-1.06,0,0,1.59-1.06,2.38-1.15s1.59.71,1.59.71l2.03,1.41,2.91,2.12,4.06,3.09,4.59,2.91s2.65,1.32,4.33,1.24c1.68-.09,2.3-1.24,2.82-1.94.53-.71.62-1.59.62-1.59l.09-1.06,2.56.53.53.97.62,1.06,1.15,1.24,1.06.79,1.68,1.06,3.44,2.03,3.71,2.12,5.65,2.82,6.8,3.53,3.09,1.41,2.47.44,2.56-.18.71-.62.47-.94-.38-1.97-1.15-1.77-2.3-3.62-.09-1.24.97-.35,1.41.62,1.68,1.06,1.94,1.94,2.03.97,3.62,1.5,8.83,2.82s6.18,1.15,7.06.97c.88-.18,1.59-.44,1.59-.44l.35-1.5v-2.47l.35-2.21h2.65l4.77.18,5.74.09,4.94-.18,6-.53,5.74-1.06,8.3-2.65,8.65-4.15s2.38-1.41,3.97-3,2.65-2.47,2.65-2.47l3.71-2.82,2.82-1.15,3.27-.71,3.53-.71,4.94-.62,5.65-1.24s.97,0,4.94-2.03c3.97-2.03,5.03-3,5.03-3,0,0,1.5-.35,7.06-6s6.27-6.97,8.56-10.15c2.3-3.18,2.91-4.41,2.91-4.41l3-5.3s.71-2.47,1.5-3.88,1.85-6.18,1.85-6.18l1.06-5.21.26-5.74-.62-5.47-1.32-4.94-2.3-5.65-2.83-4.06-3-2.65-2.65-1.5-2.65-1.24-2.91-1.59-1.77-1.68-1.06-1.85-1.24-3.09-1.32-3.44-1.5-2.91-3.35-3.88s-4.33-4.5-6.18-6.36c-1.85-1.85-9.18-6.09-9.18-6.09l-5.47-2.38-5.47-1.94-5.21-1.5-7.33-2.21-5.83-1.94-2.82-1.06-2.47-1.32-2.91-1.94-2.91-2.03-3.53-2.3-3.35-1.94-2.83-1.32-3-.79-3.62-.35-2.91-.26-3.88-.44-3.09-.71s-2.03-.44-2.56-.79-.26-1.24-.26-1.24l.71-1.68,1.32-2.47,2.38-3.88,3.62-6,2.38-4.06,3.44-6.09s1.59-2.82,2.21-4.41c.62-1.59,1.06-3,1.06-3l2.82-1.77s3.27-2.12,4.33-2.82c1.06-.71.62-.62.62-.62l-1.15-2.82-1.41-2.74-1.94-4.06,1.94.71,4.33,1.24,5.21,1.32,4.94,1.06,6.36,1.15,9.45.88,4.41.26h7.95s5.12-.62,6-.97c.88-.35.79-.88.79-.88l.62-.97-.44-1.32-.88-3.88,2.91-.09,3.88-.18,4.59-.53,3.88-.62,4.86-1.41,8.39-2.65,9.09-2.74,9.09-2.47,11.39-2.65s6.89-1.77,9.8-3.27,1.94-1.24,4.59-2.3c2.65-1.06,4.24-3.44,5.12-4.5.88-1.06,2.03-3.27,2.03-3.27l.53-2.3.26-1.41-.26-.79h-9.98l-.62-.71.65-1.38,1.18-1.29,4-2.35,4.94-2.59,8.24-4,3.53-1.88,3.53-3.06,3.77-4,3.3-3.53,2.35-1.88,1.65-2.12,2.35-4,2.82-4,2.96-2.78.42-.61.77-.99.87-1.07,1.19-1.5,1.42-1.68,1.37-1.66,2.37-2.89,1.58-1.92s2.91-3.7,3.42-4.35c.51-.65,1.76-2.73,1.76-2.73l.55-.99c.49-.61,3.46-7.22,3.82-8.09s1.78-4.63,1.78-4.63l1.17-3.38s1.4-4.57,1.64-5.5,1.11-4.35,1.29-5.14c.18-.79.79-3.64.99-4.85.2-1.21.53-3.01.65-4,.12-.99.34-2.49.42-3.34.08-.85.28-3.05.34-3.76s.14-3.28.14-3.28c0,0,.04-3.11,0-3.8-.04-.69-.3-3.32-.3-3.32l-.38-2.12-.3-1.27-.65-2.39-.75-2.47-.63-2.02-.81-2.51-.45-1.4-.34-1.21-.59-2-.32-1.19-.28-1.37-.22-1.44-.06-1.11.04-.97.08-.85.16-1.01.24-1.03.44-1.33.67-1.6.4-.93.69-1.36.67-1.37.51-1.35.32-1.07.2-1.31.08-.95v-.77l-.1-1.23-.28-1.52-.42-1.56-.36-1.01-.61-1.6-.63-1.35s-.63-1.35-.95-1.88c-.32-.53-1.03-1.88-1.37-2.31s-1.27-1.72-1.27-1.72l-1.29-1.52-1.11-1.09-1.23-1.05-1.35-.97-1.35-.87-2.02-1.07s-2.45-1.07-3.48-1.4-3.58-.91-3.58-.91l-1.66-.34-2.77-.36-3.24-.3-2.33-.06-2.1-.02-2.27.08-1.8.06-1.68.1-1.92.26-3.05.45-7.32,1.37-3.82.89-3.94,1.07-3.01.97-2.59,1.07-2.22,1.23-1.01.83-.71.73s-.53.91-.3,1.56.67,1.17.67,1.17l.08.32,1.17.04s2.41-.14,5.06.26c2.65.4,2.54.41,2.54.41l2.21.35,2.63.53,2.65.82,1.1.4,2.07.86,1.81.99,1.15.75,1.46,1.13s.91.79,1.43,1.43,1.19,1.57,1.19,1.57l.95,1.61.51,1.1.42,1.1-1.25-.18-3.5-.47-2.62-.29-3.33-.24-2.5-.18-3.15-.06-2.3-.06h-2.32l-2.77.12-1.82.09-1.88.15-2.41.24s-1.27.12-2.21.26c-.94.15-3.97.56-3.97.56l-4.18.77-3.5.79-4.53,1.21-3.65.97-2.8.82-1.71.68-2.22,1.21-1.32,1.41-.97,1.94-.4,1.37.18,3.53-4.28.97-2.21.62-.49-.31-.75-.79-.44-1.28-.49-2.07-.13-1.85-.09-1.5v-4.28c0-1.24-.18-6-.26-7.68s-.53-3.27-.53-3.27l-.46-1.13.65-.71,1.88-.94,6.12-2.71,6.12-2.41s7.12-2.47,9.12-3.3c2-.82,4.41-2.18,4.41-2.18l3.41-1.77,5.41-3.83,3-2.47s4.83-4.41,7.12-6.94,5-6.24,5.77-7.47c.77-1.24,3.18-4.77,3.77-5.83.59-1.06,3.94-7.36,3.94-7.36,0,0,2.82-5.53,3.77-7.77.94-2.24,2-5.41,2-5.41,0,0,.41-1.47.88-4.12s1.12-3.3,1.12-3.3c1.18-1.77,1.35-1.35,2.24-2.18.88-.82,4.59-2.41,4.59-2.41,0,0,6.47-3.35,9.71-5.47,3.24-2.12,6.65-5,8-6.42,1.35-1.41,2.47-2.41,4.77-5.36s4.77-8.53,5.36-11.12c.59-2.59.41-6.71-.06-8.71s-1-4.66-1-4.66l-.44-2.03-1.85-4.33-2.83-4.86-2.59-3.78-.63-.91c-.65-.94-1.36-1.84-2.22-2.6-.89-.79-2.41-3.04-5.33-5.42-4.24-3.44-7.5-4.59-7.5-4.59-2.29-.71-4.64-1.23-7.01-1.56l-5.26-.74-6.18.63-2.25,1.04c-1.17.82-1.78,2.21-1.6,3.63l.93,2.29,3.15,3.88c.43.53.81,1.1,1.13,1.7l5.78,10.64c.67,1.34.63,2.92-.1,4.23l-1.3,2.33c-.92,1.66-2.37,2.97-4.11,3.73l-1.57.68c-1.61.7-3.37.99-5.11.85l-3.28-.26c-.94-.67-2.2-.96-3.15-1.38l-3.71-1.77-6.71-2.63-7.59-1.87-6.09-.44-3.46-.69c-1.51-.3-2.94-.88-4.24-1.7l-2.36-1.5-3.8-3.53-4.24-3.53-3.1-1.15c-1.74-.46-3.6-.17-5.12.8l-2.12,1.15-1.21.74,1.29.61-1.29-.61-.11.07v-.12l-149.57-71.48.03.03Z"/>
  <path id="_2_Morph_Above_Card_-_Fingers_" data-name="&amp;lt;2 Morph Above Card - Fingers&amp;gt;" class="cls-2" d="M1092.43,1165.91l-2.36,11.66-2.96,10.46-7.72,12.74-14.09,22.54c-6.47,8.13-18.08,40.44-21.65,50.14-1.28,4.71-10.26,22.31,1.27,17.78,5.17-1.99,8.82-12.16,13.73-10.48-9.22,11.98-13.79,29.38-11.99,44.5,3.51,19.89,7.41,5.37,12.24,7.19,13.69,28.93,27.72,59.73,33.65,91.87,22.13,100.41-88.55,114.71-108.41,187.04-.92,7.11,1.72,15.8-8.69,12.82,7.26,9.19-4.7-2.11-3.98,16.06-2.24,10.34-2.28,62.08,12.81,30.54,8.74,34.44,21.67,64.11,48.36,84.67,5.72,6.45,7.11-2.48,10.79.09,4.98,9.56,17.04,23.1,27.72,25.09,3.23-1.9-5.56-15.9,2.81-7.74,4.54,6.58,14.03,12.8,22.05,14.24,1.66-2.24.99-7.28,4.9-5.05,29.3,12.46,58.76-2.29,88.55-2.26,31.65-14.31,54.43-18.29,51.61-45.77-.95-9.28-7.16,29.35-26.51-34.48-8.93-29.47-49.34-50.9-74.12-66.95,1.18-6.88,5.65-32.02,10.64-36.87,7.2-11.58,20.16-42.43,19.05-8.35.87,7.63,6.87,58.16,19.63,44.65,2.45,10.36,61.45,93.85,54.9,53.29,41.58,34.47,107.49,52.12,152.77,12.96,61.22,7.59-1.17-97.42,2.63-60.41,1.72,48.48-13.07-10.55-26.91-24.21-7.71-17.09-62.69-69.84-100.03-84.64,0,0,2.11-103.32-19.87-129.22-1.67-1.97,14.24,15.8,33.26,30.59s83.6,44.62,137.43,43.49c5.53-.12,7.9-.8,11.19.33,23.41,10.55,51.35,3.77,54.26-25.26,4.25-11.14-5.1-40.13-18.54-34.78-2.85,14.37-21.82,21.86-26.07,7.29-6.57-22.54-7.04-44.62-29.62-72.28-36.85-45.15-108.57-85.4-163.87-103.37l-158.85-79.96Z"/>
  <path id="_2_Morph_Behind_Card_-_Thumb_Filler_" data-name="&amp;lt;2 Morph Behind Card - Thumb Filler&amp;gt;" class="cls-2" d="M1614.86,1029.85l1.13-.29s.65-.15,1.83-3.27c1.17-3.11-.6-4.77-.6-4.77l-2.26-2.46-4.85-3-21.42-16.73-24.66-12.68-22.54-8.45-33.11-11.27-9.53,9.41-250.66,53.5,3.1,216.01,95.81,52.13,166.25-267.69,101.52-.45Z"/>
  <path id="_3_Morph_Behind_Card_-_Thumb_Palm_" data-name="&amp;lt;3 Morph Behind Card - Thumb &amp;amp; Palm&amp;gt;" class="cls-2" d="M1508.37,966.94l33.11,11.27,22.54,8.45,24.66,12.68,21.42,16.73,4.85,3,2.26,2.46s1.77,1.65.6,4.77c-1.17,3.11-1.83,3.27-1.83,3.27l-8.02,2.1-4.71,2.62,1.82.74h0l6.31,1.52,3.33,3,2.12,2.25,3.66,4.67,3.22,3.61,5.82,6.67,4.67,5.57,7.19,8.61,7.75,8.97s2.98,2.94,3.33,3.99c.35,1.05.11,2.98-.53,4.03-.63,1.05-1.32,1.38-1.32,1.38,0,0-1.32,1.38-1.54,2.15-.22.77.42,1.69.42,1.69l1.04,2.24,1.58,3.23,2.34,4.53,2.08,5.02s.85,2.84.47,4.47c-.38,1.64-1.61,2.05-2.4,2.45-.79.4-1.67.33-1.67.33l-1.06-.1.08,2.61.87.69.94.79,1.02,1.34.6,1.18.75,1.83,1.41,3.74,1.45,4.02,1.81,6.05,2.31,7.3.86,3.29v2.51s-.61,2.49-.61,2.49l-.73.59-1.01.3-1.88-.72-1.54-1.43-3.17-2.89-1.2-.3-.52.9.37,1.5.75,1.83,1.58,2.25.61,2.17.85,3.82,1.26,9.18s.07,6.28-.26,7.12c-.33.84-.71,1.49-.71,1.49l-1.54.09-2.43-.43-2.23-.03-.46,2.61-.65,4.73-.9,5.67-1.03,4.84-1.56,5.82-2.03,5.47-4.04,7.72-5.58,7.81s-1.8,2.1-3.64,3.4c-1.84,1.29-2.89,2.18-2.89,2.18l-3.42,3.17-1.62,2.58-1.26,3.1-1.3,3.36-1.37,3.9-1.14,5.67s.02.97-1.95,4.98c-1.97,4-2.92,5.08-2.92,5.08,0,0-.33,1.51-5.89,7.16-5.56,5.65-6.87,6.38-10.01,8.73-3.14,2.35-4.37,2.98-4.37,2.98l-5.25,3.09s-2.46.75-3.86,1.56c-1.4.82-6.15,1.95-6.15,1.95l-5.19,1.14-5.73.36-5.48-.53-4.96-1.24-5.69-2.2-4.11-2.76-2.7-2.96-1.54-2.62,18.35-6.48-6.57-6.57-19.39-9.12-1.64-1.36-2.83-1.75-3.16-1.9-2.61-1.98-3.25-3.97s-3.69-5.04-5.2-7.18c-1.51-2.15-4.42-10.09-4.42-10.09l-4.39-8.83-1.49-12.99-5.17-18.79-.94-7.51-.94-5.05-.26-3.09.28-3.63.24-2.92.23-3.9-.16-3.17s-.08-2.08-.34-2.66c-.15-.34-40.13,10.42-62.55-6.73h0c-13.36,18.49-23.97,21.62-34.12,44.12-22.82,50.57,2.02,94.7,1.41,136.66-.53,36.69,22.71,132.14-53.37,141.3l-249.73-274.74,147.41-163.14,222.04-1.66c.03.17.05.33.08.5l37.96-61.79Z"/>
  <path id="_3_Morph_Above_Card_-_Fingers_" data-name="&amp;lt;3 Morph Above Card - Fingers&amp;gt;" class="cls-2" d="M984.14,1611.37c-.92,7.11,1.72,15.8-8.69,12.82,7.26,9.19-4.7-2.11-3.98,16.06l-.08.4c-1.91,9.95-2.01,50.6,8.44,37.7,2.01-2.48,5.96-1.76,6.84,1.31,8.68,30.56,21.52,56.86,45.75,75.62.15.12.3.26.43.4,5.55,6.01,6.95-2.68,10.59-.14,4.11,7.89,13.03,18.48,22.03,23.06,3.01,1.53,6.4-1.35,5.46-4.59s-1.64-5.69,3.04-1.12c3.88,5.62,11.37,10.98,18.47,13.32,2.06.68,4.27-.5,4.93-2.57.54-1.67,1.25-2.87,3.55-1.56,29.03,12.35,58.22-2.02,87.74-2.26.53,0,1.06-.12,1.55-.34,31.26-14.04,53.67-18.17,50.87-45.43-.95-9.28-7.16,29.35-26.51-34.48-8.68-28.63-47.04-49.66-71.94-65.56-1.33-.85-2-2.41-1.73-3.96,1.6-8.95,5.54-29.15,9.93-34.04.17-.19.32-.37.45-.58,7.22-11.78,19.89-41.66,18.86-8.31,0,.18,0,.34.02.52.89,7.74,6.05,50.24,16.73,46.45,1.76-.63,3.72.3,4.59,1.96,9.19,17.65,50.56,74.65,53.52,56.97.49-2.91,3.82-4.32,6.18-2.56,41.29,30.69,102.06,44.73,144.98,8.92.82-.68,1.87-1,2.93-.9,58.42,5.49-2.79-97.26.97-60.59,1.7,47.96-12.76-9.29-26.46-23.75-.28-.29-.5-.6-.69-.96-6.27-12.09-27.12-39.56-52.94-55.95-5.03-3.19-26.85-14.97-30.62-16.28-2.68-.93-4.96-1.3-6.72-.98,0,0,27.47-16.2,39.45-37.34,5.4-9.53,22.89-34.87,24.3-43.32.45-2.72,1.91,7.98,4.93,14.09,40.86,65.51,91.58,90.17,153.42,72.39,5.24-1.51,7.75-1.36,11.04-.49.1.03.19.06.29.09,23.94,8.77,51.1.17,52.22-28.62.01-.27.05-.53.12-.78,2.86-10.7-6.41-34.89-17.95-33.89-1.76.15-3.16,1.58-3.4,3.33-1.96,14.26-6.25,33.18-22.68,17.28-.39-.38-.71-.85-.91-1.36-10.02-24.92-17.72-52.99-36.16-79.34-59.97-85.68-234.08-176.02-235.78-175.93-.28.02-.45-.33-.7-.45l-153.82-77.42c-2.3-1.16-5.07.19-5.58,2.72l-1.31,6.5c-.02.1-.04.19-.07.29l-2.78,9.81c-.1.34-.24.66-.42.96l-7.44,12.29-14,22.4c-.06.1-.12.18-.19.27-6.47,8.31-17.92,40.14-21.52,49.92-.03.07-.04.13-.07.2-1.38,4.85-10.15,22.18,1.3,17.68.05-.02.1-.04.15-.06,3.2-1.34,6.47,1.64,5.27,4.89-3.43,9.31-4.8,19.6-3.71,29.02.01.11.03.23.05.34,2.34,13.13,4.85,11.03,7.7,8.74,1.96-1.58,4.89-.9,5.97,1.38,13.22,28.03,26.47,57.78,32.18,88.76,22.09,100.25-88.2,114.67-108.31,186.7l-.09.34Z"/>
</svg>