<?xml version="1.0" encoding="UTF-8"?>
<svg id="Layer_1" xmlns="http://www.w3.org/2000/svg" version="1.1" viewBox="0 0 2331.1 1798.6">
  <!-- Generator: Adobe Illustrator 29.3.1, SVG Export Plug-In . SVG Version: 2.1.0 Build 151)  -->
  <defs>
    <style>
      .st0 {
        fill: #fff;
        stroke: #231f20;
        stroke-width: 9px;
      }

      .st0, .st1 {
        stroke-miterlimit: 10;
      }

      .st2 {
        fill: #231f20;
      }

      .st1 {
        stroke: #000;
        stroke-width: 5px;
      }
    </style>
  </defs>
  <g id="Arm_Base">
    <path id="_Arm_-_Align_Perfectly_with_Card_" class="st1" d="M299.8,111.1c80.9,83.2,117.7,106.1,121.8,113.8l-39.6-22.6,61.6,58.4-9.6-2.3,41.8,35c84.3,79.8,122,101.1,126.4,108.7l-40.5-20.9,64,55.8-18.1-2,40.4,38.8c84.3,79.8,122,101.1,126.4,108.7l-40.5-20.9,64,55.8-9.7-1.9c14.1,18.9,36,35.8,36,35.8l-16.4-7.1c15.5,19.7,65.2,69.5,105.9,106.9-41-2.5,20.2,18.9,27.8,24.4,4.2.9,8.8,2.7,5.3,7.9-.5,2-8.7.4-3.2,3.5,16.4,6.8,29.9,19.9,46.5,23.5,10.8,2.3,14.4,5.9,14.4,5.9,0,0-7.8.9-20.2,4.1-4.4.4-6.3,1.1-6.5,2-.7,5.2,52,22.5,52.5,27.7,0,1-5,5.9-19.8,7.8-17.5,2.3,41,34.3,64,51.2,1.9,1.4-12.1-1.3-10.3,0,5.7,4.3,14.1,7.2,15.3,9.5.4,2.5-7.6-3.1-13.2-2.3-1.3.2-4.1,2.3-3.7,3.6,2.9,8.4,35.1,26.2,42.7,34.7,10.7,13.6,19.6,8.9,21.8,15.8-10.5,6.3,17,16.6,24.2,22,32.1,19.4,51.7,9.2,86.5,7.2-.8,1.8-12.1,10.4-12.8,12.2,69.6-12.5,197.8-97.5,257.6-89-4.1,3.2-22,8.1-24.1,12.7,0,0-6.3,2.4,8.6,1.2,8.2-.7,32.9.4,58.8,20.4-12.6-3.7-23.4,0-22.8.3,24.2,15.1,29.8,18,36.6,37.7,1.9,6.5,2.8,11.7-.4,15.5-.5,4.7,1.7,12.8-2.4,19.4l-279.8.3-.9,233.8-.5,156.1c2.3,68.1-7.5,111-46.8,155.4-30.8,34.9-100-69.5-98.4-75.6,9.3-34.2-7.3-67.2-17.1-100.5-15-50.6-30.1-191.7,12.8-196,46.1-4.7-15.7-21-15.9-21.2-82.8-47.4-136-87.7-204.8-189.8-.8-1-2.6-2.5-2.8-3.8-3.8-8.1-1.3,17.1-11.6,6.3-12.1-13.3-24.3-26.8-36.4-40.3l-45.7-30c-8.5-7.7-47.8-47.1-58.5-49.7l1.8,9.8-55-64.7,20.4,40.8-54.1-45c-7.9-8.3-44.1-50.6-54.6-54l1,9.9-49.9-68.7,17.2,42.2c-7.2-5.1-69.6-81.8-141.5-172.9l1.7,2.3c-13.2-13.8-47.8-49.9-61.1-63.9l-.8,2.9c-8.5-7.7-47.8-47.1-58.5-49.6l1.8,9.8-55-64.7,20.4,40.8c-7.5-4.5-13.2-45.9-91.8-131.3l-11.5-12.1C124,268.5,70.3,212.7,3.8,144.3L203.3,3.3l96.5,107.7h0Z"/>
  </g>
  <g id="Position_1">
    <path id="_Thumb_Behind_Card_-1" class="st1" d="M1487.8,953c1.8.8,104.3,155.7,105.5,161.8,3.5,19.4-.8,68-2.3,101.1-.9,18.7-10.7,10.2-19.3,2.5,3.5,22.8-14.7,44.9-20.6,66.8-2.6,3.5-7.5-1.4-9.6,1.7-4.2,3.9-11.2,21.9-18,13.5-1.9-2.9-26.6,37.9-30.3,23.9,6-19.1-14.9,13.2-23.6,10.3-1.7-2.2-1.3-7.2-5.1-4.8-19.3,9.3-40.5,8.4-60,1-23.9,3.7-30.1,7.4-53.9-5.5-10.9-6.1-20.6-16.8-22.8-29.3-.7-4.4-1.1-10.6,1.1-14.7l1.6-2.6,14.4,13.1c3.6-5.6-3.2-16.3,1.6-30.3,18.2-53.1,70.6-81.2,71.9-79.2-28.7-54,5.3-71.1-2.9-69.4,15.9,75.8-30.2,150.7-80.6,184.7,0,0-214.5-101-214.5-101,160.4-185.7,128-194.1,312.4-264.5l54.9,20.9h0Z"/>
    <g id="_FInger_C-_Above_Card_">
      <path class="st1" d="M1110.8,1489.5c-3.1,11.2-8,25.1-16.2,39.9-12.4,22.5-27.4,38.1-38.5,48,0,0-35.6,17.6-40.9,25.7s-23.8,25.7-19.5,68,11.9,50.4,11.9,50.4l1-22.8s8.1,19.5,14.7,26.6,37.5,45.2,37.5,45.2l.5-13.3,29,28-4.3-12.4s-5.7-4.3,4.8,2.8,34.2,14.3,34.2,14.3c0,0,50.8,13.3,68.9.9s15.7-18.1,15.7-18.1c0,0,27.1-1.9,40.4-17.1s28.5-40.4,0-63.2c0,0-2.4-10.5-8.1-14.7s-25.2-28.5-48.9-24.7c0,0-24.2-15.7-42.3-13.3l33.7-52.1,57.5-52.4s-19.1-69.5-41.8-75.1c-40.4-10-89.3,29.5-89.3,29.5h0Z"/>
    </g>
    <g id="_FInger_B_-_Above_Card_">
      <path class="st1" d="M1196.8,1465.3c11.8-17.4,24.2-25.9,33.6-30.4,5.6-2.7,10.3-4.1,14.7-5.2,8.4-2.1,15.7-3.1,26.6-10.5,5.2-3.5,10.6-8.1,20.1-10.6,4.9-1.2,10.5-2.7,17.7-1.6,4,.6,17.2,3.5,22.6,2.4.3,0,.9-.2,1.4-.6,1.9-1.7,1.5-6.8-.5-9.8-5.1-7.8-25.4-10.6-27.9-11.4,0,0,0,0,0,0,0-.5,39.3-11.9,54.2-.2,3.4,2.7,5.2,5.9,5.2,5.9,2.7,4.7,2.6,9.3,2.5,14.5,0,2.9,0,4.4-1,5.7-2,2.9-3,4.3-3.4,4.8,0,0-.2.2-.2.3-.2.8,1.4,1.7,1.6,1.8,1.6,1,4.8,7,6.2,14.5,3.4,18.7-.9,35.6-.9,35.6-3.1,12-8.2,20-18.3,35.9-9,14.2-14.8,19.8-19.4,23.4-4.7,3.8-9.6,6.7-12.1,8.2-2.5,1.5-7.2,4.2-21.5,11.4-8.5,4.3-11.2,5.5-10.9,6.7.6,2.9,19,0,19.7,3.1.6,2.6-10.9,9.5-24.9,12.4-21.8,4.4-40-3.2-42.1,1.7-1.2,2.8,10.6,3.5,9.3,6.5-2.5,6.1-36,2.2-36.4,4.2-.3,1.3,11.6,3.8,11.4,5.7-.3,2.4-20.7,6-39.4-2-13.2-5.6-20.4-14.7-22.1-13.2-2.4,2.1,12.8,20.1,10.7,22.1-2.7,2.5-37-18.6-54-55.8-6.6-14.6-9.5-27.1-10.7-40.2-2.4-27.6,0-39.8-2.5-59.9-1.9-15.3-8.1-36.9-27.6-61.8l19.4,10.5-3.6-10s20,17.8,39.9,17.1,34.9-5,52-7.1,32.1-5.7,39.9.7,20.7,30.9,20.7,38"/>
    </g>
    <g id="_FInger_A_-_Above_Card_">
      <path id="_1_Morph_Above_Card_-_Fingers_" class="st1" d="M1326.4,1321.9c18.5-10.8,31.1-12.8,33.1-34.7,1.6-16.6-11.5-27-24.7-30.6-12.2-3.3-25.1-.3-18.7,2.1,29.7,11.1,12.4,36.1-1.1,31.7-.3-8.9-37.2-6.1-38.8-8.7-18.3-30.2-102-10.7-101.9-1.4-6.6-18.6-58.9-21.5-69.1,2.2,0,.2,19.9-81.1,19.9-81.1,0,0-14.7-6.4-50,19-7.8,5.6-31.1,23.3-31.1,23.3-23.8,20.9-28,45-29.4,69.1-.2,2.8.1,3.4.4,3.5,1.7.5,5.3-13.7,17.1-24.8,6.8-6.4,17.4-14.2,15.9-12.6-2.2,2.5-12,16.9-15.3,23.3-2.9,5.6-3.3,10.4-3.9,18-1.4,15.7,1.3,27.2,4.8,35.8.1.3.6.3.7,0,.9-1.9,3-4.5,3.7-6.8,6.8,1.1,12.1,11.1,17.3,17.1.5.6-.9-13.1-.5-14.5,29.7,32.4,45.9,47.5,48.7,45.3,1.7-1.3-1.5-9-9.7-23,26.6,19,47.4,21.9,61.3,21.1,21.6-1.3,36.5-12,64-8.6,11.9,1.5,36.6,5.6,42.8,4.8,24.1-3,57.2-40.2,64.2-69.5h0Z"/>
    </g>
  </g>
  <g id="Position_2">
    <g id="_Thumb_-_Behind_Card_-2">
      <path id="_Thumb_Behind_Card_" class="st1" d="M1487.8,953c1.8.8,34.2,13.5,40.2,15.5,18.8,6,59.6,32.7,88.2,49.6,16.1,9.6,4,14.2-6.8,18.2,21.7,7.6,32.7,34.1,49.2,49.6,1.8,3.9-4.8,5.9-3,9.2,1.4,5.6,14,20.2,3.4,22.3-3.4.3,20.9,41.3,6.8,37.9-14-14.3,4.6,19.3-2,25.6-2.7.5-7-2.2-6.7,2.2-.9,21.4-11.7,39.7-27.4,53.4-8,22.9-7.7,30.1-30.2,44.9-10.5,6.7-24.5,10.3-36.6,6.3-4.2-1.4-9.9-4.1-12.5-7.9l-1.5-2.6,18.3-6.5c-3.2-5.8-15.8-4.8-26-15.7-38.3-41.1-38.4-100.5-36-100.8-61.2-.2-60.2-38.2-62.6-30.1-29.9,101.9-60.1,124.3-110.5,158.3,0,0-211.6-86-211.6-86,160.4-185.7,128-194.1,312.4-264.5l54.9,20.9h0Z"/>
    </g>
    <path id="_FInger_C_-_Above_Card_" class="st1" d="M1090.4,1413.9c1.2,11.4,13.6,39.9-.9,70-11.2,23.1-20.9,33.2-32,43.1,0,0-43.7,39.6-50.4,46.5s-30.4,44.1-34.8,63.4c-9.5,41.4,3.2,44.7,3.2,44.7l8.9-11.4s4,15,6,24.5c2.7,13.2,40.9,68.2,43.1,63.6l9.1-1.8,11.2,14.1,14.6,10.1,1.9-10.5s7.9,7.3,18.4,14.9,9.8-2.5,9.8-2.5c0,0,8.8,9.2,40.2,5.1,21.9-2.8,49.9-7,49.9-7,0,0,31.8-1.9,42.6-20.3,25.9-44.3,5.4-23.4,1.3-22.2-8.6,2.6-14.3-20.9-19.3-39.6-1.9-6.9-17.9-39.4-42-40.5,0,0-13.4-23.4-33.5-26.3,0,0,11.4-49.6,28.2-59.7,22.4-13.5,99-34.4,99-34.4,0,0-19.1-69.5-41.8-75.1-40.4-10-132.6-48.9-132.6-48.9h0Z"/>
    <path id="_FInger_B-_Above_Card_" class="st1" d="M1271.4,1530.1c21.7,1.6,42.3,30.1,50.9,36,5.2,3.5,16.8,9.6,20,12.8,6,6.2,2.4,5.7,14.3,11.4,5.6,2.7,13.3,18,20.2,25,3.5,3.6,7.6,7.8,10.2,14.5,1.5,3.8,5.6,16.6,9.2,20.7.2.2.6.7,1.2.9,2.4.8,6.6-2.1,8.2-5.4,4.2-8.3-3.5-27.3-4.1-29.9h0c.4-.4,29.9,28,27.3,46.8-.6,4.3-2.5,7.5-2.5,7.5-2.7,4.6-6.8,6.9-11.3,9.4-2.6,1.4-3.9,2.1-5.4,2-3.5-.3-5.2-.4-5.8-.6,0,0-.2,0-.4,0-.8.3-.7,2.1-.8,2.3,0,1.9-3.7,7.7-9.5,12.6-14.5,12.3-31.3,17-31.3,17-12,3.3-21.4,2.9-40.2,2.1-16.8-.7-24.5-3-30-5.1-5.6-2.2-10.6-4.9-13.1-6.4-2.5-1.4-7.2-4.1-20.6-12.9-7.9-5.2-10.3-6.9-11.2-6.2-2.2,1.9,9.5,16.4,7.2,18.6-1.9,1.8-13.7-4.7-23.2-15.4-14.7-16.7-17.2-36.3-22.4-35.6-3,.4,2.2,10.9-1,11.3-6.5.9-19.9-30.1-21.8-29.5-1.2.4,2.5,12,.8,12.7-2.2,1-15.5-14.9-18-35.2-1.7-14.3,2.6-25,.4-25.8-3.1-1-11.1,21.1-13.8,20.3-3.5-1.1-18.6-28.4-35.6-65.5-6.6-14.6-9.5-27.1-10.7-40.2-2.4-27.6-9.2-34.7-11.7-54.8-1.9-15.3-20.1-89.4-39.6-114.4l23.8,3.5,13.3,44.5s21.5,10.6,41.3,12.8c20.9,2.4,33.5-.7,50.6-2.8s64.3-7.2,74.4-5.7c16.3,2.4,4.5,10.6,7,13.4,19,21.4,3.9,133.2,3.9,133.2h0Z"/>
    <path id="_FInger_A_-_Above_Card_-2" class="st1" d="M1515.7,1513.1c21.6,5,36.6,9,45.8-19.9,5.1-15.9.4-32.1-10.7-40.1-10.3-7.4-23.3-9.2-18.2-4.7,23.9,20.9-5.1,28.3-16.2,19.3,2.9-8.4-12.7-31.9-13.1-35-6.9-48.6-95.8-91.4-99-82.7.4-19.7-46.7-84.8-67.2-83.8-.2,0-13.4-8.2-13.4-8.4-16.4-40.6-247.2-98.5-230.5-89.7,30.4,15.8-23.4,66.7-23.4,66.7-16.8,21.1-17.3,32.2-21.5,57.3-.5,2.8.4,3.4.7,3.5,1.7.4.9,1.2,11.8-10.8,6.3-7,16.2-15.5,14.9-13.8-2,2.6-10.7,17.8-13.4,24.4-2.4,5.8-4.5,13.8-4.6,21.5-.2,15.8-.6,13.1,3.6,21.3.2.3,3.5-1.3,3.7-1.6.8-2,2.6-4.8,3.1-7.1,6.8.5,12.9,10.1,18.6,15.7.6.6-2-13-1.6-14.4,32.1,30,32.5,51.7,35.5,49.8,1.8-1.2,14.4-17.2,5.2-30.5,28,16.9,84,48.2,95.4,40.2,62.6-44.2,90.3,83.9,169.1,123.2,20.1,10,34.8,9.3,41,10.8,23.6,5.7,62.4-4.9,84.6-11.1h0Z"/>
  </g>
  <g id="Position_3">
    <path id="_Thumb_Behind_Card_-3" class="st1" d="M1487.8,953c1.8.8,34.2,13.5,40.2,15.5,18.8,6,59.6,32.7,88.2,49.6,16.1,9.6,4,14.2-6.8,18.2,21.7,7.6,32.7,34.1,49.2,49.6,1.8,3.9-4.8,5.9-3,9.2,1.4,5.6,14,20.2,3.4,22.3-3.4.3,20.9,41.3,6.8,37.9-14-14.3,4.6,19.3-2,25.6-2.7.5-7-2.2-6.7,2.2-.9,21.4-11.7,39.7-27.4,53.4-8,22.9-7.7,30.1-30.2,44.9-10.5,6.7-24.5,10.3-36.6,6.3-4.2-1.4-9.9-4.1-12.5-7.9l-1.5-2.6,18.3-6.5c-3.2-5.8-15.8-4.8-26-15.7-38.3-41.1-38.4-100.5-36-100.8-61.2-.2-60.2-38.2-62.6-30.1-29.9,101.9-57.3,139.2-107.6,173.2,0,0-214.5-101-214.5-101,160.4-185.7,128-194.1,312.4-264.5l54.9,20.9h0Z"/>
    <path id="_FInger_C_-_Above_Card_-2" class="st1" d="M1090.4,1413.9c1.2,11.4,13.6,39.9-.9,70-11.2,23.1-20.9,33.2-32,43.1,0,0-43.7,39.6-50.4,46.5s-30.4,44.1-34.8,63.4c-9.5,41.4,3.2,44.7,3.2,44.7l8.9-11.4s2.5,15.1,3.9,24.7c2,13.3,37.2,70.2,39.7,65.7l9.2-1.3,10.4,14.7,14,10.9,2.4-10.3s7.5,7.7,17.6,15.8,9.9-2,9.9-2c0,0,8.3,9.6,39.9,7.2,22-1.7,50.2-4.3,50.2-4.3,0,0,31.9-.2,43.6-18,28.2-42.8,6.6-23.1,2.4-22.1-8.7,2.2-13.1-21.6-17.2-40.6-1.5-7-15.8-40.3-39.8-42.6,0,0-13-33.2-33.1-36.1,0,0,11.4-49.6,28.2-59.7,22.4-13.5,99-34.4,99-34.4,0,0-19.1-69.5-41.8-75.1-40.4-10-132.6-48.9-132.6-48.9h0Z"/>
    <path id="_FInger_B-_Above_Card_-2" class="st1" d="M1271.4,1530.1c21.7,1.6,42.3,30.1,50.9,36,5.2,3.5,16.8,9.6,20,12.8,6,6.2,2.4,5.7,14.3,11.4,5.6,2.7,13.3,18,20.2,25,3.5,3.6,7.6,7.8,10.2,14.5,1.5,3.8,5.6,16.6,9.2,20.7.2.2.6.7,1.2.9,2.4.8,6.6-2.1,8.2-5.4,4.2-8.3-3.5-27.3-4.1-29.9h0c.4-.4,29.9,28,27.3,46.8-.6,4.3-2.5,7.5-2.5,7.5-2.7,4.6-6.8,6.9-11.3,9.4-2.6,1.4-3.9,2.1-5.4,2-3.5-.3-5.2-.4-5.8-.6,0,0-.2,0-.4,0-.8.3-.7,2.1-.8,2.3,0,1.9-3.7,7.7-9.5,12.6-14.5,12.3-31.3,17-31.3,17-12,3.3-21.4,2.9-40.2,2.1-16.8-.7-24.5-3-30-5.1-5.6-2.2-10.6-4.9-13.1-6.4-2.5-1.4-7.2-4.1-20.6-12.9-7.9-5.2-10.3-6.9-11.2-6.2-2.2,1.9,9.5,16.4,7.2,18.6-1.9,1.8-13.7-4.7-23.2-15.4-14.7-16.7-17.2-36.3-22.4-35.6-3,.4,2.2,10.9-1,11.3-6.5.9-19.9-30.1-21.8-29.5-1.2.4,2.5,12,.8,12.7-2.2,1-15.5-14.9-18-35.2-1.7-14.3,2.6-25,.4-25.8-3.1-1-11.1,21.1-13.8,20.3-3.5-1.1-18.6-28.4-35.6-65.5-6.6-14.6-9.5-27.1-10.7-40.2-2.4-27.6-9.2-34.7-11.7-54.8-1.9-15.3-16.8-89.7-11.7-124.8l35.2,17.1,11.4,32.3s-15.9,19.6,3.9,21.8c20.9,2.4,33.5-.7,50.6-2.8s64.3-7.2,74.4-5.7c16.3,2.4,4.5,10.6,7,13.4,19,21.4,3.9,133.2,3.9,133.2h0Z"/>
    <path id="_FInger_A_-_Above_Card_-3" class="st1" d="M1504.6,1529.3c21.2,6.6,35.9,11.7,47.2-16.5,6.2-15.5,2.7-32-7.8-40.8-9.7-8.2-22.6-10.8-17.8-6,22.3,22.6-7.2,27.8-17.5,18.1,3.5-8.2-10.3-32.7-10.6-35.8-3.4-48.9-88.9-98.2-92.7-89.7,1.8-19.6-47.8-93.4-68.3-92.4-.2,0-13.4-8.2-13.4-8.4-16.4-40.6-247.2-98.5-230.5-89.7,30.4,15.8-23.4,66.7-23.4,66.7-16.8,21.1-17.3,32.2-21.5,57.3-.5,2.8.4,3.4.7,3.5,1.7.4.9,1.2,11.8-10.8,6.3-7,16.2-15.5,14.9-13.8-2,2.6-10.7,17.8-13.4,24.4-2.4,5.8-4.5,13.8-4.6,21.5-.2,15.8-.6,13.1,3.6,21.3.2.3,3.5-1.3,3.7-1.6.8-2,2.6-4.8,3.1-7.1,6.8.5,12.9,10.1,18.6,15.7.6.6-2-13-1.6-14.4,32.1,30,32.5,51.7,35.5,49.8,1.8-1.2,14.4-17.2,5.2-30.5,28,16.9,84,48.2,95.4,40.2,62.6-44.2,82.6,85.4,158.3,130.3,19.3,11.5,34.1,11.8,40.1,13.7,23.1,7.4,62.6-.3,85.2-4.9h0Z"/>
  </g>
  <g id="Card">
    <rect id="_Card_Outline_" class="st0" x="1256.2" y="1031.8" width="1062.3" height="591.3"/>
    <g id="_Black_Filled_Text_">
      <g>
        <g>
          <path class="st2" d="M1912.8,1525.4l-2.5-7.1h7.8l.9.6,3.8,14.9,2.3,12,.4-2.5,3.1-10.5,3.5-14.5h7.4l3.7,14.3,2.3,11.4,1.2,1.9,2.8-13.7,3.5-13.9h8.2l.2.5-2.2,6.6-8.6,35.7h-7.9l-6.6-28.5h-.3l-5.9,29.3h-7.7l-1.5-9.9-7.5-26.6h-.1Z"/>
          <path class="st2" d="M1975.5,1551l.4,4.6-.2,7.6h-7.9l.2-14.5v-19l-.8-10.4.2-.2,8.5-.2-.4,8.1v24h0Z"/>
          <path class="st2" d="M2007.7,1555.4l-.7,7.8h-19.9v-33.6l-.9-10.4.2-.2,8.5-.2-.4,8.1.3,29.3h6.1l6.8-.9h0Z"/>
          <path class="st2" d="M2032,1556.4l-.3,6.8h-19.9l-.2-14.5v-19l-.8-10.4.2-.2,8.5-.2-.4,8.1.2,29.5h6.1l6.6-1.5v1.5h0c0,0,0-.1,0-.1Z"/>
          <path class="st2" d="M2087.4,1527.3l-9.1-.3v31.7l.5,4.5h-8.1v-36.2l-8.7.3-.3-.2v-8.6h10.4c0,0,4.9,0,4.9,0l10.4-.2v8.8h.2c0,0,0,0,0,0Z"/>
          <path class="st2" d="M2121.8,1558.9l2.9,4.3h-10.1l-8.1-17.6c-.8-.2-2-.4-3.2-.7v6.8l.6,6.5-.3,4.9h-7.9v-13.7l.2-19v-11.9h1.7l2.4.3c2.8-.6,5.8,0,8.2,0,8.1,0,12.8,3.7,12.8,13.1s-2.9,10.2-7.3,12.5l4.7,10.5,3.4,4h.1c0,0,0,0,0,0ZM2103.3,1526.8v.9l.4,11.8,2.5-.4h1c3.6,0,6.4-1.5,6.4-6.5s-1.4-5.9-6.3-6.1c-1.2,0-2.8,0-4.2.2h.1c0,0,0,.1,0,.1Z"/>
          <path class="st2" d="M2154.9,1553.3h-13.4l-3.4,9.1h-7.6l2.9-7.9,10.5-30.6,1.7-5.7h5.4l2,6.2,10.2,30.2,2.8,7.9h-8.6l-2.5-9.1h.1ZM2144,1545.9h8.4l-3.6-12.6h-.9l-4,12.6h0Z"/>
          <path class="st2" d="M2179.9,1554.6l-11.5-29.7-2.3-6.5h10.4l.4.3,5.1,19,1.9,7.9h1l2-7.9,5.5-19.3h0l10.2-.9-2.1,7.4-11,29.4-1.9,8h-5.3l-2.5-7.7h.2Z"/>
          <path class="st2" d="M2231.8,1556.4v5.1h-21.6v-43.5h20v8.1l-11.2.4-.8,12.3,9.6-.3h0l.4,4.7-9.5-.2.2,13.3h13-.2c0,0,0,.1,0,.1Z"/>
          <path class="st2" d="M2259.9,1556.1v6.2h-19.9v-9.2l.2-19-.9-10.4-.2-5.6,8.5-.2v38.7h6.1l4.6-.2,1.5-.3h.1c0,0,0-.1,0-.1Z"/>
        </g>
        <g>
          <path class="st2" d="M1369.9,1558.7v2.6h-6.5l-.8-10.6-.3-6.8h-14v7.9l.6,6.6.2,3.5h-6.7l-.3-12.8.2-20.8-.3-10.5h6.7l-.4,8.1.2,10.6h15.3l-.2-7.8-.9-10.4.2-.2,7.2-.2-.5,8.5v25.9l.3,6.3h0Z"/>
          <path class="st2" d="M1400,1551.4h-13.4l-3.5,10.4h-7.6l2.5-7.1,10.4-32.3,1-4.5h7.5l.7,3.6,10.3,33.2,2.8,7.1h-8.6l-1.8-10.4h-.2ZM1388.5,1545.1h8.4l-3.6-13.7h-.9l-3.9,13.7h0,0Z"/>
          <path class="st2" d="M1423.3,1555.9l-7.8-27.9-2.8-10.4h8.1l.6,3.1,5.1,19,1.4,7.4h2.2l1.3-7.4,5.1-19,.6-2.5h8.3l-2.8,9.3-7.9,28.3-1,5.9h-9.5l-1-5.9h0c0,0,0,0,0,0Z"/>
          <path class="st2" d="M1474.4,1554.5l.4,7.3-21.4-.5.2-13.6v-29.2l.2-.2,8.5-.2,12.6-.4-.6,8.7h-12.3v9.2h9.2l1.2,6.5h-10.2l-.3,12.7h11.1l1.4-.3h0c0,0,0,0,0,0Z"/>
          <path class="st2" d="M1535.2,1537.1c3.2,1.4,5.2,4.3,5.2,9.1,0,7.1-5.1,14.8-13.1,14.8s-5.1-.2-7.7-.5h-5.9v-12.7c0,0,.2-19,.2-19l-.9-10.4.2-.2h4c3.2-.7,7.3-1,8.9-1,9.2,0,13.1,3.6,13.1,10.6s-1.5,7.2-3.9,9.3h0,0ZM1521.4,1524.8v10.9h4.1c4.6,0,6.7-3.2,6.7-6.9s-1.8-4.2-6.6-4.2-2.6,0-4.2.2h0ZM1533.3,1547.2c0-3.2-2.8-5.2-6.5-5.2s-3.4.2-5.4.4v11c1.6.2,3.5.3,4.9.3,5.3,0,7-3.6,7-6.6h0q0,0,0,0Z"/>
          <path class="st2" d="M1576.1,1556.9l.8,2.8h-8.8l-6.9-14.5c-.8-.2-2-.3-3.2-.5l-.4,5.8.6,6.5v2.9c0,0-8.3.5-8.3.5l.2-12.4v-19l-.8-10.4.2-.2h4.3c2.8-.7,6.4-1,8.9-1,8.1,0,12.8,3.7,12.8,13.1s-2.9,10.2-7.3,12.5l6,9.5,2.1,4.5h0ZM1558.4,1525.3l-.3,1.2v10.9l2.3.5h1c3.6,0,6.4-1.5,6.4-6.5s-1.4-5.9-6.3-6.1c-1.2,0-1.8,0-3.2,0h0c0,0,0,0,0,0Z"/>
          <path class="st2" d="M1608.1,1552.9h-13.4l-2.8,7h-7.6l2.5-7.1,10.4-29.8,1.2-4.7h7.5l.9,5.2,9.9,29.3,2.8,7.1h-8.6l-2.4-7h-.2ZM1596.2,1545.8h8.4l-2.5-16.5h-.9l-4.9,16.5h0,0Z"/>
          <path class="st2" d="M1633.6,1550.4l.2,6.1.6,4.3h-7.9l.3-14.3v-19l-.8-10.4.2-.2,8.5-.2-1,12.3v21.2h0v.2h0,0Z"/>
          <path class="st2" d="M1673.4,1554.6v5.3h-7l-4.9-12.4-8.7-13.1-.4-.8h-.6v23.8l.6,3.6h-8.1v-28.1l-1.8-14.7.2-.2h7.8c0,0,3.5,5.5,3.5,5.5l13,17h.4v-9.9l-1.2-12.5.2-.2h7c0,0,.2,6.2.2,6.2v30.4h0v.2h0,0Z"/>
        </g>
      </g>
      <g>
        <path class="st2" d="M1542.1,1318.7l-.4.4h-11.1l-7-11.5-18.1-24.7-.6-1.2h-.9v26.4l1.2,10.6-.4.4h-13.1v-38.6l-2.3-28,.3-.3,12.6-.2,3.2,8.6,22.8,32.1h.7v-15.9l-1.3-24.4.3-.3,14.5-.3-1.2,15.7v40.5l1.2,10.6h-.3c0,0,0,.1,0,.1Z"/>
        <path class="st2" d="M1554.6,1295.8c0-16.7,7.2-26,22.4-26s20.8,7.6,20.8,24.4-8,26.2-22.5,26.2-20.7-7.8-20.7-24.6h0ZM1575.4,1281.9c-3.6,0-6.1.4-7.9,1.9-1.9,2.1-2.3,5-2.3,10.3,0,9.6,3.6,13.9,12.1,13.9s6.5-.6,8.5-2.5c1.6-2.2,2-5.2,1.9-10.2,0-8.8-2.8-13.3-12.2-13.3h0q0,0,0-.1Z"/>
        <path class="st2" d="M1650.1,1312.6c-4.8,4.3-10.7,6.5-19.9,6.5-15.8,0-21.9-7.8-21.9-24.9s7.9-25.7,23-25.7,18.6,6.9,18.6,20.1-.3,5.8-.7,9.1l-.6.3h-29.9c1,7,5.1,10.6,12.9,10.6s10.8-1,13.3-3.1l2.1-1.1,3.2,8.2h-.1ZM1618.9,1289.3l21.3-.5c.2-6-2.8-8.8-9.7-8.8s-11.1,3.2-11.8,9.5h0q0,0,0,0Z"/>
        <path class="st2" d="M1662.5,1246.8v-.7c0,0,12.9-.6,12.9-.6h0l-.6,23.4v40l.5,9.9-.7.4h-11.1v-46.3c0,0-1.2-26-1.2-26h.2,0Z"/>
        <path class="st2" d="M1689.6,1246.8v-.7c0,0,12.9-.6,12.9-.6h0l-.6,23.4v40l.5,9.9-.7.4h-11.1v-46.3c0,0-1.2-26-1.2-26h.2,0Z"/>
        <path class="st2" d="M1756.6,1313.9c-4.8,4.3-10.7,6.5-19.9,6.5-15.8,0-21.9-7.8-21.9-24.9s7.9-25.7,23-25.7,18.6,6.9,18.6,20.1-.3,5.8-.7,9.1l-.6.3h-29.9c1,7,5.1,10.6,12.9,10.6s12.3-2.1,14.8-4.2h.6l3.2,8.2h0ZM1725.4,1290.6l21.3-.5c.2-6-2.8-8.8-9.7-8.8s-11.1,3.2-11.8,9.5h0q0,0,0,0Z"/>
        <path class="st2" d="M1842.7,1301.6c0,11.5-8.2,18.3-21.2,18.3s-8.2-.3-12.5-.8h-9.5l.2-14.8v-30.6l-1.4-16.8.3-.3h6.3c5-1.2,11.8-1.6,14.5-1.6,14.9,0,21.2,5.8,21.2,17.1s-2.4,11.7-6.3,15.1c5.3,2.3,8.3,7,8.3,14.6h0ZM1818.7,1266.8c-1.9,0-4.3,0-6.7.4v14.5c2.3,0,4.6,0,6.8,0,7.4,0,10.7-2.2,10.7-8.2s-2.9-6.7-10.6-6.7h-.2c0,0,0-.1,0-.1ZM1831.1,1299.8c0-5-2.9-7-9.1-7s-6.7.3-10.2.7v13.7c2.8.3,5.5.5,7.8.4,8.6,0,11.4-2.9,11.4-7.8h0Z"/>
        <path class="st2" d="M1898.3,1318.7l-.7.4h-11.1v-28.2c0-5.1-3.2-7-7.2-7s-7.8.8-12,2.5v22.5l.5,9.9-.7.3h-11.1v-47.3l-1.2-18.4v-.7l12.9-.6h0l-.6,16.7v7.9c5.1-3.8,11.2-7,17.6-7s12.8,4.8,12.8,15.2v23.9l.5,9.9h.3c0,0,0,.1,0,.1Z"/>
        <path class="st2" d="M1953.6,1318.2l-.3.8-10.5,1.1-1.7-6.2c-5.2,4-12.1,6.3-17.5,6.3-8.4,0-12.6-5.7-12.6-14.5s5.5-14.2,16.2-14.2,8.2.6,12,1.2v-4c0-4.7-3.2-6.6-8.7-6.6s-10.7,1-14.7,2.3l-.7-.3-1.7-10.6c4.8-2.1,13.3-3.7,19.2-3.7,9.8,0,17.8,2.2,17.8,16.6v21.2l3.2,10.4h0c0,0,0,.1,0,.1ZM1928.6,1309.2c3.7,0,7.6-1.3,10.6-3.2v-5.5c-2.8-.4-6-1-9.5-1-5.1,0-7,1.2-7,4.7s1.2,5,5.9,5h0c0,0,0,0,0,0Z"/>
        <path class="st2" d="M2011,1318.2l-.3.8-10.5,1.1-2.1-6.4c-3.8,3.8-9.1,6.6-15.2,6.6-12.6,0-19.1-7.2-19.1-23.6s9.2-26.6,21.7-26.6,8.3,1,11,2.8v-.8l-1.6-18.4v-.7l13.3-.5-.4,22.7v27.3h0v5.5l3.2,10.4h0c0,0,0,0,0,0ZM1995.6,1305.5v-.2h.5c.2-.3.4-.4.5-.5v-19.6c-3.2-2-7.2-2.8-11.4-2.8-7.9,0-10.5,3.4-10.5,12.2s4.1,13.5,11.7,13.5,6.6-1,9.2-2.5h0Z"/>
        <path class="st2" d="M2066.8,1318.8l-.3.3-10.6,1-1.2-6.1c-4.3,3.2-9.5,6.1-15.8,6.1s-13.9-1.7-13.9-14v-24.5l-1.6-10.3.3-.2,12.9-1-.4,15.8v15.4c0,5.8,2.8,7.7,7.8,7.7s6.3-1.6,9.3-3.6v-20.4l-1.2-13.8.3-.2,12.3-1-.2,15.6v19.9l2.2,13.2h0c0,0,0,0,0,0Z"/>
        <path class="st2" d="M2082.2,1304v-19.7l-1.5-12.5v-.7l12.1-1.3.4,9.8c3.7-6.8,10-10.1,15.9-10.3l1.1.4-.9,14.1c-.8,0-2-.2-3.9-.2-4,0-8.9,1.3-12,4.9v20.3l.6,9.9-.7.4h-11.1v-15.1h0Z"/>
        <path class="st2" d="M2127.5,1249.8c4.6,0,7.4,2.3,7.4,7.1s-2.8,7.5-7.4,7.5-7.4-2.9-7.4-7.5,2.9-7.1,7.4-7.1ZM2133.6,1308.8l.5,9.9-.7.4h-11.1v-36.5l-1.6-11.2.3-.3,13.3-.9-.8,14.6v24h.1,0Z"/>
      </g>
      <g>
        <path class="st2" d="M1706.9,1380.3h-2c-.8-3.4-1.9-7.1-3.1-9.2-2.2-3.9-3.9-3.2-8.4-3.2-8.8,0-11.6,7.6-11.6,22.3s.4,10.5,1.9,14.5c1.8,4.8,4.3,8.2,9.5,8.2s4.3-.3,6.9-1.4c1-.4,1.5-1.4,1.5-2.4v-10.7c0-3.1-.8-6.9-5.3-7.2v-2.3c3.9.4,6,.4,8.9.4s1.2.2,5.1,0v2.3c-4.3.4-3.7,3.8-3.7,7l-.3,10.3c0,1-1.4,3.2-2.3,3.7-3.1,1.7-6.3,2.8-11.8,2.8-12.9,0-20.8-9.5-20.8-24.9s7.9-27.1,20.6-27.1,6.9,2,10.8,5.4l2.5-4.2h1.4v15.7h0c0,0,0,0,0,0Z"/>
        <path class="st2" d="M1750,1412.6h-32v-2.3c5.3-.3,4.5-.8,5.2-5.1v-33.4c-.8-4.1,0-4.6-5.2-4.8v-2.3h31.6v13.3h-3.2c-1.9-7.4-.8-10.8-6.3-10.8h-8.2v19.3h.7c6.7-.7,6.7-3.2,7.1-6.5h2.1l-.3,14.7h-2.1c-.2-4-.8-6-6.8-5.7h-.5v17.2c-.4,3.2,0,3.4,3.7,3.4h3.7c4.1,0,5.3,0,7.3-3.2.4-2,1.2-4.6,1-7.1h2l.4,13.5h0v-.2h0,0Z"/>
        <path class="st2" d="M1786.6,1411.8c-.3-.5-.8-2-1-3.9-1.9-2.8-1.5-3.9-3.1-6l-19.1-29.8v33.4c.6,3.6,1.6,4.1,4,5v2.3c-3.5-.2-5.3-.3-7.4-.3s-4,0-7.3.3v-2.3c5.3-.3,6-.8,6-5v-36.4c-1.7-1.7-3.4-2.3-6.1-2.5v-2.3c2.8,0,4.4.2,6.7.2s3.7,0,6.2-.2l20.7,28.3,1.1-20.9c0-3.8-.6-3.1-4-2.9v-4.3c3.5.2,5.2.3,7.4.3s2.8,0,6.2-.2l.5,3.6c-5.3.2-5.5-.5-5.5,3.6l-1.9,40.2h-3.6.1Z"/>
        <path class="st2" d="M1825.8,1414.3c-4.6-.4-5.3-.5-8.4-.5s-5.5,0-10.2.5v-2.3c5.4-.3,6-.8,6-4.1v-34c0-5.1-.7-5.7-6-5.9v-4c4.6.4,6.9.5,10.2.5s5.5,0,10.1-.5v4c-5.3.2-7.5,1.2-8.2,4.7v36.5c1.9,2.6,1.5,1.5,6.9,1.8l-.3,3.2h0c0,0,0,.1,0,.1Z"/>
        <path class="st2" d="M1861.6,1364.7c4.3.3,7.2.4,9.5,0h2.8l-.2,4.8s-2.8.2-2.3,3.6v24.6c0,6.5,0,7.8-1.5,10.5-2.9,4.1-5.1,7.4-11.2,7.4s-10.2-1.8-13.3-5.3c-2.5-2.8-3.6-6-3.6-11.3v-25.2c0-4.1-.7-4.8-6-5v-4.2c4.6.4,6,.4,9.2.4s4.9,0,8.5-.6v5.8c-4.5.4-6.3-.4-6.3,3.8l.6,23.8c0,4.1,3.4,11.2,10.3,10.5,4.9-.5,8.2-3.2,7.8-9.1v-24.3c-.4-2.6-.4-5.6-4.3-5.9v-4.1h0c0,0,0,0,0,0Z"/>
        <path class="st2" d="M1882.3,1398.7c.6,3.6,1.2,5.5,2.6,7.8,2,3.4,6,5.5,10,5.5s9.5-4,9.5-8.6-1.3-5.2-3.6-6.8c-1.5-1.2-2.3-1.6-6.7-4.1-5.9-3.2-8.2-4.6-9.9-6.3-2.2-2.2-3.4-5.1-3.4-8.4,0-7.5,6-12.6,14.7-12.6s5.9,0,8.9,2.8l-.2-3.2h3.8v14.2l-3.9-1.8c-.3-4.3-.7-8.7-7.6-9.5-5-.5-8.5,3.5-8.5,8s1.3,4.9,7.3,8c4.8,2.5,7.7,4.2,9.5,5.3,4.8,3.2,6.7,6.3,6.7,11.4,0,8.3-6.1,14.1-14.9,14.1s-8.3-1.3-12.3-4.5l-2.8,5.1h-1.4v-16.7h2.1v.3h0Z"/>
      </g>
    </g>
  </g>
</svg>