<?xml version="1.0" encoding="UTF-8"?>
<svg xmlns="http://www.w3.org/2000/svg" viewBox="0 0 2331.11 1798.56">
  <defs>
    <style>
      .cls-1 {
        fill: #fff;
        stroke: #231f20;
        stroke-width: 9px;
      }

      .cls-1, .cls-2 {
        stroke-miterlimit: 10;
      }

      .cls-3 {
        fill: #231f20;
      }

      .cls-2 {
        stroke: #000;
        stroke-width: 5px;
      }
    </style>
  </defs>
  <g id="Arm_Base" data-name="Arm Base">
    <path id="_Arm_-_Align_Perfectly_with_Card_" data-name="&amp;lt;Arm - Align Perfectly with Card&amp;gt;" class="cls-2" d="M299.78,111.06c80.93,83.18,117.7,106.08,121.78,113.83l-39.6-22.6,61.61,58.44-9.64-2.31,41.75,35.01c84.31,79.75,122,101.11,126.4,108.68l-40.51-20.94,63.98,55.84-18.14-1.98,40.38,38.82c84.31,79.75,122,101.11,126.4,108.68l-40.51-20.94,63.98,55.84-9.73-1.9c14.13,18.94,35.97,35.85,35.97,35.85l-16.42-7.12c15.5,19.72,65.22,69.51,105.86,106.88-41.01-2.45,20.17,18.87,27.83,24.39,4.21.93,8.79,2.69,5.34,7.86-.55,1.97-8.67.42-3.2,3.49,16.41,6.8,29.91,19.94,46.45,23.53,10.79,2.34,14.4,5.86,14.4,5.86,0,0-7.77.88-20.24,4.07-4.41.36-6.35,1.07-6.48,2.03-.68,5.23,52.03,22.54,52.49,27.69.09.95-4.99,5.89-19.76,7.84-17.46,2.31,41.01,34.3,64.04,51.21,1.9,1.4-12.05-1.28-10.34,0,5.73,4.29,14.14,7.23,15.33,9.5.36,2.54-7.6-3.09-13.19-2.26-1.27.19-4.1,2.35-3.68,3.56,2.92,8.4,35.06,26.16,42.69,34.68,10.73,13.57,19.57,8.94,21.75,15.78-10.51,6.33,16.97,16.58,24.19,22.01,32.08,19.37,51.68,9.18,86.49,7.25-.75,1.8-12.11,10.41-12.83,12.24,69.62-12.48,197.82-97.54,257.58-88.99-4.09,3.19-21.98,8.08-24.12,12.71,0,0-6.3,2.38,8.55,1.19,8.25-.66,32.86.38,58.81,20.44-12.64-3.68-23.45-.08-22.81.32,24.21,15.13,29.85,18.03,36.59,37.7,1.95,6.51,2.76,11.66-.4,15.45-.54,4.69,1.74,12.75-2.38,19.41l-279.76.32-.95,233.82-.48,156.12c2.3,68.08-7.51,110.99-46.76,155.36-30.84,34.86-100.01-69.54-98.38-75.56,9.27-34.22-7.26-67.21-17.11-100.51-14.97-50.61-30.09-191.66,12.83-196.04,46.05-4.7-15.68-21.01-15.92-21.15-82.75-47.41-136.05-87.66-204.83-189.84-.84-.97-2.6-2.45-2.82-3.77-3.83-8.12-1.34,17.09-11.59,6.31-12.12-13.27-24.35-26.81-36.37-40.26,0,0-45.72-29.96-45.72-29.96-8.53-7.66-47.78-47.1-58.52-49.65l1.77,9.75-54.97-64.72,20.39,40.78-54.13-44.98c-7.93-8.29-44.06-50.59-54.57-53.96l1.03,9.86-49.89-68.71,17.23,42.22c-7.15-5.06-69.62-81.8-141.52-172.9l1.69,2.33c-13.18-13.76-47.75-49.87-61.15-63.88l-.76,2.87c-8.53-7.66-47.78-47.1-58.52-49.65l1.77,9.75-54.97-64.72,20.39,40.78c-7.51-4.5-13.22-45.93-91.84-131.3l-11.46-12.12C123.98,268.51,70.31,212.72,3.83,144.3L203.32,3.33l96.46,107.74Z"/>
  </g>
  <g id="Position_1" data-name="Position 1">
    <g id="_FInger_C-_Above_Card_" data-name="&amp;lt;FInger C- Above Card&amp;gt;">
      <path class="cls-2" d="M1110.81,1489.5c-3.05,11.23-7.98,25.1-16.16,39.92-12.42,22.49-27.36,38.14-38.49,48,0,0-35.64,17.58-40.87,25.66s-23.76,25.66-19.49,67.96,11.88,50.38,11.88,50.38l.95-22.81s8.08,19.49,14.73,26.61,37.54,45.15,37.54,45.15l.48-13.31,28.99,28.04-4.28-12.36s-5.7-4.28,4.75,2.85,34.22,14.26,34.22,14.26c0,0,50.85,13.31,68.91.95s15.68-18.06,15.68-18.06c0,0,27.09-1.9,40.4-17.11s28.51-40.4,0-63.21c0,0-2.38-10.46-8.08-14.73s-25.19-28.51-48.95-24.71c0,0-24.24-15.68-42.3-13.31l33.74-52.12,57.5-52.44s-19.1-69.47-41.82-75.09c-40.4-9.98-89.35,29.47-89.35,29.47Z"/>
    </g>
    <g id="_FInger_B_-_Above_Card_" data-name="&amp;lt;FInger B - Above Card&amp;gt;">
      <path class="cls-2" d="M1196.83,1465.26c11.81-17.37,24.22-25.86,33.58-30.42,5.62-2.73,10.29-4.11,14.66-5.2,8.4-2.08,15.7-3.07,26.6-10.49,5.16-3.51,10.62-8.12,20.09-10.55,4.86-1.25,10.53-2.7,17.69-1.57,4.04.64,17.21,3.47,22.57,2.38.29-.06.86-.19,1.36-.63,1.93-1.7,1.49-6.75-.53-9.82-5.12-7.81-25.38-10.57-27.92-11.41-.02,0-.03,0-.03-.02-.09-.52,39.26-11.93,54.21-.22,3.39,2.65,5.24,5.91,5.24,5.91,2.66,4.69,2.58,9.35,2.49,14.52-.05,2.92-.1,4.41-.97,5.68-1.98,2.86-2.96,4.29-3.42,4.77-.04.04-.16.16-.19.34-.15.78,1.41,1.67,1.62,1.79,1.58.97,4.8,7,6.18,14.5,3.44,18.7-.95,35.64-.95,35.64-3.12,12.03-8.18,19.98-18.3,35.88-9.02,14.16-14.83,19.76-19.42,23.44-4.69,3.75-9.56,6.67-12.06,8.17-2.49,1.49-7.18,4.19-21.5,11.41-8.47,4.27-11.15,5.51-10.93,6.65.57,2.92,18.97,0,19.72,3.09.63,2.57-10.93,9.53-24.95,12.36-21.84,4.4-40.04-3.19-42.06,1.66-1.16,2.79,10.56,3.54,9.35,6.49-2.51,6.09-36.01,2.24-36.44,4.2-.28,1.28,11.62,3.82,11.41,5.7-.28,2.41-20.65,6-39.45-1.98-13.23-5.62-20.39-14.73-22.1-13.23-2.43,2.14,12.77,20.12,10.69,22.1-2.68,2.54-37.02-18.64-53.96-55.79-6.64-14.56-9.54-27.12-10.67-40.21-2.38-27.56,0-39.78-2.53-59.88-1.92-15.3-8.06-36.86-27.56-61.78l19.41,10.46-3.56-9.98s19.96,17.82,39.92,17.11,34.93-4.99,52.04-7.13,32.08-5.7,39.92.71,20.67,30.89,20.67,38.02"/>
    </g>
    <g id="_FInger_A_-_Above_Card_" data-name="&amp;lt;FInger A - Above Card&amp;gt;">
      <path id="_1_Morph_Above_Card_-_Fingers_" data-name="&amp;lt;1 Morph Above Card - Fingers&amp;gt;" class="cls-2" d="M1326.41,1321.9c18.53-10.77,31.05-12.83,33.11-34.69,1.57-16.64-11.48-27.01-24.71-30.57-12.24-3.29-25.05-.3-18.69,2.06,29.74,11.06,12.41,36.12-1.11,31.68-.32-8.91-37.2-6.05-38.81-8.71-18.32-30.24-101.96-10.69-101.86-1.43-6.62-18.58-58.93-21.54-69.07,2.22-.06.15,150.37-18.64,150.49-18.69l-118.49-124.2s-19.45,33.15-16.48,44.67c.55,2.12,22.77-14.66,21.86-12.67l-28.51,26.38s-21.86,14.26-38.97,22.34c-8.63,4.08-31.13,23.29-31.13,23.29-23.76,20.91-27.96,44.97-29.38,69.06-.21,2.81.11,3.44.41,3.53,1.7.5,5.27-13.67,17.08-24.83,6.83-6.45,17.36-14.22,15.92-12.59-2.18,2.47-12.03,16.9-15.29,23.31-2.86,5.63-3.28,10.36-3.95,18.04-1.38,15.73,1.31,27.23,4.84,35.8.13.33.58.32.74,0,.94-1.92,2.99-4.53,3.68-6.82,6.77,1.07,12.12,11.05,17.35,17.11.52.61-.94-13.1-.48-14.49,29.66,32.39,45.9,47.49,48.71,45.31,1.7-1.32-1.52-8.98-9.66-22.97,26.59,19.03,47.36,21.89,61.31,21.07,21.64-1.28,36.49-12,64-8.55,11.92,1.49,36.57,5.62,42.85,4.83,24.08-3.01,57.21-40.25,64.24-69.47Z"/>
    </g>
  </g>
  <g id="Position_2" data-name="Position 2">
    <g id="_Thumb_-_Behind_Card" data-name="&amp;lt;Thumb - Behind Card">
      <path id="_Thumb_Behind_Card_" data-name="&amp;lt;Thumb Behind Card&amp;gt;" class="cls-2" d="M1487.79,953c1.75.76,34.22,13.54,40.16,15.45,18.78,6.01,59.62,32.67,88.15,49.63,16.12,9.58,3.96,14.23-6.85,18.21,21.73,7.62,32.72,34.12,49.22,49.6,1.85,3.94-4.76,5.95-2.97,9.25,1.44,5.55,14.01,20.16,3.45,22.29-3.45.31,20.95,41.33,6.8,37.94-14.02-14.27,4.6,19.32-1.98,25.64-2.72.53-7-2.25-6.66,2.24-.88,21.41-11.69,39.7-27.36,53.38-8,22.86-7.67,30.05-30.21,44.95-10.51,6.74-24.54,10.31-36.63,6.33-4.23-1.43-9.88-4.08-12.49-7.92,0,0-1.54-2.62-1.54-2.62l18.35-6.48c-3.2-5.82-20.16-13.1-25.96-15.69-33.1-20.26-35.54-66.05-36.04-100.77-.15-.34-40.14,10.42-62.55-6.73-113.01,80.21,51.73,280.12-86.07,322.09,0,0-236.08-273.22-236.08-273.22,160.39-185.72,127.96-194.14,312.36-264.47l54.89,20.91Z"/>
    </g>
    <path id="_FInger_C_-_Above_Card_" data-name="&amp;lt;FInger C - Above Card&amp;gt;" class="cls-2" d="M1090.37,1413.94c1.17,11.39,13.62,39.92-.95,70.02-11.2,23.12-20.87,33.22-32,43.09,0,0-43.66,39.63-50.41,46.49-6.75,6.86-30.38,44.13-34.82,63.45-9.51,41.44,3.17,44.67,3.17,44.67l8.87-11.41s4.05,14.98,6.02,24.53c2.73,13.21,40.87,68.18,43.09,63.55l9.09-1.79,11.19,14.14,14.57,10.14,1.9-10.46s7.92,7.29,18.38,14.89,9.82-2.53,9.82-2.53c0,0,8.78,9.17,40.24,5.07,21.86-2.85,49.92-6.98,49.92-6.98,0,0,31.82-1.89,42.59-20.27,25.94-44.26,5.39-23.45,1.27-22.18-8.55,2.63-14.26-20.91-19.33-39.6-1.87-6.88-17.93-39.39-41.97-40.47,0,0-13.4-23.36-33.47-26.26,0,0,11.44-49.55,28.24-59.69,22.43-13.54,99.01-34.38,99.01-34.38,0,0-19.1-69.47-41.82-75.09-40.4-9.98-132.59-48.95-132.59-48.95Z"/>
    <path id="_FInger_B-_Above_Card_" data-name="&amp;lt;FInger B- Above Card&amp;gt;" class="cls-2" d="M1271.41,1530.06c21.66,1.56,42.26,30.12,50.89,35.96,5.18,3.51,16.84,9.59,19.96,12.83,6,6.24,2.39,5.66,14.26,11.41,5.62,2.72,13.32,17.97,20.16,24.96,3.51,3.59,7.6,7.77,10.2,14.54,1.46,3.82,5.59,16.64,9.22,20.74.2.22.59.65,1.23.86,2.44.82,6.59-2.08,8.25-5.36,4.21-8.33-3.52-27.27-4.06-29.89,0-.02,0-.03,0-.04.41-.34,29.94,28.06,27.26,46.86-.61,4.26-2.51,7.49-2.51,7.49-2.73,4.64-6.81,6.9-11.34,9.41-2.56,1.42-3.87,2.12-5.41,1.99-3.47-.28-5.2-.42-5.84-.58-.06-.01-.22-.06-.39,0-.75.26-.74,2.05-.75,2.3-.05,1.86-3.67,7.66-9.47,12.59-14.49,12.32-31.35,16.98-31.35,16.98-11.98,3.31-21.39,2.9-40.22,2.07-16.77-.74-24.52-2.98-30.01-5.12-5.59-2.19-10.55-4.95-13.1-6.37-2.54-1.41-7.22-4.13-20.62-12.93-7.93-5.21-10.34-6.91-11.22-6.15-2.25,1.95,9.47,16.44,7.17,18.63-1.91,1.82-13.72-4.71-23.17-15.45-14.72-16.72-17.24-36.29-22.45-35.61-3,.39,2.21,10.92-.96,11.34-6.54.87-19.93-30.08-21.83-29.47-1.25.4,2.5,11.97.76,12.73-2.23.97-15.51-14.89-17.98-35.16-1.74-14.27,2.58-25.02.42-25.75-3.07-1.04-11.06,21.12-13.81,20.3-3.54-1.05-18.62-28.38-35.57-65.53-6.64-14.56-9.54-27.12-10.67-40.21-2.38-27.56-9.19-34.71-11.72-54.81-1.92-15.3-20.1-89.45-39.6-114.38l23.76,3.49,13.31,44.51s21.5,10.58,41.35,12.83c20.91,2.38,33.5-.71,50.61-2.85s64.35-7.16,74.38-5.7c16.3,2.38-9.86,15.97-7.37,18.77,19.01,21.39,18.26,127.76,18.26,127.76Z"/>
    <path id="_FInger_A_-_Above_Card_-2" data-name="&amp;lt;FInger A - Above Card&amp;gt;" class="cls-2" d="M1438.14,1473.25c20.95,7.18,35.52,12.71,47.64-15.11,6.67-15.32,3.63-31.87-6.6-40.99-9.47-8.43-22.25-11.5-17.63-6.54,21.63,23.22-7.96,27.61-18.06,17.58,3.7-8.11-9.26-33.02-9.5-36.12-2.82-35.24-86-100.7-90.06-92.37,2.41-19.58-72-46.88-92.43-45.93-.16,0-3.93-6.14-3.8-6.18l-108.83-54.65s-45.62-43.79-45.62-24.87c0,10.46-32.63,64.95-32.63,64.95-11.72,24.71-14.57,29.78-20.69,54.45-.68,2.73.11,3.44.41,3.53,1.7.5.78,1.26,12.59-9.9,6.83-6.45,17.36-14.22,15.92-12.59-2.18,2.47-12.03,16.9-15.29,23.31-2.86,5.63-5.58,13.37-6.25,21.05-1.38,15.73-1.63,12.97,1.9,21.54.13.33,3.61-1.03,3.76-1.34.94-1.92,2.99-4.53,3.68-6.82,6.77,1.07,12.12,11.05,17.35,17.11.52.61-.94-13.1-.48-14.49,29.66,32.39,28.4,54.08,31.52,52.36,1.89-1.04,15.67-16.03,7.53-30.02,26.59,19.03,95.68,33.45,108.51,38.97,19.92,8.56,44.89,24.74,67.94,40.16,9.99,6.68,30.18,21.41,36.14,23.53,22.87,8.1,90.3,23.29,112.99,19.39Z"/>
  </g>
  <g id="Position_3" data-name="Position 3">
    <path id="_Thumb_Behind_Card_-2" data-name="&amp;lt;Thumb Behind Card&amp;gt;" class="cls-2" d="M1487.79,953c1.75.76,34.22,13.54,40.16,15.45,18.78,6.01,59.62,32.67,88.15,49.63,16.12,9.58,3.96,14.23-6.85,18.21,21.73,7.62,32.72,34.12,49.22,49.6,1.85,3.94-4.76,5.95-2.97,9.25,1.44,5.55,14.01,20.16,3.45,22.29-3.45.31,20.95,41.33,6.8,37.94-14.02-14.27,4.6,19.32-1.98,25.64-2.72.53-7-2.25-6.66,2.24-.88,21.41-11.69,39.7-27.36,53.38-8,22.86-7.67,30.05-30.21,44.95-10.51,6.74-24.54,10.31-36.63,6.33-4.23-1.43-9.88-4.08-12.49-7.92,0,0-1.54-2.62-1.54-2.62l18.35-6.48c-3.2-5.82-20.16-13.1-25.96-15.69-33.1-20.26-35.54-66.05-36.04-100.77-.15-.34-40.14,10.42-62.55-6.73-113.01,80.21,51.73,280.12-86.07,322.09,0,0-236.08-273.22-236.08-273.22,160.39-185.72,127.96-194.14,312.36-264.47l54.89,20.91Z"/>
    <path id="_FInger_C_-_Above_Card_-2" data-name="&amp;lt;FInger C - Above Card&amp;gt;" class="cls-2" d="M1090.37,1413.94c1.17,11.39,13.62,39.92-.95,70.02-11.2,23.12-20.87,33.22-32,43.09,0,0-43.66,39.63-50.41,46.49-6.75,6.86-30.38,44.13-34.82,63.45-9.51,41.44,3.17,44.67,3.17,44.67l8.87-11.41s4.05,14.98,6.02,24.53c2.73,13.21,40.87,68.18,43.09,63.55l9.09-1.79,11.19,14.14,14.57,10.14,1.9-10.46s7.92,7.29,18.38,14.89,9.82-2.53,9.82-2.53c0,0,8.78,9.17,40.24,5.07,21.86-2.85,49.92-6.98,49.92-6.98,0,0,31.82-1.89,42.59-20.27,25.94-44.26,5.39-23.45,1.27-22.18-8.55,2.63-14.26-20.91-19.33-39.6-1.87-6.88-17.93-39.39-41.97-40.47,0,0-13.4-23.36-33.47-26.26,0,0,11.44-49.55,28.24-59.69,22.43-13.54,99.01-34.38,99.01-34.38,0,0-19.1-69.47-41.82-75.09-40.4-9.98-132.59-48.95-132.59-48.95Z"/>
    <path id="_FInger_B-_Above_Card_-2" data-name="&amp;lt;FInger B- Above Card&amp;gt;" class="cls-2" d="M1271.92,1542.25s30.42-3.8,50.38,23.76c3.67,5.07,16.84,9.59,19.96,12.83,6,6.24,2.39,5.66,14.26,11.41,5.62,2.72,13.32,17.97,20.16,24.96,3.51,3.59,7.6,7.77,10.2,14.54,1.46,3.82,5.59,16.64,9.22,20.74.2.22.59.65,1.23.86,2.44.82,6.59-2.08,8.25-5.36,4.21-8.33-3.52-27.27-4.06-29.89,0-.02,0-.03,0-.04.41-.34,29.94,28.06,27.26,46.86-.61,4.26-2.51,7.49-2.51,7.49-2.73,4.64-6.81,6.9-11.34,9.41-2.56,1.42-3.87,2.12-5.41,1.99-3.47-.28-5.2-.42-5.84-.58-.06-.01-.22-.06-.39,0-.75.26-.74,2.05-.75,2.3-.05,1.86-3.67,7.66-9.47,12.59-14.49,12.32-31.35,16.98-31.35,16.98-11.98,3.31-21.39,2.9-40.22,2.07-16.77-.74-24.52-2.98-30.01-5.12-5.59-2.19-10.55-4.95-13.1-6.37-2.54-1.41-7.22-4.13-20.62-12.93-7.93-5.21-10.34-6.91-11.22-6.15-2.25,1.95,9.47,16.44,7.17,18.63-1.91,1.82-13.72-4.71-23.17-15.45-14.72-16.72-17.24-36.29-22.45-35.61-3,.39,2.21,10.92-.96,11.34-6.54.87-19.93-30.08-21.83-29.47-1.25.4,2.5,11.97.76,12.73-2.23.97-15.51-14.89-17.98-35.16-1.74-14.27-.44-35.37-2.59-36.1-3.07-1.04-14.36,26.48-17.11,25.66-3.54-1.05-12.31-23.39-29.25-60.54-6.64-14.56-9.54-27.12-10.67-40.21-2.38-27.56-9.19-34.71-11.72-54.81-1.92-15.3-8.24-44.99-16.79-89.66l.95-21.23s88.27,46.54,108.12,48.79c20.91,2.38,33.5-.71,50.61-2.85s98.04,73.11,105.78,79.65c9.23,7.8-40.2,71.48-73.47,81.94Z"/>
    <path id="_FInger_A_-_Above_Card_-3" data-name="&amp;lt;FInger A - Above Card&amp;gt;" class="cls-2" d="M1520.76,1544.64c20.95,7.18,35.52,12.71,47.64-15.11,6.67-15.32,3.63-31.87-6.6-40.99-9.47-8.43-22.25-11.5-17.63-6.54,21.63,23.22-7.96,27.61-18.06,17.58,3.7-8.11-9.26-33.02-9.5-36.12-2.82-35.24-86-100.7-90.06-92.37,2.41-19.58-64.8-67.42-85.24-66.47-.16,0-3.93-6.14-3.8-6.18l-198.65-105.5s-62.4-33.61-45.62-24.87c30.42,15.84-28.53,68.15-28.53,68.15-9.76,25.55-12.21,30.83-16.39,55.89-.46,2.78.37,3.42.69,3.49,1.73.36.88,1.19,11.79-10.85,6.31-6.97,16.2-15.53,14.89-13.79-1.99,2.63-10.68,17.79-13.44,24.42-2.42,5.83-4.52,13.77-4.59,21.47-.15,15.78-.61,13.06,3.57,21.33.16.31,3.52-1.3,3.65-1.63.79-1.98,2.63-4.75,3.14-7.08,6.83.54,12.94,10.07,18.62,15.71.57.56-1.96-12.99-1.6-14.41,32.09,29.98,32.53,51.7,35.5,49.75,1.8-1.18,14.38-17.2,5.17-30.52,27.99,16.9,82.54,34.66,95.38,40.17,19.92,8.56,154.2,121.69,177.25,137.11,9.99,6.68,30.18,21.41,36.14,23.53,22.87,8.1,63.62-2.27,86.31-6.17Z"/>
  </g>
  <g id="Card">
    <rect id="_Card_Outline_" data-name="&amp;lt;Card Outline&amp;gt;" class="cls-1" x="1256.15" y="1031.85" width="1062.34" height="591.3"/>
    <g id="_Black_Filled_Text_" data-name="&amp;lt;Black Filled Text&amp;gt;">
      <g>
        <g>
          <path class="cls-3" d="M1912.75,1525.41l-2.54-7.12h7.83l.92.61,3.76,14.95,2.34,12,.41-2.54,3.05-10.47,3.46-14.54h7.42l3.66,14.34,2.34,11.39,1.22,1.93,2.75-13.73,3.46-13.93h8.24l.2.51-2.24,6.61-8.64,35.69h-7.93l-6.61-28.47h-.31l-5.9,29.28h-7.73l-1.53-9.86-7.52-26.64h-.1Z"/>
          <path class="cls-3" d="M1975.49,1551.03l.41,4.58-.2,7.63h-7.93l.2-14.54v-19.01l-.81-10.37.2-.2,8.54-.2-.41,8.13v23.99h0Z"/>
          <path class="cls-3" d="M2007.72,1555.4l-.71,7.83h-19.93v-33.55l-.92-10.37.2-.2,8.54-.2-.41,8.13.31,29.28h6.1l6.81-.92h0Z"/>
          <path class="cls-3" d="M2032.02,1556.42l-.31,6.81h-19.93l-.2-14.54v-19.01l-.81-10.37.2-.2,8.54-.2-.41,8.13.2,29.49h6.1l6.61-1.53v1.53h0v-.1Z"/>
          <path class="cls-3" d="M2087.43,1527.34l-9.15-.31v31.72l.51,4.47h-8.13v-36.2l-8.74.31-.31-.2v-8.64h10.37c0,.1,4.88.1,4.88.1l10.37-.2v8.85h.2v.1Z"/>
          <path class="cls-3" d="M2121.79,1558.86l2.85,4.27h-10.07l-8.13-17.59c-.81-.2-2.03-.41-3.25-.71v6.81l.61,6.51-.31,4.88h-7.93v-13.73l.2-19.01v-11.9h1.73l2.44.31c2.75-.61,5.8,0,8.24,0,8.13,0,12.81,3.66,12.81,13.12s-2.95,10.17-7.32,12.51l4.68,10.47,3.36,3.97h.1v.1ZM2103.29,1526.83v.92l.41,11.79,2.54-.41h1.02c3.56,0,6.41-1.53,6.41-6.51s-1.42-5.9-6.3-6.1c-1.22,0-2.75,0-4.17.2h0l.1.1Z"/>
          <path class="cls-3" d="M2154.94,1553.27h-13.42l-3.36,9.05h-7.63l2.95-7.93,10.47-30.6,1.73-5.69h5.39l2.03,6.2,10.17,30.2,2.75,7.93h-8.64l-2.54-9.05h0l.1-.1ZM2143.96,1545.95h8.44l-3.56-12.61h-.92l-3.97,12.61h0Z"/>
          <path class="cls-3" d="M2179.85,1554.59l-11.49-29.69-2.34-6.51h10.37l.41.31,5.08,19.01,1.93,7.93h1.02l2.03-7.93,5.49-19.32h0l10.17-.92-2.14,7.42-10.98,29.38-1.93,8.03h-5.29l-2.54-7.73h.2,0Z"/>
          <path class="cls-3" d="M2231.8,1556.42v5.08h-21.55v-43.52h20.03v8.13l-11.18.41-.81,12.3,9.56-.31h0l.41,4.68-9.46-.2.2,13.32h13.01-.2v.1Z"/>
          <path class="cls-3" d="M2259.86,1556.12v6.2h-19.93v-9.15l.2-19.01-.92-10.37-.2-5.59,8.54-.2v38.74h6.1l4.58-.2,1.53-.31h0l.1-.1Z"/>
        </g>
        <g>
          <path class="cls-3" d="M1369.92,1558.69v2.64h-6.51l-.81-10.57-.31-6.81h-14.03v7.93l.61,6.61.2,3.46h-6.71l-.31-12.81.2-20.84-.31-10.47h6.71l-.41,8.13.2,10.57h15.35l-.2-7.83-.92-10.37.2-.2,7.22-.2-.51,8.54v25.93l.31,6.3h0Z"/>
          <path class="cls-3" d="M1400.02,1551.37h-13.42l-3.46,10.37h-7.63l2.54-7.12,10.37-32.33,1.02-4.47h7.52l.71,3.56,10.27,33.25,2.75,7.12h-8.64l-1.83-10.37s-.2,0-.2,0ZM1388.53,1545.07h8.44l-3.56-13.73h-.92l-3.86,13.73h-.1Z"/>
          <path class="cls-3" d="M1423.3,1555.94l-7.83-27.86-2.85-10.37h8.13l.61,3.05,5.08,19.01,1.42,7.42h2.24l1.32-7.42,5.08-19.01.61-2.54h8.34l-2.75,9.35-7.93,28.27-1.02,5.9h-9.46l-1.02-5.9h0v.1Z"/>
          <path class="cls-3" d="M1474.44,1554.52l.41,7.32-21.45-.51.2-13.62v-29.18l.2-.2,8.54-.2,12.61-.41-.61,8.74h-12.3v9.25h9.25l1.22,6.51h-10.17l-.31,12.71h11.08l1.42-.31h0l-.1-.1Z"/>
          <path class="cls-3" d="M1535.24,1537.13c3.25,1.42,5.19,4.27,5.19,9.05,0,7.12-5.08,14.84-13.12,14.84s-5.08-.2-7.73-.51h-5.9v-12.71c.1,0,.2-19.01.2-19.01l-.92-10.37.2-.2h3.97c3.15-.71,7.32-1.02,8.95-1.02,9.25,0,13.12,3.56,13.12,10.57s-1.53,7.22-3.86,9.35h-.1ZM1521.41,1524.83v10.88h4.07c4.58,0,6.71-3.15,6.71-6.91s-1.83-4.17-6.61-4.17-2.64,0-4.17.2h0ZM1533.31,1547.2c0-3.15-2.75-5.19-6.51-5.19s-3.36.2-5.39.41v10.98c1.63.2,3.46.31,4.88.31,5.29,0,7.02-3.56,7.02-6.61h0v.1Z"/>
          <path class="cls-3" d="M1576.11,1556.86l.81,2.85h-8.85l-6.91-14.54c-.81-.2-2.03-.31-3.25-.51l-.41,5.8.61,6.51v2.95c.1,0-8.34.51-8.34.51l.2-12.4v-19.01l-.81-10.37.2-.2h4.27c2.75-.71,6.41-1.02,8.95-1.02,8.13,0,12.81,3.66,12.81,13.12s-2.95,10.17-7.32,12.51l6,9.46,2.14,4.47h0l-.1-.1ZM1558.42,1525.34l-.31,1.22v10.88l2.34.51h1.02c3.56,0,6.41-1.53,6.41-6.51s-1.42-5.9-6.3-6.1c-1.22,0-1.83,0-3.25.1h.1v-.1Z"/>
          <path class="cls-3" d="M1608.14,1552.89h-13.42l-2.85,7.02h-7.63l2.54-7.12,10.37-29.79,1.22-4.68h7.52l.92,5.19,9.86,29.28,2.75,7.12h-8.64l-2.44-7.02h-.2ZM1596.25,1545.78h8.44l-2.54-16.47h-.92l-4.88,16.47h-.1Z"/>
          <path class="cls-3" d="M1633.56,1550.45l.2,6.1.61,4.27h-7.93l.31-14.34v-19.01l-.81-10.37.2-.2,8.54-.2-1.02,12.3v21.25h0v.2h-.1Z"/>
          <path class="cls-3" d="M1673.42,1554.62v5.29h-7.02l-4.88-12.4-8.74-13.12-.41-.81h-.61v23.79l.61,3.56h-8.13v-28.06l-1.83-14.74.2-.2h7.83c0-.1,3.46,5.49,3.46,5.49l13.01,16.98h.41v-9.86l-1.22-12.51.2-.2h7.02c0-.1.2,6.2.2,6.2v30.4h0v.2h-.1Z"/>
        </g>
      </g>
      <g>
        <path class="cls-3" d="M1542.1,1318.66l-.41.41h-11.08l-7.02-11.49-18.1-24.71-.61-1.22h-.92v26.43l1.22,10.57-.41.41h-13.12v-38.64l-2.34-27.96.31-.31,12.61-.2,3.15,8.64,22.77,32.13h.71v-15.86l-1.32-24.4.31-.31,14.54-.31-1.22,15.66v40.47l1.22,10.57h-.31v.1Z"/>
        <path class="cls-3" d="M1554.61,1295.78c0-16.67,7.22-26.03,22.37-26.03s20.84,7.63,20.84,24.4-8.03,26.23-22.47,26.23-20.74-7.83-20.74-24.6h0ZM1575.45,1281.95c-3.56,0-6.1.41-7.93,1.93-1.93,2.14-2.34,4.98-2.34,10.27,0,9.56,3.56,13.93,12.1,13.93s6.51-.61,8.54-2.54c1.63-2.24,2.03-5.19,1.93-10.17-.1-8.85-2.85-13.32-12.2-13.32h-.1v-.1Z"/>
        <path class="cls-3" d="M1650.08,1312.56c-4.78,4.27-10.68,6.51-19.93,6.51-15.76,0-21.86-7.83-21.86-24.91s7.93-25.72,22.98-25.72,18.61,6.91,18.61,20.13-.31,5.8-.71,9.05l-.61.31h-29.89c1.02,7.02,5.08,10.57,12.91,10.57s10.78-1.02,13.32-3.05l2.14-1.12,3.15,8.24h-.1ZM1618.86,1289.28l21.35-.51c.2-6-2.85-8.85-9.66-8.85s-11.08,3.15-11.79,9.46h.1v-.1Z"/>
        <path class="cls-3" d="M1662.48,1246.78v-.71c.1,0,12.91-.61,12.91-.61h0l-.61,23.38v39.96l.51,9.86-.71.41h-11.08v-46.26c.1,0-1.22-26.03-1.22-26.03h.2Z"/>
        <path class="cls-3" d="M1689.63,1246.78v-.71c.1,0,12.91-.61,12.91-.61h0l-.61,23.38v39.96l.51,9.86-.71.41h-11.08v-46.26c.1,0-1.22-26.03-1.22-26.03h.2Z"/>
        <path class="cls-3" d="M1756.63,1313.88c-4.78,4.27-10.68,6.51-19.93,6.51-15.76,0-21.86-7.83-21.86-24.91s7.93-25.72,22.98-25.72,18.61,6.91,18.61,20.13-.31,5.8-.71,9.05l-.61.31h-29.89c1.02,7.02,5.08,10.57,12.91,10.57s12.3-2.14,14.84-4.17h.61l3.15,8.24h-.1ZM1725.42,1290.6l21.35-.51c.2-6-2.85-8.85-9.66-8.85s-11.08,3.15-11.79,9.46h.1v-.1Z"/>
        <path class="cls-3" d="M1842.65,1301.58c0,11.49-8.24,18.3-21.15,18.3s-8.24-.31-12.51-.81h-9.46l.2-14.84v-30.6l-1.42-16.78.31-.31h6.3c4.98-1.22,11.79-1.63,14.54-1.63,14.95,0,21.15,5.8,21.15,17.08s-2.44,11.69-6.3,15.05c5.29,2.34,8.34,7.02,8.34,14.64h0v-.1ZM1818.65,1266.81c-1.93,0-4.27,0-6.71.41v14.54c2.34,0,4.58,0,6.81.1,7.42,0,10.68-2.24,10.68-8.24s-2.95-6.71-10.57-6.71h-.2v-.1ZM1831.05,1299.85c0-4.98-2.95-7.02-9.05-7.02s-6.71.31-10.17.71v13.73c2.75.31,5.49.51,7.83.41,8.64,0,11.39-2.95,11.39-7.83h0Z"/>
        <path class="cls-3" d="M1898.26,1318.66l-.71.41h-11.08v-28.16c0-5.08-3.15-7.02-7.22-7.02s-7.83.81-12,2.54v22.47l.51,9.86-.71.31h-11.08v-47.28l-1.22-18.4v-.71l12.91-.61h0l-.61,16.67v7.93c5.08-3.76,11.18-7.02,17.59-7.02s12.81,4.78,12.81,15.15v23.89l.51,9.86h.31v.1Z"/>
        <path class="cls-3" d="M1953.57,1318.15l-.31.81-10.47,1.12-1.73-6.2c-5.19,3.97-12.1,6.3-17.49,6.3-8.44,0-12.61-5.69-12.61-14.54s5.49-14.23,16.17-14.23,8.24.61,12,1.22v-3.97c0-4.68-3.25-6.61-8.74-6.61s-10.68,1.02-14.74,2.34l-.71-.31-1.73-10.57c4.78-2.14,13.32-3.66,19.22-3.66,9.76,0,17.79,2.24,17.79,16.57v21.25l3.25,10.37h0l.1.1ZM1928.56,1309.2c3.66,0,7.63-1.32,10.57-3.25v-5.49c-2.75-.41-6-1.02-9.46-1.02-5.08,0-7.02,1.22-7.02,4.68s1.22,4.98,5.9,4.98h0v.1Z"/>
        <path class="cls-3" d="M2011.02,1318.15l-.31.81-10.47,1.12-2.14-6.41c-3.76,3.76-9.05,6.61-15.15,6.61-12.61,0-19.11-7.22-19.11-23.59s9.15-26.64,21.66-26.64,8.34,1.02,10.98,2.75v-.81l-1.63-18.4v-.71l13.32-.51-.41,22.67v27.35h0v5.49l3.25,10.37h0v-.1ZM1995.56,1305.54v-.2h.51c.2-.31.41-.41.51-.51v-19.62c-3.15-2.03-7.22-2.75-11.39-2.75-7.93,0-10.47,3.36-10.47,12.2s4.07,13.52,11.69,13.52,6.61-1.02,9.15-2.54h0v-.1Z"/>
        <path class="cls-3" d="M2066.83,1318.76l-.31.31-10.57,1.02-1.22-6.1c-4.27,3.15-9.46,6.1-15.76,6.1s-13.93-1.73-13.93-14.03v-24.5l-1.63-10.27.31-.2,12.91-1.02-.41,15.76v15.45c0,5.8,2.85,7.73,7.83,7.73s6.3-1.63,9.35-3.56v-20.44l-1.22-13.83.31-.2,12.3-1.02-.2,15.56v19.93l2.24,13.22h0v.1Z"/>
        <path class="cls-3" d="M2082.19,1304.02v-19.72l-1.53-12.51v-.71l12.1-1.32.41,9.76c3.66-6.81,9.96-10.07,15.86-10.27l1.12.41-.92,14.13c-.81,0-2.03-.2-3.86-.2-3.97,0-8.85,1.32-12,4.88v20.33l.61,9.86-.71.41h-11.08v-15.05h0Z"/>
        <path class="cls-3" d="M2127.53,1249.83c4.58,0,7.42,2.34,7.42,7.12s-2.75,7.52-7.42,7.52-7.42-2.95-7.42-7.52,2.85-7.12,7.42-7.12ZM2133.63,1308.8l.51,9.86-.71.41h-11.08v-36.5l-1.63-11.18.31-.31,13.32-.92-.81,14.64v23.99h.1Z"/>
      </g>
      <g>
        <path class="cls-3" d="M1706.91,1380.27h-2.03c-.81-3.36-1.93-7.12-3.05-9.15-2.24-3.86-3.86-3.15-8.44-3.15-8.85,0-11.59,7.63-11.59,22.27s.41,10.47,1.93,14.54c1.83,4.78,4.27,8.24,9.46,8.24s4.27-.31,6.91-1.42c1.02-.41,1.53-1.42,1.53-2.44v-10.68c0-3.05-.81-6.91-5.29-7.22v-2.34c3.86.41,6,.41,8.95.41s1.22.2,5.08-.1v2.34c-4.27.41-3.66,3.76-3.66,7.02l-.31,10.27c0,1.02-1.42,3.15-2.34,3.66-3.05,1.73-6.3,2.75-11.79,2.75-12.91,0-20.84-9.46-20.84-24.91s7.93-27.05,20.64-27.05,6.91,2.03,10.78,5.39l2.54-4.17h1.42v15.66h.1v.1Z"/>
        <path class="cls-3" d="M1750.02,1412.6h-32.03v-2.34c5.29-.31,4.47-.81,5.19-5.08v-33.45c-.81-4.07,0-4.58-5.19-4.78v-2.34h31.62v13.32h-3.25c-1.93-7.42-.81-10.78-6.3-10.78h-8.24v19.32h.71c6.71-.71,6.71-3.15,7.12-6.51h2.14l-.31,14.74h-2.14c-.2-3.97-.81-6-6.81-5.69h-.51v17.18c-.41,3.15,0,3.36,3.66,3.36h3.66c4.07,0,5.29,0,7.32-3.15.41-2.03,1.22-4.58,1.02-7.12h2.03l.41,13.52h0v-.2h-.1Z"/>
        <path class="cls-3" d="M1786.62,1411.79c-.31-.51-.81-2.03-1.02-3.86-1.93-2.75-1.53-3.86-3.05-6l-19.11-29.79v33.45c.61,3.56,1.63,4.07,3.97,4.98v2.34c-3.46-.2-5.29-.31-7.42-.31s-3.97,0-7.32.31v-2.34c5.29-.31,6-.81,6-4.98v-36.4c-1.73-1.73-3.36-2.34-6.1-2.54v-2.34c2.75.1,4.37.2,6.71.2s3.66,0,6.2-.2l20.74,28.27,1.12-20.94c0-3.76-.61-3.05-3.97-2.95v-4.27c3.46.2,5.19.31,7.42.31s2.85,0,6.2-.2l.51,3.56c-5.29.2-5.49-.51-5.49,3.56l-1.93,40.16h-3.56.1Z"/>
        <path class="cls-3" d="M1825.77,1414.33c-4.58-.41-5.29-.51-8.44-.51s-5.49.1-10.17.51v-2.34c5.39-.31,6-.81,6-4.07v-33.96c0-5.08-.71-5.69-6-5.9v-3.97c4.58.41,6.91.51,10.17.51s5.49-.1,10.07-.51v3.97c-5.29.2-7.52,1.22-8.24,4.68v36.5c1.93,2.64,1.53,1.53,6.91,1.83l-.31,3.15h0v.1Z"/>
        <path class="cls-3" d="M1861.56,1364.72c4.27.31,7.22.41,9.46-.1h2.75l-.2,4.78s-2.85.2-2.34,3.56v24.6c0,6.51,0,7.83-1.53,10.47-2.95,4.07-5.08,7.42-11.18,7.42s-10.17-1.83-13.32-5.29c-2.54-2.75-3.56-6-3.56-11.29v-25.21c0-4.07-.71-4.78-6-4.98v-4.17c4.58.41,6,.41,9.25.41s4.88,0,8.54-.61v5.8c-4.47.41-6.3-.41-6.3,3.76l.61,23.79c0,4.07,3.36,11.18,10.27,10.47,4.88-.51,8.24-3.15,7.83-9.05v-24.3c-.41-2.64-.41-5.59-4.27-5.9v-4.07h0v-.1Z"/>
        <path class="cls-3" d="M1882.3,1398.68c.61,3.56,1.22,5.49,2.64,7.83,2.03,3.36,6,5.49,9.96,5.49s9.46-3.97,9.46-8.64-1.32-5.19-3.56-6.81c-1.53-1.22-2.34-1.63-6.71-4.07-5.9-3.15-8.24-4.58-9.86-6.3-2.24-2.24-3.36-5.08-3.36-8.44,0-7.52,6-12.61,14.74-12.61s5.9,0,8.95,2.75l-.2-3.25h3.76v14.23l-3.86-1.83c-.31-4.27-.71-8.74-7.63-9.46-4.98-.51-8.54,3.46-8.54,8.03s1.32,4.88,7.32,8.03c4.78,2.54,7.73,4.17,9.46,5.29,4.78,3.15,6.71,6.3,6.71,11.39,0,8.34-6.1,14.13-14.95,14.13s-8.34-1.32-12.3-4.47l-2.75,5.08h-1.42v-16.67h2.14v.31h0Z"/>
      </g>
    </g>
  </g>
</svg>