<?xml version="1.0" encoding="UTF-8"?>
<svg xmlns="http://www.w3.org/2000/svg" viewBox="0 0 1563.32 1217.04">
  <defs>
    <style>
      .cls-1 {
        fill: #fff;
        stroke: #231f20;
        stroke-width: 4px;
      }

      .cls-1, .cls-2 {
        stroke-miterlimit: 10;
      }

      .cls-3 {
        fill: #231f20;
      }

      .cls-2 {
        stroke: #000;
        stroke-width: 5px;
      }
    </style>
  </defs>
  <g id="_Paw_Base_-_No_Morph_" data-name="&amp;lt;Paw Base - No Morph&amp;gt;">
    <path id="_Arm_-_Align_Perfectly_with_Card_" data-name="&amp;lt;Arm - Align Perfectly with Card&amp;gt;" class="cls-2" d="M203.49,76.01c54.59,56.12,79.4,71.57,82.16,76.79l-26.72-15.25,41.56,39.43-6.5-1.56,28.16,23.62c56.88,53.8,82.3,68.21,85.27,73.32l-27.33-14.13,43.16,37.67-12.24-1.34,27.24,26.19c56.88,53.8,82.3,68.21,85.27,73.32l-27.33-14.13,43.16,37.67-6.56-1.28c9.54,12.78,24.27,24.18,24.27,24.18l-11.08-4.8c10.46,13.31,44,46.89,71.42,72.11-27.66-1.65,13.61,12.73,18.78,16.45,2.84.63,5.93,1.81,3.6,5.3-.37,1.33-5.85.28-2.16,2.35,11.07,4.59,20.8,11.47,31.34,15.88,17.74-.41,8.59,10.21-3.94,6.7-26.36,1.72,59.42,18.32,23.44,28.9-16.12.84,42.44,24.42,46.36,31.96.24,1.71-5.18,3.19-6.73,3.96l-7.27,3.65c5.68,1.5,20.75,16.37,25.91,22.11,7.24,9.16,13.2,6.03,14.68,10.65.08,7.23,9.26,8.7,14.13,12.36,21.64,13.07,36.83,8.08,60.32,6.78-.5,1.22-1.52,3.74-2,4.98,38.12-2.9,138.3-76.37,165.37-54.46-.44,3.83-5.54,4.35-8.93,5.32.35,5.54,7.18,1.57,11.04,4.13,5.44,2.32,28.85,8.95,28.11,13.86-.42,8.2-10.4-2.77-11.08,2.7,12.72,8.12,17.17,14.6,21.72,27.87,1.31,4.39-1.05,4.11-3.18,6.67-.36,3.17.97,7.45-.48,10.31l-193.12-.4.24,158.66v3.73c-113.17-50.22-174.62-82.7-245.17-187.52-.57-.66-1.76-1.65-1.91-2.54-2.59-5.48-.9,11.53-7.82,4.26-8.17-8.95-16.43-18.09-24.54-27.16,0,0-30.84-20.21-30.84-20.21-5.76-5.17-32.23-31.77-39.48-33.5l1.2,6.58-37.08-43.66,13.76,27.51-36.52-30.35c-5.35-5.59-29.73-34.13-36.82-36.4l.69,6.65-33.66-46.36,11.63,28.48c-4.82-3.41-46.97-55.19-95.47-116.64l1.14,1.57c-8.89-9.28-32.21-33.64-41.25-43.09l-.51,1.93c-5.76-5.17-32.23-31.77-39.48-33.5l1.2,6.58-37.08-43.66,13.76,27.51c-5.07-3.04-8.92-30.98-61.96-88.58l-7.73-8.17c-24.7-25.76-60.9-63.39-105.76-109.55L138.41,3.33l65.08,72.68Z"/>
  </g>
  <g id="_Buiness_Card_-_No_Morph_" data-name="&amp;lt;Buiness Card - No Morph&amp;gt;">
    <g>
      <rect id="_Card_Outline_" data-name="&amp;lt;Card Outline&amp;gt;" class="cls-1" x="844.63" y="695.85" width="716.69" height="398.91"/>
      <g>
        <g>
          <path class="cls-3" d="M1287.6,1028.82l-1.71-4.8h5.28l.62.41,2.54,10.08,1.58,8.09.27-1.71,2.06-7.06,2.33-9.81h5.01l2.47,9.67,1.58,7.68.82,1.3,1.85-9.26,2.33-9.4h5.56l.14.34-1.51,4.46-5.83,24.08h-5.35l-4.46-19.21h-.21l-3.98,19.75h-5.21l-1.03-6.65-5.08-17.97h-.07Z"/>
          <path class="cls-3" d="M1329.92,1046.11l.27,3.09-.14,5.14h-5.35l.14-9.81v-12.83l-.55-7,.14-.14,5.76-.14-.27,5.49v16.19h0Z"/>
          <path class="cls-3" d="M1351.66,1049.05l-.48,5.28h-13.44v-22.64l-.62-7,.14-.14,5.76-.14-.27,5.49.21,19.75h4.12l4.6-.62h0Z"/>
          <path class="cls-3" d="M1368.06,1049.74l-.21,4.6h-13.44l-.14-9.81v-12.83l-.55-7,.14-.14,5.76-.14-.27,5.49.14,19.89h4.12l4.46-1.03v1.03h0v-.07Z"/>
          <path class="cls-3" d="M1405.44,1030.12l-6.17-.21v21.4l.34,3.02h-5.49v-24.42l-5.9.21-.21-.14v-5.83h7c0,.07,3.29.07,3.29.07l7-.14v5.97h.14v.07Z"/>
          <path class="cls-3" d="M1428.62,1051.39l1.92,2.88h-6.79l-5.49-11.87c-.55-.14-1.37-.27-2.19-.48v4.6l.41,4.39-.21,3.29h-5.35v-9.26l.14-12.83v-8.03h1.17l1.65.21c1.85-.41,3.91,0,5.56,0,5.49,0,8.64,2.47,8.64,8.85s-1.99,6.86-4.94,8.44l3.16,7.06,2.26,2.68h.07v.07ZM1416.14,1029.78v.62l.27,7.96,1.71-.27h.69c2.4,0,4.32-1.03,4.32-4.39s-.96-3.98-4.25-4.12c-.82,0-1.85,0-2.81.14h0l.07.07Z"/>
          <path class="cls-3" d="M1450.98,1047.61h-9.05l-2.26,6.1h-5.14l1.99-5.35,7.06-20.65,1.17-3.84h3.64l1.37,4.18,6.86,20.37,1.85,5.35h-5.83l-1.71-6.1h0l.07-.07ZM1443.58,1042.68h5.69l-2.4-8.51h-.62l-2.68,8.51h0Z"/>
          <path class="cls-3" d="M1467.79,1048.51l-7.75-20.03-1.58-4.39h7l.27.21,3.43,12.83,1.3,5.35h.69l1.37-5.35,3.7-13.03h0l6.86-.62-1.44,5.01-7.41,19.82-1.3,5.42h-3.57l-1.71-5.21h.14,0Z"/>
          <path class="cls-3" d="M1502.84,1049.74v3.43h-14.54v-29.36h13.51v5.49l-7.55.27-.55,8.3,6.45-.21h0l.27,3.16-6.38-.14.14,8.99h8.78-.14v.07Z"/>
          <path class="cls-3" d="M1521.77,1049.53v4.18h-13.44v-6.17l.14-12.83-.62-7-.14-3.77,5.76-.14v26.13h4.12l3.09-.14,1.03-.21h0l.07-.07Z"/>
        </g>
        <g>
          <path class="cls-3" d="M921.39,1051.27v1.78h-4.39l-.55-7.13-.21-4.6h-9.47v5.35l.41,4.46.14,2.33h-4.53l-.21-8.64.14-14.06-.21-7.06h4.53l-.27,5.49.14,7.13h10.36l-.14-5.28-.62-7,.14-.14,4.87-.14-.34,5.76v17.49l.21,4.25h0Z"/>
          <path class="cls-3" d="M941.69,1046.33h-9.05l-2.33,7h-5.14l1.71-4.8,7-21.81.69-3.02h5.08l.48,2.4,6.93,22.43,1.85,4.8h-5.83l-1.23-7s-.14,0-.14,0ZM933.94,1042.08h5.69l-2.4-9.26h-.62l-2.61,9.26h-.07Z"/>
          <path class="cls-3" d="M957.4,1049.42l-5.28-18.79-1.92-7h5.49l.41,2.06,3.43,12.83.96,5.01h1.51l.89-5.01,3.43-12.83.41-1.71h5.62l-1.85,6.31-5.35,19.07-.69,3.98h-6.38l-.69-3.98h0v.07Z"/>
          <path class="cls-3" d="M991.9,1048.46l.27,4.94-14.47-.34.14-9.19v-19.69l.14-.14,5.76-.14,8.51-.27-.41,5.9h-8.3v6.24h6.24l.82,4.39h-6.86l-.21,8.57h7.48l.96-.21h0l-.07-.07Z"/>
          <path class="cls-3" d="M1032.92,1036.73c2.19.96,3.5,2.88,3.5,6.1,0,4.8-3.43,10.01-8.85,10.01s-3.43-.14-5.21-.34h-3.98v-8.57c.07,0,.14-12.83.14-12.83l-.62-7,.14-.14h2.68c2.13-.48,4.94-.69,6.04-.69,6.24,0,8.85,2.4,8.85,7.13s-1.03,4.87-2.61,6.31h-.07ZM1023.59,1028.43v7.34h2.74c3.09,0,4.53-2.13,4.53-4.66s-1.23-2.81-4.46-2.81-1.78,0-2.81.14h0ZM1031.61,1043.52c0-2.13-1.85-3.5-4.39-3.5s-2.26.14-3.64.27v7.41c1.1.14,2.33.21,3.29.21,3.57,0,4.73-2.4,4.73-4.46h0v.07Z"/>
          <path class="cls-3" d="M1060.49,1050.04l.55,1.92h-5.97l-4.66-9.81c-.55-.14-1.37-.21-2.19-.34l-.27,3.91.41,4.39v1.99c.07,0-5.62.34-5.62.34l.14-8.37v-12.83l-.55-7,.14-.14h2.88c1.85-.48,4.32-.69,6.04-.69,5.49,0,8.64,2.47,8.64,8.85s-1.99,6.86-4.94,8.44l4.05,6.38,1.44,3.02h0l-.07-.07ZM1048.56,1028.77l-.21.82v7.34l1.58.34h.69c2.4,0,4.32-1.03,4.32-4.39s-.96-3.98-4.25-4.12c-.82,0-1.23,0-2.19.07h.07v-.07Z"/>
          <path class="cls-3" d="M1082.1,1047.36h-9.05l-1.92,4.73h-5.14l1.71-4.8,7-20.1.82-3.16h5.08l.62,3.5,6.65,19.75,1.85,4.8h-5.83l-1.65-4.73h-.14ZM1074.07,1042.56h5.69l-1.71-11.11h-.62l-3.29,11.11h-.07Z"/>
          <path class="cls-3" d="M1099.25,1045.72l.14,4.12.41,2.88h-5.35l.21-9.67v-12.83l-.55-7,.14-.14,5.76-.14-.69,8.3v14.34h0v.14h-.07Z"/>
          <path class="cls-3" d="M1126.13,1048.53v3.57h-4.73l-3.29-8.37-5.9-8.85-.27-.55h-.41v16.05l.41,2.4h-5.49v-18.93l-1.23-9.95.14-.14h5.28c0-.07,2.33,3.7,2.33,3.7l8.78,11.45h.27v-6.65l-.82-8.44.14-.14h4.73c0-.07.14,4.18.14,4.18v20.51h0v.14h-.07Z"/>
        </g>
      </g>
      <g>
        <path class="cls-3" d="M1037.54,889.34l-.27.27h-7.48l-4.73-7.75-12.21-16.67-.41-.82h-.62v17.83l.82,7.13-.27.27h-8.85v-26.06l-1.58-18.86.21-.21,8.51-.14,2.13,5.83,15.36,21.67h.48v-10.7l-.89-16.46.21-.21,9.81-.21-.82,10.56v27.3l.82,7.13h-.21v.07Z"/>
        <path class="cls-3" d="M1045.98,873.91c0-11.25,4.87-17.56,15.09-17.56s14.06,5.14,14.06,16.46-5.42,17.7-15.16,17.7-13.99-5.28-13.99-16.6h0ZM1060.04,864.58c-2.4,0-4.12.27-5.35,1.3-1.3,1.44-1.58,3.36-1.58,6.93,0,6.45,2.4,9.4,8.16,9.4s4.39-.41,5.76-1.71c1.1-1.51,1.37-3.5,1.3-6.86-.07-5.97-1.92-8.99-8.23-8.99h-.07v-.07Z"/>
        <path class="cls-3" d="M1110.39,885.22c-3.22,2.88-7.2,4.39-13.44,4.39-10.63,0-14.75-5.28-14.75-16.8s5.35-17.35,15.5-17.35,12.55,4.66,12.55,13.58-.21,3.91-.48,6.1l-.41.21h-20.17c.69,4.73,3.43,7.13,8.71,7.13s7.27-.69,8.99-2.06l1.44-.75,2.13,5.56h-.07ZM1089.33,869.52l14.4-.34c.14-4.05-1.92-5.97-6.52-5.97s-7.48,2.13-7.96,6.38h.07v-.07Z"/>
        <path class="cls-3" d="M1118.76,840.85v-.48c.07,0,8.71-.41,8.71-.41h0l-.41,15.78v26.96l.34,6.65-.48.27h-7.48v-31.21c.07,0-.82-17.56-.82-17.56h.14Z"/>
        <path class="cls-3" d="M1137.07,840.85v-.48c.07,0,8.71-.41,8.71-.41h0l-.41,15.78v26.96l.34,6.65-.48.27h-7.48v-31.21c.07,0-.82-17.56-.82-17.56h.14Z"/>
        <path class="cls-3" d="M1182.27,886.12c-3.22,2.88-7.2,4.39-13.44,4.39-10.63,0-14.75-5.28-14.75-16.8s5.35-17.35,15.5-17.35,12.55,4.66,12.55,13.58-.21,3.91-.48,6.1l-.41.21h-20.17c.69,4.73,3.43,7.13,8.71,7.13s8.3-1.44,10.01-2.81h.41l2.13,5.56h-.07ZM1161.22,870.41l14.4-.34c.14-4.05-1.92-5.97-6.52-5.97s-7.48,2.13-7.96,6.38h.07v-.07Z"/>
        <path class="cls-3" d="M1240.3,877.82c0,7.75-5.56,12.35-14.27,12.35s-5.56-.21-8.44-.55h-6.38l.14-10.01v-20.65l-.96-11.32.21-.21h4.25c3.36-.82,7.96-1.1,9.81-1.1,10.08,0,14.27,3.91,14.27,11.52s-1.65,7.89-4.25,10.15c3.57,1.58,5.62,4.73,5.62,9.88h0v-.07ZM1224.11,854.36c-1.3,0-2.88,0-4.53.27v9.81c1.58,0,3.09,0,4.6.07,5.01,0,7.2-1.51,7.2-5.56s-1.99-4.53-7.13-4.53h-.14v-.07ZM1232.48,876.65c0-3.36-1.99-4.73-6.1-4.73s-4.53.21-6.86.48v9.26c1.85.21,3.7.34,5.28.27,5.83,0,7.68-1.99,7.68-5.28h0Z"/>
        <path class="cls-3" d="M1277.82,889.34l-.48.27h-7.48v-19c0-3.43-2.13-4.73-4.87-4.73s-5.28.55-8.09,1.71v15.16l.34,6.65-.48.21h-7.48v-31.9l-.82-12.42v-.48l8.71-.41h0l-.41,11.25v5.35c3.43-2.54,7.55-4.73,11.87-4.73s8.64,3.22,8.64,10.22v16.12l.34,6.65h.21v.07Z"/>
        <path class="cls-3" d="M1315.13,889l-.21.55-7.06.75-1.17-4.18c-3.5,2.68-8.16,4.25-11.8,4.25-5.69,0-8.51-3.84-8.51-9.81s3.7-9.6,10.91-9.6,5.56.41,8.09.82v-2.68c0-3.16-2.19-4.46-5.9-4.46s-7.2.69-9.95,1.58l-.48-.21-1.17-7.13c3.22-1.44,8.99-2.47,12.96-2.47,6.58,0,12,1.51,12,11.18v14.34l2.19,7h0l.07.07ZM1298.26,882.96c2.47,0,5.14-.89,7.13-2.19v-3.7c-1.85-.27-4.05-.69-6.38-.69-3.43,0-4.73.82-4.73,3.16s.82,3.36,3.98,3.36h0v.07Z"/>
        <path class="cls-3" d="M1353.89,889l-.21.55-7.06.75-1.44-4.32c-2.54,2.54-6.1,4.46-10.22,4.46-8.51,0-12.9-4.87-12.9-15.91s6.17-17.97,14.61-17.97,5.62.69,7.41,1.85v-.55l-1.1-12.42v-.48l8.99-.34-.27,15.3v18.45h0v3.7l2.19,7h0v-.07ZM1343.46,880.49v-.14h.34c.14-.21.27-.27.34-.34v-13.24c-2.13-1.37-4.87-1.85-7.68-1.85-5.35,0-7.06,2.26-7.06,8.23s2.74,9.12,7.89,9.12,4.46-.69,6.17-1.71h0v-.07Z"/>
        <path class="cls-3" d="M1391.55,889.41l-.21.21-7.13.69-.82-4.12c-2.88,2.13-6.38,4.12-10.63,4.12s-9.4-1.17-9.4-9.47v-16.53l-1.1-6.93.21-.14,8.71-.69-.27,10.63v10.43c0,3.91,1.92,5.21,5.28,5.21s4.25-1.1,6.31-2.4v-13.79l-.82-9.33.21-.14,8.3-.69-.14,10.49v13.44l1.51,8.92h0v.07Z"/>
        <path class="cls-3" d="M1401.9,879.46v-13.31l-1.03-8.44v-.48l8.16-.89.27,6.58c2.47-4.6,6.72-6.79,10.7-6.93l.75.27-.62,9.53c-.55,0-1.37-.14-2.61-.14-2.68,0-5.97.89-8.09,3.29v13.72l.41,6.65-.48.27h-7.48v-10.15h0Z"/>
        <path class="cls-3" d="M1432.49,842.9c3.09,0,5.01,1.58,5.01,4.8s-1.85,5.08-5.01,5.08-5.01-1.99-5.01-5.08,1.92-4.8,5.01-4.8ZM1436.61,882.69l.34,6.65-.48.27h-7.48v-24.62l-1.1-7.55.21-.21,8.99-.62-.55,9.88v16.19h.07Z"/>
      </g>
      <g>
        <path class="cls-3" d="M1148.73,930.91h-1.37c-.55-2.26-1.3-4.8-2.06-6.17-1.51-2.61-2.61-2.13-5.69-2.13-5.97,0-7.82,5.14-7.82,15.02s.27,7.06,1.3,9.81c1.23,3.22,2.88,5.56,6.38,5.56s2.88-.21,4.66-.96c.69-.27,1.03-.96,1.03-1.65v-7.2c0-2.06-.55-4.66-3.57-4.87v-1.58c2.61.27,4.05.27,6.04.27s.82.14,3.43-.07v1.58c-2.88.27-2.47,2.54-2.47,4.73l-.21,6.93c0,.69-.96,2.13-1.58,2.47-2.06,1.17-4.25,1.85-7.96,1.85-8.71,0-14.06-6.38-14.06-16.8s5.35-18.25,13.92-18.25,4.66,1.37,7.27,3.64l1.71-2.81h.96v10.56h.07v.07Z"/>
        <path class="cls-3" d="M1177.81,952.72h-21.61v-1.58c3.57-.21,3.02-.55,3.5-3.43v-22.57c-.55-2.74,0-3.09-3.5-3.22v-1.58h21.33v8.99h-2.19c-1.3-5.01-.55-7.27-4.25-7.27h-5.56v13.03h.48c4.53-.48,4.53-2.13,4.8-4.39h1.44l-.21,9.95h-1.44c-.14-2.68-.55-4.05-4.6-3.84h-.34v11.59c-.27,2.13,0,2.26,2.47,2.26h2.47c2.74,0,3.57,0,4.94-2.13.27-1.37.82-3.09.69-4.8h1.37l.27,9.12h0v-.14h-.07Z"/>
        <path class="cls-3" d="M1202.51,952.17c-.21-.34-.55-1.37-.69-2.61-1.3-1.85-1.03-2.61-2.06-4.05l-12.9-20.1v22.57c.41,2.4,1.1,2.74,2.68,3.36v1.58c-2.33-.14-3.57-.21-5.01-.21s-2.68,0-4.94.21v-1.58c3.57-.21,4.05-.55,4.05-3.36v-24.56c-1.17-1.17-2.26-1.58-4.12-1.71v-1.58c1.85.07,2.95.14,4.53.14s2.47,0,4.18-.14l13.99,19.07.75-14.13c0-2.54-.41-2.06-2.68-1.99v-2.88c2.33.14,3.5.21,5.01.21s1.92,0,4.18-.14l.34,2.4c-3.57.14-3.7-.34-3.7,2.4l-1.3,27.09h-2.4.07Z"/>
        <path class="cls-3" d="M1228.92,953.88c-3.09-.27-3.57-.34-5.69-.34s-3.7.07-6.86.34v-1.58c3.64-.21,4.05-.55,4.05-2.74v-22.91c0-3.43-.48-3.84-4.05-3.98v-2.68c3.09.27,4.66.34,6.86.34s3.7-.07,6.79-.34v2.68c-3.57.14-5.08.82-5.56,3.16v24.62c1.3,1.78,1.03,1.03,4.66,1.23l-.21,2.13h0v.07Z"/>
        <path class="cls-3" d="M1253.06,920.41c2.88.21,4.87.27,6.38-.07h1.85l-.14,3.22s-1.92.14-1.58,2.4v16.6c0,4.39,0,5.28-1.03,7.06-1.99,2.74-3.43,5.01-7.55,5.01s-6.86-1.23-8.99-3.57c-1.71-1.85-2.4-4.05-2.4-7.61v-17.01c0-2.74-.48-3.22-4.05-3.36v-2.81c3.09.27,4.05.27,6.24.27s3.29,0,5.76-.41v3.91c-3.02.27-4.25-.27-4.25,2.54l.41,16.05c0,2.74,2.26,7.55,6.93,7.06,3.29-.34,5.56-2.13,5.28-6.1v-16.39c-.27-1.78-.27-3.77-2.88-3.98v-2.74h0v-.07Z"/>
        <path class="cls-3" d="M1267.05,943.32c.41,2.4.82,3.7,1.78,5.28,1.37,2.26,4.05,3.7,6.72,3.7s6.38-2.68,6.38-5.83-.89-3.5-2.4-4.6c-1.03-.82-1.58-1.1-4.53-2.74-3.98-2.13-5.56-3.09-6.65-4.25-1.51-1.51-2.26-3.43-2.26-5.69,0-5.08,4.05-8.51,9.95-8.51s3.98,0,6.04,1.85l-.14-2.19h2.54v9.6l-2.61-1.23c-.21-2.88-.48-5.9-5.14-6.38-3.36-.34-5.76,2.33-5.76,5.42s.89,3.29,4.94,5.42c3.22,1.71,5.21,2.81,6.38,3.57,3.22,2.13,4.53,4.25,4.53,7.68,0,5.62-4.12,9.53-10.08,9.53s-5.62-.89-8.3-3.02l-1.85,3.43h-.96v-11.25h1.44v.21h0Z"/>
      </g>
    </g>
  </g>
  <g id="_Morph_1_" data-name="&amp;lt;Morph 1&amp;gt;">
    <path id="_Above_Card_-_Fingers_" data-name="&amp;lt;Above Card - Fingers&amp;gt;" class="cls-2" d="M742.66,810.04l-.36.95-.44,1.55-7.07,3.89-6.91,4.01-7.27,4.41-3.53,2.34-5.36,3.73-5.32,4.05-3.18,2.58-3.26,2.9-2.82,2.9-2.14,2.26-2.42,3.02-1.99,2.86-1.55,2.54-1.47,2.82-1.19,2.5-1.47,3.81-1.31,4.17-.71,3.06-.71,4.41-.71,5.68-.44,5.04-.16,4.05.28,2.38s.16.36.4.68c.24.32,1.63.44,1.63.44l.91-.28,1.23-.91s.91-1.11,1.39-1.75c.48-.64,1.99-3.37,1.99-3.37l1.19-1.87s.4-.64.44-.83c.04-.2.08-.79.08-.79l.36-.6.75-.08.99.12s-.95,2.34-1.15,3.3c-.2.95-1.39,4.92-1.47,6.27-.08,1.35-.56,4.01-.56,5.72s.12,2.7.12,2.7l.36,3.81,1.03,4.88,1.39,4.41,1.03,2.3s1.11,1.99,2.14,3.06c1.03,1.07,2.42.56,2.42.56l1.75-2.18,1.47-1.79.4.67,1.39,1.63,1.39,1.51,1.95,1.95,3.3,2.62,2.62,1.59s.68-.67.87-1.27.24-.24.52-1.15c.28-.91,1.31-.4,1.31-.4l.71.28.56.36,2.14,1.95,2.7,2.38,2.42,2.18.83,1.67,1.31,3.34,1.43,4.21,1.55,4.37,2.1,4.37,2.34,5.08,3.22,7.27,1.87,4.76,1.35,4.01,1.43,5.2,1.11,5.36,1.03,7.58.44,4.33.32,5.08v3.18l-.28,4.17-.44,3.45-.68,4.01-1.23,4.8-1.43,4.33-2.3,5.64-2.9,5.68-4.65,7.7-5.08,7.46-3.97,5.16-3.45,3.81-5.2,4.88-5.96,4.53-5,3.1-6.61,4.35-4.65,3.34c-1.97-.77-2.5,1.31-2.5,1.31l-2.08,2.74-3.45,4.29-5.12,5.78-3.93,6.31-2.14,5.6-1.43,7.27-.71,8.93.24,6.31.54,5.18.48,5.36.89,5.6,1.49,7.5,1.91,6.85,1.19,4.35,1.43,3.57,1.37,1.79s.89,1.37,3.1.95c2.2-.42,2.38-.83,2.38-.83l.24-1.97.77-4.7.18.42.77,1.19,1.01,1.73.95,1.73,1.55,2.8,1.61,2.56,1.25,1.67,2.68,2.98,2.02,2.56,3.75,4.65,3.16,3.75,4.88,5.78,5.06,6.19s1.61,2.32,2.26,2.68c.66.36,1.97.42,2.74.12.77-.3,1.07-.71,1.07-.71,0,0,1.07-.71,1.61-.77s1.07.48,1.07.48l1.37.95,1.97,1.43,2.74,2.08,3.1,1.97s1.79.89,2.92.83c1.13-.06,1.55-.83,1.91-1.31.36-.48.42-1.07.42-1.07l.06-.71,1.73.36.36.66.42.71.77.83.71.54,1.13.71,2.32,1.37,2.5,1.43,3.81,1.91,4.59,2.38,2.08.95,1.67.3,1.73-.12.48-.42.32-.64-.26-1.33-.77-1.19-1.55-2.44-.06-.83.66-.24.95.42,1.13.71,1.31,1.31,1.37.66,2.44,1.01,5.96,1.91s4.17.77,4.76.66c.6-.12,1.07-.3,1.07-.3l.24-1.01v-1.67l.24-1.49h1.79l3.22.12,3.87.06,3.34-.12,4.05-.36,3.87-.71,5.6-1.79,5.84-2.8s1.61-.95,2.68-2.02,1.79-1.67,1.79-1.67l2.5-1.91,1.91-.77,2.2-.48,2.38-.48,3.34-.42,3.81-.83s.66,0,3.33-1.37c2.68-1.37,3.39-2.02,3.39-2.02,0,0,1.01-.24,4.76-4.05s4.23-4.7,5.78-6.85c1.55-2.14,1.97-2.98,1.97-2.98l2.02-3.57s.48-1.67,1.01-2.62,1.25-4.17,1.25-4.17l.71-3.51.18-3.87-.42-3.69-.89-3.34-1.55-3.81-1.91-2.74-2.02-1.79-1.79-1.01-1.79-.83-1.97-1.07-1.19-1.13-.71-1.25-.83-2.08-.89-2.32-1.01-1.97-2.26-2.62s-2.92-3.04-4.17-4.29c-1.25-1.25-6.19-4.11-6.19-4.11l-3.69-1.61-3.69-1.31-3.51-1.01-4.94-1.49-3.93-1.31-1.91-.71-1.67-.89-1.97-1.31-1.97-1.37-2.38-1.55-2.26-1.31-1.91-.89-2.02-.54-2.44-.24-1.97-.18-2.62-.3-2.08-.48s-1.37-.3-1.73-.54-.18-.83-.18-.83l.48-1.13.89-1.67,1.61-2.62,2.44-4.05,1.61-2.74,2.32-4.11s1.07-1.91,1.49-2.98c.42-1.07.71-2.02.71-2.02l1.91-1.19s2.2-1.43,2.92-1.91c.71-.48.42-.42.42-.42l-.77-1.91-.95-1.85-1.31-2.74,1.31.48,2.92.83,3.51.89,3.33.71,4.29.77,6.37.6,2.98.18h5.36s3.45-.42,4.05-.66c.6-.24.54-.6.54-.6l.42-.66-.3-.89-.6-2.62,1.97-.06,2.62-.12,3.1-.36,2.62-.42,3.28-.95,5.66-1.79,6.13-1.85,6.13-1.67,7.68-1.79s4.65-1.19,6.61-2.2,1.31-.83,3.1-1.55c1.79-.71,2.86-2.32,3.45-3.04.6-.71,1.37-2.2,1.37-2.2l.36-1.55.18-.95-.18-.54h-6.73l-.42-.48.44-.93.79-.87,2.7-1.59,3.34-1.75,5.56-2.7,2.38-1.27,2.38-2.06,2.54-2.7,2.22-2.38,1.59-1.27,1.11-1.43,1.59-2.7,1.91-2.7,2-1.88.28-.41.52-.67.59-.72.8-1.01.96-1.13.92-1.12,1.6-1.95,1.07-1.29s1.96-2.5,2.31-2.94c.35-.44,1.19-1.84,1.19-1.84l.37-.67c.33-.41,2.34-4.87,2.58-5.46s1.2-3.12,1.2-3.12l.79-2.28s.95-3.08,1.11-3.71.75-2.94.87-3.47c.12-.53.53-2.46.67-3.27.13-.81.36-2.03.44-2.7.08-.67.23-1.68.28-2.26.05-.57.19-2.06.23-2.54s.09-2.22.09-2.22c0,0,.03-2.1,0-2.56-.03-.47-.2-2.24-.2-2.24l-.25-1.43-.2-.85-.44-1.61-.51-1.67-.43-1.36-.55-1.69-.31-.95-.23-.81-.4-1.35-.21-.8-.19-.92-.15-.97-.04-.75.03-.65.05-.57.11-.68.16-.69.29-.89.45-1.08.27-.63.47-.92.45-.92.35-.91.21-.72.13-.88.05-.64v-.52l-.07-.83-.19-1.03-.28-1.05-.24-.68-.41-1.08-.43-.91s-.43-.91-.64-1.27c-.21-.36-.69-1.27-.92-1.56s-.85-1.16-.85-1.16l-.87-1.03-.75-.73-.83-.71-.91-.65-.91-.59-1.36-.72s-1.65-.72-2.35-.95-2.42-.61-2.42-.61l-1.12-.23-1.87-.24-2.19-.2-1.57-.04h-1.41s-1.53.04-1.53.04l-1.21.04-1.13.07-1.29.17-2.06.31-4.94.92-2.58.6-2.66.72-2.03.65-1.75.72-1.49.83-.68.56-.48.49s-.36.61-.2,1.05.45.79.45.79l.05.21.79.03s1.63-.09,3.42.17c1.79.27,1.72.28,1.72.28l1.49.24,1.77.36,1.79.55.74.27,1.4.58,1.22.67.77.51.98.76s.61.54.97.97.8,1.06.8,1.06l.64,1.09.34.74.28.74-.84-.12-2.36-.32-1.77-.2-2.24-.16-1.69-.12-2.12-.04-1.55-.04h-1.57l-1.87.08-1.23.06-1.27.1-1.63.16s-.85.08-1.49.18c-.64.1-2.68.38-2.68.38l-2.82.52-2.36.54-3.06.81-2.46.66-1.89.56-1.15.46-1.5.81-.89.95-.66,1.31-.27.92.12,2.38-2.89.66-1.49.42-.33-.21-.51-.54-.3-.86-.33-1.4-.09-1.25-.06-1.01v-2.89c0-.83-.12-4.05-.18-5.18s-.36-2.2-.36-2.2l-.31-.76.44-.48,1.27-.64,4.13-1.83,4.13-1.63s4.8-1.67,6.15-2.22c1.35-.56,2.98-1.47,2.98-1.47l2.3-1.19,3.65-2.58,2.02-1.67s3.26-2.98,4.8-4.69,3.37-4.21,3.89-5.04c.52-.83,2.14-3.22,2.54-3.93.4-.71,2.66-4.96,2.66-4.96,0,0,1.91-3.73,2.54-5.24.64-1.51,1.35-3.65,1.35-3.65,0,0,.28-.99.6-2.78s.75-2.22.75-2.22c.79-1.19.91-.91,1.51-1.47.6-.56,3.1-1.63,3.1-1.63,0,0,4.37-2.26,6.55-3.69,2.18-1.43,4.49-3.37,5.4-4.33.91-.95,1.67-1.63,3.22-3.61s3.22-5.76,3.61-7.5c.4-1.75.28-4.53-.04-5.88s-.68-3.15-.68-3.15l-.3-1.37-1.25-2.92-1.91-3.28-1.75-2.55-.43-.61c-.44-.63-.92-1.24-1.49-1.76-.6-.53-1.63-2.05-3.6-3.66-2.86-2.32-5.06-3.1-5.06-3.1-1.55-.48-3.13-.83-4.73-1.05l-3.55-.5-4.17.43-1.52.7c-.79.55-1.2,1.49-1.08,2.45l.63,1.55,2.13,2.62c.29.36.55.74.76,1.14l3.9,7.18c.45.9.42,1.97-.07,2.85l-.87,1.57c-.62,1.12-1.6,2-2.78,2.52l-1.06.46c-1.09.47-2.27.67-3.45.57l-2.21-.18c-.64-.45-1.48-.65-2.13-.93l-2.5-1.19-4.53-1.78-5.12-1.26-4.11-.3-2.33-.47c-1.02-.2-1.98-.59-2.86-1.14l-1.59-1.01-2.56-2.38-2.86-2.38-2.09-.78c-1.17-.31-2.43-.11-3.45.54l-1.43.77-.82.5.87.41-.87-.41-.07.05v-.08l-100.91-48.22.02.02Z"/>
  </g>
  <g id="_Morph_2_" data-name="&amp;lt;Morph 2&amp;gt;">
    <g id="_Above_Card_-_Fingers_-2" data-name="&amp;lt;Above Card - Fingers&amp;gt;">
      <path class="cls-2" d="M738.23,787.64l-1.59,7.87-2,7.06-5.2,8.6-9.5,15.21c-4.37,5.49-12.2,27.28-14.61,33.83-.86,3.17-6.92,15.05.86,12,3.48-1.34,5.95-8.2,9.26-7.07-6.22,8.08-9.3,19.82-8.09,30.02,2.37,13.42,5,3.63,8.25,4.85,9.24,19.52,18.7,40.3,22.7,61.98,14.93,67.74-59.74,77.39-73.13,126.19-.62,4.8,1.16,10.66-5.86,8.65,4.9,6.2-3.17-1.42-2.69,10.83-1.51,6.98-1.53,41.88,8.65,20.6,5.9,23.23,14.62,43.25,32.62,57.12,3.86,4.35,4.8-1.68,7.28.06,3.36,6.45,11.5,15.58,18.7,16.93,2.18-1.28-3.75-10.73,1.9-5.22,3.07,4.44,9.46,8.63,14.87,9.61,1.12-1.51.67-4.91,3.3-3.41,19.76,8.41,39.64-1.54,59.74-1.53,21.35-9.65,36.72-12.34,34.82-30.88-.64-6.26-4.83,19.8-17.88-23.26-6.03-19.88-33.29-34.34-50-45.17.8-4.64,3.81-21.6,7.18-24.87,4.86-7.81,13.6-28.63,12.85-5.63.59,5.15,4.63,39.24,13.24,30.12,1.65,6.99,41.45,63.32,37.04,35.95,28.05,23.25,72.52,35.16,103.06,8.74,41.3,5.12-.79-65.72,1.77-40.76,1.16,32.71-8.82-7.11-18.15-16.33-5.2-11.53-42.3-47.12-67.48-57.1,0,0,1.43-69.7-13.41-87.17-1.13-1.33,9.6,10.66,22.44,20.64s56.4,30.1,92.71,29.34c3.73-.08,5.33-.54,7.55.22,15.79,7.12,34.64,2.54,36.61-17.04,2.86-7.51-3.44-27.07-12.51-23.46-1.92,9.69-14.72,14.75-17.59,4.92-4.44-15.21-4.75-30.1-19.98-48.76-24.86-30.46-73.24-57.62-110.55-69.73l-107.17-53.94Z"/>
    </g>
    <path id="_Behind_Card_-_Thumb_Filler_" data-name="&amp;lt;Behind Card - Thumb Filler&amp;gt;" class="cls-2" d="M1090.68,695.85l.76-.2s.44-.1,1.23-2.2c.79-2.1-.4-3.21-.4-3.21l-1.52-1.66-3.27-2.02-14.45-11.28-16.63-8.55-15.21-5.7-22.34-7.6-6.43,6.35-169.1,36.09,2.09,145.73,64.63,35.17,112.16-180.59,68.49-.3Z"/>
  </g>
  <g id="_Morph_3_" data-name="&amp;lt;Morph 3&amp;gt;">
    <path id="_Behind_Card_-_Thumb_Palm_" data-name="&amp;lt;Behind Card - Thumb &amp;amp; Palm&amp;gt;" class="cls-2" d="M1018.84,653.41l22.34,7.6,15.21,5.7,16.63,8.55,14.45,11.28,3.27,2.02,1.52,1.66s1.2,1.12.4,3.21c-.79,2.1-1.23,2.2-1.23,2.2l-5.41,1.42-3.17,1.77,1.23.5h0l4.25,1.02,2.25,2.03,1.43,1.52,2.47,3.15,2.17,2.44,3.93,4.5,3.15,3.76,4.85,5.81,5.23,6.05s2.01,1.98,2.25,2.69c.24.71.07,2.01-.35,2.72-.43.71-.89.93-.89.93,0,0-.89.93-1.04,1.45-.15.52.28,1.14.28,1.14l.7,1.51,1.07,2.18,1.58,3.06,1.4,3.39s.57,1.91.32,3.02c-.25,1.1-1.09,1.38-1.62,1.65-.53.27-1.13.23-1.13.23l-.71-.06.05,1.76.58.46.63.53.69.91.4.8.51,1.24.95,2.52.98,2.71,1.22,4.08,1.56,4.93.58,2.22v1.69s-.41,1.68-.41,1.68l-.49.4-.68.2-1.27-.48-1.04-.97-2.14-1.95-.81-.2-.35.6.25,1.01.51,1.24,1.06,1.52.41,1.46.58,2.58.85,6.19s.04,4.24-.18,4.81c-.22.57-.48,1-.48,1l-1.04.06-1.64-.29-1.51-.02-.31,1.76-.44,3.19-.61,3.82-.69,3.26-1.05,3.93-1.37,3.69-2.73,5.21-3.76,5.27s-1.22,1.42-2.46,2.29c-1.24.87-1.95,1.47-1.95,1.47l-2.31,2.14-1.09,1.74-.85,2.09-.88,2.26-.92,2.63-.77,3.82s.01.65-1.32,3.36c-1.33,2.7-1.97,3.43-1.97,3.43,0,0-.22,1.02-3.97,4.83-3.75,3.81-4.64,4.3-6.75,5.89-2.12,1.58-2.95,2.01-2.95,2.01l-3.54,2.08s-1.66.5-2.6,1.05c-.94.55-4.15,1.32-4.15,1.32l-3.5.77-3.87.24-3.7-.36-3.35-.84-3.84-1.49-2.77-1.86-1.82-2-1.04-1.77,12.38-4.37-4.44-4.44-13.08-6.15-1.11-.92-1.91-1.18-2.13-1.28-1.76-1.34-2.19-2.68s-2.49-3.4-3.5-4.85c-1.02-1.45-2.98-6.81-2.98-6.81l-2.96-5.96-1.01-8.76-3.49-12.67-.63-5.07-.63-3.41-.18-2.09.19-2.45.16-1.97.16-2.63-.11-2.14s-.06-1.4-.23-1.79c-.1-.23-27.08,7.03-42.19-4.54h0c-9.01,12.47-16.17,14.59-23.02,29.76-15.4,34.11,1.36,63.89.95,92.2-.36,24.75,15.32,89.15-36,95.33l-168.47-185.35,99.45-110.06,149.79-1.12c.02.12.03.22.05.34l25.61-41.69Z"/>
    <path id="_Above_Card_-_Fingers_-3" data-name="&amp;lt;Above Card - Fingers&amp;gt;" class="cls-2" d="M665.17,1088.16c-.62,4.8,1.16,10.66-5.86,8.65,4.9,6.2-3.17-1.42-2.69,10.83l-.05.27c-1.29,6.71-1.36,34.14,5.69,25.44,1.36-1.67,4.02-1.19,4.61.88,5.86,20.62,14.52,38.36,30.86,51.02.1.08.2.18.29.27,3.75,4.06,4.69-1.81,7.14-.09,2.77,5.32,8.79,12.47,14.86,15.56,2.03,1.04,4.32-.91,3.69-3.1s-1.11-3.84,2.05-.76c2.62,3.79,7.67,7.41,12.46,8.98,1.39.46,2.88-.34,3.33-1.73.36-1.12.84-1.93,2.39-1.05,19.59,8.33,39.28-1.37,59.19-1.52.36,0,.72-.08,1.04-.23,21.09-9.47,36.21-12.26,34.32-30.65-.64-6.26-4.83,19.8-17.88-23.26-5.85-19.31-31.74-33.5-48.53-44.23-.9-.57-1.35-1.62-1.17-2.67,1.08-6.04,3.74-19.67,6.7-22.97.11-.13.22-.25.3-.39,4.87-7.95,13.42-28.1,12.72-5.6,0,.12,0,.23.01.35.6,5.22,4.08,33.89,11.29,31.34,1.19-.42,2.51.2,3.09,1.32,6.2,11.9,34.11,50.36,36.11,38.44.33-1.96,2.58-2.91,4.17-1.73,27.86,20.71,68.86,30.17,97.81,6.02.55-.46,1.26-.67,1.98-.61,39.41,3.7-1.88-65.62.65-40.88,1.15,32.36-8.61-6.27-17.85-16.02-.19-.2-.34-.41-.47-.65-4.23-8.16-18.3-26.69-35.71-37.75-3.39-2.15-18.11-10.1-20.66-10.98-1.81-.63-3.34-.87-4.53-.66,0,0,18.53-10.93,26.61-25.19,3.64-6.43,15.45-23.52,16.4-29.23.31-1.83,1.29,5.39,3.33,9.5,27.56,44.2,61.78,60.83,103.5,48.84,3.54-1.02,5.23-.92,7.45-.33.06.02.13.04.19.06,16.15,5.92,34.47.11,35.23-19.31,0-.18.04-.36.08-.53,1.93-7.22-4.32-23.54-12.11-22.86-1.19.1-2.13,1.06-2.29,2.25-1.32,9.62-4.21,22.38-15.3,11.66-.27-.26-.48-.58-.62-.92-6.76-16.81-11.95-35.75-24.39-53.52-40.46-57.8-157.92-118.75-159.07-118.69-.19.01-.3-.22-.47-.31l-103.77-52.23c-1.55-.78-3.42.13-3.77,1.83l-.89,4.38c-.01.07-.03.13-.05.2l-1.87,6.62c-.06.23-.16.44-.28.65l-5.02,8.29-9.44,15.11c-.04.06-.08.12-.13.18-4.36,5.6-12.09,27.08-14.52,33.67-.02.05-.03.09-.04.14-.93,3.27-6.85,14.96.88,11.93.03-.01.07-.03.1-.04,2.16-.9,4.36,1.1,3.56,3.3-2.31,6.28-3.24,13.22-2.5,19.58,0,.08.02.15.03.23,1.58,8.85,3.28,7.44,5.2,5.9,1.33-1.07,3.3-.61,4.03.93,8.92,18.91,17.86,38.98,21.71,59.88,14.9,67.63-59.51,77.36-73.07,125.95l-.06.23Z"/>
  </g>
</svg>