<?xml version="1.0" encoding="UTF-8"?>
<svg id="SHADOW" xmlns="http://www.w3.org/2000/svg" viewBox="0 0 299.05 299.05">
  <defs>
    <style>
      .cls-1 {
        fill: none;
        stroke: #231f20;
      }

      .cls-1, .cls-2 {
        stroke-miterlimit: 10;
        stroke-width: 4px;
      }

      .cls-2 {
        stroke: #000;
      }
    </style>
  </defs>
  <path class="cls-2" d="M245.19,252.15c.23-2.32-14.57-87.04-22.66-119.71l-.1-.19c15.51-42.62,3.8-83.87-28.67-114l-6.69,30.37.05.2c-8-9.56-25.93-28.43-30.32-30.87l-.1-.2-.88,4.88c-2.15,19.11-1.46,36.18-.88,55.59.29,3.71,1.91,22.47,2.2,25.98-16.75,3.3-27.7,10.75-36.04,33.11l-53.64,18.43-3.22,1.17h0s-24.96,8.58-24.96,8.58c2.83,9.56,6.14,14.82,12.58,19.6l2.54,1.76c4.5,3.22,10.93,5.86,16.05,7.39,0,0,2.2,3.36,5.39,5.79,1.32,1.01,10.08,6.78,30.63,14.51,15.99,5.36,30.82-4.19,30.82-4.19.98,4.78-23.43,75.2-23.31,76.26,51.56,12.34,103.47-8.83,131.2-34.47Z"/>
  <circle class="cls-1" cx="149.53" cy="149.53" r="147.53"/>
</svg>
