<?xml version="1.0" encoding="UTF-8"?>
<svg xmlns="http://www.w3.org/2000/svg" viewBox="0 0 3363.4 2253.12">
  <defs>
    <style>
      .cls-1 {
        fill: #231f20;
      }

      .cls-2, .cls-3 {
        fill: #fff;
      }

      .cls-2, .cls-3, .cls-4 {
        stroke: #000;
        stroke-miterlimit: 10;
      }

      .cls-2, .cls-4 {
        stroke-width: 5px;
      }

      .cls-3 {
        stroke-width: 4px;
      }

      .cls-4 {
        fill: none;
      }
    </style>
  </defs>
  <g id="paw1">
    <path id="_Black_Fill_" data-name="&amp;lt;Black Fill&amp;gt;" d="M2008.76,1345.86l-.02,277.93v5.7l.44-.11,2.5-1.35c1.79-1.14,3.98-1.48,6.03-.94l3.65,1.36,5,4.17,4.48,4.17,2.79,1.76c1.53.97,3.23,1.65,5,2l4.08.82,7.18.52,8.95,2.2,7.91,3.11,4.37,2.08c1.12.49,2.6.83,3.72,1.62l3.87.31c2.06.17,4.13-.18,6.03-1l1.85-.8c2.06-.89,3.76-2.44,4.85-4.4l1.53-2.74c.86-1.54.9-3.4.12-4.98l-6.81-12.56c-.38-.71-.83-1.38-1.34-2l-3.72-4.58-1.1-2.7c-.22-1.67.51-3.31,1.89-4.28l2.65-1.23,7.29-.75,6.2.87c2.8.39,5.57,1.01,8.27,1.84h0s3.85,1.35,8.85,5.41c3.41,2.77,5.2,5.4,6.26,6.36.74.67,1.44,1.38,2.01,2.19l1.38,1.98,3.05,4.46,3.33,5.73,2.19,5.1.52,2.39s.62,3.14,1.18,5.5c.56,2.36.76,7.22.07,10.27-.69,3.05-3.61,9.65-6.32,13.12-2.71,3.47-4.03,4.65-5.62,6.32-1.6,1.67-5.62,5.07-9.44,7.57-3.82,2.5-11.45,6.46-11.45,6.46,0,0-4.37,1.87-5.41,2.85-1.04.97-1.25.49-2.64,2.57,0,0-.76.76-1.32,3.89-.56,3.12-1.04,4.86-1.04,4.86,0,0-1.25,3.75-2.36,6.39s-4.44,9.16-4.44,9.16c0,0-3.96,7.43-4.65,8.68-.69,1.25-3.54,5.41-4.44,6.87-.9,1.46-4.1,5.83-6.8,8.82-2.71,2.98-8.4,8.19-8.4,8.19l-3.54,2.92-6.39,4.51-4.03,2.08s-2.85,1.6-5.21,2.57c-2.36.97-10.76,3.89-10.76,3.89l-7.22,2.85-7.22,3.19-2.22,1.11-.76.83.54,1.34s.52,1.87.62,3.85c.1,1.98.31,7.6.31,9.06v5.05l.1,1.77.16,2.19.57,2.45.52,1.51.89.94.57.36,2.6-.73,5.05-1.15-.21-4.17.47-1.61,1.15-2.29,1.56-1.67,2.62-1.42,2.01-.8,3.3-.97,4.3-1.15,5.35-1.42,4.13-.94,4.93-.9s3.57-.49,4.69-.66c1.11-.17,2.6-.31,2.6-.31l2.85-.28,2.22-.17,2.15-.1,3.26-.14h2.74l2.71.07,3.71.07,2.95.21,3.92.28,3.09.35,4.13.56,1.48.22-.49-1.3-.6-1.3-1.12-1.9s-.78-1.09-1.41-1.85c-.62-.75-1.69-1.69-1.69-1.69l-1.72-1.33-1.35-.89-2.13-1.17-2.45-1.02-1.3-.47-3.12-.96-3.1-.62-2.6-.42s.12-.02-3-.48c-3.13-.47-5.97-.3-5.97-.3l-1.38-.05-.09-.37s-.51-.61-.79-1.38.35-1.84.35-1.84l.84-.86,1.19-.98,2.61-1.45,3.06-1.26,3.55-1.14,4.64-1.26,4.5-1.05,8.63-1.61,3.59-.54,2.26-.3,1.98-.12,2.12-.07,2.68-.09,2.47.02,2.75.07,3.83.35,3.27.42,1.96.4s3.01.68,4.22,1.07c1.21.4,4.11,1.66,4.11,1.66l2.38,1.26,1.59,1.03,1.59,1.14,1.45,1.24,1.31,1.28,1.52,1.8s1.1,1.52,1.49,2.03c.4.51,1.24,2.1,1.61,2.73.37.63,1.12,2.22,1.12,2.22l.75,1.59.72,1.89.42,1.19.49,1.84.33,1.8.12,1.45v.91l-.09,1.12-.23,1.54-.37,1.26-.61,1.59-.79,1.61-.82,1.61-.47,1.1-.79,1.89-.51,1.56-.28,1.21-.19,1.19-.09,1-.05,1.14.07,1.31.26,1.7.33,1.61.37,1.4.7,2.36.4,1.42.54,1.66.96,2.96.75,2.38.89,2.92.77,2.82.35,1.49.44,2.5s.3,3.1.35,3.92c.05.82,0,4.48,0,4.48,0,0-.09,3.03-.16,3.87-.07.84-.3,3.43-.4,4.43-.09,1-.35,2.78-.49,3.94-.14,1.17-.54,3.29-.77,4.71s-.96,4.78-1.17,5.72c-.21.93-1.24,4.97-1.52,6.07-.28,1.1-1.94,6.49-1.94,6.49l-1.38,3.99s-1.68,4.43-2.1,5.46-3.92,8.82-4.5,9.54l-.65,1.17s-1.47,2.45-2.08,3.22-4.04,5.13-4.04,5.13l-1.87,2.26-2.8,3.41-1.61,1.96-1.68,1.98-1.4,1.77-1.03,1.26-.91,1.17-.49.72-3.49,3.28-3.33,4.72-2.78,4.72-1.94,2.5-2.78,2.22-3.89,4.17-4.44,4.72-4.17,3.61-4.17,2.22-9.72,4.72-5.83,3.05-4.72,2.78-1.39,1.53-.76,1.63.73.83h11.77l.31.94-.31,1.67-.62,2.71s-1.35,2.6-2.39,3.85c-1.04,1.25-2.92,4.06-6.04,5.31-3.12,1.25-1.98.94-5.41,2.71-3.44,1.77-11.56,3.85-11.56,3.85l-13.43,3.12-10.73,2.92-10.72,3.23-9.89,3.12-5.73,1.67-4.58.73-5.41.62-4.58.21-3.44.1,1.04,4.58.52,1.56-.73,1.15s.1.62-.94,1.04c-1.04.42-7.08,1.15-7.08,1.15h-9.37l-5.21-.31-11.14-1.04-7.5-1.35-5.83-1.25-6.14-1.56-5.1-1.46-2.29-.83,2.29,4.79,1.67,3.23,1.35,3.33s.52-.1-.73.73c-1.25.83-5.1,3.33-5.1,3.33l-3.33,2.08s-.52,1.67-1.25,3.54-2.6,5.21-2.6,5.21l-4.06,7.18-2.81,4.79-4.27,7.08-2.81,4.58-1.56,2.92-.83,1.98s-.31,1.04.31,1.46c.62.42,3.02.94,3.02.94l3.64.83,4.58.52,3.44.31,4.27.42,3.54.94,3.33,1.56,3.96,2.29,4.17,2.71,3.44,2.39,3.44,2.29,2.92,1.56,3.33,1.25,6.87,2.29,8.64,2.6,6.14,1.77,6.46,2.29,6.46,2.81s8.64,5,10.83,7.18c2.19,2.19,7.29,7.5,7.29,7.5l3.96,4.58,1.77,3.44,1.56,4.06,1.46,3.64,1.25,2.19,2.08,1.98,3.44,1.87,3.12,1.46,3.12,1.77,3.54,3.12,3.33,4.79,2.71,6.66,1.56,5.83.73,6.46-.31,6.77-1.25,6.14s-1.25,5.62-2.19,7.29-1.77,4.58-1.77,4.58l-3.54,6.25s-.73,1.46-3.44,5.21c-2.71,3.75-3.54,5.31-10.1,11.97-6.56,6.66-8.33,7.08-8.33,7.08,0,0-1.25,1.15-5.94,3.54-4.69,2.39-5.83,2.39-5.83,2.39l-6.66,1.46-5.83.73-4.17.83-3.85.83-3.33,1.35-4.37,3.33s-1.25,1.04-3.12,2.92c-1.87,1.87-4.69,3.54-4.69,3.54l-10.2,4.89-9.79,3.12-6.77,1.25-7.08.62-5.83.21-6.77-.1-5.62-.21h-3.12l-.42,2.6v2.92l-.42,1.77s-.83.31-1.87.52c-1.04.21-8.33-1.15-8.33-1.15l-10.41-3.33-4.27-1.77-2.39-1.15-2.29-2.29-1.98-1.25-1.67-.73-1.15.42.1,1.46,2.71,4.27,1.35,2.08.45,2.33-.56,1.11-.83.73-3.02.21-2.92-.52-3.64-1.67-8.02-4.17-6.66-3.33-4.37-2.5-4.06-2.39-1.98-1.25-1.25-.94-1.35-1.46-.73-1.25-.62-1.15-3.02-.62-.1,1.25s-.1,1.04-.73,1.87c-.62.83-1.35,2.19-3.33,2.29-1.98.1-5.1-1.46-5.1-1.46l-5.41-3.44-4.79-3.64-3.44-2.5-2.39-1.67s-.94-.94-1.87-.83c-.94.1-2.81,1.35-2.81,1.35,0,0-.52.73-1.87,1.25s-3.64.42-4.79-.21c-1.15-.62-3.96-4.69-3.96-4.69l-8.85-10.83-8.54-10.1-5.52-6.56-6.56-8.12-3.54-4.48-4.69-5.21-2.19-2.92-2.81-4.48-2.71-4.89-1.67-3.02-1.77-3.02-1.35-2.08-.31-.73-1.35,8.23-.42,3.44s-.31.73-4.17,1.46c-3.85.73-5.41-1.67-5.41-1.67l-2.39-3.12-2.5-6.25-2.08-7.6-3.33-11.97-2.6-13.12-1.56-9.79-.83-9.37-.94-9.06-.42-11.04,1.25-15.62,2.5-12.7,3.75-9.79,6.87-11.04,8.95-10.1,6.04-7.5,3.64-4.79s.94-3.64,4.37-2.29l8.12-5.83,11.56-7.6,8.75-5.41,10.41-7.91,9.09-8.54,6.04-6.66,6.94-9.02,8.89-13.05,8.12-13.47,5.07-9.93,4.03-9.86,2.5-7.57,2.15-8.4,1.18-7.01.76-6.04.49-7.29v-5.55l-.56-8.89-.76-7.57-1.8-13.26-1.94-9.37-2.5-9.09-2.36-7.01-3.26-8.33-5.62-12.7-4.1-8.89-3.68-7.64-2.71-7.64-2.5-7.36-2.29-5.83-1.46-2.92-4.23-3.82-4.72-4.17-3.75-3.4-.97-.62-1.25-.49s-1.8-.9-2.29.69c-.49,1.6-.56.97-.9,2.01-.35,1.04-1.53,2.22-1.53,2.22l-4.58-2.78-5.76-4.58-3.4-3.4-2.43-2.64-2.43-2.85-.69-1.18-2.57,3.12-3.05,3.82s-2.43.9-4.23-.97c-1.8-1.87-3.75-5.35-3.75-5.35l-1.8-4.03-2.43-7.71-1.8-8.54-.62-6.66s-.21-1.74-.21-4.72.83-7.64.97-10c.14-2.36,2.22-9.3,2.57-10.97.35-1.67,2.01-5.76,2.01-5.76l-1.74-.21-1.32.14-.62,1.04s-.07,1.04-.14,1.39c-.07.35-.76,1.46-.76,1.46l-2.08,3.26s-2.64,4.79-3.47,5.9-2.43,3.05-2.43,3.05l-2.15,1.6-1.6.49s-2.43-.21-2.85-.76c-.42-.56-.69-1.18-.69-1.18l-.49-4.17.28-7.08.76-8.82,1.25-9.93,1.25-7.71,1.25-5.35,2.29-7.29,2.57-6.66,2.08-4.37,2.57-4.93,2.71-4.44,3.47-5,4.23-5.28,3.75-3.96,4.93-5.07,5.69-5.07,5.55-4.51,9.3-7.08,9.37-6.53,6.18-4.1,12.7-7.71,12.08-7.01,12.36-6.8.76-2.71.62-1.67-.49-.56-2.98-1.53-3.26-1.74-3.96-1.74-4.44-2.22-2.22-1.18-4.72-3.19-5-3.26-5.28-3.61-6.8-4.72-6.18-4.1-5.55-3.89-4.37-3.12-3.82-2.78-5.28-3.82-7.64-5.9-3.12-2.5-3.96-2.92-6.32-4.93-7.64-6.32-5.97-5.14-5.41-4.93-4.37-4.03-2.43-2.01-2.15-1.74-3.47-2.15-2.5-1.32-2.5-1.25-2.78-1.32-1.11-.76-2.64-1.87-2.08-2.01-2.57-2.29-3.33-3.4-4.3-4.51-3.82-4.3-4.65-5.28-3.68-4.37-2.92-3.54-3.89-4.58-3.96-4.58-3.54-4.3-3.54-4.58-3.61-4.3-3.68-4.72-2.01-2.29-1.32-1.87-3.61-4.44-3.05-4.03-3.12-3.89-2.36-2.92-2.98-3.61-3.89-5.21-3.96-5.07-3.75-4.93-3.12-3.96-3.61-4.79-3.33-4.17-3.19-4.37-3.26-4.3-2.64-3.47-3.26-5-2.71-3.68-1.94-2.5-2.78-3.82-4.58-6.04-2.5-3.33-5.35-6.04-2.01-2.57-1.94-2.08-.9-1.04-.49-1.32-.69-1.46c-.55-.67-.91-.73-1.11-.69-1.18.21-.63,4.2-2.71,8.76-.81,1.78-1.49,3.26-2.92,3.75-2.78.95-6.02-2.66-6.25-2.92-9.43-10.33-18.87-20.74-28.32-31.24-4.88-5.42-9.74-10.83-14.58-16.24l-53.92-35.34-52.35-49.02-16.68-9.54,2.09,11.5-64.84-76.34,24.05,48.11-77.39-73.21s-7.54-1.18-30.7-20.56c-2.24-1.88-15.49-17.69-17.81-19.64-5.34-4.49-10.84-9.14-16.35-13.83-2.98-2.54,13.48,37.46,10.46,34.86-1.37-1.18-24.42-36.46-25.8-37.65-2.11-1.83-88.09-92.25-115.15-116.94-13.92-12.7,21.58,37.38,0,22.81-47.39-31.99-108.32-146.6-144.47-167.29-9.18-5.25,11.11,34.01,2.79,26.95-28.3-24.02-55.54-35.03-85.98-75.13-4.47-5.89-4.26,7.78-4.26,7.78-4.71-4.26-21.71-31.23-26.42-35.53-13.48-12.29-41.35-44.59-54.85-57.14-5.24-4.87,3.88,10.1-1.36,5.19-6.25-5.85-15.45-8.57-21.69-14.46-22.36-21.11-44.64-42.48-66.73-63.94-6.43-6.25-58.29-71.66-64.68-77.92-7.06-6.91,30.69,45.57,23.68,38.65-4.96-4.89-13.41-10.74-16.79-15.45-6.95-9.67-14.22-16.26-22.58-24.63-3.33-3.34-47.53-60.83-50.85-64.16-6.02-6.06,22.12,45.01,16.16,38.97C339.18,214.83,163.1.26,165.74.39l247.89-.24,275.78-.15,272.65,298.6,57.03,45.62-41.32-11.24,21.16,24.43,28.71,9.62-14.84,6.4,22.44,25.92,77.94,49.43-79.84-9.5,26.6,11.01c18.83,7.79,35.91,19.26,50.24,33.75l134.72,136.16,49.35,31.99-58.46-25.66,155.41,118.34-34.77-10.64c-5.73-2.15-9.98,5.46-5.15,9.22l107.19,85.87s-41.77-23.11,10.98,26.67c10.32,9.74,3.47,17.33,12.55,28.24l43.84,47.94c.31.39.96,1.35,1.25,1.93.29.57.75,1.35,1.07,2.03s.42,1.04.73,1.59c.31.55.34.78.86,1.38.52.6,1.33,1.51,1.74,1.98.42.47,2.29,2.42,2.92,3.1s2.76,3.02,3.85,4.14c1.09,1.12,4.03,4.35,5.6,5.96,1.56,1.61,2.16,2.24,3.38,3.57,1.22,1.33,4.17,4.37,5.54,5.78,1.38,1.41,3.59,3.72,4.37,4.43.78.7,3.64,3.64,4.5,4.53.86.89,3.33,3.28,4.27,4.22.94.94,3.1,2.97,4.48,4.27,1.38,1.3,3.75,3.54,4.63,4.3.89.75,2.79,2.6,3.93,3.54,1.15.94,2.13,1.9,3.36,2.94,1.22,1.04,4.06,3.44,4.71,3.96.65.52,3.88,2.97,5.1,3.88,1.22.91,2.76,2.08,4.66,3.23,1.9,1.15,4.79,2.73,6.27,3.44,1.48.7,4.03,1.72,5.02,2s2.45.78,3.2.96c.75.18,1.25.31,1.69.42.44.1-.75,7.84-.75,7.84l-.13.29-17.57.75s-.16-.03-.16.21-.1.36.34.91,1.04,1.09,1.93,1.77,3.54,2.34,4.17,2.71c.62.36,1.48.89,3.2,1.82,1.72.94,8.15,4.32,9.76,5.13,1.61.81,7.18,3.67,8.85,4.45,1.67.78,5.39,2.66,5.39,2.66l10.18,4.95,3.93,1.93,2.94,1.2,3.96,1.33,3.12.94.08.23s.36,1.28.36,2.5-.08,2.99-1.22,4.27c-1.15,1.28-2.94,1.77-5.96,1.61,0,0-.29,0-.18.49.1.49.62.99,2.37,2,1.74,1.02,12.51,6.03,12.51,6.03,0,0,5,1.8,7.91,3.61,2.92,1.8,13.47,7.5,13.47,7.5l4.79,2.92c2.85,1.53,6.94,3.89,8.75,4.65,1.8.76,4.44,2.08,7.36,3.05,2.92.97,4.54,1.19,4.54,1.19l.99.1h.81l1.64-.26,3.28-.83s.91-.21,1.59-.23c.68-.03.89-.05,1.51.16s.31,0,.78.34c.47.34.47.47.6.73.13.26.26.65.44,1.8.18,1.15.36,2.42.23,3.49-.13,1.07-.31,2.21-.89,3.02-.57.81-1.64,2.03-3.58,2.57-1.94.54-5.14.99-9.67.49l-9.16-.83s-3.8-.31-6.18-.16c-2.38.14-4.1.49-5.36,1.12,0,0,.85.75,1.1.96.24.21,1.53,1.23,2,1.56s1.81,1.28,2.52,1.71,1.32.89,2.29,1.36,1.85,1.02,2.77,1.46c.92.44,1.9.92,3.02,1.41,1.12.49,2.46,1.08,4.39,1.84,1.93.76,3.19,1.27,4.2,1.67,1.01.39,2.35.91,3.33,1.29.98.38,2.79,1.15,3.23,1.33.44.19,1.83.78,1.83.78l2.04.92s.72.37.93.51c.22.14,1.04.77,1.22.93.18.16.22.17.74.67.53.5,1.06,1,1.06,1,0,0,.67.6,1.03.85.36.25.83.51,1.12.65s1.27.57,1.91.82c.64.25,2.27.91,2.27.91l2.32.87,2.97,1.03,3.18,1.12,3.44,1.23,2.58,1s3.52,1.48,3.84,1.65c.32.17,1.89.94,2.3,1.2.41.25,1.43.94,1.43.94,0,0,1.64,1.15,2.18,1.83.54.69.9,1.3,1,1.55s.34.86.35,1.64.13.53-.25,1.5c-.38.97-1.35,2.5-2.29,3.37-.94.87-1.91,1.6-1.91,1.6,0,0-.87.8-3.12,2.19-2.26,1.39-4.76,2.78-7.01,3.78,0,0-.28.17-1.49.45-1.21.28-2.71.17-2.71.17,0,0-1.15-.07-2.12.07-.97.14-1.63.35-1.94.76-.31.42-.38,1.04-.38,1.56s.17,1.28.17,1.28l1.35.57s4.32,1.7,5.5,2.24c1.18.54,3.68,1.56,3.68,1.56,0,0,7.46,3.44,8.33,4.13l.97.57,1.84,1.18,2.47,1.69,3.57,2.55,4.62,3.53,1.57,1.25,6.09,4.87,6.77,5.53,3.53,2.82,1.2.97.96.78.98.77.91.71.56.43,2.3,1.76,2.67,1.99.63.45.35.27.35.25.59.41.69.43.56.31.72.37.5.25.55.24.82.33.84.36.88.37,1,.44,1.23.56s.96.46,1.16.61l.42.23,1.04.67s.87.61.99.73l-8.01,14.22s-.48-.25-1.34.74l-.29,3.19s-.32.32-.44,1.16l.08.48s.03.28.24.73c.21.45.61.95,1.01,1.44s1.11,1.15,1.61,1.6c.5.45,1.89,1.72,1.89,1.72l3.05,2.79,2.59,2.19,3.26,2.66,3.26,2.48,4.18,3.09,5.28,3.77,4.81,3.37,4.95,3.52,4.13,3.04s1.32.92,1.8,1.37c.49.45,2.08,1.8,2.08,1.8l1.51,1.46,2.74,2.69,1.72,1.7,1.93,1.84,1.89,1.67,1.23,1.04,1.53,1.15,1.23.8,1.08.56.71.31,1.13.43,1.43.44,2,.53,1.89.51.37.11.47.15.59.22s.47.21.52.23.44.23.55.3.55.34.72.5c.17.16.51.51.51.51l.28.34.33.48.26.46s.15.29.26.65c.11.35.29,1.01.29,1.01l.22,1.14.15,1.33.1.75.09.62.15.83.14.64.2.67.31.73.45.78.33.47.16.17.39.33.62.47,1.5,1.01,1.82,1.14,2.7,1.65,3.26,1.93,2.24,1.34,3.1,1.8,2.14,1.22.9.52,1.02.56,1.04.59,1.69.93,1.85.99,1.1.59,1.03.54,1.14.59,1.61.82,1.63.8,1.86.9,1.95.9,3.38,1.5,2.44,1.02.71.29.67.27.9.35.43.17.3.12.41.15.56.21.74.26,1.61.55,2.59.85,1.44.44,1.5.42,1.68.43,1.87.49,2.3.52,1.31.25.73.14,2.02.33,2.1.29s.16.05,1.21.14c1.05.09,2.41.22,2.41.22,0,0,.09.01,1.24.07,1.15.05,2.68.12,3.33.12s2.1-.01,2.1-.01l2.55-.12,1.65-.09,1.67-.16.82-.05.96-.09,1.09-.08,1.86-.12,4.37-.31,3.06-.22,2.56-.2,2.43-.21,2.82-.21,1.93-.14,1.59-.12,2.9-.21,3.1-.25,3.76-.26,3.66-.26,2.45-.2,1.48-.09,1.63-.12.9-.08,1.07-.08.87-.09.75-.05.82-.05h.43s.12-.01.12-.01l-1.59,3.89-1.91,4.82,1.12.23,5.14-.97,14.16-4.03,12.63-4.44,13.33-5,12.77-5.14,8.89-3.75,10-4.17,13.33-6.25,10.27-5.14,10.41-5,14.86-7.5,12.91-6.53,6.11-3.05,7.91-4.03,11.52-5.76,12.56-5.48,12.98-5.83,14.3-5.62,15.97-5.62,11.94-3.61c9.7-2.63,17.22-3.98,22.21-4.72,3.41-.5,5.6-.71,7.36-.83,7.04-.49,7.98-.73,13.54-.21,0,0,3.55.25,8.26,1.18.69.14,1.78.37,2.78,1.25,1.09.97,1.5,2.21,1.67,2.92.12.43.25,1.08.21,1.87-.01.32-.05,1.01-.35,1.74-.33.82-.33,1.33-1.18,2.01-1.02.81-2.23,1.72-4.37,2.71-1.1.51-2.74.89-4.37,1.46-1.4.48-3.2,1-5.35,1.39-.07.38-.1.89,0,1.46.3,1.64,1.51,2.58,1.87,2.85.54.31,1.36.71,2.43.97,1.27.31,2.25.26,3.75.21,2.71-.1,4.06-.15,4.51-.14,1.63.05,2.51.38,6.73,1.87,2.17.77,4.36,1.51,6.53,2.29,5.82,2.09,5.42,1.89,8.4,2.98,3.3,1.21,5.66,2.14,8.68,3.33,4.75,1.87,7.13,2.81,9.93,4.03,4.03,1.98,10.38,5.21,10.83,5.35.73.25,2.2.72,3.33,2.08,1.35,1.63,1.43,3.61,1.46,4.17.03.75.07,2.04-.69,3.33-.17.29-.54.89-1.25,1.39-.93.65-1.98.72-2.5.76,0,0-.31.02-.63.02-1.77-.04-4.66-1.22-5.27-1.48-1.55-.86-2.9-1.4-3.89-1.74-.92-.32-1.51-.45-2.22-.42-.44.02-1.91.1-2.5,1.04,0,0-.12.2-.42,1.8,0,0,4.16,3.1,5.76,4.3,1.45,1.09,5.66,4.26,9.72,7.77,7.13,6.16,5.94,5.66,8.64,8.16,2.3,1.54,5.74,4.29,6.63,6.28.98,2.19.52,2.61.87,6.53.24,2.76.08,5.39.8,6.8,1.01,1.98,1.94,2.04,3.61,4.72.61.98,1.47,2.35,1.94,4.17.38,1.43,1.19,4.53-.28,6.94-1.55,2.55-4.36,2.19-5.28,4.72-.41,1.14-.23,2.27,0,3.05l-1.07,13.3-335.85.56ZM2344.61,1345.63h-336.02v283.87M2008.74,1629.49l.44-.11,2.5-1.35c1.79-1.14,3.98-1.48,6.03-.94l3.65,1.36,5,4.17,4.48,4.17,2.79,1.76c1.53.97,3.23,1.65,5,2l4.08.82,7.18.52,8.95,2.2,7.91,3.11,4.37,2.08c1.12.49,2.6.83,3.72,1.62l3.87.31c2.06.17,4.13-.18,6.03-1l1.85-.8c2.06-.89,3.76-2.44,4.85-4.4l1.53-2.74c.86-1.54.9-3.4.12-4.98l-6.81-12.56c-.38-.71-.83-1.38-1.34-2l-3.72-4.58-1.1-2.7c-.22-1.67.51-3.31,1.89-4.28l2.65-1.23,7.29-.75,6.2.87c2.8.39,5.57,1.01,8.27,1.84h0s3.85,1.35,8.85,5.41c3.41,2.77,5.2,5.4,6.26,6.36.74.67,1.44,1.38,2.01,2.19l1.38,1.98,3.05,4.46,3.33,5.73,2.19,5.1.52,2.39s.62,3.14,1.18,5.5c.56,2.36.76,7.22.07,10.27-.69,3.05-3.61,9.65-6.32,13.12-2.71,3.47-4.03,4.65-5.62,6.32-1.6,1.67-5.62,5.07-9.44,7.57-3.82,2.5-11.45,6.46-11.45,6.46,0,0-4.37,1.87-5.41,2.85-1.04.97-1.25.49-2.64,2.57,0,0-.76.76-1.32,3.89-.56,3.12-1.04,4.86-1.04,4.86,0,0-1.25,3.75-2.36,6.39s-4.44,9.16-4.44,9.16c0,0-3.96,7.43-4.65,8.68-.69,1.25-3.54,5.41-4.44,6.87-.9,1.46-4.1,5.83-6.8,8.82-2.71,2.98-8.4,8.19-8.4,8.19l-3.54,2.92-6.39,4.51-4.03,2.08s-2.85,1.6-5.21,2.57c-2.36.97-10.76,3.89-10.76,3.89l-7.22,2.85-7.22,3.19-2.22,1.11-.76.83.54,1.34s.52,1.87.62,3.85c.1,1.98.31,7.6.31,9.06v5.05l.1,1.77.16,2.19.57,2.45.52,1.51.89.94.57.36,2.6-.73,5.05-1.15-.21-4.17.47-1.61,1.15-2.29,1.56-1.67,2.62-1.42,2.01-.8,3.3-.97,4.3-1.15,5.35-1.42,4.13-.94,4.93-.9s3.57-.49,4.69-.66c1.11-.17,2.6-.31,2.6-.31l2.85-.28,2.22-.17,2.15-.1,3.26-.14h2.74l2.71.07,3.71.07,2.95.21,3.92.28,3.09.35,4.13.56,1.48.22-.49-1.3-.6-1.3-1.12-1.9s-.78-1.09-1.41-1.85c-.62-.75-1.69-1.69-1.69-1.69l-1.72-1.33-1.35-.89-2.13-1.17-2.45-1.02-1.3-.47-3.12-.96-3.1-.62-2.6-.42s.12-.02-3-.48c-3.13-.47-5.97-.3-5.97-.3l-1.38-.05-.09-.37s-.51-.61-.79-1.38.35-1.84.35-1.84l.84-.86,1.19-.98,2.61-1.45,3.06-1.26,3.55-1.14,4.64-1.26,4.5-1.05,8.63-1.61,3.59-.54,2.26-.3,1.98-.12,2.12-.07,2.68-.09,2.47.02,2.75.07,3.83.35,3.27.42,1.96.4s3.01.68,4.22,1.07c1.21.4,4.11,1.66,4.11,1.66l2.38,1.26,1.59,1.03,1.59,1.14,1.45,1.24,1.31,1.28,1.52,1.8s1.1,1.52,1.49,2.03c.4.51,1.24,2.1,1.61,2.73.37.63,1.12,2.22,1.12,2.22l.75,1.59.72,1.89.42,1.19.49,1.84.33,1.8.12,1.45v.91l-.09,1.12-.23,1.54-.37,1.26-.61,1.59-.79,1.61-.82,1.61-.47,1.1-.79,1.89-.51,1.56-.28,1.21-.19,1.19-.09,1-.05,1.14.07,1.31.26,1.7.33,1.61.37,1.4.7,2.36.4,1.42.54,1.66.96,2.96.75,2.38.89,2.92.77,2.82.35,1.49.44,2.5s.3,3.1.35,3.92c.05.82,0,4.48,0,4.48,0,0-.09,3.03-.16,3.87-.07.84-.3,3.43-.4,4.43-.09,1-.35,2.78-.49,3.94-.14,1.17-.54,3.29-.77,4.71s-.96,4.78-1.17,5.72c-.21.93-1.24,4.97-1.52,6.07-.28,1.1-1.94,6.49-1.94,6.49l-1.38,3.99s-1.68,4.43-2.1,5.46-3.92,8.82-4.5,9.54l-.65,1.17s-1.47,2.45-2.08,3.22-4.04,5.13-4.04,5.13l-1.87,2.26-2.8,3.41-1.61,1.96-1.68,1.98-1.4,1.77-1.03,1.26-.91,1.17-.49.72-3.49,3.28-3.33,4.72-2.78,4.72-1.94,2.5-2.78,2.22-3.89,4.17-4.44,4.72-4.17,3.61-4.17,2.22-9.72,4.72-5.83,3.05-4.72,2.78-1.39,1.53-.76,1.63.73.83h11.77l.31.94-.31,1.67-.62,2.71s-1.35,2.6-2.39,3.85c-1.04,1.25-2.92,4.06-6.04,5.31-3.12,1.25-1.98.94-5.41,2.71-3.44,1.77-11.56,3.85-11.56,3.85l-13.43,3.12-10.73,2.92-10.72,3.23-1.91,1.1-1.39-.08v119.66h1352.31v-772.75h-1016.29M2344.61,1345.3l-335.85.56-.02,277.93v5.7"/>
    <path id="_White_Fill_" data-name="&amp;lt;White Fill&amp;gt;" class="cls-2" d="M2008.59,1629.49v-283.87h336.02M2344.61,1345.63h1016.29v772.75h-1352.31v-119.66l1.39.08,1.91-1.1,10.72-3.23,10.73-2.92,13.43-3.12s8.12-2.08,11.56-3.85c3.44-1.77,2.29-1.46,5.41-2.71,3.12-1.25,5-4.06,6.04-5.31,1.04-1.25,2.39-3.85,2.39-3.85l.62-2.71.31-1.67-.31-.94h-11.77l-.73-.83.76-1.63,1.39-1.53,4.72-2.78,5.83-3.05,9.72-4.72,4.17-2.22,4.17-3.61,4.44-4.72,3.89-4.17,2.78-2.22,1.94-2.5,2.78-4.72,3.33-4.72,3.49-3.28.49-.72.91-1.17,1.03-1.26,1.4-1.77,1.68-1.98,1.61-1.96,2.8-3.41,1.87-2.26s3.43-4.36,4.04-5.13,2.08-3.22,2.08-3.22l.65-1.17c.58-.72,4.08-8.52,4.5-9.54s2.1-5.46,2.1-5.46l1.38-3.99s1.66-5.39,1.94-6.49c.28-1.1,1.31-5.13,1.52-6.07.21-.93.93-4.29,1.17-5.72s.63-3.55.77-4.71c.14-1.17.4-2.94.49-3.94.09-1,.33-3.59.4-4.43.07-.84.16-3.87.16-3.87,0,0,.05-3.66,0-4.48-.05-.82-.35-3.92-.35-3.92l-.44-2.5-.35-1.49-.77-2.82-.89-2.92-.75-2.38-.96-2.96-.54-1.66-.4-1.42-.7-2.36-.37-1.4-.33-1.61-.26-1.7-.07-1.31.05-1.14.09-1,.19-1.19.28-1.21.51-1.56.79-1.89.47-1.1.82-1.61.79-1.61.61-1.59.37-1.26.23-1.54.09-1.12v-.91l-.12-1.45-.33-1.8-.49-1.84-.42-1.19-.72-1.89-.75-1.59s-.75-1.59-1.12-2.22c-.37-.63-1.21-2.22-1.61-2.73-.4-.51-1.49-2.03-1.49-2.03l-1.52-1.8-1.31-1.28-1.45-1.24-1.59-1.14-1.59-1.03-2.38-1.26s-2.89-1.26-4.11-1.66c-1.21-.4-4.22-1.07-4.22-1.07l-1.96-.4-3.27-.42-3.83-.35-2.75-.07-2.47-.02-2.68.09-2.12.07-1.98.12-2.26.3-3.59.54-8.63,1.61-4.5,1.05-4.64,1.26-3.55,1.14-3.06,1.26-2.61,1.45-1.19.98-.84.86s-.63,1.07-.35,1.84.79,1.38.79,1.38l.09.37,1.38.05s2.85-.16,5.97.3c3.13.47,3,.48,3,.48l2.6.42,3.1.62,3.12.96,1.3.47,2.45,1.02,2.13,1.17,1.35.89,1.72,1.33s1.07.94,1.69,1.69c.62.75,1.41,1.85,1.41,1.85l1.12,1.9.6,1.3.49,1.3-1.48-.22-4.13-.56-3.09-.35-3.92-.28-2.95-.21-3.71-.07-2.71-.07h-2.74l-3.26.14-2.15.1-2.22.17-2.85.28s-1.49.14-2.6.31c-1.11.17-4.69.66-4.69.66l-4.93.9-4.13.94-5.35,1.42-4.3,1.15-3.3.97-2.01.8-2.62,1.42-1.56,1.67-1.15,2.29-.47,1.61.21,4.17-5.05,1.15-2.6.73-.57-.36-.89-.94-.52-1.51-.57-2.45-.16-2.19-.1-1.77v-5.05c0-1.46-.21-7.08-.31-9.06-.1-1.98-.62-3.85-.62-3.85l-.54-1.34.76-.83,2.22-1.11,7.22-3.19,7.22-2.85s8.4-2.92,10.76-3.89c2.36-.97,5.21-2.57,5.21-2.57l4.03-2.08,6.39-4.51,3.54-2.92s5.69-5.21,8.4-8.19c2.71-2.98,5.9-7.36,6.8-8.82.9-1.46,3.75-5.62,4.44-6.87.69-1.25,4.65-8.68,4.65-8.68,0,0,3.33-6.53,4.44-9.16s2.36-6.39,2.36-6.39c0,0,.49-1.74,1.04-4.86.56-3.12,1.32-3.89,1.32-3.89,1.39-2.08,1.6-1.6,2.64-2.57,1.04-.97,5.41-2.85,5.41-2.85,0,0,7.64-3.96,11.45-6.46,3.82-2.5,7.84-5.9,9.44-7.57,1.6-1.67,2.92-2.85,5.62-6.32,2.71-3.47,5.62-10.07,6.32-13.12.69-3.05.49-7.91-.07-10.27-.56-2.36-1.18-5.5-1.18-5.5l-.52-2.39-2.19-5.1-3.33-5.73-3.05-4.46-1.38-1.98c-.57-.82-1.27-1.52-2.01-2.19-1.05-.96-2.84-3.59-6.26-6.36-5-4.06-8.85-5.41-8.85-5.41h0c-2.7-.83-5.47-1.45-8.27-1.84l-6.2-.87-7.29.75-2.65,1.23c-1.38.96-2.1,2.61-1.89,4.28l1.1,2.7,3.72,4.58c.51.62.95,1.29,1.34,2l6.81,12.56c.79,1.58.74,3.44-.12,4.98l-1.53,2.74c-1.09,1.96-2.8,3.5-4.85,4.4l-1.85.8c-1.9.82-3.97,1.17-6.03,1l-3.87-.31c-1.11-.79-2.6-1.13-3.72-1.62l-4.37-2.08-7.91-3.11-8.95-2.2-7.18-.52-4.08-.82c-1.78-.36-3.47-1.03-5-2l-2.79-1.76-4.48-4.17-5-4.17-3.65-1.36c-2.05-.54-4.24-.2-6.03.94l-2.5,1.35-.44.11M2008.74,1629.49v-5.7l.02-277.93,335.85-.56"/>
  </g>
  <g id="paw2">
    <path id="_Black_Fill_-2" data-name="&amp;lt;Black Fill&amp;gt;" d="M1726.83,1471.86l-4.37-4.03-2.43-2.01-2.15-1.74-3.47-2.15-2.5-1.32-2.5-1.25-2.78-1.32-1.11-.76-2.64-1.87-2.08-2.01-2.57-2.29-3.33-3.4-4.3-4.51-3.82-4.3-4.65-5.28-3.68-4.37-2.92-3.54-3.89-4.58-3.96-4.58-3.54-4.3-3.54-4.58-3.61-4.3-3.68-4.72-2.01-2.29-1.32-1.87-3.61-4.44-3.05-4.03-3.12-3.89-2.36-2.92-2.98-3.61-3.89-5.21-3.96-5.07-3.75-4.93-3.12-3.96-3.61-4.79-3.33-4.17-3.19-4.37-3.26-4.3-2.64-3.47-3.26-5-2.71-3.68-1.94-2.5-2.78-3.82-4.58-6.04-2.5-3.33-5.35-6.04-2.01-2.57-1.94-2.08-.9-1.04-.49-1.32-.69-1.46c-.55-.67-.91-.73-1.11-.69-1.18.21-.63,4.2-2.71,8.76-.81,1.78-1.49,3.26-2.92,3.75-2.78.95-6.02-2.66-6.25-2.92-9.43-10.33-18.87-20.74-28.32-31.24-4.88-5.42-9.74-10.83-14.58-16.24l-53.92-35.34-52.35-49.02-16.68-9.54,2.09,11.5-64.84-76.34,24.05,48.11-77.39-73.21s-7.54-1.18-30.7-20.56c-2.24-1.88-15.49-17.69-17.81-19.64-5.34-4.49-10.84-9.14-16.35-13.83-2.98-2.54,13.48,37.46,10.46,34.86-1.37-1.18-24.42-36.46-25.8-37.65-2.11-1.83-88.09-92.25-115.15-116.94-13.92-12.7,21.58,37.38,0,22.81-47.39-31.99-108.32-146.6-144.47-167.29-9.18-5.25,11.11,34.01,2.79,26.95-28.3-24.02-55.54-35.03-85.98-75.13-4.47-5.89-4.26,7.78-4.26,7.78-4.71-4.26-21.71-31.23-26.42-35.53-13.48-12.29-41.35-44.59-54.85-57.14-5.24-4.87,3.88,10.1-1.36,5.19-6.25-5.85-15.45-8.57-21.69-14.46-22.36-21.11-44.64-42.48-66.73-63.94-6.43-6.25-58.29-71.66-64.68-77.92-7.06-6.91,30.69,45.57,23.68,38.65-4.96-4.89-13.41-10.74-16.79-15.45-6.95-9.67-14.22-16.26-22.58-24.63-3.33-3.34-47.53-60.83-50.85-64.16-6.02-6.06,22.12,45.01,16.16,38.97C339.18,214.83,163.1.26,165.74.39l247.89-.24,275.78-.15,272.65,298.6,57.03,45.62-41.32-11.24,21.16,24.43,28.71,9.62-14.84,6.4,22.44,25.92,77.94,49.43-79.84-9.5,26.6,11.01c18.83,7.79,35.91,19.26,50.24,33.75l134.72,136.16,49.35,31.99-58.46-25.66,155.41,118.34-34.77-10.64c-5.73-2.15-9.98,5.46-5.15,9.22l107.19,85.87s-41.77-23.11,10.98,26.67c10.32,9.74,3.47,17.33,12.55,28.24l43.84,47.94c.31.39.96,1.35,1.25,1.93.29.57.75,1.35,1.07,2.03s.42,1.04.73,1.59c.31.55.34.78.86,1.38.52.6,1.33,1.51,1.74,1.98.42.47,2.29,2.42,2.92,3.1s2.76,3.02,3.85,4.14c1.09,1.12,4.03,4.35,5.6,5.96,1.56,1.61,2.16,2.24,3.38,3.57,1.22,1.33,4.17,4.37,5.54,5.78,1.38,1.41,3.59,3.72,4.37,4.43.78.7,3.64,3.64,4.5,4.53.86.89,3.33,3.28,4.27,4.22.94.94,3.1,2.97,4.48,4.27,1.38,1.3,3.75,3.54,4.63,4.3.89.75,2.79,2.6,3.93,3.54,1.15.94,2.13,1.9,3.36,2.94,1.22,1.04,4.06,3.44,4.71,3.96.65.52,3.88,2.97,5.1,3.88,1.22.91,2.76,2.08,4.66,3.23,1.9,1.15,4.79,2.73,6.27,3.44,1.48.7,4.03,1.72,5.02,2s2.45.78,3.2.96c.75.18,1.25.31,1.69.42.44.1-.75,7.84-.75,7.84l-.13.29-17.57.75s-.16-.03-.16.21-.1.36.34.91,1.04,1.09,1.93,1.77,3.54,2.34,4.17,2.71c.62.36,1.48.89,3.2,1.82,1.72.94,8.15,4.32,9.76,5.13,1.61.81,7.18,3.67,8.85,4.45,1.67.78,5.39,2.66,5.39,2.66l10.18,4.95,3.93,1.93,2.94,1.2,3.96,1.33,3.12.94.08.23s.36,1.28.36,2.5-.08,2.99-1.22,4.27c-1.15,1.28-2.94,1.77-5.96,1.61,0,0-.29,0-.18.49.1.49.62.99,2.37,2,1.74,1.02,12.51,6.03,12.51,6.03,0,0,5,1.8,7.91,3.61,2.92,1.8,13.47,7.5,13.47,7.5l4.79,2.92c2.85,1.53,6.94,3.89,8.75,4.65,1.8.76,4.44,2.08,7.36,3.05,2.92.97,4.54,1.19,4.54,1.19l.99.1h.81l1.64-.26,3.28-.83s.91-.21,1.59-.23c.68-.03.89-.05,1.51.16s.31,0,.78.34c.47.34.47.47.6.73.13.26.26.65.44,1.8.18,1.15.36,2.42.23,3.49-.13,1.07-.31,2.21-.89,3.02-.57.81-1.64,2.03-3.58,2.57-1.94.54-5.14.99-9.67.49l-9.16-.83s-3.8-.31-6.18-.16c-2.38.14-4.1.49-5.36,1.12,0,0,.85.75,1.1.96.24.21,1.53,1.23,2,1.56s1.81,1.28,2.52,1.71,1.32.89,2.29,1.36,1.85,1.02,2.77,1.46c.92.44,1.9.92,3.02,1.41,1.12.49,2.46,1.08,4.39,1.84,1.93.76,3.19,1.27,4.2,1.67,1.01.39,2.35.91,3.33,1.29.98.38,2.79,1.15,3.23,1.33.44.19,1.83.78,1.83.78l2.04.92s.72.37.93.51c.22.14,1.04.77,1.22.93.18.16.22.17.74.67.53.5,1.06,1,1.06,1,0,0,.67.6,1.03.85.36.25.83.51,1.12.65s1.27.57,1.91.82c.64.25,2.27.91,2.27.91l2.32.87,2.97,1.03,3.18,1.12,3.44,1.23,2.58,1s3.52,1.48,3.84,1.65c.32.17,1.89.94,2.3,1.2.41.25,1.43.94,1.43.94,0,0,1.64,1.15,2.18,1.83.54.69.9,1.3,1,1.55s.34.86.35,1.64.13.53-.25,1.5c-.38.97-1.35,2.5-2.29,3.37-.94.87-1.91,1.6-1.91,1.6,0,0-.87.8-3.12,2.19-2.26,1.39-4.76,2.78-7.01,3.78,0,0-.28.17-1.49.45-1.21.28-2.71.17-2.71.17,0,0-1.15-.07-2.12.07-.97.14-1.63.35-1.94.76-.31.42-.38,1.04-.38,1.56s.17,1.28.17,1.28l1.35.57s4.32,1.7,5.5,2.24c1.18.54,3.68,1.56,3.68,1.56,0,0,7.46,3.44,8.33,4.13l.97.57,1.84,1.18,2.47,1.69,3.57,2.55,4.62,3.53,1.57,1.25,6.09,4.87,6.77,5.53,3.53,2.82,1.2.97.96.78.98.77.91.71.56.43,2.3,1.76,2.67,1.99.63.45.35.27.35.25.59.41.69.43.56.31.72.37.5.25.55.24.82.33.84.36.88.37,1,.44,1.23.56s.96.46,1.16.61l.42.23,1.04.67s.87.61.99.73l-8.01,14.22s-.48-.25-1.34.74l-.29,3.19s-.32.32-.44,1.16l.08.48s.03.28.24.73c.21.45.61.95,1.01,1.44s1.11,1.15,1.61,1.6c.5.45,1.89,1.72,1.89,1.72l3.05,2.79,2.59,2.19,3.26,2.66,3.26,2.48,4.18,3.09,5.28,3.77,4.81,3.37,4.95,3.52,4.13,3.04s1.32.92,1.8,1.37c.49.45,2.08,1.8,2.08,1.8l1.51,1.46,2.74,2.69,1.72,1.7,1.93,1.84,1.89,1.67,1.23,1.04,1.53,1.15,1.23.8,1.08.56.71.31,1.13.43,1.43.44,2,.53,1.89.51.37.11.47.15.59.22s.47.21.52.23.44.23.55.3.55.34.72.5c.17.16.51.51.51.51l.28.34.33.48.26.46s.15.29.26.65c.11.35.29,1.01.29,1.01l.22,1.14.15,1.33.1.75.09.62.15.83.14.64.2.67.31.73.45.78.33.47.16.17-.16-.12.33.47.16.17.39.33.62.47,1.5,1.01,1.82,1.14,2.7,1.65,3.26,1.93,2.24,1.34,3.1,1.8,2.14,1.22.9.52,1.02.56,1.04.59,1.69.93,1.85.99,1.1.59,1.03.54,1.14.59,1.61.82,1.63.8,1.86.9,1.95.9,3.38,1.5,2.44,1.02.71.29.67.27.9.35.43.17.3.12.41.15.56.21.74.26,1.61.55,2.59.85,1.44.44,1.5.42,1.68.43,1.87.49,2.3.52,1.31.25.73.14,2.02.33,2.1.29s.16.05,1.21.14c1.05.09,2.41.22,2.41.22,0,0,.09.01,1.24.07,1.15.05,2.68.12,3.33.12s2.1-.01,2.1-.01l2.55-.12,1.65-.09,1.67-.16.82-.05.96-.09,1.09-.08,1.86-.12,4.37-.31,3.06-.22,2.56-.2,2.43-.21,2.82-.21,1.93-.14,1.59-.12,2.9-.21,3.1-.25,3.76-.26,3.66-.26,2.45-.2,1.48-.09,1.63-.12.9-.08,1.07-.08.87-.09.75-.05.82-.05h.43s.12-.01.12-.01l-1.59,3.89-1.91,4.82,1.12.23,5.14-.97,14.16-4.03,12.63-4.44,13.33-5,12.77-5.14,8.89-3.75,10-4.17,13.33-6.25,10.27-5.14,10.41-5,14.86-7.5,12.91-6.53,6.11-3.05,7.91-4.03,11.52-5.76,12.56-5.48,12.98-5.83,14.3-5.62,15.97-5.62,11.94-3.61c9.7-2.63,17.22-3.98,22.21-4.72,3.41-.5,5.6-.71,7.36-.83,7.04-.49,7.98-.73,13.54-.21,0,0,3.55.25,8.26,1.18.69.14,1.78.37,2.78,1.25,1.09.97,1.5,2.21,1.67,2.92.12.43.25,1.08.21,1.87-.01.32-.05,1.01-.35,1.74-.33.82-.33,1.33-1.18,2.01-1.02.81-2.23,1.72-4.37,2.71-1.1.51-2.74.89-4.37,1.46-1.4.48-3.2,1-5.35,1.39-.07.38-.1.89,0,1.46.3,1.64,1.51,2.58,1.87,2.85.54.31,1.36.71,2.43.97,1.27.31,2.25.26,3.75.21,2.71-.1,4.06-.15,4.51-.14,1.63.05,2.51.38,6.73,1.87,2.17.77,4.36,1.51,6.53,2.29,5.82,2.09,5.42,1.89,8.4,2.98,3.3,1.21,5.66,2.14,8.68,3.33,4.75,1.87,7.13,2.81,9.93,4.03,4.03,1.98,10.38,5.21,10.83,5.35.73.25,2.2.72,3.33,2.08,1.35,1.63,1.43,3.61,1.46,4.17.03.75.07,2.04-.69,3.33-.17.29-.54.89-1.25,1.39-.93.65-1.98.72-2.5.76,0,0-.31.02-.63.02-1.77-.04-4.66-1.22-5.27-1.48-1.55-.86-2.9-1.4-3.89-1.74-.92-.32-1.51-.45-2.22-.42-.44.02-1.91.1-2.5,1.04,0,0-.12.2-.42,1.8,0,0,4.16,3.1,5.76,4.3,1.45,1.09,5.66,4.26,9.72,7.77,7.13,6.16,5.94,5.66,8.64,8.16,2.3,1.54,5.74,4.29,6.63,6.28.98,2.19.52,2.61.87,6.53.24,2.76.08,5.39.8,6.8,1.01,1.98,1.94,2.04,3.61,4.72.61.98,1.47,2.35,1.94,4.17.38,1.43,1.19,4.53-.28,6.94-1.55,2.55-4.36,2.19-5.28,4.72-.41,1.14,9.16,2.27,9.39,3.05l.28,6.23-2.1,7.26,1007.33-.38v772.75h-1315.28l1.12,2.14h0l1.01,3.79.98,2.32,1.83,2.21,3.19,2.27,2.93,1.82,2.89,2.13,3.14,3.52,2.74,5.15,1.9,6.94.86,5.98-.04,6.5-1.12,6.68-1.97,5.95s-1.91,5.43-3.04,6.98c-1.13,1.54-2.3,4.34-2.3,4.34l-4.26,5.78s-.9,1.36-4.03,4.76c-3.13,3.4-4.15,4.85-11.45,10.69-7.31,5.84-9.11,6.04-9.11,6.04,0,0-1.38.99-6.31,2.81-4.94,1.82-6.07,1.68-6.07,1.68l-6.79.65-5.88.03-4.23.33-3.92.37-3.47.95-4.74,2.79s-1.36.89-3.45,2.52c-2.08,1.64-5.07,2.96-5.07,2.96l-10.71,3.65-10.09,1.94-6.87.44-7.1-.22-5.81-.49-6.71-.91-5.56-.88-3.1-.37-.72,2.54-.35,2.89-.62,1.71s-.86.21-1.92.29c-1.06.08-8.13-2.13-8.13-2.13l-9.94-4.55-4.03-2.27-2.24-1.42-2-2.55-1.82-1.48-1.57-.92-1.19.28-.07,1.46,2.18,4.56,1.1,2.23.17,2.36-.68,1.04-.91.62-3.02-.15-2.83-.86-3.42-2.09-7.47-5.09-6.22-4.1-4.05-3-3.75-2.86-1.82-1.48-1.13-1.08-1.17-1.61-.58-1.33-.48-1.21-2.92-.98-.25,1.23s-.23,1.02-.95,1.77c-.72.75-1.6,2.01-3.58,1.88-1.98-.13-4.89-2.05-4.89-2.05l-4.97-4.06-4.32-4.19-3.11-2.89-2.18-1.94s-.82-1.04-1.76-1.05c-.94,0-2.95,1.01-2.95,1.01,0,0-.6.66-2.01,1.02-1.41.36-3.67-.02-4.73-.78-1.06-.76-3.37-5.12-3.37-5.12l-7.5-11.81-7.28-11.04-4.7-7.17-5.55-8.84-2.98-4.87-4.03-5.73-1.82-3.15-2.26-4.78-2.38-2.06-.61-.96c-1.79-.9-3.25-2.71-3.15-2.65l-2.92-2.64-3.58-5.69-3.42-7.1-5.44-11.18-4.93-12.44-3.3-9.35-2.51-9.07-2.56-8.74-2.4-10.78-1.59-15.59.17-12.95,1.92-10.3,4.77-12.1,6.99-11.55,4.59-8.46,2.72-5.37s1.19-1.46,3.89-3.04l-18.95-8.78,10-9.56,7.63-6.9,8.81-9.66,7.4-10.04,4.74-7.64,5.2-10.13,6.39-14.44,5.56-14.71,3.19-10.68,2.18-10.42,1.09-7.89.6-8.65-.1-7.11-.34-6.08-.84-7.26-1-5.46-2.15-8.64-2.12-7.3-3.6-8.87-4.1-8.49-3.59-6.47-1.32-1.84-4.03-8.91-3.63-7.66-2.65-7.65-2.45-7.38-2.25-5.85-1.44-2.93-4.21-3.85-4.69-4.2-3.72-3.43-.97-.63-1.25-.49s-1.8-.92-2.3.68c-.5,1.59-.56.97-.92,2.01-.35,1.04-1.54,2.21-1.54,2.21l-4.56-2.81-5.73-4.62-3.38-3.43-2.41-2.65-2.41-2.86-.69-1.18-2.59,3.11-3.08,3.8s-2.44.89-4.23-1c-1.79-1.89-3.71-5.37-3.71-5.37l-1.78-4.04-2.38-7.72-1.75-8.55-.58-6.67s-.2-1.74-.18-4.72c.02-2.98.89-7.63,1.04-9.99.16-2.36,2.29-9.29,2.65-10.95.36-1.66,2.05-5.75,2.05-5.75l-1.73-.22-1.32.13-.63,1.04s-.08,1.04-.15,1.39c-.07.35-.77,1.45-.77,1.45l-2.11,3.25s-2.67,4.77-3.51,5.88-2.45,3.04-2.45,3.04l-2.16,1.58-1.6.47s-2.43-.23-2.84-.78c-.41-.56-.69-1.18-.69-1.18l-.46-4.17.33-7.08.83-8.81,1.32-9.92,1.3-7.7,1.29-5.34,2.34-7.27,2.61-6.65,2.11-4.36,2.6-4.91,2.74-4.42,3.51-4.97,4.27-5.25,3.78-3.93,4.96-5.03,5.73-5.03,5.58-4.47,9.35-7.02,9.42-6.46,6.21-4.05,12.76-7.62,12.13-6.93,10.19-5.5,2.99-3.92.64-1.66-.48-.56-2.97-1.55-3.25-1.76-3.94-1.76-4.43-2.25-2.21-1.2-4.7-3.23-4.98-3.3-1.56-.53.34.71-4.37-3.12-2.93-2.55-5.28-3.82-7.64-5.9-3.12-2.5-3.96-2.92-6.32-4.93-7.64-6.32-5.97-5.14-5.41-4.93"/>
    <path id="_White_Fill_-2" data-name="&amp;lt;White Fill&amp;gt;" class="cls-2" d="M2353.57,1345.63h1007.33v772.75h-1315.28v-.21s-1.3-5.49-1.3-5.49l-3.38-5.02s-4.43-5.88-6.35-8.31c-1.91-2.43-9.9-8.42-9.9-8.42l-6.08-3.56-4.51-2.33-5.89-2.49-.14-6.04.49-63.68h0l1.03.76,5.57,2.12,9.78,3.47,10.5,3.89,10.32,4.13,12.6,5.6s7.74,3.23,11.55,3.89,2.71.22,5.95,1.1c3.25.88,6.44-.23,8.02-.6,1.58-.37,4.23-1.63,4.23-1.63l2.13-1.78,1.25-1.14.32-.94-6.32-4.77-3.08-2.32-.08-1.1,1.59-.84,2.03-.38,5.44.63,6.49,1.08,10.6,2.09,4.66.74,5.5-.37,6.39-1.09,5.61-.98,3.55-.1,3.06-.82,5.06-2.09,5.5-1.76,4.76-.52.83-.28,1.43-.38,1.58-.39,2.19-.57,2.54-.57,2.47-.59,4.29-1.03,2.85-.68s5.37-1.42,6.31-1.67c.95-.25,3.6-1.32,3.6-1.32l1.22-.54c.9-.23,8.39-4.34,9.34-4.9.95-.57,4.97-3.09,4.97-3.09l3.5-2.36s4.57-3.3,5.45-4.01c.88-.71,4.14-3.31,4.87-3.93.73-.62,3.33-2.86,4.38-3.86s2.64-2.45,3.45-3.3c.81-.85,2.09-2.11,2.77-2.85.68-.74,2.43-2.67,2.99-3.3.56-.63,2.46-2.99,2.46-2.99,0,0,2.24-2.9,2.7-3.58s2.08-3.34,2.08-3.34l1.15-2.26.62-1.4,1.09-2.72,1.05-2.86.84-2.35,1.02-2.94.57-1.65.54-1.37.86-2.3.55-1.34.71-1.48.82-1.51.73-1.09.73-.88.68-.74.87-.84.95-.8,1.35-.94,1.77-1.03,1.03-.59,1.62-.79,1.6-.81,1.44-.9,1.06-.78,1.11-1.09.75-.84.55-.73.78-1.22.82-1.63.72-1.77.38-1.2.56-1.94.36-1.72s.36-1.72.44-2.44c.08-.73.37-2.5.36-3.15,0-.65.03-2.52.03-2.52l-.13-2.35-.27-1.81-.41-1.86-.58-1.87-.65-1.78-1.14-2.44s-1.55-2.75-2.28-3.8c-.73-1.05-2.72-3.4-2.72-3.4l-1.33-1.5-2.35-2.3-2.84-2.58-2.16-1.71-1.96-1.51-2.2-1.54-1.74-1.22-1.65-1.1-1.99-1.12-3.19-1.74-7.86-3.92-4.23-1.88-4.46-1.79-3.52-1.22-3.2-.84-2.96-.42-1.54.07-1.19.18s-1.15.48-1.39,1.26c-.24.78-.2,1.58-.2,1.58l-.15.35,1.07.87s2.37,1.58,4.58,3.84c2.21,2.26,2.1,2.19,2.1,2.19l1.83,1.9,2.1,2.36,1.91,2.65.76,1.16,1.34,2.28,1,2.22.55,1.52.57,2.09s.29,1.39.33,2.37c.04.98,0,2.32,0,2.32l-.25,2.19-.31,1.4-.39,1.34-1.05-1.06-2.96-2.93-2.26-2.14-2.96-2.58-2.23-1.94-2.92-2.29-2.12-1.69-2.19-1.65-2.69-1.85-1.78-1.21-1.88-1.2-2.44-1.49s-1.27-.79-2.27-1.32c-.99-.53-4.14-2.3-4.14-2.3l-4.48-2.25-3.86-1.74-5.12-2.08-4.13-1.68-3.22-1.21-2.09-.58-2.95-.44-2.25.39-7.56-1.32-4.88,1.39-3.14-.35-4.18-1.39-2.09-1.39-3.14-1.74-5.93-8.37-4.53-9.06-2.44-4.18-2.39-5.58-1.1-1.39s-2.05-2.95-2.89-4.14c-.83-1.2-2.06-7.11-.95-8.75,1.11-1.64-5.6-11.86-5.6-11.86l.38-1.39,1.11-.2,53.42,37.12,7.69,1.8,7.48,2.08s8.46,2.73,10.93,3.38c2.47.65,5.7,1.09,5.7,1.09l4.47.76,7.82.25,4.58-.19s7.68-.73,11.64-1.48c3.96-.75,9.14-2.32,10.74-2.94,1.6-.62,6.38-2.23,7.69-2.81,1.31-.58,8.94-4.12,8.94-4.12,0,0,6.59-3.2,9.07-4.64,2.48-1.44,5.73-3.68,5.73-3.68,0,0,1.43-1.09,3.76-3.25,2.33-2.16,3.39-2.31,3.39-2.31,2.36-.83,2.24-.31,3.65-.46,1.42-.15,6.04.99,6.04.99,0,0,8.48,1.44,13.03,1.75,4.55.31,9.82.02,12.09-.35,2.28-.37,4.04-.52,8.29-1.65,4.25-1.14,10.55-4.65,12.95-6.67,2.39-2.02,5.16-6.02,6.13-8.24.98-2.22,2.37-5.1,2.37-5.1l1.03-2.23,1.33-5.39.79-6.58.25-5.4.09-2.41c.04-1-.1-1.98-.28-2.96-.26-1.4-.11-4.58-1.16-8.85-1.54-6.25-3.8-9.65-3.8-9.65-1.66-2.29-3.49-4.45-5.49-6.45l-4.43-4.43-6.27-3.8-2.86-.62c-1.68-.06-3.25.82-4.08,2.28l-.75,2.82.21,5.89c.03.8-.02,1.61-.14,2.4l-2.13,14.13c-.32,1.73-1.48,3.19-3.1,3.91l-2.87,1.27c-2.05.91-4.34,1.11-6.52.59l-1.96-.47c-2.01-.49-3.87-1.46-5.42-2.83l-2.9-2.58c-.41-1.3-1.39-2.47-1.99-3.53l-2.24-4.3-4.44-7.25-5.82-7.15-5.42-4.74c-.95-2.2-2.17-4.6-3.73-7.1-3.24-5.19-6.88-9.04-9.93-11.77-14.82-18.64-29.24-25.77-60.32-47.55-22.01-15.43-53.33-27.41-70.95-34.8l-54.44-15.91c-21.33-11.73-30.82-19.55-47.3-30.94l-9.3-5.74.31-253.88h344.98Z"/>
  </g>
  <g id="paw3">
    <path id="_Black_Fill_-3" data-name="&amp;lt;Black Fill&amp;gt;" d="M1562.21,1348.92l-4.37-4.03-2.43-2.01-2.15-1.74-3.47-2.15-2.5-1.32-2.5-1.25-2.78-1.32-1.11-.76-2.64-1.87-2.08-2.01-2.57-2.29-3.33-3.4-4.3-4.51-3.82-4.3-4.65-5.28-3.68-4.37-2.92-3.54-3.89-4.58-3.96-4.58-3.54-4.3-3.54-4.58-3.61-4.3-3.68-4.72-2.01-2.29-1.32-1.87-3.61-4.44-3.05-4.03-3.12-3.89-2.36-2.92-2.98-3.61-3.89-5.21-3.96-5.07-3.75-4.93-3.12-3.96-3.61-4.79-3.33-4.17-3.19-4.37-3.26-4.3-2.64-3.47-3.26-5-2.71-3.68-1.94-2.5-2.78-3.82-4.58-6.04-2.5-3.33-5.35-6.04-2.01-2.57-1.94-2.08-.9-1.04-.49-1.32-.69-1.46c-.55-.67-.91-.73-1.11-.69-1.18.21-.63,4.2-2.71,8.76-.81,1.78-1.49,3.26-2.92,3.75-2.78.95-6.02-2.66-6.25-2.92-9.43-10.33-18.87-20.74-28.32-31.24-4.88-5.42-9.74-10.83-14.58-16.24l-53.92-35.34-52.35-49.02-16.68-9.54,2.09,11.5-64.84-76.34,24.05,48.11-77.39-73.21s-7.54-1.18-30.7-20.56c-2.24-1.88-15.49-17.69-17.81-19.64-5.34-4.49-10.84-9.14-16.35-13.83-2.98-2.54,13.48,37.46,10.46,34.86-1.37-1.18-24.42-36.46-25.8-37.65-2.11-1.83-88.09-92.25-115.15-116.94-13.92-12.7,21.58,37.38,0,22.81-47.39-31.99-108.32-146.6-144.47-167.29-9.18-5.25,11.11,34.01,2.79,26.95-28.3-24.02-55.54-35.03-85.98-75.13-4.47-5.89-4.26,7.78-4.26,7.78-4.71-4.26-21.71-31.23-26.42-35.53-13.48-12.29-41.35-44.59-54.85-57.14-5.24-4.87,3.88,10.1-1.36,5.19-6.25-5.85-15.45-8.57-21.69-14.46-22.36-21.11-44.64-42.48-66.73-63.94-6.43-6.25-58.29-71.66-64.68-77.92-7.06-6.91,30.69,45.57,23.68,38.65-4.96-4.89-13.41-10.74-16.79-15.45-6.95-9.67-14.22-16.26-22.58-24.63-3.33-3.34-47.53-60.83-50.85-64.16-6.02-6.06,22.12,45.01,16.16,38.97C174.56,91.89,101.31.26,103.96.39l247.89-.24,275.78-.15,169.82,175.67,57.03,45.62-41.32-11.24,21.16,24.43,28.71,9.62-14.84,6.4,22.44,25.92,77.94,49.43-79.84-9.5,26.6,11.01c18.83,7.79,35.91,19.26,50.24,33.75l134.72,136.16,49.35,31.99-58.46-25.66,155.41,118.34-34.77-10.64c-5.73-2.15-9.98,5.46-5.15,9.22l107.19,85.87s-41.77-23.11,10.98,26.67c10.32,9.74,3.47,17.33,12.55,28.24l43.84,47.94c.31.39.96,1.35,1.25,1.93.29.57.75,1.35,1.07,2.03s.42,1.04.73,1.59c.31.55.34.78.86,1.38.52.6,1.33,1.51,1.74,1.98.42.47,2.29,2.42,2.92,3.1s2.76,3.02,3.85,4.14c1.09,1.12,4.03,4.35,5.6,5.96,1.56,1.61,2.16,2.24,3.38,3.57,1.22,1.33,4.17,4.37,5.54,5.78,1.38,1.41,3.59,3.72,4.37,4.43.78.7,3.64,3.64,4.5,4.53.86.89,3.33,3.28,4.27,4.22s3.1,2.97,4.48,4.27c1.38,1.3,3.75,3.54,4.63,4.3.89.75,2.79,2.6,3.93,3.54,1.15.94,2.13,1.9,3.36,2.94,1.22,1.04,4.06,3.44,4.71,3.96.65.52,3.88,2.97,5.1,3.88,1.22.91,2.76,2.08,4.66,3.23,1.9,1.15,4.79,2.73,6.27,3.44,1.48.7,4.03,1.72,5.02,2s2.45.78,3.2.96c.75.18,1.25.31,1.69.42.44.1-.75,7.84-.75,7.84l-.13.29-17.57.75s-.16-.03-.16.21-.1.36.34.91,1.04,1.09,1.93,1.77,3.54,2.34,4.17,2.71c.62.36,1.48.89,3.2,1.82,1.72.94,8.15,4.32,9.76,5.13,1.61.81,7.18,3.67,8.85,4.45,1.67.78,5.39,2.66,5.39,2.66l10.18,4.95,3.93,1.93,2.94,1.2,3.96,1.33,3.12.94.08.23s.36,1.28.36,2.5-.08,2.99-1.22,4.27c-1.15,1.28-2.94,1.77-5.96,1.61,0,0-.29,0-.18.49.1.49.62.99,2.37,2,1.74,1.02,12.51,6.03,12.51,6.03,0,0,5,1.8,7.91,3.61s13.47,7.5,13.47,7.5l4.79,2.92c2.85,1.53,6.94,3.89,8.75,4.65,1.8.76,4.44,2.08,7.36,3.05s4.54,1.19,4.54,1.19l.99.1h.81l1.64-.26,3.28-.83s.91-.21,1.59-.23c.68-.03.89-.05,1.51.16s.31,0,.78.34c.47.34.47.47.6.73.13.26.26.65.44,1.8.18,1.15.36,2.42.23,3.49-.13,1.07-.31,2.21-.89,3.02-.57.81-1.64,2.03-3.58,2.57-1.94.54-5.14.99-9.67.49l-9.16-.83s-3.8-.31-6.18-.16c-2.38.14-4.1.49-5.36,1.12,0,0,.85.75,1.1.96.24.21,1.53,1.23,2,1.56s1.81,1.28,2.52,1.71,1.32.89,2.29,1.36,1.85,1.02,2.77,1.46c.92.44,1.9.92,3.02,1.41,1.12.49,2.46,1.08,4.39,1.84,1.93.76,3.19,1.27,4.2,1.67,1.01.39,2.35.91,3.33,1.29.98.38,2.79,1.15,3.23,1.33.44.19,1.83.78,1.83.78l2.04.92s.72.37.93.51c.22.14,1.04.77,1.22.93.18.16.22.17.74.67.53.5,1.06,1,1.06,1,0,0,.67.6,1.03.85.36.25.83.51,1.12.65s1.27.57,1.91.82c.64.25,2.27.91,2.27.91l2.32.87,2.97,1.03,3.18,1.12,3.44,1.23,2.58,1s3.52,1.48,3.84,1.65c.32.17,1.89.94,2.3,1.2.41.25,1.43.94,1.43.94,0,0,1.64,1.15,2.18,1.83.54.69.9,1.3,1,1.55s.34.86.35,1.64.13.53-.25,1.5c-.38.97-1.35,2.5-2.29,3.37-.94.87-1.91,1.6-1.91,1.6,0,0-.87.8-3.12,2.19-2.26,1.39-4.76,2.78-7.01,3.78,0,0-.28.17-1.49.45-1.21.28-2.71.17-2.71.17,0,0-1.15-.07-2.12.07-.97.14-1.63.35-1.94.76-.31.42-.38,1.04-.38,1.56s.17,1.28.17,1.28l1.35.57s4.32,1.7,5.5,2.24c1.18.54,3.68,1.56,3.68,1.56,0,0,7.46,3.44,8.33,4.13l.97.57,1.84,1.18,2.47,1.69,3.57,2.55,4.62,3.53,1.57,1.25,6.09,4.87,6.77,5.53,3.53,2.82,1.2.97.96.78.98.77.91.71.56.43,2.3,1.76,2.67,1.99.63.45.35.27.35.25.59.41.69.43.56.31.72.37.5.25.55.24.82.33.84.36.88.37,1,.44,1.23.56s.96.46,1.16.61l.42.23,1.04.67s.87.61.99.73l-8.01,14.22s-.48-.25-1.34.74l-.29,3.19s-.32.32-.44,1.16l.08.48s.03.28.24.73c.21.45.61.95,1.01,1.44s1.11,1.15,1.61,1.6c.5.45,1.89,1.72,1.89,1.72l3.05,2.79,2.59,2.19,3.26,2.66,3.26,2.48,4.18,3.09,5.28,3.77,4.81,3.37,4.95,3.52,4.13,3.04s1.32.92,1.8,1.37c.49.45,2.08,1.8,2.08,1.8l1.51,1.46,2.74,2.69,1.72,1.7,1.93,1.84,1.89,1.67,1.23,1.04,1.53,1.15,1.23.8,1.08.56.71.31,1.13.43,1.43.44,2,.53,1.89.51.37.11.47.15.59.22s.47.21.52.23.44.23.55.3.55.34.72.5c.17.16.51.51.51.51l.28.34.33.48.26.46s.15.29.26.65c.11.35.29,1.01.29,1.01l.22,1.14.15,1.33.1.75.09.62.15.83.14.64.2.67.31.73.45.78.33.47.16.17-.12-.1.16.17.39.33.62.47,1.5,1.01,1.82,1.14,2.7,1.65,3.26,1.93,2.24,1.34,3.1,1.8,2.14,1.22.9.52,1.02.56,1.04.59,1.69.93,1.85.99,1.1.59,1.03.54,1.14.59,1.61.82,1.63.8,1.86.9,1.95.9,3.38,1.5,2.44,1.02.71.29.67.27.9.35.43.17.3.12.41.15.56.21.74.26,1.61.55,2.59.85,1.44.44,1.5.42,1.68.43,1.87.49,2.3.52,1.31.25.73.14,2.02.33,2.1.29s.16.05,1.21.14c1.05.09,2.41.22,2.41.22,0,0,.09.01,1.24.07,1.15.05,2.68.12,3.33.12s2.1-.01,2.1-.01l2.55-.12,1.65-.09,1.67-.16.82-.05.96-.09,1.09-.08,1.86-.12,4.37-.31,3.06-.22,2.56-.2,2.43-.21,2.82-.21,1.93-.14,1.59-.12,2.9-.21,3.1-.25,3.76-.26,3.66-.26,2.45-.2,1.48-.09,1.63-.12.9-.08,1.07-.08.87-.09.75-.05.82-.05h.43s.12-.01.12-.01l-1.59,3.89-1.91,4.82,1.12.23,5.14-.97,14.16-4.03,12.63-4.44,13.33-5,12.77-5.14,8.89-3.75,10-4.17,13.33-6.25,10.27-5.14,10.41-5,14.86-7.5,12.91-6.53,6.11-3.05,7.91-4.03,11.52-5.76,12.56-5.48,12.98-5.83,14.3-5.62,15.97-5.62,11.94-3.61c9.7-2.63,17.22-3.98,22.21-4.72,3.41-.5,5.6-.71,7.36-.83,7.04-.49,7.98-.73,13.54-.21,0,0,3.55.25,8.26,1.18.69.14,1.78.37,2.78,1.25,1.09.97,1.5,2.21,1.67,2.92.12.43.25,1.08.21,1.87-.01.32-.05,1.01-.35,1.74-.33.82-.33,1.33-1.18,2.01-1.02.81-2.23,1.72-4.37,2.71-1.1.51-2.74.89-4.37,1.46-1.4.48-3.2,1-5.35,1.39-.07.38-.1.89,0,1.46.3,1.64,1.51,2.58,1.87,2.85.54.31,1.36.71,2.43.97,1.27.31,2.25.26,3.75.21,2.71-.1,4.06-.15,4.51-.14,1.63.05,2.51.38,6.73,1.87,2.17.77,4.36,1.51,6.53,2.29,5.82,2.09,5.42,1.89,8.4,2.98,3.3,1.21,5.66,2.14,8.68,3.33,4.75,1.87,7.13,2.81,9.93,4.03,4.03,1.98,10.38,5.21,10.83,5.35.73.25,2.2.72,3.33,2.08,1.35,1.63,1.43,3.61,1.46,4.17.03.75.07,2.04-.69,3.33-.17.29-.54.89-1.25,1.39-.93.65-1.98.72-2.5.76,0,0-.31.02-.63.02-1.77-.04-4.66-1.22-5.27-1.48-1.55-.86-2.9-1.4-3.89-1.74-.92-.32-1.51-.45-2.22-.42-.44.02-1.91.1-2.5,1.04,0,0-.12.2-.42,1.8,0,0,4.16,3.1,5.76,4.3,1.45,1.09,5.66,4.26,9.72,7.77,7.13,6.16,5.94,5.66,8.64,8.16,2.3,1.54,5.74,4.29,6.63,6.28.98,2.19.52,2.61.87,6.53.24,2.76.08,5.39.8,6.8,1.01,1.98,1.94,2.04,3.61,4.72.61.98,1.47,2.35,1.94,4.17.38,1.43,1.19,4.53-.28,6.94-1.55,2.55-1.31-6.54-1.91-3.92-.27,1.18.05,2.28.38,3.03l7.67,3.58c3.41,1.59,5.41,5.19,4.95,8.92h0c-.21,1.69,3,3.05,3.71,4.6l3.11,13.44c1.22,8.21,2.07,10.98,5.16,24.12.79,3.35,2,6.6,1.67,10.02l2.7,11.01c0,1.12.1,2.24.29,3.35l5.89,33.75,2.72,13.11c6.16,29.74.07,60.71-16.91,85.89l-10.68,15.84c.52-2.06-9.24,14.11-7.38,13.09l-12.76,2.89c-2.17-4.78.83-7.75-4.09-9.58l-6.97-1.42c-6.23-2.33-12.69,1.32-18.45-2.01l-9.98-5.75c-8.53-3.57-18.01-14-27.54-26.01-6.69-8.43-25.43-44.04-28.16-53.13-.69-2.31-28.11-38.01-27.66-40.25,1.42-6.98-15.71-9.38-20.83-8.5-4.68.8-6.44,6.93-5.23,3.66,1.17-3.14-4.48,7.16-5.23,8.37l-3.14,4.18c.17-2.09-5.05,20.22-5.05,20.22,0,0-4.58,23.93-5.4,33.12-2.27,25.28-28.55,51.49-34.51,58.56l-17.26,16.21-15.69,30.85c-7.67,25.7-11.37,29.13,5.23,50.2l6.27,13.6c1.68.68,10.46,16.73,10.46,16.73l31.98,46.97c17.62,7.4,38.64,18.04,60.66,33.47,31.08,21.78,53.16,45.41,67.98,64.05,3.06,2.73,6.69,6.58,9.93,11.77,1.56,2.5,2.78,4.9,3.73,7.1l5.42,4.74,5.82,7.15,4.44,7.25,2.24,4.3c.6,1.07,1.58,2.23,1.99,3.53l2.9,2.58c1.55,1.37,3.41,2.35,5.42,2.83l1.96.47c2.18.53,4.47.32,6.52-.59l2.87-1.27c1.61-.71,2.77-2.17,3.1-3.91l2.13-14.13c.12-.79.17-1.6.14-2.4l-.21-5.89.75-2.82c.83-1.46,2.4-2.34,4.08-2.28l2.86.62,6.27,3.8,4.43,4.43c2,2,3.84,4.16,5.49,6.45,0,0,2.26,3.4,3.8,9.65,1.05,4.27.9,7.45,1.16,8.85.18.98.32,1.97.28,2.96l-.09,2.41-.25,5.4-.79,6.58-1.33,5.39-1.03,2.23s-1.39,2.88-2.37,5.1c-.98,2.22-3.74,6.22-6.13,8.24s-8.69,5.53-12.95,6.67c-4.25,1.14-6.02,1.29-8.29,1.65-2.28.37-7.54.66-12.09.35-4.55-.31-13.03-1.75-13.03-1.75,0,0-4.62-1.14-6.04-.99-1.42.15-1.29-.37-3.65.46,0,0-1.07.15-3.39,2.31-2.33,2.16-3.76,3.25-3.76,3.25,0,0-3.26,2.24-5.73,3.68-2.48,1.44-9.07,4.64-9.07,4.64,0,0-7.63,3.54-8.94,4.12-1.31.58-6.09,2.19-7.69,2.81s-6.78,2.19-10.74,2.94c-3.96.75-11.64,1.48-11.64,1.48l-4.58.19-7.82-.25-4.47-.76s-3.23-.44-5.7-1.09c-2.47-.65-10.93-3.38-10.93-3.38l-7.48-2.08-7.69-1.8-53.42-37.12-1.11.2-.38,1.39s6.71,10.21,5.6,11.86.11,7.56.95,8.75c.83,1.2,2.89,4.14,2.89,4.14l1.1,1.39,2.39,5.58,2.44,4.18,4.53,9.06,5.93,8.37,3.14,1.74,2.09,1.39,4.18,1.39,3.14.35,4.88-1.39,7.56,1.32,2.25-.39,2.95.44,2.09.58,3.22,1.21,4.13,1.68,5.12,2.08,3.86,1.74,4.48,2.25s3.15,1.77,4.14,2.3c.99.53,2.27,1.32,2.27,1.32l2.44,1.49,1.88,1.2,1.78,1.21,2.69,1.85,2.19,1.65,2.12,1.69,2.92,2.29,2.23,1.94,2.96,2.58,2.26,2.14,2.96,2.93,1.05,1.06.39-1.34.31-1.4.25-2.19s.04-1.34,0-2.32c-.04-.98-.33-2.37-.33-2.37l-.57-2.09-.55-1.52-1-2.22-1.34-2.28-.76-1.16-1.91-2.65-2.1-2.37-1.83-1.9s.11.06-2.1-2.19c-2.21-2.26-4.58-3.84-4.58-3.84l-1.07-.87.15-.35s-.04-.79.2-1.58c.24-.78,1.39-1.26,1.39-1.26l1.19-.18,1.54-.07,2.96.42,3.2.84,3.52,1.22,4.47,1.79,4.23,1.88,7.86,3.92,3.19,1.74,1.99,1.12,1.65,1.1,1.74,1.22,2.2,1.54,1.96,1.51,2.16,1.71,2.84,2.58,2.35,2.3,1.33,1.5s1.99,2.35,2.72,3.4c.73,1.05,2.28,3.8,2.28,3.8l1.14,2.44.65,1.78.58,1.87.41,1.86.27,1.81.13,2.35s-.04,1.87-.03,2.52c0,.65-.28,2.42-.36,3.15-.08.73-.44,2.44-.44,2.44l-.36,1.72-.56,1.94-.38,1.2-.72,1.77-.82,1.63-.78,1.22-.55.73-.75.84-1.11,1.09-1.06.78-1.44.9-1.6.81-1.62.79-1.03.59-1.77,1.03-1.35.94-.95.8-.87.84-.68.74-.73.88-.73,1.09-.82,1.51-.71,1.48-.55,1.34-.86,2.3-.54,1.37-.57,1.65-1.02,2.94-.84,2.35-1.05,2.86-1.09,2.72-.62,1.4-1.15,2.26s-1.63,2.66-2.08,3.34c-.45.68-2.7,3.58-2.7,3.58,0,0-1.9,2.36-2.46,2.99s-2.31,2.55-2.99,3.3c-.68.74-1.95,2.01-2.77,2.85-.81.85-2.41,2.3-3.45,3.3-1.04,1-3.65,3.24-4.38,3.86s-3.98,3.22-4.87,3.93c-.88.71-5.45,4.01-5.45,4.01l-3.5,2.36s-4.01,2.53-4.97,3.09-8.44,4.68-9.34,4.9l-1.22.54s-2.65,1.07-3.6,1.32c-.95.25-6.31,1.67-6.31,1.67l-2.85.68-4.29,1.03-2.47.59-2.54.57-2.19.57-1.58.39-1.43.38-.83.28-4.76.52-5.5,1.76-5.06,2.09-3.06.82-3.55.1-5.61.98-6.39,1.09-5.5.37-4.66-.74-10.6-2.09-6.49-1.08-5.44-.63-2.03.38-1.59.84.08,1.1,3.08,2.32,6.32,4.77-.32.94-1.25,1.14-2.13,1.78s-2.65,1.26-4.23,1.63c-1.58.37-4.77,1.48-8.02.6-3.25-.88-2.14-.44-5.95-1.1-3.81-.66-11.55-3.89-11.55-3.89l-12.6-5.6-10.32-4.13-10.5-3.89-9.78-3.47-5.57-2.12-4.1-2.18-4.7-2.76-3.78-2.59-2.81-1.99-1.93,4.28-.53,1.56-1.27.48s-.29.56-1.38.27c-1.08-.29-6.34-3.35-6.34-3.35l-4.11-25.23-4.18-20.92-4.18-7.32-9.62-12.28-5.96-.18-6.32-.43-5.28-.51-2.4-.41,3.12,4.3,2.22,2.87,1.93,3.03s.49-.2-.59.85c-1.08,1.04-4.42,4.2-4.42,4.2l-2.9,2.65s-.21,1.73-.59,3.71c-.38,1.98-1.62,5.59-1.62,5.59l-2.7,7.8-1.9,5.22-2.92,7.73-1.94,5.01,19.7,55.31-1.06,1.87s-.43,1,.14,1.48c.57.49,2.89,1.29,2.89,1.29l3.52,1.26,4.49,1.06,3.37.72,4.19.92,3.4,1.35,3.12,1.95,3.66,2.75,3.81,3.18,3.13,2.79,3.14,2.68,2.71,1.9,3.16,1.64,6.55,3.09,8.27,3.61,5.89,2.49,6.14,3.04,6.08,3.56s7.99,5.99,9.9,8.42c1.91,2.43,6.35,8.31,6.35,8.31l3.38,5.02,1.35,3.62,1.07,4.22,1.01,3.79.98,2.32,1.83,2.21,3.19,2.27,2.93,1.82,2.89,2.13,3.14,3.52,2.74,5.15,1.9,6.94.86,5.98-.04,6.5-1.12,6.68-1.97,5.95s-1.91,5.43-3.04,6.98c-1.13,1.54-2.3,4.34-2.3,4.34l-4.26,5.78s-.9,1.36-4.03,4.76c-3.13,3.4-4.15,4.85-11.45,10.69-7.31,5.84-9.11,6.04-9.11,6.04,0,0-1.38.99-6.31,2.81-4.94,1.82-6.07,1.68-6.07,1.68l-6.79.65-5.88.03-4.23.33-3.92.37-3.47.95-4.74,2.79s-1.36.89-3.45,2.52c-2.08,1.64-5.07,2.96-5.07,2.96l-10.71,3.65-10.09,1.94-6.87.44-7.1-.22-5.81-.49-6.71-.91-5.56-.88-3.1-.37-.72,2.54-.35,2.89-.62,1.71s-.86.21-1.92.29c-1.06.08-8.13-2.13-8.13-2.13l-9.94-4.55-4.03-2.27-2.24-1.42-2-2.55-1.82-1.48-1.57-.92-1.19.28-.07,1.46,2.18,4.56,1.1,2.23.17,2.36-.68,1.04-.91.62-3.02-.15-2.83-.86-3.42-2.09-7.47-5.09-6.22-4.1-4.04-3-3.75-2.86-1.82-1.48-1.13-1.08-1.17-1.61-.58-1.33-.48-1.21-2.92-.98-.25,1.23s-.23,1.02-.95,1.77c-.72.75-1.6,2.01-3.58,1.88-1.98-.13-4.89-2.05-4.89-2.05l-4.97-4.06-4.32-4.19-3.11-2.89-2.18-1.94s-.82-1.04-1.76-1.05c-.94,0-2.95,1.01-2.95,1.01,0,0-.6.66-2.01,1.02-1.41.36-3.67-.02-4.73-.78-1.06-.76-3.37-5.12-3.37-5.12l-7.5-11.8-7.28-11.04-4.7-7.17-5.55-8.84-2.98-4.87-4.03-5.73-1.82-3.15-2.26-4.78-2.38-2.06-.61-.96c-1.79-.9-3.25-2.71-3.15-2.65l-2.92-2.64-3.58-5.69-3.42-7.1-5.44-11.18-4.93-12.44-3.3-9.35-2.51-9.07-2.56-8.74-2.4-10.78-1.59-15.59.17-12.95,1.92-10.3,4.77-12.1,6.99-11.55,4.59-8.46,2.72-5.37s1.19-1.46,3.89-3.04l-18.94-8.78,10-9.56,7.63-6.9,8.81-9.66,7.4-10.04,4.74-7.64,5.2-10.13,6.39-14.44,5.56-14.71,3.19-10.68,2.18-10.42,1.09-7.89.6-8.65-.1-7.11-.34-6.08-.84-7.26-1-5.46-2.15-8.64-2.12-7.3h0l-3.6-8.87-4.1-8.49-3.59-6.47-4.71-7.61-7.82-11.48-2.14-10.11-2.68-14.72-4.04-7.02.02-7.03-2.01-6.02-7.48-12.46-2.87-2.16-2.9-2.36c-2.11-1.52-3.23-4.3-3.23-4.3l-2.5-3.63,1.19-1.95-3.32-8.07-1.82-6.44s-.52-1.67-1.06-4.61c-.54-2.94-.56-7.66-.85-10.01-.29-2.35.51-9.55.55-11.25.04-1.7.94-6.03.94-6.03l-1.74.11-1.27.37-.43,1.14s.12,1.04.11,1.39c0,.35-.49,1.57-.49,1.57l-1.46,3.58s-1.73,5.19-2.35,6.43-1.84,3.44-1.84,3.44l-1.83,1.96-1.48.77s-2.43.23-2.94-.24c-.51-.47-.9-1.04-.9-1.04l-1.23-4.01-1-7.01-.84-8.81-.56-9.99-.16-7.8.27-5.48.94-7.58,1.32-7.02,1.26-4.68,1.64-5.31,1.86-4.86,2.51-5.54,3.21-5.95,2.97-4.57,3.93-5.87,4.69-6.01,2.4-8.35.67-6.02,6.69-10.04,5.35-7.36,5.23-6.25,10.62-9.07,7.43-6.85,6.85-22,1.66-27.56-.49-.56-2.98-1.53-3.26-1.74-3.96-1.74-4.44-2.22-2.22-1.18-4.72-3.19-5-3.26-5.28-3.61-6.8-4.72-6.18-4.1-5.55-3.89-4.37-3.12-3.82-2.78-5.28-3.82-7.64-5.9-3.12-2.5-3.96-2.92-6.32-4.93-7.64-6.32-5.97-5.14-5.41-4.93M2007.57,1984.3,2007.27,1366.99,2225.01,1345.63h1135.9v772.75h-1352.31l.02-131.67,1.05-.39,4.5-1.83,5.5-1.76,4.76-.52.83-.28,1.43-.38,1.58-.39,2.19-.57,2.54-.57,2.47-.59,4.29-1.03,2.85-.68s5.37-1.42,6.31-1.67c.95-.25,3.6-1.32,3.6-1.32l1.22-.54c.9-.23,8.39-4.34,9.34-4.9.95-.57,4.97-3.09,4.97-3.09l3.5-2.36s4.57-3.3,5.45-4.01c.88-.71,4.14-3.31,4.87-3.93.73-.62,3.33-2.86,4.38-3.86,1.04-1,2.64-2.45,3.45-3.3.81-.85,2.09-2.11,2.77-2.85s2.43-2.67,2.99-3.3c.56-.63,2.46-2.99,2.46-2.99,0,0,2.24-2.9,2.7-3.58.45-.68,2.08-3.34,2.08-3.34l1.15-2.26.62-1.4,1.09-2.72,1.05-2.86.84-2.35,1.02-2.94.57-1.65.54-1.37.86-2.3.55-1.34.71-1.48.82-1.51.73-1.09.73-.88.68-.74.87-.84.95-.8,1.35-.94,1.77-1.03,1.03-.59,1.62-.79,1.6-.81,1.44-.9,1.06-.78,1.11-1.09.75-.84.55-.73.78-1.22.82-1.63.72-1.77.38-1.2.56-1.94.36-1.72s.36-1.72.44-2.44.37-2.5.36-3.15c0-.65.03-2.52.03-2.52l-.13-2.35-.27-1.81-.41-1.86-.58-1.87-.65-1.78-1.14-2.44s-1.55-2.75-2.28-3.8c-.73-1.05-2.72-3.4-2.72-3.4l-1.33-1.5-2.35-2.3-2.84-2.58-2.16-1.71-1.96-1.51-2.2-1.54-1.74-1.22-1.65-1.1-1.99-1.12-3.19-1.74-7.86-3.92-4.23-1.88-4.47-1.79-3.52-1.22-3.2-.84-2.96-.42-1.54.07-1.19.18s-1.15.48-1.39,1.26c-.24.78-.2,1.58-.2,1.58l-.15.35,1.07.87s2.37,1.58,4.58,3.84c2.21,2.26,2.1,2.19,2.1,2.19l1.83,1.9,2.1,2.37,1.91,2.65.76,1.16,1.34,2.28,1,2.22.55,1.52.57,2.09s.29,1.39.33,2.37c.04.98,0,2.32,0,2.32l-.25,2.19-.31,1.4-.39,1.34-1.05-1.06-2.96-2.93-2.26-2.14-2.96-2.58-2.23-1.94-2.92-2.29-2.12-1.69-2.19-1.65-2.69-1.85-1.78-1.21-1.88-1.2-2.44-1.49s-1.27-.79-2.27-1.32c-.99-.53-4.14-2.3-4.14-2.3l-4.48-2.25-3.86-1.74-5.12-2.08-4.13-1.68-3.22-1.21-2.09-.58-2.95-.44-2.25.39-7.56-1.32-4.88,1.39-3.14-.35-4.18-1.39-.38-.03.5-37.41,23.73,16.49,7.69,1.8,7.48,2.08s8.46,2.73,10.93,3.38c2.47.65,5.7,1.09,5.7,1.09l4.47.76,7.82.25,4.58-.19s7.68-.73,11.64-1.48c3.96-.75,9.14-2.32,10.74-2.94,1.6-.62,6.38-2.23,7.69-2.81,1.31-.58,8.94-4.12,8.94-4.12,0,0,6.59-3.2,9.07-4.64,2.48-1.44,5.73-3.68,5.73-3.68,0,0,1.43-1.09,3.76-3.25,2.33-2.16,3.39-2.31,3.39-2.31,2.36-.83,2.24-.31,3.65-.46,1.42-.15,6.04.99,6.04.99,0,0,8.48,1.44,13.03,1.75,4.55.31,9.82.02,12.09-.35,2.28-.37,4.04-.52,8.29-1.65,4.25-1.14,10.55-4.65,12.95-6.67,2.39-2.02,5.16-6.02,6.13-8.24.98-2.22,2.37-5.1,2.37-5.1l1.03-2.23,1.33-5.39.79-6.58.25-5.4.09-2.41c.04-1-.1-1.98-.28-2.96-.26-1.4-.11-4.58-1.16-8.85-1.54-6.25-3.8-9.65-3.8-9.65-1.66-2.29-3.49-4.45-5.49-6.45l-4.43-4.43-6.27-3.8-2.86-.62c-1.68-.06-3.25.82-4.08,2.28l-.75,2.82.21,5.89c.03.8-.02,1.61-.14,2.4l-2.13,14.13c-.32,1.73-1.48,3.19-3.1,3.91l-2.87,1.27c-2.05.91-4.34,1.11-6.52.59l-1.96-.47c-2.01-.49-3.87-1.46-5.42-2.83l-2.9-2.58c-.41-1.3-1.39-2.47-1.99-3.53l-2.24-4.3-4.44-7.25-5.82-7.15-5.42-4.74c-.95-2.2-2.17-4.6-3.73-7.1-3.24-5.19-6.88-9.04-9.94-11.77-14.82-18.64-36.9-42.28-67.98-64.05-16.23-11.37-30.6-19.59-44.79-26.38l-.95-.24-.08-261.33h71.09l.13.56c2.73,9.09,21.47,44.7,28.16,53.13,9.53,12.01,19.01,22.43,27.54,26.01l9.98,5.75c5.77,3.32,12.22-.33,18.45,2.01l6.97,1.42c4.91,1.84,1.92,4.81,4.09,9.58l12.76-2.89c-1.86,1.02,7.9-15.15,7.38-13.09l10.68-15.84c13.31-19.75,19.93-43.15,19.2-66.63"/>
    <path id="_White_Fill_-3" data-name="&amp;lt;White Fill&amp;gt;" class="cls-3" d="M2007.57,1984.3,2007.27,1366.99,2225.01,1345.63c.73,23.48-5.89,46.88-19.2,66.63l-10.68,15.84c.52-2.06-9.24,14.11-7.38,13.09l-12.76,2.89c-2.17-4.78.83-7.75-4.09-9.58l-6.97-1.42c-6.23-2.33-12.69,1.32-18.45-2.01l-9.98-5.75c-8.53-3.57-18.01-14-27.54-26.01-6.69-8.43-25.43-44.04-28.16-53.13l-.13-.56h-71.09l.08,261.33.95.24c14.19,6.79,28.56,15.01,44.79,26.38,31.08,21.78,53.16,45.41,67.98,64.05,3.06,2.73,6.69,6.58,9.94,11.77,1.56,2.5,2.78,4.9,3.73,7.1l5.42,4.74,5.82,7.15,4.44,7.25,2.24,4.3c.6,1.07,1.58,2.23,1.99,3.53l2.9,2.58c1.55,1.37,3.41,2.35,5.42,2.83l1.96.47c2.18.53,4.47.32,6.52-.59l2.87-1.27c1.61-.71,2.77-2.17,3.1-3.91l2.13-14.13c.12-.79.17-1.6.14-2.4l-.21-5.89.75-2.82c.83-1.46,2.4-2.34,4.08-2.28l2.86.62,6.27,3.8,4.43,4.43c2,2,3.84,4.16,5.49,6.45,0,0,2.26,3.4,3.8,9.65,1.05,4.27.9,7.45,1.16,8.85.18.98.32,1.97.28,2.96l-.09,2.41-.25,5.4-.79,6.58-1.33,5.39-1.03,2.23s-1.39,2.88-2.37,5.1c-.98,2.22-3.74,6.22-6.13,8.24-2.39,2.02-8.69,5.53-12.95,6.67-4.25,1.14-6.02,1.29-8.29,1.65-2.28.37-7.54.66-12.09.35-4.55-.31-13.03-1.75-13.03-1.75,0,0-4.62-1.14-6.04-.99-1.42.15-1.29-.36-3.65.46,0,0-1.07.15-3.39,2.31-2.33,2.16-3.76,3.25-3.76,3.25,0,0-3.26,2.24-5.73,3.68-2.48,1.44-9.07,4.64-9.07,4.64,0,0-7.63,3.54-8.94,4.12-1.31.58-6.09,2.19-7.69,2.81-1.6.62-6.78,2.19-10.74,2.94-3.96.75-11.64,1.48-11.64,1.48l-4.58.19-7.82-.25-4.47-.76s-3.23-.44-5.7-1.09c-2.47-.65-10.93-3.38-10.93-3.38l-7.48-2.08-7.69-1.8-23.73-16.49-.5,37.41.38.03,4.18,1.39,3.14.35,4.88-1.39,7.56,1.32,2.25-.39,2.95.44,2.09.58,3.22,1.21,4.13,1.68,5.12,2.08,3.86,1.74,4.48,2.25s3.15,1.77,4.14,2.3c.99.53,2.27,1.32,2.27,1.32l2.44,1.49,1.88,1.2,1.78,1.21,2.69,1.85,2.19,1.65,2.12,1.69,2.92,2.29,2.23,1.94,2.96,2.58,2.26,2.14,2.96,2.93,1.05,1.06.39-1.34.31-1.4.25-2.19s.04-1.34,0-2.32c-.04-.98-.33-2.37-.33-2.37l-.57-2.09-.55-1.52-1-2.22-1.34-2.28-.76-1.16-1.91-2.65-2.1-2.37-1.83-1.9s.11.06-2.1-2.19c-2.21-2.26-4.58-3.84-4.58-3.84l-1.07-.87.15-.35s-.04-.79.2-1.58c.24-.78,1.39-1.26,1.39-1.26l1.19-.18,1.54-.07,2.96.42,3.2.84,3.52,1.22,4.47,1.79,4.23,1.88,7.86,3.92,3.19,1.74,1.99,1.12,1.65,1.1,1.74,1.22,2.2,1.54,1.96,1.51,2.16,1.71,2.84,2.58,2.35,2.3,1.33,1.5s1.99,2.35,2.72,3.4c.73,1.05,2.28,3.8,2.28,3.8l1.14,2.44.65,1.78.58,1.87.41,1.86.27,1.81.13,2.35s-.04,1.87-.03,2.52c0,.65-.28,2.42-.36,3.15s-.44,2.44-.44,2.44l-.36,1.72-.56,1.94-.38,1.2-.72,1.77-.82,1.63-.78,1.22-.55.73-.75.84-1.11,1.09-1.06.78-1.44.9-1.6.81-1.62.79-1.03.59-1.77,1.03-1.35.94-.95.8-.87.84-.68.74-.73.88-.73,1.09-.82,1.51-.71,1.48-.55,1.34-.86,2.3-.54,1.37-.57,1.65-1.02,2.94-.84,2.35-1.05,2.86-1.09,2.72-.62,1.4-1.15,2.26s-1.63,2.66-2.08,3.34c-.45.68-2.7,3.58-2.7,3.58,0,0-1.9,2.36-2.46,2.99-.56.63-2.31,2.55-2.99,3.3s-1.95,2.01-2.77,2.85c-.81.85-2.41,2.3-3.45,3.3-1.04,1-3.65,3.24-4.38,3.86-.73.62-3.98,3.22-4.87,3.93-.88.71-5.45,4.01-5.45,4.01l-3.5,2.36s-4.01,2.53-4.97,3.09c-.95.57-8.44,4.68-9.34,4.9l-1.22.54s-2.65,1.07-3.6,1.32c-.95.25-6.31,1.67-6.31,1.67l-2.85.68-4.29,1.03-2.47.59-2.54.57-2.19.57-1.58.39-1.43.38-.83.28-4.76.52-5.5,1.76-4.5,1.83-1.05.39-.02,131.67h1352.31v-772.75h-1135.9"/>
  </g>
  <g id="paw4">
    <path id="_Black_Fill_-4" data-name="&amp;lt;Black Fill&amp;gt;" d="M1391.56,1273.19l-4.37-4.03-2.43-2.01-2.15-1.74-3.47-2.15-2.5-1.32-2.5-1.25-2.78-1.32-1.11-.76-2.64-1.87-2.08-2.01-2.57-2.29-3.33-3.4-4.3-4.51-3.82-4.3-4.65-5.28-3.68-4.37-2.92-3.54-3.89-4.58-3.96-4.58-3.54-4.3-3.54-4.58-3.61-4.3-3.68-4.72-2.01-2.29-1.32-1.87-3.61-4.44-3.05-4.03-3.12-3.89-2.36-2.92-2.98-3.61-3.89-5.21-3.96-5.07-3.75-4.93-3.12-3.96-3.61-4.79-3.33-4.17-3.19-4.37-3.26-4.3-2.64-3.47-3.26-5-2.71-3.68-1.94-2.5-2.78-3.82-4.58-6.04-2.5-3.33-5.35-6.04-2.01-2.57-1.94-2.08-.9-1.04-.49-1.32-.69-1.46c-.55-.67-.91-.73-1.11-.69-1.18.21-.63,4.2-2.71,8.76-.81,1.78-1.49,3.26-2.92,3.75-2.78.95-6.02-2.66-6.25-2.92-9.43-10.33-18.87-20.74-28.32-31.24-4.88-5.42-9.74-10.83-14.58-16.24l-53.92-35.34-52.35-49.02-16.68-9.54,2.09,11.5-64.84-76.34,24.05,48.11-77.39-73.21s-7.54-1.18-30.7-20.56c-2.24-1.88-15.49-17.69-17.81-19.64-5.34-4.49-10.84-9.14-16.35-13.83-2.98-2.54,13.48,37.46,10.46,34.86-1.37-1.18-24.42-36.46-25.8-37.65-2.11-1.83-88.09-92.25-115.15-116.94-13.92-12.7,21.58,37.38,0,22.81-47.39-31.99-108.32-146.6-144.47-167.29-9.18-5.25,11.11,34.01,2.79,26.95-28.3-24.02-55.54-35.03-85.98-75.13-4.47-5.89-4.26,7.78-4.26,7.78-4.71-4.26-21.71-31.23-26.42-35.53-13.48-12.29-41.35-44.59-54.85-57.14-5.24-4.87,3.88,10.1-1.36,5.19-6.25-5.85-15.45-8.57-21.69-14.46-22.36-21.11-44.64-42.48-66.73-63.94-6.43-6.25-58.29-71.66-64.68-77.92-7.06-6.91,30.69,45.57,23.68,38.65-4.96-4.89-13.41-10.74-16.79-15.45-6.95-9.67-14.22-16.26-22.58-24.63-3.33-3.34-47.53-60.83-50.85-64.16-6.02-6.06,22.12,45.01,16.16,38.97C3.92,16.16-2.29.26.36.39l247.89-.24,275.78-.15,102.77,99.93,57.03,45.62-41.32-11.24,21.16,24.43,28.71,9.62-14.84,6.4,22.44,25.92,77.94,49.43-79.84-9.5,26.6,11.01c18.83,7.79,35.91,19.26,50.24,33.75l134.72,136.16,49.35,31.99-58.46-25.66,155.41,118.34-34.77-10.64c-5.73-2.15-9.98,5.46-5.15,9.22l107.19,85.87s-41.77-23.11,10.98,26.67c10.32,9.74,3.47,17.33,12.55,28.24l43.84,47.94c.31.39.96,1.35,1.25,1.93.29.57.75,1.35,1.07,2.03s.42,1.04.73,1.59c.31.55.34.78.86,1.38.52.6,1.33,1.51,1.74,1.98.42.47,2.29,2.42,2.92,3.1s2.76,3.02,3.85,4.14c1.09,1.12,4.03,4.35,5.6,5.96,1.56,1.61,2.16,2.24,3.38,3.57,1.22,1.33,4.17,4.37,5.54,5.78,1.38,1.41,3.59,3.72,4.37,4.43.78.7,3.64,3.64,4.5,4.53.86.89,3.33,3.28,4.27,4.22.94.94,3.1,2.97,4.48,4.27,1.38,1.3,3.75,3.54,4.63,4.3.89.75,2.79,2.6,3.93,3.54,1.15.94,2.13,1.9,3.36,2.94,1.22,1.04,4.06,3.44,4.71,3.96.65.52,3.88,2.97,5.1,3.88,1.22.91,2.76,2.08,4.66,3.23,1.9,1.15,4.79,2.73,6.27,3.44,1.48.7,4.03,1.72,5.02,2s2.45.78,3.2.96c.75.18,1.25.31,1.69.42.44.1-.75,7.84-.75,7.84l-.13.29-17.57.75s-.16-.03-.16.21-.1.36.34.91,1.04,1.09,1.93,1.77,3.54,2.34,4.17,2.71c.62.36,1.48.89,3.2,1.82,1.72.94,8.15,4.32,9.76,5.13,1.61.81,7.18,3.67,8.85,4.45,1.67.78,5.39,2.66,5.39,2.66l10.18,4.95,3.93,1.93,2.94,1.2,3.96,1.33,3.12.94.08.23s.36,1.28.36,2.5-.08,2.99-1.22,4.27c-1.15,1.28-2.94,1.77-5.96,1.61,0,0-.29,0-.18.49.1.49.62.99,2.37,2,1.74,1.02,12.51,6.03,12.51,6.03,0,0,5,1.8,7.91,3.61,2.92,1.8,13.47,7.5,13.47,7.5l4.79,2.92c2.85,1.53,6.94,3.89,8.75,4.65,1.8.76,4.44,2.08,7.36,3.05s4.54,1.19,4.54,1.19l.99.1h.81l1.64-.26,3.28-.83s.91-.21,1.59-.23c.68-.03.89-.05,1.51.16s.31,0,.78.34c.47.34.47.47.6.73.13.26.26.65.44,1.8.18,1.15.36,2.42.23,3.49-.13,1.07-.31,2.21-.89,3.02-.57.81-1.64,2.03-3.58,2.57-1.94.54-5.14.99-9.67.49l-9.16-.83s-3.8-.31-6.18-.16c-2.38.14-4.1.49-5.36,1.12,0,0,.85.75,1.1.96.24.21,1.53,1.23,2,1.56s1.81,1.28,2.52,1.71,1.32.89,2.29,1.36,1.85,1.02,2.77,1.46c.92.44,1.9.92,3.02,1.41,1.12.49,2.46,1.08,4.39,1.84,1.93.76,3.19,1.27,4.2,1.67,1.01.39,2.35.91,3.33,1.29.98.38,2.79,1.15,3.23,1.33.44.19,1.83.78,1.83.78l2.04.92s.72.37.93.51c.22.14,1.04.77,1.22.93.18.16.22.17.74.67.53.5,1.06,1,1.06,1,0,0,.67.6,1.03.85.36.25.83.51,1.12.65s1.27.57,1.91.82c.64.25,2.27.91,2.27.91l2.32.87,2.97,1.03,3.18,1.12,3.44,1.23,2.58,1s3.52,1.48,3.84,1.65c.32.17,1.89.94,2.3,1.2.41.25,1.43.94,1.43.94,0,0,1.64,1.15,2.18,1.83.54.69.9,1.3,1,1.55s.34.86.35,1.64.13.53-.25,1.5c-.38.97-1.35,2.5-2.29,3.37-.94.87-1.91,1.6-1.91,1.6,0,0-.87.8-3.12,2.19-2.26,1.39-4.76,2.78-7.01,3.78,0,0-.28.17-1.49.45-1.21.28-2.71.17-2.71.17,0,0-1.15-.07-2.12.07-.97.14-1.63.35-1.94.76-.31.42-.38,1.04-.38,1.56s.17,1.28.17,1.28l1.35.57s4.32,1.7,5.5,2.24c1.18.54,3.68,1.56,3.68,1.56,0,0,7.46,3.44,8.33,4.13l.97.57,1.84,1.18,2.47,1.69,3.57,2.55,4.62,3.53,1.57,1.25,6.09,4.87,6.77,5.53,3.53,2.82,1.2.97.96.78.98.77.91.71.56.43,2.3,1.76,2.67,1.99.63.45.35.27.35.25.59.41.69.43.56.31.72.37.5.25.55.24.82.33.84.36.88.37,1,.44,1.23.56s.96.46,1.16.61l.42.23,1.04.67s.87.61.99.73l-8.01,14.22s-.48-.25-1.34.74l-.29,3.19s-.32.32-.44,1.16l.08.48s.03.28.24.73c.21.45.61.95,1.01,1.44s1.11,1.15,1.61,1.6c.5.45,1.89,1.72,1.89,1.72l3.05,2.79,2.59,2.19,3.26,2.66,3.26,2.48,4.18,3.09,5.28,3.77,4.81,3.37,4.95,3.52,4.13,3.04s1.32.92,1.8,1.37c.49.45,2.08,1.8,2.08,1.8l1.51,1.46,2.74,2.69,1.72,1.7,1.93,1.84,1.89,1.67,1.23,1.04,1.53,1.15,1.23.8,1.08.56.71.31,1.13.43,1.43.44,2,.53,1.89.51.37.11.47.15.59.22s.47.21.52.23.44.23.55.3.55.34.72.5c.17.16.51.51.51.51l.28.34.33.48.26.46s.15.29.26.65c.11.35.29,1.01.29,1.01l.22,1.14.15,1.33.1.75.09.62.15.83.14.64.2.67.31.73.45.78.33.47.16.17-.31-.2.39.33.62.47,1.5,1.01,1.82,1.14,2.7,1.65,3.26,1.93,2.24,1.34,3.1,1.8,2.14,1.22.9.52,1.02.56,1.04.59,1.69.93,1.85.99,1.1.59,1.03.54,1.14.59,1.61.82,1.63.8,1.86.9,1.95.9,3.38,1.5,2.44,1.02.71.29.67.27.9.35.43.17.3.12.41.15.56.21.74.26,1.61.55,2.59.85,1.44.44,1.5.42,1.68.43,1.87.49,2.3.52,1.31.25.73.14,2.02.33,2.1.29s.16.05,1.21.14c1.05.09,2.41.22,2.41.22,0,0,.09.01,1.24.07,1.15.05,2.68.12,3.33.12s2.1-.01,2.1-.01l2.55-.12,1.65-.09,1.67-.16.82-.05.96-.09,1.09-.08,1.86-.12,4.37-.31,3.06-.22,2.56-.2,2.43-.21,2.82-.21,1.93-.14,1.59-.12,2.9-.21,3.1-.25,3.76-.26,3.66-.26,2.45-.2,1.48-.09,1.63-.12.9-.08,1.07-.08.87-.09.75-.05.82-.05h.43s.12-.01.12-.01l-1.59,3.89-1.91,4.82,1.12.23,5.14-.97,14.16-4.03,12.63-4.44,13.33-5,12.77-5.14,8.89-3.75,10-4.17,13.33-6.25,10.27-5.14,10.41-5,14.86-7.5,12.91-6.53,6.11-3.05,7.91-4.03,11.52-5.76,12.56-5.48,12.98-5.83,14.3-5.62,15.97-5.62,11.94-3.61c9.7-2.63,17.22-3.98,22.21-4.72,3.41-.5,5.6-.71,7.36-.83,7.04-.49,7.98-.73,13.54-.21,0,0,3.55.25,8.26,1.18.69.14,1.78.37,2.78,1.25,1.09.97,1.5,2.21,1.67,2.92.12.43.25,1.08.21,1.87-.01.32-.05,1.01-.35,1.74-.33.82-.33,1.33-1.18,2.01-1.02.81-2.23,1.72-4.37,2.71-1.1.51-2.74.89-4.37,1.46-1.4.48-3.2,1-5.35,1.39-.07.38-.1.89,0,1.46.3,1.64,1.51,2.58,1.87,2.85.54.31,1.36.71,2.43.97,1.27.31,2.25.26,3.75.21,2.71-.1,4.06-.15,4.51-.14,1.63.05,2.51.38,6.73,1.87,2.17.77,4.36,1.51,6.53,2.29,5.82,2.09,5.42,1.89,8.4,2.98,3.3,1.21,5.66,2.14,8.68,3.33,4.75,1.87,7.13,2.81,9.93,4.03,4.03,1.98,10.38,5.21,10.83,5.35.73.25,2.2.72,3.33,2.08,1.35,1.63,1.43,3.61,1.46,4.17.03.75.07,2.04-.69,3.33-.17.29-.54.89-1.25,1.39-.93.65-1.98.72-2.5.76,0,0-.31.02-.63.02-1.77-.04-4.66-1.22-5.27-1.48-1.55-.86-2.9-1.4-3.89-1.74-.92-.32-1.51-.45-2.22-.42-.44.02-1.91.1-2.5,1.04,0,0-.12.2-.42,1.8,0,0,4.16,3.1,5.76,4.3,1.45,1.09,5.66,4.26,9.72,7.77,7.13,6.16,5.94,5.66,8.64,8.16,2.3,1.54,5.74,4.29,6.63,6.28.98,2.19.52,2.61.87,6.53.24,2.76.08,5.39.8,6.8,1.01,1.98,1.94,2.04,3.61,4.72.61.98,1.47,2.35,1.94,4.17.38,1.43,1.19,4.53-.28,6.94-1.55,2.55-1.31-6.54-1.91-3.92-.27,1.18.05,2.28.38,3.03l7.67,3.58c3.41,1.59,5.41,5.19,4.95,8.92h0c-.21,1.69,3,3.05,3.71,4.6l3.11,13.44c1.22,8.21,2.07,10.98,5.16,24.12.79,3.35,2,6.6,1.67,10.02l2.7,11.01c0,1.12.1,2.24.29,3.35l5.89,33.75,2.72,13.11c6.16,29.74.07,60.71-16.91,85.89l-10.68,15.84c.52-2.06-8.1,19.28-6.23,18.26l-12.91,3.25c-2.17-4.78-.17-13.27-5.09-15.11l-6.97-1.42c-6.23-2.33-12.69,1.32-18.45-2.01l-9.98-5.75c-8.53-3.57-18.01-14-27.54-26.01-6.69-8.43-25.43-44.04-28.16-53.13-.69-2.31-28.11-38.01-27.66-40.25,1.42-6.98-15.71-9.38-20.83-8.5-4.68.8-6.44,6.93-5.23,3.66,1.17-3.14-4.48,7.16-5.23,8.37l-3.14,4.18c.17-2.09-5.05,20.22-5.05,20.22,0,0-4.58,23.93-5.4,33.12-2.27,25.28-28.55,51.49-34.51,58.56l-17.26,16.21-15.69,30.85c-7.67,25.7-11.37,29.13,5.23,50.2l6.27,13.6c1.68.68,10.46,16.73,10.46,16.73l31.98,46.97c17.62,7.4,38.64,18.04,60.66,33.47,31.08,21.78,53.16,45.41,67.98,64.05,3.06,2.73,6.69,6.58,9.93,11.77,1.56,2.5,2.78,4.9,3.73,7.1l5.42,4.74,5.82,7.15,4.44,7.25,2.24,4.3c.6,1.07,1.58,2.23,1.99,3.53l2.9,2.58c1.55,1.37,3.41,2.35,5.42,2.83l1.96.47c2.18.53,4.47.32,6.52-.59l2.87-1.27c1.61-.71,2.77-2.17,3.1-3.91l2.13-14.13c.12-.79.17-1.6.14-2.4l-.21-5.89.75-2.82c.83-1.46,2.4-2.34,4.08-2.28l2.86.62,6.27,3.8,4.43,4.43c2,2,3.84,4.16,5.49,6.45,0,0,2.26,3.4,3.8,9.65,1.05,4.27.9,7.45,1.16,8.85.18.98.32,1.97.28,2.96l-.09,2.41-.25,5.4-.79,6.58-1.33,5.39-1.03,2.23s-1.39,2.88-2.37,5.1c-.98,2.22-3.74,6.22-6.13,8.24s-8.69,5.53-12.95,6.67c-4.25,1.14-6.02,1.29-8.29,1.65-2.28.37-7.54.66-12.09.35-4.55-.31-13.03-1.75-13.03-1.75,0,0-4.62-1.14-6.04-.99-1.42.15-1.29-.37-3.65.46,0,0-1.07.15-3.39,2.31-2.33,2.16-3.76,3.25-3.76,3.25,0,0-3.26,2.24-5.73,3.68-2.48,1.44-9.07,4.64-9.07,4.64,0,0-7.63,3.54-8.94,4.12-1.31.58-6.09,2.19-7.69,2.81s-6.78,2.19-10.74,2.94c-3.96.75-11.64,1.48-11.64,1.48l-4.58.19-7.82-.25-4.47-.76s-3.23-.44-5.7-1.09c-2.47-.65-10.93-3.38-10.93-3.38l-7.48-2.08-7.69-1.8-53.42-37.12-1.11.2-.38,1.39s6.71,10.21,5.6,11.86.11,7.56.95,8.75c.83,1.2,2.89,4.14,2.89,4.14l1.1,1.39,2.39,5.58,2.44,4.18,4.53,9.06,5.93,8.37,3.14,1.74,2.09,1.39,4.18,1.39,3.14.35,4.88-1.39,7.56,1.32,2.25-.39,2.95.44,2.09.58,3.22,1.21,4.13,1.68,5.12,2.08,3.86,1.74,4.48,2.25s3.15,1.77,4.14,2.3c.99.53,2.27,1.32,2.27,1.32l2.44,1.49,1.88,1.2,1.78,1.21,2.69,1.85,2.19,1.65,2.12,1.69,2.92,2.29,2.23,1.94,2.96,2.58,2.26,2.14,2.96,2.93,1.05,1.06.39-1.34.31-1.4.25-2.19s.04-1.34,0-2.32c-.04-.98-.33-2.37-.33-2.37l-.57-2.09-.55-1.52-1-2.22-1.34-2.28-.76-1.16-1.91-2.65-2.1-2.37-1.83-1.9s.11.06-2.1-2.19c-2.21-2.26-4.58-3.84-4.58-3.84l-1.07-.87.15-.35s-.04-.79.2-1.58c.24-.78,1.39-1.26,1.39-1.26l1.19-.18,1.54-.07,2.96.42,3.2.84,3.52,1.22,4.47,1.79,4.23,1.88,7.86,3.92,3.19,1.74,1.99,1.12,1.65,1.1,1.74,1.22,2.2,1.54,1.96,1.51,2.16,1.71,2.84,2.58,2.35,2.3,1.33,1.5s1.99,2.35,2.72,3.4c.73,1.05,2.28,3.8,2.28,3.8l1.14,2.44.65,1.78.58,1.87.41,1.86.27,1.81.13,2.35s-.04,1.87-.03,2.52c0,.65-.28,2.42-.36,3.15-.08.73-.44,2.44-.44,2.44l-.36,1.72-.56,1.94-.38,1.2-.72,1.77-.82,1.63-.78,1.22-.55.73-.75.84-1.11,1.09-1.06.78-1.44.9-1.6.81-1.62.79-1.03.59-1.77,1.03-1.35.94-.95.8-.87.84-.68.74-.73.88-.73,1.09-.82,1.51-.71,1.48-.55,1.34-.86,2.3-.54,1.37-.57,1.65-1.02,2.94-.84,2.35-1.05,2.86-1.09,2.72-.62,1.4-1.15,2.26s-1.63,2.66-2.08,3.34c-.45.68-2.7,3.58-2.7,3.58,0,0-1.9,2.36-2.46,2.99s-2.31,2.55-2.99,3.3c-.68.74-1.95,2.01-2.77,2.85-.81.85-2.41,2.3-3.45,3.3-1.04,1-3.65,3.24-4.38,3.86s-3.98,3.22-4.87,3.93c-.88.71-5.45,4.01-5.45,4.01l-3.5,2.36s-4.01,2.53-4.97,3.09-8.44,4.68-9.34,4.9l-1.22.54s-2.65,1.07-3.6,1.32c-.95.25-6.31,1.67-6.31,1.67l-2.85.68-4.29,1.03-2.47.59-2.54.57-2.19.57-1.58.39-1.43.38-.83.28-4.76.52-5.5,1.76-5.06,2.09-3.06.82-3.55.1-5.61.98-6.39,1.09-5.5.37-4.66-.74-10.6-2.09-6.49-1.08-5.44-.63-2.03.38-1.59.84.08,1.1,3.08,2.32,6.32,4.77-.32.94-1.25,1.14-2.13,1.78s-2.65,1.26-4.23,1.63c-1.58.37-4.77,1.48-8.02.6-3.25-.88-2.14-.44-5.95-1.1-3.81-.66-11.55-3.89-11.55-3.89l-12.6-5.6-10.32-4.13-10.5-3.89-9.78-3.47-5.57-2.12-4.1-2.18-4.7-2.76-3.78-2.59-2.81-1.99-1.93,4.28-.53,1.56-1.27.48s-.29.56-1.38.27c-1.08-.29-6.34-3.35-6.34-3.35l-4.11-25.23-4.18-20.92-4.18-7.32-9.62-12.28-5.96-.18-6.32-.43-5.28-.51-2.4-.41,3.12,4.3,2.22,2.87,1.93,3.03s.49-.2-.59.85c-1.08,1.04-4.42,4.2-4.42,4.2l-2.9,2.65s-.21,1.73-.59,3.71c-.38,1.98-1.62,5.59-1.62,5.59l-2.7,7.8-1.9,5.22-2.92,7.73-1.94,5.01,19.7,55.31-1.06,1.87s-.43,1,.14,1.48c.57.49,2.89,1.29,2.89,1.29l3.52,1.26,4.49,1.06,3.37.72,4.19.92,3.4,1.35,3.12,1.95,3.66,2.75,3.81,3.18,3.13,2.79,3.14,2.68,2.71,1.9,3.16,1.64,6.55,3.09,8.27,3.61,5.89,2.49,6.14,3.04,6.08,3.56s7.99,5.99,9.9,8.42c1.91,2.43,6.35,8.31,6.35,8.31l3.38,5.02,1.35,3.62,1.07,4.22,1.01,3.79.98,2.32,1.83,2.21,3.19,2.27,2.93,1.82,2.89,2.13,3.14,3.52,2.74,5.15,1.9,6.94.86,5.98-.04,6.5-1.12,6.68-1.97,5.95s-1.91,5.43-3.04,6.98c-1.13,1.54-2.3,4.34-2.3,4.34l-4.26,5.78s-.9,1.36-4.03,4.76c-3.13,3.4-4.15,4.85-11.45,10.69-7.31,5.84-9.11,6.04-9.11,6.04,0,0-1.38.99-6.31,2.81-4.94,1.82-6.07,1.68-6.07,1.68l-6.79.65-5.88.03-4.23.33-3.92.37-3.47.95-4.74,2.79s-1.36.89-3.45,2.52c-2.08,1.64-5.07,2.96-5.07,2.96l-10.71,3.65-10.09,1.94-6.87.44-7.1-.22-5.81-.49-6.71-.91-5.56-.88-3.1-.37-.72,2.54-.35,2.89-.62,1.71s-.86.21-1.92.29c-1.06.08-8.13-2.13-8.13-2.13l-9.94-4.55-4.03-2.27-2.24-1.42-2-2.55-1.82-1.48-1.57-.92-1.19.28-.07,1.46,2.18,4.56,1.1,2.23.17,2.36-.68,1.04-.91.62-3.02-.15-2.83-.86-3.42-2.09-7.47-5.09-6.22-4.1-4.04-3-3.75-2.86-1.82-1.48-1.13-1.08-1.17-1.61-.58-1.33-.48-1.21-2.92-.98-.25,1.23s-.23,1.02-.95,1.77c-.72.75-1.6,2.01-3.58,1.88-1.98-.13-4.89-2.05-4.89-2.05l-4.97-4.06-4.32-4.19-3.11-2.89-2.18-1.94s-.82-1.04-1.76-1.05c-.94,0-2.95,1.01-2.95,1.01,0,0-.6.66-2.01,1.02-1.41.36-3.67-.02-4.73-.78-1.06-.76-3.37-5.12-3.37-5.12l-7.5-11.8-7.28-11.04-4.7-7.17-5.55-8.84-2.98-4.87-4.03-5.73-1.82-3.15-2.26-4.78-2.38-2.06-.61-.96c-1.79-.9-3.25-2.71-3.15-2.65l-2.92-2.64-3.58-5.69-3.42-7.1-5.44-11.18-4.93-12.44-3.3-9.35-2.51-9.07-2.56-8.74-2.4-10.78-1.59-15.59.17-12.95,1.92-10.3,4.77-12.1,6.99-11.55,4.59-8.46,2.72-5.37s1.19-1.46,3.89-3.04l-18.94-8.78,10-9.56,7.63-6.9,8.81-9.66,7.4-10.04,4.74-7.64,5.2-10.13,6.39-14.44,5.56-14.71,3.19-10.68,2.18-10.42,1.09-7.89.6-8.65-.1-7.11-.34-6.08-.84-7.26-1-5.46-2.15-8.64-2.12-7.3h0l-3.6-8.87-4.1-8.49-3.59-6.47-4.71-7.61-7.82-11.48-2.14-10.11-2.68-14.72-4.04-7.02.02-7.03-2.01-6.02-7.48-12.46-2.87-2.16-2.9-2.36c-2.11-1.52-3.23-4.3-3.23-4.3l-2.5-3.63,1.19-1.95-3.32-8.07-1.82-6.44s-.52-1.67-1.06-4.61c-.54-2.94-.56-7.66-.85-10.01-.29-2.35.51-9.55.55-11.25.04-1.7.94-6.03.94-6.03l-1.74.11-1.27.37-.43,1.14s.12,1.04.11,1.39c0,.35-.49,1.57-.49,1.57l-1.46,3.58s-1.73,5.19-2.35,6.43-1.84,3.44-1.84,3.44l-1.83,1.96-1.48.77s-2.43.23-2.94-.24c-.51-.47-.9-1.04-.9-1.04l-1.23-4.01-1-7.01-.84-8.81-.56-9.99-.16-7.8.27-5.48.94-7.58,1.32-7.02,1.26-4.68,1.64-5.31,1.86-4.86,2.51-5.54,3.21-5.95,2.97-4.57,3.93-5.87,4.69-6.01,2.4-8.35.67-6.02,6.69-10.04,5.35-7.36,5.23-6.25,10.62-9.07,7.43-6.85,6.85-22,1.66-27.56-.49-.56-2.98-1.53-3.26-1.74-3.96-1.74-4.44-2.22-2.22-1.18-4.72-3.19-5-3.26-5.28-3.61-6.8-4.72-6.18-4.1-5.55-3.89-4.37-3.12-3.82-2.78-5.28-3.82-7.64-5.9-3.12-2.5-3.96-2.92-6.32-4.93-7.64-6.32-5.97-5.14-5.41-4.93M2008.57,1660.18l.49-1.35.81-5.36c.12-.79.17-1.6.14-2.4l-.21-5.89.75-2.82c.83-1.46,2.4-2.34,4.08-2.28l2.86.62,6.27,3.8,4.43,4.43c2,2,3.84,4.16,5.49,6.45,0,0,2.26,3.4,3.8,9.65,1.05,4.27.9,7.45,1.16,8.85.18.98.32,1.97.28,2.96l-.09,2.41-.25,5.4-.79,6.58-1.33,5.39-1.03,2.23s-1.39,2.88-2.37,5.1c-.98,2.22-3.74,6.22-6.13,8.24s-8.69,5.53-12.95,6.67c-2.13.57-3.63.89-4.89,1.12l-.52-.06.02,398.47h1352.31v-772.75h-1331.44l-.86-.16-4.47,6.63c.52-2.06-5.8,17.93-6.23,18.26l-8.63-.09-.71.81v289.11Z"/>
    <path id="_White_Fill_-4" data-name="&amp;lt;White Fill&amp;gt;" class="cls-3" d="M2008.57,1660.18l.49-1.35.81-5.36c.12-.79.17-1.6.14-2.4l-.21-5.89.75-2.82c.83-1.46,2.4-2.34,4.08-2.28l2.86.62,6.27,3.8,4.43,4.43c2,2,3.84,4.16,5.49,6.45,0,0,2.26,3.4,3.8,9.65,1.05,4.27.9,7.45,1.16,8.85.18.98.32,1.97.28,2.96l-.09,2.41-.25,5.4-.79,6.58-1.33,5.39-1.03,2.23s-1.39,2.88-2.37,5.1c-.98,2.22-3.74,6.22-6.13,8.24s-8.69,5.53-12.95,6.67c-2.13.57-3.63.89-4.89,1.12l-.52-.06.02,398.47h1352.31v-772.75h-1331.44l-.86-.16-4.47,6.63c.52-2.06-5.8,17.93-6.23,18.26l-8.63-.09-.71.81v289.11Z"/>
  </g>
  <g id="_No_Morph_Outline_" data-name="&amp;lt;No Morph Outline&amp;gt;">
    <rect id="Card_Outline" class="cls-4" x="2008.59" y="1345.63" width="1352.31" height="772.75"/>
  </g>
  <g id="_No_Morph_Text_on_Top_" data-name="&amp;lt;No Morph Text on Top&amp;gt;">
    <g id="_Black_Fill_-5" data-name="&amp;lt;Black Fill&amp;gt;">
      <g>
        <g>
          <path class="cls-1" d="M2857.59,1988.94l-3.22-9.02h9.92l1.16.77,4.77,18.93,2.96,15.2.52-3.22,3.86-13.27,4.38-18.42h9.4l4.64,18.16,2.96,14.42,1.55,2.45,3.48-17.39,4.38-17.64h10.43l.26.64-2.83,8.37-10.95,45.21h-10.05l-8.37-36.06h-.39l-7.47,37.09h-9.79l-1.93-12.49-9.53-33.74h-.13Z"/>
          <path class="cls-1" d="M2937.05,2021.4l.52,5.8-.26,9.66h-10.05l.26-18.42v-24.08l-1.03-13.14.26-.26,10.82-.26-.52,10.3v30.39h0Z"/>
          <path class="cls-1" d="M2977.88,2026.93l-.9,9.92h-25.24v-42.5l-1.16-13.14.26-.26,10.82-.26-.52,10.3.39,37.09h7.73l8.63-1.16h0Z"/>
          <path class="cls-1" d="M3008.66,2028.22l-.39,8.63h-25.24l-.26-18.42v-24.08l-1.03-13.14.26-.26,10.82-.26-.52,10.3.26,37.35h7.73l8.37-1.93v1.93h0v-.13Z"/>
          <path class="cls-1" d="M3078.85,1991.39l-11.59-.39v40.18l.64,5.67h-10.3v-45.85l-11.08.39-.39-.26v-10.95h13.14c0,.13,6.18.13,6.18.13l13.14-.26v11.2h.26v.13Z"/>
          <path class="cls-1" d="M3122.38,2031.31l3.61,5.41h-12.75l-10.3-22.28c-1.03-.26-2.58-.52-4.12-.9v8.63l.77,8.24-.39,6.18h-10.05v-17.39l.26-24.08v-15.07h2.19l3.09.39c3.48-.77,7.34,0,10.43,0,10.3,0,16.23,4.64,16.23,16.61s-3.73,12.88-9.27,15.84l5.92,13.27,4.25,5.02h.13v.13ZM3098.94,1990.74v1.16l.52,14.94,3.22-.52h1.29c4.51,0,8.11-1.93,8.11-8.24s-1.8-7.47-7.99-7.73c-1.55,0-3.48,0-5.28.26h0l.13.13Z"/>
          <path class="cls-1" d="M3164.37,2024.23h-17l-4.25,11.46h-9.66l3.73-10.05,13.27-38.77,2.19-7.21h6.83l2.58,7.86,12.88,38.25,3.48,10.05h-10.95l-3.22-11.46h0l.13-.13ZM3150.46,2014.96h10.69l-4.51-15.97h-1.16l-5.02,15.97h0Z"/>
          <path class="cls-1" d="M3195.92,2025.9l-14.55-37.61-2.96-8.24h13.14l.52.39,6.44,24.08,2.45,10.05h1.29l2.58-10.05,6.95-24.47h0l12.88-1.16-2.7,9.4-13.91,37.22-2.45,10.17h-6.7l-3.22-9.79h.26,0Z"/>
          <path class="cls-1" d="M3261.73,2028.22v6.44h-27.3v-55.12h25.37v10.3l-14.17.52-1.03,15.58,12.11-.39h0l.52,5.92-11.98-.26.26,16.87h16.49-.26v.13Z"/>
          <path class="cls-1" d="M3297.28,2027.84v7.86h-25.24v-11.59l.26-24.08-1.16-13.14-.26-7.08,10.82-.26v49.07h7.73l5.8-.26,1.93-.39h0l.13-.13Z"/>
        </g>
        <g>
          <path class="cls-1" d="M2107.63,2030.8v3.35h-8.24l-1.03-13.39-.39-8.63h-17.77v10.05l.77,8.37.26,4.38h-8.5l-.39-16.23.26-26.4-.39-13.27h8.5l-.52,10.3.26,13.39h19.45l-.26-9.92-1.16-13.14.26-.26,9.14-.26-.64,10.82v32.84l.39,7.99h0Z"/>
          <path class="cls-1" d="M2145.76,2021.53h-17l-4.38,13.14h-9.66l3.22-9.02,13.14-40.96,1.29-5.67h9.53l.9,4.51,13.01,42.11,3.48,9.02h-10.95l-2.32-13.14s-.26,0-.26,0ZM2131.2,2013.54h10.69l-4.51-17.39h-1.16l-4.89,17.39h-.13Z"/>
          <path class="cls-1" d="M2175.25,2027.32l-9.92-35.29-3.61-13.14h10.3l.77,3.86,6.44,24.08,1.8,9.4h2.83l1.67-9.4,6.44-24.08.77-3.22h10.56l-3.48,11.85-10.05,35.8-1.29,7.47h-11.98l-1.29-7.47h0v.13Z"/>
          <path class="cls-1" d="M2240.03,2025.52l.52,9.27-27.18-.64.26-17.26v-36.96l.26-.26,10.82-.26,15.97-.52-.77,11.08h-15.58v11.72h11.72l1.55,8.24h-12.88l-.39,16.1h14.04l1.8-.39h0l-.13-.13Z"/>
          <path class="cls-1" d="M2317.05,2003.49c4.12,1.8,6.57,5.41,6.57,11.46,0,9.02-6.44,18.8-16.61,18.8s-6.44-.26-9.79-.64h-7.47v-16.1c.13,0,.26-24.08.26-24.08l-1.16-13.14.26-.26h5.02c3.99-.9,9.27-1.29,11.33-1.29,11.72,0,16.61,4.51,16.61,13.39s-1.93,9.14-4.89,11.85h-.13ZM2299.53,1987.91v13.78h5.15c5.8,0,8.5-3.99,8.5-8.76s-2.32-5.28-8.37-5.28-3.35,0-5.28.26h0ZM2314.6,2016.24c0-3.99-3.48-6.57-8.24-6.57s-4.25.26-6.83.52v13.91c2.06.26,4.38.39,6.18.39,6.7,0,8.89-4.51,8.89-8.37h0v.13Z"/>
          <path class="cls-1" d="M2368.82,2028.48l1.03,3.61h-11.2l-8.76-18.42c-1.03-.26-2.58-.39-4.12-.64l-.52,7.34.77,8.24v3.73c.13,0-10.56.64-10.56.64l.26-15.71v-24.08l-1.03-13.14.26-.26h5.41c3.48-.9,8.11-1.29,11.33-1.29,10.3,0,16.23,4.64,16.23,16.61s-3.73,12.88-9.27,15.84l7.6,11.98,2.7,5.67h0l-.13-.13ZM2346.41,1988.55l-.39,1.55v13.78l2.96.64h1.29c4.51,0,8.11-1.93,8.11-8.24s-1.8-7.47-7.99-7.73c-1.55,0-2.32,0-4.12.13h.13v-.13Z"/>
          <path class="cls-1" d="M2409.39,2023.46h-17l-3.61,8.89h-9.66l3.22-9.02,13.14-37.74,1.55-5.92h9.53l1.16,6.57,12.49,37.09,3.48,9.02h-10.95l-3.09-8.89h-.26ZM2394.32,2014.44h10.69l-3.22-20.86h-1.16l-6.18,20.86h-.13Z"/>
          <path class="cls-1" d="M2441.59,2020.37l.26,7.73.77,5.41h-10.05l.39-18.16v-24.08l-1.03-13.14.26-.26,10.82-.26-1.29,15.58v26.92h0v.26h-.13Z"/>
          <path class="cls-1" d="M2492.08,2025.65v6.7h-8.89l-6.18-15.71-11.08-16.61-.52-1.03h-.77v30.14l.77,4.51h-10.3v-35.55l-2.32-18.67.26-.26h9.92c0-.13,4.38,6.95,4.38,6.95l16.49,21.51h.52v-12.49l-1.55-15.84.26-.26h8.89c0-.13.26,7.86.26,7.86v38.51h0v.26h-.13Z"/>
        </g>
      </g>
      <g>
        <g>
          <path class="cls-1" d="M2353.11,1691.95l-.52.52h-14.04l-8.89-14.55-22.92-31.3-.77-1.55h-1.16v33.49l1.55,13.39-.52.52h-16.61v-48.94l-2.96-35.42.39-.39,15.97-.26,3.99,10.95,28.85,40.7h.9v-20.09l-1.67-30.91.39-.39,18.42-.39-1.55,19.83v51.26l1.55,13.39h-.39v.13Z"/>
          <path class="cls-1" d="M2368.95,1662.97c0-21.12,9.14-32.97,28.33-32.97s26.4,9.66,26.4,30.91-10.17,33.23-28.46,33.23-26.27-9.92-26.27-31.17h0ZM2395.35,1645.45c-4.51,0-7.73.52-10.05,2.45-2.45,2.7-2.96,6.31-2.96,13.01,0,12.11,4.51,17.64,15.33,17.64s8.24-.77,10.82-3.22c2.06-2.83,2.58-6.57,2.45-12.88-.13-11.2-3.61-16.87-15.45-16.87h-.13v-.13Z"/>
          <path class="cls-1" d="M2489.89,1684.22c-6.05,5.41-13.52,8.24-25.24,8.24-19.96,0-27.69-9.92-27.69-31.55s10.05-32.58,29.11-32.58,23.57,8.76,23.57,25.5-.39,7.34-.9,11.46l-.77.39h-37.86c1.29,8.89,6.44,13.39,16.36,13.39s13.65-1.29,16.87-3.86l2.7-1.42,3.99,10.43h-.13ZM2450.35,1654.73l27.05-.64c.26-7.6-3.61-11.2-12.24-11.2s-14.04,3.99-14.94,11.98h.13v-.13Z"/>
          <path class="cls-1" d="M2505.6,1600.89v-.9c.13,0,16.36-.77,16.36-.77h0l-.77,29.62v50.62l.64,12.49-.9.52h-14.04v-58.6c.13,0-1.55-32.97-1.55-32.97h.26Z"/>
          <path class="cls-1" d="M2539.99,1600.89v-.9c.13,0,16.36-.77,16.36-.77h0l-.77,29.62v50.62l.64,12.49-.9.52h-14.04v-58.6c.13,0-1.55-32.97-1.55-32.97h.26Z"/>
          <path class="cls-1" d="M2624.86,1685.89c-6.05,5.41-13.52,8.24-25.24,8.24-19.96,0-27.69-9.92-27.69-31.55s10.05-32.58,29.11-32.58,23.57,8.76,23.57,25.5-.39,7.34-.9,11.46l-.77.39h-37.86c1.29,8.89,6.44,13.39,16.36,13.39s15.58-2.7,18.8-5.28h.77l3.99,10.43h-.13ZM2585.32,1656.4l27.05-.64c.26-7.6-3.61-11.2-12.24-11.2s-14.04,3.99-14.94,11.98h.13v-.13Z"/>
        </g>
        <g>
          <path class="cls-1" d="M2733.82,1670.31c0,14.55-10.43,23.18-26.79,23.18s-10.43-.39-15.84-1.03h-11.98l.26-18.8v-38.77l-1.8-21.25.39-.39h7.99c6.31-1.55,14.94-2.06,18.42-2.06,18.93,0,26.79,7.34,26.79,21.64s-3.09,14.81-7.99,19.06c6.7,2.96,10.56,8.89,10.56,18.55h0v-.13ZM2703.42,1626.26c-2.45,0-5.41,0-8.5.52v18.42c2.96,0,5.8,0,8.63.13,9.4,0,13.52-2.83,13.52-10.43s-3.73-8.5-13.39-8.5h-.26v-.13ZM2719.14,1668.12c0-6.31-3.73-8.89-11.46-8.89s-8.5.39-12.88.9v17.39c3.48.39,6.95.64,9.92.52,10.95,0,14.42-3.73,14.42-9.92h0Z"/>
          <path class="cls-1" d="M2804.27,1691.95l-.9.52h-14.04v-35.68c0-6.44-3.99-8.89-9.14-8.89s-9.92,1.03-15.2,3.22v28.46l.64,12.49-.9.39h-14.04v-59.89l-1.55-23.31v-.9l16.36-.77h0l-.77,21.12v10.05c6.44-4.77,14.17-8.89,22.28-8.89s16.23,6.05,16.23,19.19v30.27l.64,12.49h.39v.13Z"/>
          <path class="cls-1" d="M2874.33,1691.3l-.39,1.03-13.27,1.42-2.19-7.86c-6.57,5.02-15.33,7.99-22.15,7.99-10.69,0-15.97-7.21-15.97-18.42s6.95-18.03,20.48-18.03,10.43.77,15.2,1.55v-5.02c0-5.92-4.12-8.37-11.08-8.37s-13.52,1.29-18.67,2.96l-.9-.39-2.19-13.39c6.05-2.7,16.87-4.64,24.34-4.64,12.36,0,22.54,2.83,22.54,20.99v26.92l4.12,13.14h0l.13.13ZM2842.65,1679.97c4.64,0,9.66-1.67,13.39-4.12v-6.95c-3.48-.52-7.6-1.29-11.98-1.29-6.44,0-8.89,1.55-8.89,5.92s1.55,6.31,7.47,6.31h0v.13Z"/>
          <path class="cls-1" d="M2947.1,1691.3l-.39,1.03-13.27,1.42-2.7-8.11c-4.77,4.77-11.46,8.37-19.19,8.37-15.97,0-24.21-9.14-24.21-29.88s11.59-33.74,27.43-33.74,10.56,1.29,13.91,3.48v-1.03l-2.06-23.31v-.9l16.87-.64-.52,28.72v34.64h0v6.95l4.12,13.14h0v-.13ZM2927.52,1675.33v-.26h.64c.26-.39.52-.52.64-.64v-24.86c-3.99-2.58-9.14-3.48-14.42-3.48-10.05,0-13.27,4.25-13.27,15.45s5.15,17.13,14.81,17.13,8.37-1.29,11.59-3.22h0v-.13Z"/>
          <path class="cls-1" d="M3017.8,1692.08l-.39.39-13.39,1.29-1.55-7.73c-5.41,3.99-11.98,7.73-19.96,7.73s-17.64-2.19-17.64-17.77v-31.04l-2.06-13.01.39-.26,16.36-1.29-.52,19.96v19.58c0,7.34,3.61,9.79,9.92,9.79s7.99-2.06,11.85-4.51v-25.89l-1.55-17.52.39-.26,15.58-1.29-.26,19.71v25.24l2.83,16.74h0v.13Z"/>
          <path class="cls-1" d="M3037.25,1673.4v-24.99l-1.93-15.84v-.9l15.33-1.67.52,12.36c4.64-8.63,12.62-12.75,20.09-13.01l1.42.52-1.16,17.9c-1.03,0-2.58-.26-4.89-.26-5.02,0-11.2,1.67-15.2,6.18v25.76l.77,12.49-.9.52h-14.04v-19.06h0Z"/>
          <path class="cls-1" d="M3094.69,1604.76c5.8,0,9.4,2.96,9.4,9.02s-3.48,9.53-9.4,9.53-9.4-3.73-9.4-9.53,3.61-9.02,9.4-9.02ZM3102.42,1679.46l.64,12.49-.9.52h-14.04v-46.24l-2.06-14.17.39-.39,16.87-1.16-1.03,18.55v30.39h.13Z"/>
        </g>
      </g>
      <g>
        <path class="cls-1" d="M2575.66,1779.91h-2.58c-1.03-4.25-2.45-9.02-3.86-11.59-2.83-4.89-4.89-3.99-10.69-3.99-11.2,0-14.68,9.66-14.68,28.21s.52,13.27,2.45,18.42c2.32,6.05,5.41,10.43,11.98,10.43s5.41-.39,8.76-1.8c1.29-.52,1.93-1.8,1.93-3.09v-13.52c0-3.86-1.03-8.76-6.7-9.14v-2.96c4.89.52,7.6.52,11.33.52s1.55.26,6.44-.13v2.96c-5.41.52-4.64,4.77-4.64,8.89l-.39,13.01c0,1.29-1.8,3.99-2.96,4.64-3.86,2.19-7.99,3.48-14.94,3.48-16.36,0-26.4-11.98-26.4-31.55s10.05-34.26,26.14-34.26,8.76,2.58,13.65,6.83l3.22-5.28h1.8v19.83h.13v.13Z"/>
        <path class="cls-1" d="M2630.27,1820.87h-40.57v-2.96c6.7-.39,5.67-1.03,6.57-6.44v-42.37c-1.03-5.15,0-5.8-6.57-6.05v-2.96h40.05v16.87h-4.12c-2.45-9.4-1.03-13.65-7.99-13.65h-10.43v24.47h.9c8.5-.9,8.5-3.99,9.02-8.24h2.7l-.39,18.67h-2.7c-.26-5.02-1.03-7.6-8.63-7.21h-.64v21.77c-.52,3.99,0,4.25,4.64,4.25h4.64c5.15,0,6.7,0,9.27-3.99.52-2.58,1.55-5.8,1.29-9.02h2.58l.52,17.13h0v-.26h-.13Z"/>
        <path class="cls-1" d="M2676.63,1819.84c-.39-.64-1.03-2.58-1.29-4.89-2.45-3.48-1.93-4.89-3.86-7.6l-24.21-37.74v42.37c.77,4.51,2.06,5.15,5.02,6.31v2.96c-4.38-.26-6.7-.39-9.4-.39s-5.02,0-9.27.39v-2.96c6.7-.39,7.6-1.03,7.6-6.31v-46.11c-2.19-2.19-4.25-2.96-7.73-3.22v-2.96c3.48.13,5.54.26,8.5.26s4.64,0,7.86-.26l26.27,35.8,1.42-26.53c0-4.77-.77-3.86-5.02-3.73v-5.41c4.38.26,6.57.39,9.4.39s3.61,0,7.86-.26l.64,4.51c-6.7.26-6.95-.64-6.95,4.51l-2.45,50.87h-4.51.13Z"/>
        <path class="cls-1" d="M2726.22,1823.06c-5.8-.52-6.7-.64-10.69-.64s-6.95.13-12.88.64v-2.96c6.83-.39,7.6-1.03,7.6-5.15v-43.02c0-6.44-.9-7.21-7.6-7.47v-5.02c5.8.52,8.76.64,12.88.64s6.95-.13,12.75-.64v5.02c-6.7.26-9.53,1.55-10.43,5.92v46.24c2.45,3.35,1.93,1.93,8.76,2.32l-.39,3.99h0v.13Z"/>
        <path class="cls-1" d="M2771.55,1760.21c5.41.39,9.14.52,11.98-.13h3.48l-.26,6.05s-3.61.26-2.96,4.51v31.17c0,8.24,0,9.92-1.93,13.27-3.73,5.15-6.44,9.4-14.17,9.4s-12.88-2.32-16.87-6.7c-3.22-3.48-4.51-7.6-4.51-14.3v-31.94c0-5.15-.9-6.05-7.6-6.31v-5.28c5.8.52,7.6.52,11.72.52s6.18,0,10.82-.77v7.34c-5.67.52-7.99-.52-7.99,4.77l.77,30.14c0,5.15,4.25,14.17,13.01,13.27,6.18-.64,10.43-3.99,9.92-11.46v-30.78c-.52-3.35-.52-7.08-5.41-7.47v-5.15h0v-.13Z"/>
        <path class="cls-1" d="M2797.83,1803.22c.77,4.51,1.55,6.95,3.35,9.92,2.58,4.25,7.6,6.95,12.62,6.95s11.98-5.02,11.98-10.95-1.67-6.57-4.51-8.63c-1.93-1.55-2.96-2.06-8.5-5.15-7.47-3.99-10.43-5.8-12.49-7.99-2.83-2.83-4.25-6.44-4.25-10.69,0-9.53,7.6-15.97,18.67-15.97s7.47,0,11.33,3.48l-.26-4.12h4.77v18.03l-4.89-2.32c-.39-5.41-.9-11.08-9.66-11.98-6.31-.64-10.82,4.38-10.82,10.17s1.67,6.18,9.27,10.17c6.05,3.22,9.79,5.28,11.98,6.7,6.05,3.99,8.5,7.99,8.5,14.42,0,10.56-7.73,17.9-18.93,17.9s-10.56-1.67-15.58-5.67l-3.48,6.44h-1.8v-21.12h2.7v.39h0Z"/>
      </g>
    </g>
  </g>
</svg>