<?xml version="1.0" encoding="UTF-8"?>
<svg id="Layer_3" data-name="Layer 3" xmlns="http://www.w3.org/2000/svg" viewBox="0 0 1713.38 1142.26">
  <defs>
    <style>
      .cls-1 {
        font-size: 69.25px;
      }

      .cls-1, .cls-2, .cls-3, .cls-4 {
        font-family: KCAcmeHandInked, 'KC Acme Hand';
        isolation: isolate;
      }

      .cls-2 {
        font-size: 105.11px;
      }

      .cls-3 {
        font-size: 49.09px;
      }

      .cls-5 {
        fill: #fff;
        stroke-width: 2px;
      }

      .cls-5, .cls-6 {
        stroke: #000;
        stroke-miterlimit: 10;
      }

      .cls-4 {
        font-size: 73.58px;
      }
    </style>
  </defs>
  <g id="Shadow_Group_" data-name="Shadow &amp;lt;Group&amp;gt;">
    <polygon points="800.21 614.67 967.5 703.07 953.24 745.84 793.56 721.13 800.21 614.67"/>
    <polygon points="790.7 751.54 894.31 769.6 877.2 812.37 787.14 807.62 790.7 751.54"/>
    <polygon points="810.66 514.87 907.61 572.85 917.12 524.37 816.37 435.03 810.66 514.87"/>
    <polygon points="836.33 383.7 784.21 904.25 776.29 903.94 818.27 367.86 836.33 383.7"/>
    <polygon points="415.71 506.4 766.01 499.18 766.04 515.1 420.94 516.04 415.71 506.4"/>
    <polygon points="428.61 783 768.65 783 769.24 797.4 435.96 793.29 428.61 783"/>
    <polygon points="490.32 638.87 767.71 638.28 767.12 650.63 494.43 651.8 490.32 638.87"/>
  </g>
  <g id="Sign_Group_" data-name="Sign &amp;lt;Group&amp;gt;">
    <path class="cls-5" d="M769.78,903.59l-3.77-404.41-8.32,3.87c-113.93-.9-227.58,4.39-341.36,3.35l-51.93-107.86,2.79-2.82,395.09-3.77c.17,5.93-.25,11.95,0,17.9.1,2.32-1.43,6.98,1.88,6.56v-47.96c12.61-8.04,21.8-15.01,33.52-22.93l20.12,23.29-53.64-.35,53.64.35-21.72,290.25,1.85-16.93,125.74-1.86c.37,2.09-.24,3.77-.86,5.71-1.66,5.22-18.93,46.88-20.69,48.86s-4.3,1.83-6.58,1.87l3.73,5.61-102.41,2.05-4.53-3.91-11.28,203.13h-11.26ZM794.18,697.92v.03l99.5-2.04v.59l-99.5,1.42Z"/>
    <path class="cls-5" d="M766.62,681.96v103.46c-110.36,4.72-221.58-.64-332.13,3.6l-72.85-104.06,404.98-3Z"/>
    <polygon class="cls-5" points="765.63 543.36 765.63 641.92 492.26 642.01 453.87 549.9 765.63 543.36"/>
  </g>
  <text class="cls-3" transform="translate(829.3 687.22) scale(1.1 1)"><tspan x="0" y="0">IN</tspan></text>
  <g id="_404_Group_" data-name="404 &amp;lt;Group&amp;gt;">
    <text class="cls-2" transform="translate(487.67 485.94)"><tspan x="0" y="0">404</tspan></text>
    <g>
      <path class="cls-6" d="M690.47,457.97c3.61.21,7.08.31,10.48-1.1,6.76-2.8,20.83-39.51,28.57-46.76-4.14-2.71-15.1-11.23-18.66-4.93-8.6,15.24-13.34,36.54-20.39,52.78Z"/>
      <path class="cls-6" d="M680.36,488.78l10.88,2.27c8.19-1.66,13.81-19.26,7.25-23.2-17.75-5.46-20.43,8.98-18.13,20.93Z"/>
    </g>
  </g>
  <g id="Work_Group_" data-name="Work &amp;lt;Group&amp;gt;">
    <text class="cls-4" transform="translate(523 618.32)"><tspan x="0" y="0">WORK </tspan></text>
    <g>
      <path class="cls-6" d="M728.87,598.79c2.51.17,4.91.25,7.27-.9,4.69-2.29,14.45-32.38,19.82-38.31-2.87-2.22-10.48-9.2-12.94-4.04-5.97,12.49-9.25,29.94-14.14,43.25Z"/>
      <path class="cls-6" d="M721.87,624.04l7.55,1.86c5.68-1.36,9.58-15.78,5.03-19.01-12.31-4.48-14.17,7.36-12.58,17.15Z"/>
    </g>
  </g>
  <g id="Progress_Group_" data-name="Progress &amp;lt;Group&amp;gt;">
    <text class="cls-1" transform="translate(427.14 760.78)"><tspan x="0" y="0">PROGRESS </tspan></text>
    <g>
      <path class="cls-6" d="M737.2,741.27c2.31.16,4.52.23,6.69-.83,4.32-2.11,13.3-29.8,18.24-35.27-2.65-2.04-9.64-8.47-11.92-3.71-5.49,11.5-8.52,27.56-13.02,39.81Z"/>
      <path class="cls-6" d="M730.75,764.51l6.95,1.71c5.23-1.26,8.82-14.53,4.63-17.5-11.33-4.12-13.04,6.78-11.58,15.79Z"/>
    </g>
  </g>
</svg>