<?xml version="1.0" encoding="UTF-8"?>
<svg id="Layer_3" xmlns="http://www.w3.org/2000/svg" version="1.1" viewBox="0 0 997.2 919.1">
  <!-- Generator: Adobe Illustrator 29.3.1, SVG Export Plug-In . SVG Version: 2.1.0 Build 151)  -->
  <defs>
    <style>
      .st0 {
        font-size: 120.9px;
      }

      .st0, .st1, .st2, .st3, .st4 {
        isolation: isolate;
      }

      .st0, .st1, .st2, .st4 {
        font-family: KCAcmeHandInked, 'KC Acme Hand';
      }

      .st1 {
        fill: #dc2626;
        font-size: 172.7px;
      }

      .st2 {
        font-size: 113.8px;
      }

      .st5 {
        fill: #fff;
        stroke-width: 2px;
      }

      .st5, .st6 {
        stroke: #000;
        stroke-miterlimit: 10;
      }

      .st4 {
        font-size: 80.7px;
      }
    </style>
  </defs>
  <g id="Shadow_Group_">
    <polygon points="722.4 443.4 997.2 588.7 973.7 658.9 711.4 618.3 722.4 443.4"/>
    <polygon points="706.7 668.3 876.9 697.9 848.8 768.2 700.9 760.4 706.7 668.3"/>
    <polygon points="739.5 279.5 898.8 374.7 914.4 295.1 748.9 148.4 739.5 279.5"/>
    <polygon points="781.7 64 696.1 919.1 683.1 918.6 752 38 781.7 64"/>
    <polygon points="90.8 265.6 666.2 253.7 666.2 279.9 99.3 281.4 90.8 265.6"/>
    <polygon points="111.9 720 670.5 720 671.5 743.6 124 736.9 111.9 720"/>
    <polygon points="213.3 483.2 669 482.2 668 502.5 220.1 504.4 213.3 483.2"/>
  </g>
  <g id="Sign_Group_">
    <path class="st5" d="M672.4,918.1l-6.2-664.3-13.7,6.4c-187.2-1.5-373.8,7.2-560.7,5.5L6.5,88.4l4.6-4.6,649-6.2c.3,9.7-.4,19.6,0,29.4.2,3.8-2.3,11.5,3.1,10.8V39c20.7-13.2,35.8-24.7,55.1-37.7l33,38.2-88.1-.6,88.1.6-35.7,476.8,3-27.8,206.6-3.1c.6,3.4-.4,6.2-1.4,9.4-2.7,8.6-31.1,77-34,80.3-2.8,3.1-7.1,3-10.8,3.1l6.1,9.2-168.2,3.4-7.4-6.4-18.5,333.7h-18.5ZM712.4,580.2h0s163.5-3.3,163.5-3.3v1l-163.5,2.3h0Z"/>
    <path class="st5" d="M667.2,554v170c-181.3,7.8-364-1-545.6,5.9L1.9,558.9l665.3-4.9h0Z"/>
    <polygon class="st5" points="665.6 326.3 665.6 488.2 216.5 488.4 153.4 337.1 665.6 326.3"/>
  </g>
  <g class="st3">
    <text class="st4" transform="translate(770.1 562.6) scale(1.1 1)"><tspan x="0" y="0">IN</tspan></text>
  </g>
  <g id="_404_Group_">
    <g class="st3">
      <text class="st1" transform="translate(209 232)"><tspan x="0" y="0">404</tspan></text>
    </g>
    <g>
      <path class="st6" d="M542.1,186c5.9.4,11.6.5,17.2-1.8,11.1-4.6,34.2-64.9,46.9-76.8-6.8-4.5-24.8-18.4-30.7-8.1-14.1,25-21.9,60-33.5,86.7Z"/>
      <path class="st6" d="M525.5,236.6l17.9,3.7c13.5-2.7,22.7-31.6,11.9-38.1-29.2-9-33.6,14.8-29.8,34.4h0Z"/>
    </g>
  </g>
  <g id="Work_Group_">
    <g class="st3">
      <text class="st0" transform="translate(267 449.4)"><tspan x="0" y="0">WORK</tspan></text>
    </g>
    <g>
      <path class="st6" d="M605.2,417.4c4.1.3,8.1.4,11.9-1.5,7.7-3.8,23.7-53.2,32.5-62.9-4.7-3.7-17.2-15.1-21.3-6.6-9.8,20.5-15.2,49.2-23.2,71Z"/>
      <path class="st6" d="M593.7,458.8l12.4,3c9.3-2.2,15.7-25.9,8.3-31.2-20.2-7.3-23.3,12.1-20.7,28.2h0Z"/>
    </g>
  </g>
  <g id="Progress_Group_">
    <g class="st3">
      <text class="st2" transform="translate(109.5 683.5)"><tspan x="0" y="0">PROGRESS</tspan></text>
    </g>
    <g>
      <path class="st6" d="M618.9,651.4c3.8.3,7.4.4,11-1.4,7.1-3.5,21.8-49,30-57.9-4.3-3.4-15.8-13.9-19.6-6.1-9,18.9-14,45.3-21.4,65.4h0Z"/>
      <path class="st6" d="M608.3,689.6l11.4,2.8c8.6-2.1,14.5-23.9,7.6-28.8-18.6-6.8-21.4,11.1-19,25.9h0Z"/>
    </g>
  </g>
</svg>