<?xml version="1.0" encoding="UTF-8"?>
<svg id="Layer_3" data-name="Layer 3" xmlns="http://www.w3.org/2000/svg" viewBox="0 0 1713.38 1142.26">
  <defs>
    <style>
      .cls-1 {
        font-size: 120.87px;
      }

      .cls-1, .cls-2, .cls-3, .cls-4 {
        font-family: KCAcmeHandInked, 'KC Acme Hand';
        isolation: isolate;
      }

      .cls-2 {
        font-size: 113.76px;
      }

      .cls-5 {
        fill: #fff;
        stroke-width: 2px;
      }

      .cls-5, .cls-6 {
        stroke: #000;
        stroke-miterlimit: 10;
      }

      .cls-3 {
        font-size: 172.67px;
        fill: #dc2626;
      }

      .cls-4 {
        font-size: 80.65px;
      }
    </style>
  </defs>
  <g id="Shadow_Group_" data-name="Shadow &amp;lt;Group&amp;gt;">
    <polygon points="898.21 631.83 1173.01 777.04 1149.59 847.3 887.28 806.7 898.21 631.83"/>
    <polygon points="882.6 856.67 1052.79 886.33 1024.68 956.59 876.75 948.79 882.6 856.67"/>
    <polygon points="915.39 467.89 1074.65 563.13 1090.26 483.5 924.76 336.74 915.39 467.89"/>
    <polygon points="957.55 252.42 871.93 1107.53 858.92 1107.01 927.88 226.4 957.55 252.42"/>
    <polygon points="266.61 453.99 842.03 442.13 842.08 468.27 275.19 469.82 266.61 453.99"/>
    <polygon points="287.79 908.35 846.38 908.35 847.35 932.01 299.86 925.25 287.79 908.35"/>
    <polygon points="389.16 671.59 844.83 670.62 843.87 690.9 395.92 692.83 389.16 671.59"/>
  </g>
  <g id="Sign_Group_" data-name="Sign &amp;lt;Group&amp;gt;">
    <path class="cls-5" d="M848.23,1106.44l-6.2-664.31-13.66,6.36c-187.16-1.47-373.84,7.21-560.74,5.5l-85.3-177.18,4.59-4.63,649.01-6.19c.27,9.74-.42,19.63-.02,29.4.16,3.8-2.34,11.47,3.08,10.78v-78.79c20.72-13.21,35.81-24.66,55.07-37.67l33.05,38.25-88.12-.58,88.12.58-35.68,476.78,3.04-27.81,206.55-3.06c.61,3.43-.39,6.19-1.41,9.37-2.73,8.58-31.1,77.01-33.99,80.27-2.75,3.09-7.06,3-10.82,3.07l6.13,9.22-168.23,3.37-7.44-6.43-18.53,333.69h-18.5ZM888.3,768.59v.04l163.45-3.36v.97l-163.45,2.34Z"/>
    <path class="cls-5" d="M843.03,742.38v169.96c-181.29,7.76-363.99-1.05-545.59,5.92l-119.67-170.94,665.26-4.93Z"/>
    <polygon class="cls-5" points="841.41 514.7 841.41 676.6 392.35 676.74 329.29 525.44 841.41 514.7"/>
  </g>
  <text class="cls-4" transform="translate(946 751.01) scale(1.1 1)"><tspan x="0" y="0">IN</tspan></text>
  <g id="_404_Group_" data-name="404 &amp;lt;Group&amp;gt;">
    <text class="cls-3" transform="translate(384.82 420.37)" fill="#dc2626"><tspan x="0" y="0" fill="#dc2626">404</tspan></text>
    <g>
      <path class="cls-6" d="M717.94,374.42c5.93.35,11.64.5,17.21-1.81,11.1-4.6,34.22-64.9,46.93-76.81-6.81-4.45-24.81-18.44-30.65-8.09-14.13,25.04-21.91,60.03-33.49,86.71Z"/>
      <path class="cls-6" d="M701.35,425.03l17.87,3.73c13.45-2.73,22.69-31.64,11.91-38.11-29.15-8.97-33.56,14.76-29.79,34.39Z"/>
    </g>
  </g>
  <g id="Work_Group_" data-name="Work &amp;lt;Group&amp;gt;">
    <text class="cls-1" transform="translate(442.84 637.83)"><tspan x="0" y="0">WORK </tspan></text>
    <g>
      <path class="cls-6" d="M781.03,605.75c4.12.28,8.07.41,11.94-1.48,7.7-3.77,23.74-53.18,32.55-62.94-4.72-3.65-17.21-15.11-21.26-6.63-9.8,20.51-15.2,49.18-23.23,71.05Z"/>
      <path class="cls-6" d="M769.52,647.22l12.4,3.05c9.33-2.24,15.74-25.93,8.26-31.23-20.22-7.35-23.28,12.09-20.66,28.18Z"/>
    </g>
  </g>
  <g id="Progress_Group_" data-name="Progress &amp;lt;Group&amp;gt;">
    <text class="cls-2" transform="translate(285.38 871.84)"><tspan x="0" y="0">PROGRESS </tspan></text>
    <g>
      <path class="cls-6" d="M794.71,839.8c3.79.26,7.43.38,10.99-1.36,7.09-3.47,21.85-48.95,29.97-57.93-4.35-3.36-15.84-13.91-19.57-6.1-9.02,18.88-13.99,45.27-21.38,65.4Z"/>
      <path class="cls-6" d="M784.11,877.97l11.41,2.81c8.59-2.06,14.49-23.87,7.61-28.75-18.61-6.77-21.43,11.13-19.02,25.94Z"/>
    </g>
  </g>
</svg>