<?xml version="1.0" encoding="UTF-8"?>
<svg xmlns="http://www.w3.org/2000/svg" viewBox="0 0 512 512">
  <!-- White circle background -->
  <circle cx="256" cy="256" r="256" fill="#ffffff"/>

  <!-- Avatar shadow icon centered and scaled -->
  <g transform="translate(36, 36) scale(1.5)">
    <circle cx="146.38" cy="146.38" r="145.88" fill="#020202" stroke="#020202" stroke-miterlimit="10"/>
    <path fill="#fff" stroke="#fff" stroke-miterlimit="10" d="M233.94,255.57c-9.8-54.7-18.06-99.43-26.36-132.93l-.1-.2c15.9-43.7,3.9-86-29.4-116.9l-6.86,31.15.05.21c-8.2-9.8-26.59-29.15-31.09-31.65l-.1-.2-.9,5c-2.2,19.6-1.5,37.1-.9,57,.3,3.8,1.95,23.04,2.25,26.64-17.17,3.38-28.4,11.02-36.95,33.96l-55,18.9-3.3,1.2h0s-25.6,8.8-25.6,8.8c2.9,9.8,6.3,15.2,12.9,20.1l2.6,1.8c4.62,3.3,11.2,6.01,16.46,7.58,0,0,2.26,3.45,5.52,5.94,1.35,1.03,10.34,6.95,31.41,14.88,16.4,5.5,31.6-4.3,31.6-4.3,1,4.9-23.59,70.62-23.11,74.66,73.66,29.7,136.87-21.62,136.87-21.62Z"/>
  </g>
</svg>
